<svg width="111" height="148" viewBox="0 0 111 148" fill="none" xmlns="http://www.w3.org/2000/svg">
<mask id="mask0_1568_1730" style="mask-type:alpha" maskUnits="userSpaceOnUse" x="0" y="54" width="111" height="95">
<path d="M110.062 109C110.062 139.376 85.4372 148 55.0615 148C24.6859 148 -1.43847 146.5 0.0615665 109C0.0615665 78.6244 24.6859 54.0001 55.0615 54.0001C85.4372 54.0001 110.062 78.6244 110.062 109Z" fill="#D9D9D9"/>
</mask>
<g mask="url(#mask0_1568_1730)">
<path d="M53.7979 143.977C72.6241 143.977 87.8858 128.715 87.8858 109.889C87.8858 91.0627 72.6241 75.801 53.7979 75.801C34.9716 75.801 19.71 91.0627 19.71 109.889C19.71 128.715 34.9716 143.977 53.7979 143.977Z" fill="#FF773B"/>
<path d="M54.4284 117.815V103.576M54.4284 117.815L48.3262 111.712M54.4284 117.815L60.5305 111.712" stroke="white" stroke-width="2" stroke-linecap="round" stroke-linejoin="round"/>
<path d="M16.0193 127.89L14.0588 127.662C14.264 126.879 14.4235 125.356 14.0484 124.172C13.7603 123.262 13.175 122.428 11.8881 122.836C10.807 123.178 10.7908 124.26 10.8453 125.564C10.9201 127.41 10.751 129.2 8.55458 129.896C6.4611 130.559 4.68033 129.349 3.96824 127.101C3.46271 125.505 3.70965 123.84 4.33644 122.66L6.0797 123.335C5.6245 124.461 5.45387 125.591 5.75284 126.535C5.99745 127.307 6.61158 128.114 7.67547 127.777C8.73937 127.44 8.75013 126.341 8.73711 124.929C8.74008 123.21 8.88747 121.351 11.1011 120.649C13.3661 119.932 15.0954 121.159 15.8782 123.63C16.4109 125.312 16.2635 127.171 16.0193 127.89Z" fill="#FF773B"/>
<path d="M4.39186 112.557L4.25586 110.419L11.7827 109.941L13.2825 109.701L13.3991 111.533L12.3472 111.726L12.3518 111.798C13.2888 112.352 13.7637 113.296 13.8288 114.319C13.9546 116.295 12.9755 117.35 10.8558 117.485L4.73014 117.874L4.59414 115.737L10.3246 115.372C11.4204 115.302 12.2162 115.053 12.1396 113.85C12.0779 112.88 11.1642 112.126 10.302 112.181L4.39186 112.557Z" fill="#FF773B"/>
<path d="M12.6087 107.555L11.1975 106.691C11.6646 106.164 12.3124 105.192 12.4575 104.286C12.577 103.539 12.3361 102.881 11.5362 102.753C10.7364 102.625 10.3795 103.26 9.99687 104.056C9.41587 105.294 8.75603 106.683 6.90757 106.387C5.0591 106.091 4.32626 104.406 4.60226 102.682C4.81566 101.349 5.53382 100.279 6.37921 99.6667L7.46118 100.879C6.76652 101.461 6.27377 102.147 6.15426 102.894C6.05183 103.534 6.27501 104.189 6.98596 104.303C7.80354 104.434 8.15411 103.724 8.53667 102.929C9.15317 101.697 9.89907 100.34 11.7298 100.633C13.5783 100.929 14.3545 102.457 14.0358 104.447C13.7911 105.976 13.0381 107.149 12.6087 107.555Z" fill="#FF773B"/>
<path d="M14.7683 94.6832C15.0174 94.0268 15.0223 93.3548 14.7793 92.4732L16.413 92.2269C16.7024 93.0877 16.7503 94.2803 16.2776 95.5256C15.3386 97.9994 13.2306 98.8357 10.3698 97.7498C6.9873 96.4659 6.64143 93.928 7.31853 92.1441C7.73373 91.0503 8.63119 90.0047 10.0925 89.6545L10.6568 91.3127C9.95225 91.5458 9.21745 91.96 8.93001 92.7173C8.50203 93.8448 9.12735 94.9871 11.0458 95.7153C12.7959 96.3796 14.1998 96.1809 14.7683 94.6832Z" fill="#FF773B"/>
<path d="M14.6098 85.3947L19.4304 88.4139L18.2934 90.2292L11.8558 86.1972L10.5342 85.5606L11.4705 84.0656L12.6988 84.5801C12.0394 83.6998 12.0347 82.6562 12.5124 81.8934C12.7991 81.4358 13.1734 81.0755 13.5819 80.8641L14.922 82.1495C14.5287 82.3704 14.1869 82.6448 13.9385 83.0415C13.4226 83.8652 13.7441 84.81 14.6098 85.3947Z" fill="#FF773B"/>
<path d="M23.7127 82.5467L22.3271 84.1803L15.4222 78.3239L16.8077 76.6904L23.7127 82.5467ZM13.3291 76.7846C12.8211 76.3538 12.7353 75.6202 13.2127 75.0574C13.69 74.4945 14.4279 74.4594 14.9358 74.8902C15.4574 75.3327 15.5041 76.0568 15.0384 76.6059C14.5494 77.1824 13.8507 77.2271 13.3291 76.7846Z" fill="#FF773B"/>
<path d="M24.9801 80.077L17.4355 70.7377L19.1017 69.3917L21.5789 72.4581C21.6769 71.7773 22.098 71.0669 22.7561 70.5353C24.4923 69.1327 26.5152 69.4885 28.2798 71.6728C30.4855 74.4032 30.3672 76.7201 28.2529 78.4281C27.2728 79.2199 25.8397 79.938 24.9801 80.077ZM22.9363 74.1383L25.9451 77.8628C26.3242 77.7879 26.8994 77.5547 27.3615 77.1814C28.3416 76.3896 28.3582 75.1498 26.8085 73.2316C25.9262 72.1394 24.6083 71.0521 23.3061 72.1041C22.662 72.6244 22.4272 73.5082 22.9363 74.1383Z" fill="#FF773B"/>
<path d="M35.6431 73.1151L33.7629 74.1412L29.4257 66.1936L31.306 65.1675L35.6431 73.1151ZM28.0261 64.0045C27.7071 63.4199 27.8908 62.7045 28.5386 62.351C29.1864 61.9974 29.8875 62.23 30.2066 62.8146C30.5342 63.4151 30.3174 64.1075 29.6854 64.4524C29.0218 64.8146 28.3538 64.605 28.0261 64.0045Z" fill="#FF773B"/>
<path d="M38.3633 65.6544L40.3089 70.9993L38.2961 71.732L35.6978 64.5942L35.0469 63.2796L36.7045 62.6762L37.3569 63.8371C37.3781 62.7375 38.016 61.9115 38.8617 61.6036C39.3692 61.4189 39.8859 61.3649 40.338 61.4494L40.6047 63.287C40.1587 63.2195 39.7204 63.2258 39.2806 63.3859C38.3673 63.7183 38.04 64.6611 38.3633 65.6544Z" fill="#FF773B"/>
<path d="M46.5942 68.8223L44.4595 68.9985L43.8439 61.5358L43.5537 59.9884L45.3296 59.8419L45.6022 60.9573C46.1202 60.0115 46.9578 59.4367 48.088 59.3434C49.2181 59.2502 50.1147 59.6097 50.6999 60.5729C51.1611 59.5956 52.0704 59.0149 53.2006 58.9217C55.0125 58.7722 56.1402 59.7448 56.3149 61.8616L56.8195 67.9788L54.6848 68.1549L54.2156 62.4682C54.1283 61.4098 53.8749 60.5277 52.691 60.6253C51.7043 60.7067 51.1445 61.5837 51.2215 62.5165L51.7069 68.4006L49.5721 68.5767L49.103 62.89C49.0231 61.9213 48.8161 60.945 47.5783 61.0471C46.5737 61.13 46.0348 62.0414 46.1148 63.0101L46.5942 68.8223Z" fill="#FF773B"/>
<path d="M65.8998 60.0761C67.6237 60.45 68.506 61.5623 68.1664 63.1279C67.5788 65.8369 64.1426 65.4599 62.5205 65.1265C62.3428 66.2852 62.7533 67.5346 64.2485 67.8589C65.2864 68.084 66.1458 67.7731 66.6329 67.5656L66.9823 69.0965C66.6474 69.2817 65.3262 69.7687 63.6726 69.4101C60.7701 68.7805 59.9784 66.6564 60.5507 64.0178C61.1116 61.4319 63.1029 59.4694 65.8998 60.0761ZM66.2827 62.8114C66.4239 62.1605 66.0856 61.682 65.4524 61.5446C64.0451 61.2394 63.079 62.4665 62.7439 63.7568C63.69 63.9804 65.9889 64.1659 66.2827 62.8114Z" fill="#FF773B"/>
<path d="M84.6101 68.9248L80.8909 74.8148L80.1053 76.3624L78.5376 75.3725L78.9405 74.4986L78.8892 74.445C77.9849 74.8319 76.9973 74.6766 76.1602 74.1481C74.0142 72.793 74.1381 70.7425 75.5124 68.566C77.2038 65.8874 79.6195 65.0285 82.2373 66.6814C82.7396 66.9986 83.7737 67.8219 84.6101 68.9248ZM79.7004 72.7219L82.1895 68.78C82.0285 68.5293 81.6447 68.1593 81.1729 67.8614C79.727 66.9484 78.3847 67.9954 77.3468 69.6392C76.5491 70.9024 76.0943 72.297 77.3728 73.1043C78.3164 73.7001 79.2872 73.3764 79.7004 72.7219Z" fill="#FF773B"/>
<path d="M90.9278 69.1248L92.4814 70.5995L85.9135 77.5187C85.1452 78.3281 85.0299 78.7895 85.5652 79.2976C85.8263 79.5454 86.2002 79.7266 86.5859 79.8694L85.934 81.236C85.3708 81.1233 84.57 80.6858 84.0087 80.153C82.2462 78.48 83.1208 77.3496 84.0502 76.3704L90.9278 69.1248Z" fill="#FF773B"/>
<path d="M90.2607 85.9644L100.844 80.2946L101.855 82.1827L98.3804 84.0443C99.0309 84.2676 99.6507 84.8138 100.05 85.5595C101.104 87.527 100.377 89.448 97.9017 90.7741C94.8078 92.4317 92.5536 91.8832 91.27 89.4874C90.675 88.3767 90.2369 86.8348 90.2607 85.9644ZM96.4764 85.0644L92.2559 87.3255C92.2588 87.712 92.3806 88.3206 92.6611 88.8442C93.2562 89.9548 94.4711 90.2024 96.6448 89.0378C97.8824 88.3748 99.1967 87.2828 98.4059 85.8072C98.0149 85.0774 97.1904 84.6819 96.4764 85.0644Z" fill="#FF773B"/>
<path d="M106.459 92.0806L107.082 94.1299L97.9555 96.9059C96.8878 97.2306 96.5598 97.575 96.7745 98.281C96.8793 98.6255 97.1151 98.9677 97.38 99.2822L96.1385 100.149C95.7044 99.773 95.2238 98.9973 94.9986 98.2567C94.2915 95.9319 95.6101 95.3804 96.9017 94.9875L106.459 92.0806Z" fill="#FF773B"/>
<path d="M97.9927 104.803C98.1204 106.11 99.4648 106.54 101.328 106.358C103.334 106.162 104.525 105.575 104.392 104.214C104.264 102.906 102.988 102.434 101.268 102.602C99.6018 102.765 97.837 103.208 97.9927 104.803ZM100.806 100.459C104.532 100.095 105.799 102.322 105.979 104.167C106.108 105.493 105.948 108.113 101.828 108.515C98.3881 108.851 96.6332 107.178 96.4022 104.813C96.1677 102.413 97.5632 100.775 100.806 100.459Z" fill="#FF773B"/>
<path d="M92.0088 114.266C92.3029 112.29 93.362 111.41 94.8397 111.63C96.2462 111.839 97.1187 112.824 97.7147 114.078C98.1509 112.614 99.4379 111.423 101.967 111.799C104.993 112.249 106.223 114.38 105.852 116.872C105.701 117.887 105.281 119.244 104.679 120.228L97.8959 119.219C97.2727 119.126 96.2579 118.975 95.6249 118.826C93.0396 118.223 91.6352 116.776 92.0088 114.266ZM100.17 117.391L103.891 117.945C104.094 117.557 104.234 117.105 104.308 116.606C104.528 115.128 103.467 114.188 101.794 113.939C100.458 113.74 98.9336 113.713 98.6792 115.422C98.5388 116.366 99.0839 117.23 100.17 117.391ZM94.8891 113.621C94.0524 113.496 93.6399 113.945 93.5313 114.675C93.3246 116.063 94.5944 116.58 96.4282 116.853L97.5854 117.025C96.9075 114.977 96.0464 113.793 94.8891 113.621Z" fill="#FF773B"/>
</g>
<path d="M90.6624 1.64312C83.2415 0.556277 58.3263 16.1431 58.3264 41.4013M58.3264 41.4013L51.5837 29.327M58.3264 41.4013L69.7085 30.6444" stroke="#FF773B" stroke-width="2"/>
</svg>
