<svg width="111" height="94" viewBox="0 0 111 94" fill="none" xmlns="http://www.w3.org/2000/svg">
<mask id="mask0_1196_1493" style="mask-type:alpha" maskUnits="userSpaceOnUse" x="0" y="0" width="111" height="94">
<path d="M111 55C111 85.3757 86.3757 94 56 94C25.6244 94 -0.5 92.5 1.00004 55C1.00004 24.6243 25.6244 0 56 0C86.3757 0 111 24.6243 111 55Z" fill="#D9D9D9"/>
</mask>
<g mask="url(#mask0_1196_1493)">
<circle cx="54.7364" cy="55.8888" r="34.0879" fill="#FF773B"/>
<path d="M55.3671 63.8145L55.3671 49.5761M55.3671 63.8145L49.2649 57.7123M55.3671 63.8145L61.4692 57.7123" stroke="white" stroke-width="2" stroke-linecap="round" stroke-linejoin="round"/>
<path d="M16.9576 73.8901L14.9971 73.6615C15.2023 72.879 15.3618 71.3557 14.9867 70.1717C14.6986 69.2623 14.1133 68.428 12.8264 68.8357C11.7453 69.1782 11.7291 70.2596 11.7836 71.564C11.8584 73.4096 11.6893 75.2003 9.49288 75.896C7.3994 76.5592 5.61863 75.3485 4.90654 73.1005C4.40101 71.5047 4.64795 69.8404 5.27474 68.66L7.018 69.3351C6.5628 70.4611 6.39217 71.5914 6.69114 72.5352C6.93575 73.3074 7.54988 74.1136 8.61377 73.7766C9.67767 73.4395 9.68843 72.341 9.67541 70.929C9.67838 69.2099 9.82577 67.3505 12.0394 66.6493C14.3044 65.9318 16.0337 67.1589 16.8165 69.6298C17.3492 71.3115 17.2018 73.1708 16.9576 73.8901Z" fill="#FF773B"/>
<path d="M5.3304 58.5569L5.1944 56.4193L12.7212 55.9404L14.221 55.7007L14.3376 57.533L13.2857 57.7262L13.2903 57.798C14.2273 58.3516 14.7022 59.2954 14.7673 60.3193C14.8931 62.2953 13.914 63.3496 11.7943 63.4845L5.66868 63.8742L5.53268 61.7365L11.2631 61.3719C12.3589 61.3022 13.1547 61.0532 13.0781 59.8496C13.0164 58.8796 12.1027 58.1261 11.2405 58.1809L5.3304 58.5569Z" fill="#FF773B"/>
<path d="M13.5471 53.5546L12.1359 52.6907C12.603 52.1639 13.2508 51.1921 13.3959 50.2856C13.5154 49.5391 13.2745 48.8808 12.4746 48.7527C11.6748 48.6247 11.3179 49.2602 10.9353 50.0558C10.3543 51.2935 9.69446 52.6826 7.846 52.3867C5.99753 52.0908 5.26469 50.4058 5.54069 48.6817C5.75409 47.3487 6.47225 46.2788 7.31764 45.6667L8.39961 46.879C7.70495 47.4605 7.2122 48.1472 7.09269 48.8937C6.99026 49.5336 7.21344 50.1891 7.92439 50.3029C8.74197 50.4338 9.09254 49.7243 9.4751 48.9288C10.0916 47.6967 10.8375 46.3396 12.6682 46.6327C14.5167 46.9286 15.2929 48.4565 14.9742 50.4471C14.7295 51.9757 13.9765 53.1494 13.5471 53.5546Z" fill="#FF773B"/>
<path d="M15.7063 40.6831C15.9554 40.0267 15.9603 39.3547 15.7173 38.4731L17.351 38.2268C17.6404 39.0876 17.6883 40.2802 17.2156 41.5255C16.2766 43.9993 14.1686 44.8356 11.3078 43.7497C7.92525 42.4658 7.57938 39.9279 8.25648 38.144C8.67168 37.0502 9.56914 36.0046 11.0305 35.6544L11.5948 37.3126C10.8902 37.5457 10.1554 37.9599 9.86796 38.7172C9.43998 39.8447 10.0653 40.987 11.9838 41.7152C13.7339 42.3795 15.1378 42.1808 15.7063 40.6831Z" fill="#FF773B"/>
<path d="M15.548 31.3946L20.3686 34.4138L19.2316 36.2291L12.794 32.1971L11.4724 31.5605L12.4087 30.0655L13.637 30.58C12.9776 29.6997 12.9729 28.6561 13.4506 27.8933C13.7373 27.4357 14.1116 27.0754 14.5201 26.864L15.8602 28.1494C15.4669 28.3703 15.1251 28.6447 14.8767 29.0414C14.3608 29.8651 14.6823 30.8099 15.548 31.3946Z" fill="#FF773B"/>
<path d="M24.6511 28.5466L23.2655 30.1802L16.3606 24.3238L17.7461 22.6903L24.6511 28.5466ZM14.2675 22.7845C13.7595 22.3537 13.6737 21.6201 14.1511 21.0573C14.6284 20.4944 15.3663 20.4593 15.8742 20.8901C16.3958 21.3326 16.4425 22.0567 15.9768 22.6058C15.4878 23.1823 14.7891 23.227 14.2675 22.7845Z" fill="#FF773B"/>
<path d="M25.9182 26.0769L18.3736 16.7376L20.0398 15.3916L22.517 18.458C22.615 17.7772 23.0361 17.0668 23.6942 16.5352C25.4304 15.1326 27.4533 15.4884 29.2179 17.6727C31.4236 20.4031 31.3053 22.72 29.191 24.428C28.2109 25.2198 26.7778 25.9379 25.9182 26.0769ZM23.8744 20.1382L26.8832 23.8627C27.2623 23.7878 27.8375 23.5546 28.2996 23.1813C29.2797 22.3895 29.2963 21.1497 27.7466 19.2315C26.8643 18.1393 25.5464 17.052 24.2442 18.104C23.6001 18.6243 23.3653 19.5081 23.8744 20.1382Z" fill="#FF773B"/>
<path d="M36.581 19.115L34.7008 20.1411L30.3636 12.1935L32.2439 11.1674L36.581 19.115ZM28.964 10.0044C28.645 9.41982 28.8287 8.70438 29.4765 8.35086C30.1243 7.99734 30.8254 8.22992 31.1445 8.81453C31.4721 9.41495 31.2553 10.1074 30.6233 10.4523C29.9597 10.8145 29.2917 10.6049 28.964 10.0044Z" fill="#FF773B"/>
<path d="M39.3019 11.6543L41.2475 16.9992L39.2347 17.7319L36.6364 10.5941L35.9855 9.27949L37.6431 8.6761L38.2955 9.83695C38.3167 8.73739 38.9546 7.91135 39.8003 7.6035C40.3078 7.41879 40.8245 7.36479 41.2766 7.44922L41.5433 9.28685C41.0973 9.21934 40.659 9.22564 40.2192 9.38572C39.3059 9.7182 38.9786 10.661 39.3019 11.6543Z" fill="#FF773B"/>
<path d="M47.5329 14.8222L45.3982 14.9984L44.7826 7.5357L44.4924 5.98832L46.2683 5.84181L46.5409 6.95718C47.0589 6.01139 47.8965 5.43658 49.0267 5.34335C50.1568 5.25011 51.0534 5.60962 51.6386 6.57277C52.0998 5.59554 53.0091 5.01481 54.1393 4.92158C55.9512 4.77211 57.0789 5.74468 57.2536 7.86149L57.7582 13.9787L55.6235 14.1548L55.1543 8.46813C55.067 7.40973 54.8136 6.52757 53.6297 6.62525C52.643 6.70664 52.0832 7.58363 52.1602 8.51646L52.6456 14.4005L50.5108 14.5766L50.0417 8.8899C49.9618 7.92119 49.7548 6.9449 48.517 7.04702C47.5124 7.12989 46.9735 8.04128 47.0535 9.00999L47.5329 14.8222Z" fill="#FF773B"/>
<path d="M66.8384 6.07605C68.5623 6.44997 69.4446 7.56226 69.105 9.12786C68.5174 11.8369 65.0812 11.4599 63.4591 11.1265C63.2814 12.2852 63.6919 13.5346 65.1871 13.8589C66.225 14.084 67.0844 13.7731 67.5715 13.5656L67.9209 15.0965C67.586 15.2817 66.2648 15.7687 64.6112 15.4101C61.7087 14.7805 60.917 12.6564 61.4893 10.0178C62.0502 7.43188 64.0415 5.46938 66.8384 6.07605ZM67.2213 8.81137C67.3625 8.1605 67.0242 7.68193 66.391 7.54457C64.9837 7.23933 64.0176 8.46643 63.6825 9.75672C64.6286 9.98035 66.9275 10.1659 67.2213 8.81137Z" fill="#FF773B"/>
<path d="M85.5487 14.9247L81.8295 20.8147L81.0439 22.3623L79.4762 21.3724L79.8791 20.4985L79.8278 20.4449C78.9235 20.8318 77.9359 20.6765 77.0988 20.148C74.9528 18.7929 75.0767 16.7424 76.451 14.5659C78.1424 11.8873 80.5581 11.0284 83.1759 12.6813C83.6782 12.9985 84.7123 13.8218 85.5487 14.9247ZM80.639 18.7218L83.1281 14.7799C82.9671 14.5292 82.5833 14.1592 82.1115 13.8613C80.6656 12.9483 79.3233 13.9953 78.2854 15.6391C77.4877 16.9023 77.0329 18.2969 78.3114 19.1042C79.255 19.7 80.2258 19.3763 80.639 18.7218Z" fill="#FF773B"/>
<path d="M91.8664 15.1247L93.42 16.5994L86.8521 23.5186C86.0838 24.328 85.9685 24.7894 86.5038 25.2975C86.7649 25.5453 87.1388 25.7265 87.5245 25.8693L86.8726 27.2359C86.3094 27.1232 85.5086 26.6857 84.9473 26.1529C83.1848 24.4799 84.0594 23.3495 84.9888 22.3703L91.8664 15.1247Z" fill="#FF773B"/>
<path d="M91.199 31.9643L101.782 26.2945L102.793 28.1826L99.3187 30.0442C99.9692 30.2675 100.589 30.8137 100.988 31.5594C102.042 33.5269 101.315 35.4479 98.84 36.774C95.7461 38.4316 93.4919 37.8831 92.2083 35.4873C91.6133 34.3766 91.1752 32.8347 91.199 31.9643ZM97.4147 31.0643L93.1942 33.3254C93.1971 33.7119 93.3189 34.3205 93.5994 34.8441C94.1945 35.9547 95.4094 36.2023 97.5831 35.0377C98.8207 34.3747 100.135 33.2827 99.3442 31.8071C98.9532 31.0773 98.1287 30.6818 97.4147 31.0643Z" fill="#FF773B"/>
<path d="M107.398 38.0805L108.021 40.1298L98.894 42.9058C97.8263 43.2305 97.4983 43.5749 97.713 44.2809C97.8178 44.6254 98.0536 44.9676 98.3185 45.2821L97.077 46.1488C96.6429 45.7729 96.1623 44.9972 95.9371 44.2566C95.23 41.9318 96.5486 41.3803 97.8402 40.9874L107.398 38.0805Z" fill="#FF773B"/>
<path d="M98.9309 50.8026C99.0586 52.1103 100.403 52.5397 102.266 52.3578C104.272 52.1618 105.463 51.5753 105.33 50.2138C105.202 48.906 103.926 48.4338 102.206 48.6017C100.54 48.7645 98.7752 49.2082 98.9309 50.8026ZM101.744 46.4586C105.47 46.0946 106.737 48.3221 106.917 50.1673C107.046 51.493 106.886 54.1129 102.766 54.5154C99.3263 54.8513 97.5714 53.178 97.3404 50.8132C97.1059 48.4126 98.5014 46.7752 101.744 46.4586Z" fill="#FF773B"/>
<path d="M92.9469 60.2658C93.241 58.2896 94.3001 57.4099 95.7778 57.6298C97.1843 57.8391 98.0568 58.8243 98.6528 60.0777C99.089 58.614 100.376 57.4225 102.905 57.7988C105.931 58.2492 107.161 60.3795 106.79 62.872C106.639 63.8868 106.219 65.2438 105.617 66.2279L98.834 65.2184C98.2108 65.1256 97.196 64.9746 96.563 64.8258C93.9777 64.2226 92.5733 62.7761 92.9469 60.2658ZM101.108 63.3912L104.829 63.945C105.032 63.5567 105.172 63.1044 105.246 62.6059C105.466 61.1282 104.405 60.1877 102.732 59.9386C101.396 59.7399 99.8717 59.7132 99.6173 61.4223C99.4769 62.3659 100.022 63.2296 101.108 63.3912ZM95.8272 59.6208C94.9905 59.4962 94.578 59.9444 94.4694 60.6744C94.2627 62.0631 95.5325 62.5796 97.3663 62.8525L98.5235 63.0248C97.8456 60.9767 96.9845 59.793 95.8272 59.6208Z" fill="#FF773B"/>
</g>
</svg>
