<svg xmlns="http://www.w3.org/2000/svg" width="63" height="63" viewBox="0 0 63 63" fill="none">
  <path d="M59.8789 22.3723L28.2805 53.9708C27.5422 54.7086 26.541 55.1231 25.4972 55.1231C24.4533 55.1231 23.4522 54.7086 22.7139 53.9708L5.08863 36.252C4.35151 35.5138 3.9375 34.5132 3.9375 33.4699C3.9375 32.4267 4.35151 31.4261 5.08863 30.6878L10.0105 25.766C10.7484 25.0311 11.7475 24.6185 12.7889 24.6185C13.8303 24.6185 14.8294 25.0311 15.5673 25.766L25.5956 35.4916L49.4076 11.9724C50.1457 11.2368 51.1452 10.8237 52.1873 10.8237C53.2293 10.8237 54.2289 11.2368 54.9669 11.9724L59.8765 16.7811C60.2457 17.147 60.5388 17.5823 60.7389 18.062C60.939 18.5418 61.0422 19.0564 61.0424 19.5762C61.0426 20.096 60.9399 20.6107 60.7403 21.0906C60.5406 21.5705 60.2478 22.0061 59.8789 22.3723Z" fill="#FF773B"/>
</svg>