<svg width="114" height="114" viewBox="0 0 114 114" fill="none" xmlns="http://www.w3.org/2000/svg">
<g id="Capa_1" clip-path="url(#clip0_2536_3097)">
<g id="Group">
<path id="Vector" d="M57.0027 1.54865C26.4262 1.54865 1.54883 26.4248 1.54883 57C1.54883 87.5752 26.4262 112.451 57.0027 112.451C87.5793 112.451 112.457 87.5752 112.457 57C112.457 26.4248 87.5793 1.54865 57.0027 1.54865ZM57.0027 100.155C33.2095 100.155 13.8455 80.7973 13.8455 56.9949C13.8455 33.1924 33.2043 13.8448 57.0027 13.8448C80.8011 13.8448 100.16 33.2027 100.16 57C100.16 80.7973 80.8011 100.16 57.0027 100.16V100.155Z" fill="#FF773B"/>
<path id="Vector_2" d="M57.0026 114C25.5691 114 0 88.4269 0 57C0 25.5731 25.5691 0 57.0026 0C88.4361 0 114.005 25.5679 114.005 57C114.005 88.4321 88.4361 114 57.0026 114ZM57.0026 3.09727C27.2778 3.09727 3.09741 27.2766 3.09741 57C3.09741 86.7234 27.2778 110.903 57.0026 110.903C86.7273 110.903 110.908 86.7234 110.908 57C110.908 27.2766 86.7222 3.09727 57.0026 3.09727ZM57.0026 101.704C32.3524 101.704 12.2967 81.6491 12.2967 56.9948C12.2967 32.3406 32.3524 12.2961 57.0026 12.2961C81.6528 12.2961 101.708 32.3509 101.708 57C101.708 81.6491 81.6528 101.709 57.0026 101.709V101.704ZM57.0026 15.3934C34.0611 15.3934 15.3941 34.0596 15.3941 57C15.3941 79.9404 34.0611 98.6118 57.0026 98.6118C79.944 98.6118 98.6111 79.9456 98.6111 57C98.6111 34.0544 79.944 15.3934 57.0026 15.3934Z" fill="#505DD5"/>
</g>
<g id="Group_2">
<path id="Vector_3" d="M64.6954 67.2003L78.3136 72.1921C81.4317 73.2555 84.8285 71.5984 85.8919 68.4753C86.9606 65.3523 85.2983 61.9608 82.1751 60.8974L68.562 55.9108C68.118 53.7065 67.0442 51.6056 65.3355 49.8969C63.9468 48.5083 62.3 47.5482 60.55 46.9958L57.752 35.8973C57.0241 32.6813 53.8286 30.6629 50.6125 31.3908C49.4716 31.6489 48.4804 32.2167 47.7113 32.991C46.3123 34.3899 45.636 36.4548 46.1058 38.5299L48.9038 49.6388C48.8108 49.7266 48.7076 49.804 48.6147 49.8969C43.9995 54.5118 43.9995 62.0021 48.6147 66.617C53.2298 71.2319 60.0441 71.2113 64.6902 67.2003H64.6954Z" fill="#FF773B"/>
<path id="Vector_4" d="M80.2491 74.0659C79.4283 74.0659 78.6074 73.9317 77.8073 73.6581L64.9789 68.9606C59.7236 72.8941 52.2279 72.4192 47.525 67.7165C42.4246 62.6164 42.3162 54.3931 47.1894 49.1536L44.6083 38.912C44.0249 36.3464 44.7838 33.7344 46.6216 31.8967C47.6282 30.8901 48.893 30.1932 50.2765 29.8834C54.3186 28.9697 58.3556 31.5198 59.2693 35.5618L61.8556 45.8137C63.5799 46.4848 65.1234 47.4862 66.4398 48.8077C68.0969 50.4648 69.2739 52.5038 69.8831 54.7493L82.7115 59.452C84.5803 60.0869 86.1135 61.4394 86.9963 63.241C87.879 65.0426 88.0081 67.0816 87.3576 68.9864C86.7072 70.8861 85.3546 72.4192 83.553 73.3071C82.505 73.8181 81.3848 74.0763 80.2491 74.0763V74.0659ZM64.6898 65.6517C64.8704 65.6517 65.0511 65.6827 65.2215 65.7446L78.8397 70.7364C79.9238 71.108 81.1215 71.0306 82.1849 70.5144C83.2432 69.993 84.0382 69.0948 84.4202 67.9746C84.8023 66.8545 84.7248 65.6569 84.2086 64.5935C83.6872 63.5352 82.7889 62.7403 81.6739 62.3583L68.0298 57.3613C67.5239 57.1755 67.1522 56.7419 67.0438 56.2154C66.6411 54.2331 65.6758 52.4264 64.2406 50.9913C63.0688 49.8195 61.6698 48.9729 60.0798 48.467C59.5687 48.307 59.1764 47.8889 59.0473 47.3675L56.2493 36.269C55.7021 33.8531 53.3326 32.3561 50.9528 32.893C50.1371 33.0788 49.3937 33.4866 48.8052 34.0751C47.7211 35.1591 47.2772 36.6923 47.6179 38.1789L50.4056 49.2517C50.5449 49.7989 50.3746 50.377 49.9616 50.7642C49.91 50.8158 49.8532 50.8623 49.8016 50.9087C49.7706 50.9345 49.7396 50.9603 49.7138 50.9861C45.7078 54.9919 45.7078 61.5117 49.7138 65.5175C53.4978 69.3013 59.6307 69.5233 63.6779 66.0234C63.9619 65.7756 64.3232 65.6465 64.6898 65.6465V65.6517Z" fill="#505DD5"/>
</g>
</g>
<defs>
<clipPath id="clip0_2536_3097">
<rect width="114" height="114" fill="white"/>
</clipPath>
</defs>
</svg>
