<svg width="42" height="39" viewBox="0 0 42 39" fill="none" xmlns="http://www.w3.org/2000/svg">
<path d="M39.4657 3.67621C36.9522 0.0597216 32.0765 -0.748858 28.1248 1.09158C24.5072 2.77699 22.3978 5.87678 20.8789 9.2821C18.9512 7.10784 16.1705 5.6689 13.1144 5.4297C9.05289 5.11293 4.63334 6.9908 2.46186 10.4444C0.42932 13.6767 0.366108 17.4984 1.46419 21.0312C2.74603 25.1582 5.94015 28.3748 9.33394 30.9879C13.9867 34.5706 19.5004 37.0429 25.2959 38.2908C25.7879 38.3954 26.2794 38.2618 26.6883 37.9895C27.0764 37.9605 27.4502 37.8263 27.7417 37.5556C31.1476 34.4223 33.8573 30.7288 36.1379 26.7625C38.3612 22.897 40.1874 18.7068 41.1894 14.3834C42.019 10.8098 41.5921 6.73562 39.4657 3.67621ZM36.9769 14.1086C36.0989 17.6506 34.5465 21.0985 32.785 24.3058C30.831 27.8632 28.3959 31.3241 25.4004 34.1419C21.4468 33.2317 17.6301 31.5979 14.2578 29.413C11.2352 27.4568 7.88856 24.7944 6.29716 21.7598C5.04036 19.3657 4.49319 16.9107 5.19678 14.338C5.20948 14.3053 5.27867 14.0935 5.29668 14.0457C5.3602 13.8823 5.4165 13.7198 5.48515 13.5581C5.57422 13.3483 5.80019 12.884 5.81802 12.853C5.832 12.8297 6.13541 12.3764 6.26629 12.2038C6.46189 11.9485 6.79872 11.5788 6.83339 11.5455C7.85014 10.5902 8.97743 10.0153 10.3527 9.67811C13.8905 8.81097 18.2853 10.8401 19.1537 14.4494C19.367 15.3326 19.9665 16.0655 20.9436 16.1875C21.8138 16.2977 22.8693 15.7897 23.1629 14.94C24.3377 11.5267 25.5596 7.63068 28.7176 5.43141C31.2112 3.69648 34.4693 3.69145 36.16 6.19565C37.6345 8.38869 37.6171 11.5207 36.9769 14.1086Z" fill="#62C6F9"/>
</svg>
