<svg width="374" height="137" viewBox="0 0 374 137" fill="none" xmlns="http://www.w3.org/2000/svg">
<path fill-rule="evenodd" clip-rule="evenodd" d="M358.164 65.875C366.632 65.6444 372.802 72.0614 373.488 80.1516C374.35 90.2887 367.032 98.0927 360.549 105.006L360.371 105.196C350.867 115.327 341.241 125.384 331.454 135.251C328.399 138.331 324.243 133.605 326.895 130.467C327.003 130.34 327.112 130.213 327.221 130.085C327.33 129.958 327.438 129.831 327.546 129.704C327.538 129.694 327.53 129.685 327.521 129.676C327.498 129.649 327.476 129.624 327.456 129.594C315.611 113.459 300.387 91.1077 310.082 70.4674C313.459 63.2866 320.705 57.3144 329.173 59.4329C336.824 61.3479 340.681 67.5593 342.775 74.4177C346.663 69.7288 351.557 66.0542 358.164 65.875Z" fill="#FF773B"/>
<path fill-rule="evenodd" clip-rule="evenodd" d="M15.3938 65.875C6.92515 65.6444 0.755167 72.0614 0.0696884 80.1516C-0.792441 90.2887 6.52577 98.0927 13.0089 105.006L13.187 105.196C22.6901 115.327 32.3163 125.384 42.1032 135.251C45.1588 138.331 49.3142 133.605 46.6622 130.467C46.5545 130.34 46.4457 130.213 46.3369 130.085C46.2281 129.958 46.1193 129.831 46.0116 129.704C46.0198 129.694 46.028 129.685 46.0362 129.676C46.0593 129.649 46.0819 129.624 46.1013 129.594C57.9464 113.459 73.1707 91.1077 63.4752 70.4674C60.0981 63.2866 52.853 57.3144 44.3849 59.4329C36.7334 61.3479 32.8764 67.5593 30.7824 74.4177C26.8951 69.7288 22.0011 66.0542 15.3938 65.875Z" fill="#FF773B"/>
<path d="M235.338 29.2466C229.237 16.9606 214.854 12.3921 202.171 16.4357C190.561 20.1393 182.922 28.8696 176.939 38.7974C172.014 31.2351 164.212 25.5948 155.086 23.5619C142.958 20.8637 128.849 24.826 120.877 34.6281C113.415 43.802 111.655 55.637 113.518 67.0655C115.693 80.416 124.012 91.7484 133.182 101.292C145.754 114.376 161.38 124.378 178.359 130.698C179.801 131.231 181.339 131.024 182.685 130.351C183.868 130.425 185.052 130.166 186.042 129.449C197.608 121.162 207.303 110.843 215.815 99.4955C224.113 88.4366 231.345 76.2024 236.145 63.2067C240.116 52.4657 240.5 39.6401 235.338 29.2466ZM223.543 60.5751C219.439 71.1978 213.338 81.2439 206.704 90.4547C199.346 100.671 190.576 110.384 180.378 117.865C168.819 113.371 157.971 106.688 148.69 98.4828C140.37 91.1348 131.363 81.4583 127.806 71.3678C124.996 63.4063 124.352 55.5557 127.532 47.8677C127.584 47.7716 127.88 47.1433 127.954 47.0028C128.213 46.5223 128.449 46.0418 128.723 45.5687C129.078 44.9552 129.95 43.6098 130.017 43.5211C130.069 43.4545 131.171 42.1757 131.637 41.6952C132.332 40.9855 133.5 39.9802 133.618 39.8915C137.079 37.3559 140.718 36.0475 145.007 35.5818C156.04 34.3842 168.472 42.5379 169.611 54.1068C169.892 56.9381 171.4 59.4662 174.299 60.2572C176.88 60.9669 180.274 59.8359 181.509 57.3225C186.457 47.2246 191.744 35.6483 202.179 30.1558C210.417 25.8239 220.252 27.1841 224.327 35.6705C227.877 43.0997 226.538 52.8132 223.543 60.5751Z" fill="#FF773B"/>
<path d="M161.069 35.099L173.703 52.901L204.138 23.0396C208.541 23.4224 219.988 26.3703 230.554 35.099C243.762 46.01 224.237 61.5148 222.515 79.891C221.136 94.592 194.759 114.346 181.742 122.386C181.359 121.62 172.899 115.954 142.119 99.4158C103.643 78.7425 124.317 44.2871 132.93 35.099C136.146 32.802 153.029 34.1419 161.069 35.099Z" fill="#FF773B"/>
<path d="M312.255 24.8379C311.584 18.9295 306.308 14.8448 300.432 14.5003C295.053 14.1856 290.56 16.5182 286.573 19.5921C285.676 15.7731 283.293 12.2814 279.814 10.0391C275.19 7.06052 268.734 6.46079 263.941 9.17401C259.455 11.7132 256.931 16.2147 255.973 21.1167C254.852 26.8427 256.587 32.712 258.946 37.9919C262.181 45.2306 267.149 51.7014 273.238 56.8976C273.755 57.337 274.425 57.4932 275.086 57.4315C275.565 57.6457 276.096 57.7256 276.615 57.5907C282.671 56.049 288.257 53.3955 293.509 50.1429C298.628 46.9733 303.483 43.1634 307.443 38.6672C310.719 34.9518 312.822 29.8362 312.255 24.8379ZM302.613 35.6418C299.3 39.2887 295.246 42.3919 291.098 45.0751C286.497 48.051 281.385 50.604 276.02 52.0337C271.904 48.419 268.415 44.032 265.807 39.2747C263.468 35.0133 261.197 29.7051 261.25 25.0791C261.29 21.4285 262.212 18.1604 264.697 15.5536C264.733 15.5229 264.951 15.3154 265.003 15.2703C265.183 15.1167 265.354 14.9597 265.539 14.8114C265.779 14.6191 266.345 14.2122 266.387 14.1868C266.418 14.168 267.069 13.8236 267.335 13.7023C267.731 13.5243 268.368 13.3007 268.431 13.2833C270.251 12.7994 271.959 12.8384 273.81 13.3188C278.57 14.5548 282.493 19.7821 281.213 24.6279C280.9 25.8141 281.143 27.0694 282.226 27.8402C283.19 28.5288 284.77 28.6013 285.663 27.7795C289.246 24.4757 293.194 20.6283 298.357 20.0378C302.432 19.5735 306.307 21.6549 306.712 25.7143C307.059 29.2653 305.032 32.9763 302.613 35.6418Z" fill="#FF773B"/>
<path d="M89.169 26.8406C86.5574 24.3717 82.5279 24.5402 79.6788 26.6702C77.0708 28.6205 75.9036 31.4488 75.2591 34.4224C73.3562 33.0077 70.8948 32.3227 68.4138 32.642C65.1168 33.0673 61.9003 35.3053 60.7426 38.4265C59.659 41.3477 60.2467 44.4109 61.7138 47.0493C63.4269 50.1316 66.5154 52.1675 69.6625 53.6879C73.9773 55.7725 78.7942 56.8265 83.6317 56.8554C84.0422 56.8567 84.4125 56.6679 84.6936 56.3821C84.9987 56.2941 85.2749 56.1245 85.4625 55.8596C87.6597 52.7881 89.2072 49.3854 90.3665 45.8365C91.4967 42.3776 92.2556 38.7257 92.334 35.1051C92.3998 32.1122 91.3784 28.9292 89.169 26.8406ZM88.9233 35.5891C88.8135 38.5649 88.1494 41.5782 87.2781 44.4342C86.3114 47.602 84.9443 50.773 83.0223 53.524C79.7124 53.4572 76.3909 52.7896 73.3324 51.6076C70.5914 50.5499 67.4737 48.9822 65.6958 46.8242C64.2921 45.1217 63.4451 43.2522 63.5774 41.0798C63.5821 41.0516 63.602 40.8708 63.6084 40.8297C63.6318 40.6885 63.6497 40.5493 63.6775 40.4086C63.7136 40.2262 63.8165 39.8177 63.8256 39.7899C63.8329 39.7689 63.9995 39.3562 64.0752 39.1964C64.1888 38.9599 64.3961 38.6083 64.4183 38.5759C65.0708 37.6431 65.8753 36.9956 66.9174 36.4967C69.5984 35.2132 73.4477 36.1 74.744 38.8379C75.0619 39.5077 75.6632 39.993 76.464 39.9272C77.1774 39.87 77.9357 39.2879 78.0283 38.5602C78.3966 35.6376 78.7219 32.3216 80.8771 30.0376C82.5791 28.2354 85.1807 27.6872 86.9494 29.4051C88.4933 30.9105 89.0025 33.4151 88.9233 35.5891Z" fill="#FF773B"/>
</svg>
