<svg width="169" height="111" viewBox="0 0 169 111" fill="none" xmlns="http://www.w3.org/2000/svg">
<g id="Capa_1" clip-path="url(#clip0_2536_3091)">
<g id="Group">
<path id="Vector" d="M162.062 40.2958L147.517 37.0391C145.334 36.5487 143.536 35.019 142.704 32.9455L131.888 5.90044C130.858 3.33131 128.366 1.64166 125.597 1.64166H8.41923C4.67873 1.64166 1.64258 4.67451 1.64258 8.41093V81.3165C1.64258 85.0529 4.67339 88.0857 8.41923 88.0857L31.6519 87.7873C31.6092 87.4035 31.5079 87.057 31.5079 86.6626C31.5079 81.2152 36.4596 76.4501 41.9129 76.4501C47.3663 76.4501 52.2113 81.4817 52.2113 86.9291C52.2113 87.3235 52.1846 87.7073 52.1366 88.0911H111.125C111.083 87.7073 111.051 87.3235 111.051 86.9291C111.051 81.4817 116.024 76.6793 121.477 76.6793C126.931 76.6793 131.776 81.4817 131.776 86.9291C131.776 87.3235 131.749 87.7073 131.701 88.0911H160.584C164.325 88.0911 167.361 85.0582 167.361 81.3218V46.8998C167.361 43.7337 165.163 40.9887 162.068 40.2958H162.062ZM100.955 39.3523V10.9268H122.72C124.657 10.9268 126.402 12.1047 127.128 13.901L137.352 39.3523H100.955Z" fill="#FF773B"/>
<path id="Vector_2" d="M160.579 89.7274H131.696C131.226 89.7274 130.778 89.5249 130.469 89.1731C130.159 88.8213 130.01 88.3523 130.063 87.8885C130.106 87.5314 130.127 87.2116 130.127 86.9185C130.127 82.4145 126.002 78.3156 121.478 78.3156C116.953 78.3156 112.7 82.4145 112.7 86.9185C112.7 87.2116 112.721 87.5261 112.764 87.8885C112.817 88.3523 112.673 88.8213 112.358 89.1731C112.044 89.5249 111.601 89.7274 111.131 89.7274H52.1316C51.6621 89.7274 51.2139 89.5249 50.9044 89.1784C50.5896 88.8267 50.4455 88.3629 50.4988 87.8939C50.5415 87.5314 50.5629 87.217 50.5629 86.9238C50.5629 82.3026 46.4382 78.0918 41.9133 78.0918C37.3884 78.0918 33.1517 82.1746 33.1517 86.6626C33.1517 86.7692 33.1784 86.9238 33.2104 87.0997C33.2371 87.2649 33.2691 87.4302 33.2851 87.5954C33.3384 88.0591 33.1944 88.5228 32.8849 88.8693C32.5754 89.2211 32.1379 89.4236 31.6683 89.429L8.4356 89.7274C3.77199 89.7274 -0.00585938 85.9537 -0.00585938 81.3165V8.41095C-0.000523432 3.77373 3.77732 0 8.41959 0H125.597C129.06 0 132.133 2.07875 133.419 5.29282L144.235 32.3379C144.865 33.9103 146.226 35.0669 147.88 35.44L162.426 38.6968C166.299 39.5656 169.005 42.9395 169.005 46.9052V81.3218C169.005 85.959 165.227 89.7328 160.585 89.7328L160.579 89.7274ZM133.409 86.4388H160.579C163.407 86.4388 165.707 84.1415 165.707 81.3165V46.8998C165.707 44.4853 164.058 42.4279 161.7 41.9002L147.154 38.6435C144.443 38.0358 142.208 36.133 141.173 33.5532L130.357 6.50809C129.572 4.55193 127.705 3.28336 125.592 3.28336H8.41959C5.59154 3.28336 3.29175 5.58065 3.29175 8.40562V81.3165C3.29175 84.1415 5.59154 86.4388 8.41959 86.4388L29.8701 86.1616C30.1529 80.0533 35.6596 74.8031 41.908 74.8031C48.1564 74.8031 53.5723 80.1865 53.8391 86.4441H109.413C109.69 80.3144 115.208 75.0376 121.472 75.0376C127.737 75.0376 133.131 80.3144 133.403 86.4441L133.409 86.4388ZM137.352 40.994H100.956C100.048 40.994 99.312 40.2585 99.312 39.3524V10.9268C99.312 10.0206 100.048 9.28509 100.956 9.28509H122.721C125.346 9.28509 127.678 10.8575 128.654 13.2934L138.878 38.7447C139.081 39.2511 139.022 39.8267 138.713 40.2798C138.409 40.7329 137.896 41.0047 137.352 41.0047V40.994ZM102.604 37.7054H134.919L125.597 14.5086C125.122 13.3253 123.991 12.5631 122.721 12.5631H102.604V37.7V37.7054Z" fill="#505DD5"/>
</g>
<path id="Vector_3" d="M121.473 62.8476C108.159 62.8476 97.3701 73.6251 97.3701 86.9238C97.3701 100.222 108.159 111 121.473 111C134.786 111 145.575 100.222 145.575 86.9238C145.575 73.6251 134.786 62.8476 121.473 62.8476ZM121.473 95.5106C116.724 95.5106 112.876 91.6676 112.876 86.9238C112.876 82.18 116.724 78.337 121.473 78.337C126.222 78.337 130.069 82.18 130.069 86.9238C130.069 91.6676 126.222 95.5106 121.473 95.5106Z" fill="#505DD5"/>
<path id="Vector_4" d="M41.7646 62.8476C28.4514 62.8476 17.6621 73.6251 17.6621 86.9238C17.6621 100.222 28.4514 111 41.7646 111C55.0777 111 65.867 100.222 65.867 86.9238C65.867 73.6251 55.0777 62.8476 41.7646 62.8476ZM41.7646 95.5106C37.0156 95.5106 33.1684 91.6676 33.1684 86.9238C33.1684 82.18 37.0156 78.337 41.7646 78.337C46.5136 78.337 50.3608 82.18 50.3608 86.9238C50.3608 91.6676 46.5136 95.5106 41.7646 95.5106Z" fill="#505DD5"/>
</g>
<defs>
<clipPath id="clip0_2536_3091">
<rect width="169" height="111" fill="white"/>
</clipPath>
</defs>
</svg>
