<svg width="53" height="80" viewBox="0 0 53 80" fill="none" xmlns="http://www.w3.org/2000/svg">
<g id="Frame" clip-path="url(#clip0_2880_2774)">
<g id="Group">
<g id="Group_2">
<path id="Vector" d="M1.39862 5.51962C1.39862 5.51962 0.411705 4.935 0.0947459 5.9125C-0.141818 6.64256 0.0707198 7.48595 0.663979 8.29533C1.25724 9.10472 2.32362 9.14911 2.74131 8.78267C3.15437 8.42 3.35028 7.86467 3.14698 7.33106C2.94461 6.7965 2.46963 6.10234 1.39862 5.51962Z" fill="#FDE3C4"/>
<path id="Vector_2" d="M8.93384 2.60562C9.12236 2.293 9.66664 1.70084 10.2932 2.12584C10.9197 2.55178 11.1692 3.30356 11.1969 4.31411C11.2246 5.32467 10.4151 6.03678 9.86532 6.01505C9.32196 5.99333 8.83035 5.68261 8.66494 5.13483C8.4986 4.58706 8.29808 3.6615 8.93384 2.60562Z" fill="#FDE3C4"/>
<path id="Vector_3" d="M3.86054 2.38391C3.86054 2.38391 3.23956 1.53486 2.72023 1.36203C2.26743 1.21092 1.45979 1.27419 1.35906 2.53219C1.25926 3.78075 1.83866 4.82341 2.15377 5.1483C2.48182 5.48735 3.11204 5.8963 3.81711 5.58841C4.44548 5.31452 4.78 4.50419 4.66634 3.89597C4.55268 3.28775 4.11466 2.69275 3.86054 2.38391Z" fill="#FDE3C4"/>
<path id="Vector_4" d="M5.06531 1.85684C5.06531 1.85684 5.15771 0.800949 5.51164 0.375005C5.81936 0.00383852 6.42555 -0.316328 7.29049 0.571449C8.15543 1.45923 8.03252 2.84756 7.93827 3.29428C7.82368 3.8345 7.5058 4.44461 6.74713 4.56172C6.07163 4.66561 5.37118 4.15561 5.15587 3.57667C4.94056 2.99772 5.00709 2.25539 5.06531 1.85684Z" fill="#FDE3C4"/>
</g>
<path id="Vector_5" d="M26.0204 22.6517C23.4746 22.2683 23.8507 25.0705 22.764 25.2263C21.9776 25.3387 21.4315 24.6379 21.3575 23.7152C21.3585 18.1184 21.3594 9.07253 21.3594 8.78542C21.3594 8.36892 21.3668 6.59904 19.8328 6.06637C18.1842 5.49404 17.2796 7.15343 17.2796 7.15343L12.9789 16.4005C12.9336 16.4987 12.7969 16.4987 12.7516 16.4005L8.45185 7.15343C8.45185 7.15343 7.63773 5.53087 5.89862 6.06637C4.34709 6.5452 4.37112 8.36987 4.37112 8.78637C4.37112 9.13865 4.37296 23.9428 4.37389 28.1267C4.37389 28.802 4.90985 29.3478 5.57057 29.3478H7.83549C8.4962 29.3478 9.03125 28.8001 9.03125 28.1248V20.3926C9.03125 20.2547 9.21514 20.2132 9.27151 20.3388L10.507 23.0654C10.7029 23.498 11.1261 23.7747 11.5928 23.7747H12.8662H14.1396C14.6053 23.7747 15.0294 23.498 15.2253 23.0654L16.4645 20.3303C16.5209 20.2056 16.7039 20.2462 16.7048 20.3832L16.7242 23.3875C16.9525 29.1788 20.9796 29.4092 23.1318 29.3393C27.2781 29.2052 28.266 22.9898 26.0204 22.6517Z" fill="#FDE3C4"/>
<path id="Vector_6" d="M48.5211 42.434C47.8752 39.2757 46.32 37.4294 44.5633 37.1885C42.8066 36.9467 41.0352 37.2499 39.9503 39.1889C38.9597 40.9578 38.4635 44.3172 38.201 45.8623C37.7741 48.3764 37.6743 51.8944 37.6105 53.3895C37.581 54.0856 38.1252 54.6654 38.8072 54.6654H41.0841C41.7458 54.6654 42.2817 54.1177 42.2817 53.4414V50.8914C42.2817 50.6704 42.4564 50.4919 42.6726 50.4919H44.1253C44.3415 50.4919 44.5162 50.6704 44.5162 50.8914V53.4414C44.5162 54.1177 45.0521 54.6654 45.7138 54.6654H47.9648C48.6265 54.6654 49.1624 54.1177 49.1624 53.4414V53.6983C49.1643 53.6983 49.1671 45.5922 48.5211 42.434ZM42.6033 46.3071C42.412 46.3071 42.2586 46.1485 42.2614 45.953C42.2753 44.9698 42.4028 42.28 43.374 42.28C44.4117 42.28 44.5115 44.9773 44.5143 45.9567C44.5143 46.1503 44.3618 46.3071 44.1724 46.3071H42.6033Z" fill="#FDE3C4"/>
<path id="Vector_7" d="M46.2894 18.3441C44.9957 17.4657 44.2499 17.2296 42.6356 16.2587C41.4222 15.5296 40.1516 15.0716 40.4963 13.4056C40.8419 11.6754 41.8963 10.6185 43.0856 10.7177C44.2952 10.8188 44.4338 12.0097 44.4495 13.0382L44.4468 13.0391L44.4449 13.5359C44.4357 13.721 44.4209 14.0667 44.4209 14.334C44.3959 14.5833 44.4865 14.8119 44.6454 14.9922C44.8607 15.3181 45.2258 15.5334 45.6397 15.5334H47.8825C48.3898 15.5334 48.8223 15.2114 48.9969 14.758C49.0108 14.7354 49.0209 14.7061 49.0274 14.6702C49.0635 14.5512 49.0819 14.4256 49.0801 14.2943L49.0477 11.8255C49.0099 10.2974 48.7271 9.28403 47.7226 8.03548C46.4668 6.49793 44.772 5.85665 43.0135 5.92087C40.0315 6.04932 36.7196 8.12048 35.8094 12.4772C35.7567 12.7407 35.7133 12.9863 35.6791 13.2167C35.6791 13.2167 34.7254 16.833 38.3192 19.2045C38.3386 19.2177 38.3589 19.2309 38.3783 19.2441C38.3922 19.2526 38.4042 19.2621 38.4181 19.2715C38.4818 19.3121 38.5419 19.3499 38.6038 19.3886C38.6288 19.4037 38.6528 19.4198 38.6777 19.4349C42.1689 21.6213 42.9692 21.2804 44.1261 22.5846C44.2786 22.7962 44.3617 23.1418 44.3497 23.3855C44.2296 25.7343 40.8558 25.4831 40.3429 23.2486C40.3106 23.1078 40.2893 22.8783 40.2764 22.63C40.2413 21.9821 39.7173 21.474 39.0806 21.474H36.7917C36.13 21.474 35.5941 22.0208 35.5941 22.6961C35.5941 22.6961 35.3547 25.1516 37.4598 27.491C39.1804 29.4035 41.9434 29.3695 43.0144 29.3402C48.1588 29.1967 49.0062 25.7315 49.1272 23.2967C49.2547 20.7241 47.9167 19.4491 46.2894 18.3441Z" fill="#FDE3C4"/>
<path id="Vector_8" d="M40.2617 31.2622H28.391C27.7293 31.2622 27.1934 31.81 27.1934 32.4862V34.7991C27.1934 35.4754 27.7293 36.0231 28.391 36.0231H32.1704L31.4811 53.3905C31.4534 54.0856 31.9967 54.6646 32.6778 54.6646H34.939C35.5812 54.6646 36.1089 54.147 36.1357 53.4906L36.8297 36.0222H40.2617C40.9233 36.0222 41.4593 35.4744 41.4593 34.7982V32.4853C41.4602 31.8109 40.9233 31.2622 40.2617 31.2622Z" fill="#FDE3C4"/>
<path id="Vector_9" d="M16.4532 60.3754H14.1901C13.5285 60.3754 12.9925 60.9232 12.9925 61.5994V62.5391C12.9556 63.4477 13.2587 75.5111 10.8403 75.1758C9.30082 74.9623 8.90809 67.5211 9.08644 55.9195C9.08736 55.9195 9.16683 36.329 11.209 36.0749C12.683 35.8917 12.4335 44.9489 12.4704 45.8574V47.1117C12.4704 47.7879 13.0064 48.3357 13.668 48.3357H15.9311C16.5927 48.3357 17.1287 47.7879 17.1287 47.1117V45.0235C17.1287 45.0235 17.5538 31.314 11.8383 31.314C7.71141 31.314 5.90021 32.775 4.9096 39.15C4.16295 43.9544 4.16295 67.3605 4.9096 72.164C5.90021 78.5399 7.71233 80.0113 11.8383 80C18.3448 79.9821 17.6508 61.6004 17.6508 61.6004C17.6508 60.9241 17.1148 60.3754 16.4532 60.3754Z" fill="#FDE3C4"/>
<path id="Vector_10" d="M34.5649 57.5515H32.3018C31.6401 57.5515 31.1042 58.0992 31.1042 58.7755V63.952C31.1042 63.952 31.4378 68.6893 30.3446 68.7101C29.1322 68.6893 29.3761 64.581 29.354 63.8981V57.8339C29.354 57.1576 28.818 56.6099 28.1564 56.6099H25.8933C25.2317 56.6099 24.6957 57.1576 24.6957 57.8339V64.037C24.6957 64.037 24.5506 73.9413 29.9999 73.9413C35.9639 73.9413 35.7606 64.3345 35.7578 63.952H35.7625V58.7755C35.7625 58.0992 35.2256 57.5515 34.5649 57.5515Z" fill="#FDE3C4"/>
<path id="Vector_11" d="M48.6947 66.7012C48.7095 66.3158 51.1408 65.5745 51.3662 62.7846C51.5594 60.3989 50.4948 58.6281 48.0737 57.6052C45.3625 56.4502 40.9787 56.5824 38.6869 56.7146C38.041 56.7807 37.493 57.3087 37.4607 58.001C37.2666 62.1905 36.6216 76.2117 36.4922 78.6862C36.4599 79.148 36.8212 79.5862 37.262 79.708C37.8543 79.8724 38.4596 80.0188 39.9141 79.9725C42.1393 79.9017 44.0891 79.7883 47.0609 79.0734C49.775 78.4208 52.611 76.7548 52.6128 73.0034C52.6137 69.2625 48.6735 67.2423 48.6947 66.7012ZM41.9868 61.6956C41.9988 61.4369 42.2234 61.2442 42.4747 61.2791C43.6696 61.4463 46.7486 62.0262 46.6922 63.5694C46.6359 65.1183 43.4811 65.3327 42.277 65.3582C42.0275 65.3638 41.827 65.1513 41.839 64.8963L41.9868 61.6956ZM42.0099 74.4003C41.6708 74.4059 41.3982 74.1934 41.4148 73.9384L41.5497 70.716C41.5664 70.4572 41.9378 70.2863 42.2788 70.3212C43.9024 70.4884 48.0857 71.0683 48.01 72.6115C47.9333 74.1604 43.6455 74.3748 42.0099 74.4003Z" fill="#FDE3C4"/>
<path id="Vector_12" d="M33.9528 11.2645C33.3068 8.10631 31.7516 6.25992 29.9949 6.01909C28.2383 5.77731 26.4668 6.08048 25.3819 8.01942C24.3913 9.78836 23.8951 13.1477 23.6327 14.6929C23.2057 17.207 23.1059 19.1195 23.0422 20.6145C23.0126 21.3106 23.5569 21.8905 24.2388 21.8905H26.5158C27.1774 21.8905 27.7134 21.3427 27.7134 20.6665V19.722C27.7134 19.501 27.888 19.3225 28.1043 19.3225H29.5569C29.7732 19.3225 29.9478 19.501 29.9478 19.722V28.1228C29.9478 28.7991 30.4838 29.3468 31.1454 29.3468H33.3965C34.0581 29.3468 34.5941 28.7991 34.5941 28.1228V22.5289C34.595 22.5289 34.5987 14.4237 33.9528 11.2645ZM29.6161 15.4465H28.0479C27.8566 15.4465 27.7032 15.2879 27.706 15.0924C27.7199 14.1092 27.8474 11.4194 28.8186 11.4194C29.8563 11.4194 29.9561 14.1167 29.9589 15.0961C29.9589 15.2907 29.8055 15.4465 29.6161 15.4465Z" fill="#FDE3C4"/>
<path id="Vector_13" d="M30.2421 43.8611C30.2163 43.6278 29.8716 40.7595 28.248 39.0085L28.2443 39.0047L28.2406 39.001C27.213 37.9243 25.9738 37.3784 24.5572 37.3784C24.4287 37.3784 24.2975 37.3831 24.1663 37.3916C22.7127 37.4927 21.3007 38.3871 20.1882 39.9105C18.7226 41.8995 17.7957 45.0369 17.8826 47.7154C18.0138 51.8123 20.1928 54.3104 23.7107 54.3982C23.769 54.4001 23.8336 54.4011 23.8974 54.4011C25.1338 54.4011 26.3194 53.978 27.3248 53.1771C28.4309 52.3205 29.0769 51.2287 29.4243 50.4618L29.4262 50.458L29.428 50.4542C29.8004 49.6033 30.0592 48.6522 30.1765 47.7031C30.4732 45.7311 30.2643 44.0282 30.2421 43.8611ZM25.7881 46.123C25.4951 48.3377 24.5045 50.0292 23.5749 49.9008C22.6453 49.7723 22.1296 47.8731 22.4226 45.6584C22.7155 43.4436 23.7061 41.7521 24.6357 41.8806C25.5654 42.009 26.081 43.9083 25.7881 46.123Z" fill="#FDE3C4"/>
<path id="Vector_14" d="M30.739 75.2391H24.0894C23.6024 75.2391 23.2152 74.8235 23.2374 74.3267L23.5285 57.8934C23.5608 57.1955 23.0156 56.6118 22.3318 56.6118H20.0715C19.432 56.6118 18.9053 57.1256 18.8748 57.7782L18.3471 78.7165C18.3139 79.4154 18.8591 80 19.5438 80H22.9768H30.7381C31.3998 80 31.9357 79.4522 31.9357 78.776V76.4631C31.9367 75.7868 31.4007 75.2391 30.739 75.2391Z" fill="#FDE3C4"/>
</g>
</g>
<defs>
<clipPath id="clip0_2880_2774">
<rect width="52.6115" height="80" fill="white"/>
</clipPath>
</defs>
</svg>
