<svg width="85" height="93" viewBox="0 0 85 93" fill="none" xmlns="http://www.w3.org/2000/svg">
<ellipse cx="44.6317" cy="83.1499" rx="39.7977" ry="9.21631" fill="#62C6F9"/>
<path d="M79.934 34.9646C79.8121 29.9973 77.463 25.3431 73.3182 21.8556C69.1306 18.3342 67.905 16.5904 66.3466 13.1367C65.513 11.2946 65.6349 9.09648 66.6629 7.40182C67.3152 6.3273 68.2575 5.22209 69.2459 5.09315C70.4156 4.93965 71.8257 5.13306 72.4978 5.66725C73.1304 6.17073 73.8487 7.35884 73.8684 8.29827C73.8816 8.88772 73.2062 9.69207 72.7977 9.92232C72.2178 10.2477 70.9361 9.81794 70.096 9.37585C69.2558 8.93684 68.8308 9.0535 68.3564 9.52629C67.8654 10.0144 68.9494 11.8626 68.956 11.8718C70.7154 14.0822 72.0465 14.1743 73.8124 13.9717C75.9804 13.723 76.9424 12.1849 77.4663 11.0122C78.9852 7.72417 78.0198 5.47383 76.9457 4.16907C75.0545 1.86654 71.3875 0.795094 69.0812 1.11745C65.1605 1.60251 63.0255 3.2849 61.7834 6.17994C59.9416 10.4841 61.8954 15.8383 63.1342 17.2935C63.7536 18.0917 64.7091 19.0649 65.3384 19.8355C68.6529 23.8849 72.2211 28.3947 73.5225 35.4159C74.1188 38.6333 73.5291 41.2367 72.3496 42.652C71.4106 43.7787 69.8588 44.1471 69.8093 44.1502C69.7105 44.1563 69.3645 43.5423 69.2954 43.5976C66.8671 40.9481 63.4472 39.1522 58.3074 37.9548C55.4245 37.2825 52.8777 36.647 50.9865 36.3001C46.7396 35.5203 45.4316 34.9677 45.2998 33.7888C45.2866 33.6691 45.2175 33.5616 45.1087 33.4941C45.0033 33.4265 44.8682 33.4081 44.7463 33.4419L13.2915 42.1915C13.0905 42.2468 12.962 42.4279 12.9851 42.6213C13.0049 42.7994 15.0707 60.6916 22.1774 72.3301C22.0291 72.7476 21.8908 73.1436 21.759 73.5182C21.2516 74.9519 20.899 76.6312 20.7244 77.15C19.5218 77.0149 18.4543 76.9904 17.6537 77.6934C16.9717 78.289 16.5302 78.7587 16.6554 79.5968C16.7444 80.2078 17.0739 80.6898 17.601 80.9907C18.3456 81.4174 19.4098 81.4419 20.4081 81.2792C19.6668 82.4121 19.0968 83.9686 19.4296 85.0585C19.6273 85.7062 20.1149 86.1422 20.8397 86.311C21.6997 86.5136 22.4607 86.4123 23.1032 86.0132C23.6468 85.6725 24.0389 85.1598 24.319 84.5949C24.6979 85.6663 25.4095 86.4093 26.1047 86.8084C26.5956 87.0877 27.1129 87.232 27.6038 87.232C27.986 87.232 28.3484 87.1461 28.668 86.9711C28.6779 86.9649 28.6878 86.9588 28.701 86.9527C29.6037 86.3571 29.7619 85.6909 29.8014 84.8282C29.8311 84.162 29.4423 83.4375 29.0996 82.8603C29.9266 83.2226 31.3038 83.459 32.0748 83.2594C32.5229 83.1427 33.1258 82.8235 33.452 81.9516C33.7979 81.0214 33.419 80.438 32.905 79.7442C32.8919 79.7258 32.4009 79.0473 32.2724 78.8508C33.2675 79.0228 34.8292 78.9184 35.5771 78.4978C36.1075 78.2 36.1536 77.85 36.2492 77.2421C36.381 76.404 36.0943 76.1523 35.4189 75.5505C34.6216 74.8444 33.508 74.2949 32.3054 74.4177C32.1802 74.0309 31.9792 73.1958 31.6563 72.2503C31.6497 72.2318 31.8079 71.9279 31.8013 71.9095C32.9116 69.3736 33.7617 67.3934 35.0697 64.2927C39.712 67.6083 44.4333 68.9653 49.2996 69.8034C50.2485 69.9661 51.9123 69.8433 52.8184 69.8986C52.7953 69.9753 53.1907 70.0889 53.2204 70.1718C54.1066 72.5235 54.1791 74.8813 54.0605 75.483C53.2039 75.8207 50.433 77.0242 50.0673 78.553C49.975 78.9307 49.9915 79.5017 50.5747 80.085C50.8514 80.3613 50.4594 80.0666 50.8613 80.0481C51.2172 80.0328 52.0573 79.9008 52.4033 79.7043C52.1957 80.2968 52.0903 80.92 52.2649 81.4297C52.4099 81.8503 52.4889 82.0559 52.9502 82.2217C53.4246 82.3906 53.6717 82.4643 54.1132 82.2494C54.3702 82.1235 54.9369 81.9086 55.1412 81.6937C55.1642 82.102 55.2532 82.4888 55.4476 82.802C55.6815 83.1827 55.7112 83.459 56.1757 83.5419C56.2812 83.5603 56.3833 83.5695 56.4854 83.5695C56.8347 83.5695 57.1674 83.462 57.4574 83.2502C57.7901 83.0077 58.3239 82.4182 58.5282 82.0038C58.6402 82.3046 58.8016 82.5748 59.0224 82.7805C59.2761 83.0138 59.454 83.4927 60.1657 83.3761C60.7521 83.2809 61.4638 82.937 61.8031 81.9147C61.981 81.9853 62.1754 82.0191 62.3797 82.0099C62.7355 81.9946 63.8986 81.6753 64.2445 81.4788C64.037 82.0713 63.8656 82.9739 64.0403 83.4835C64.1852 83.9041 64.2116 83.9778 64.6728 84.1436C65.1473 84.3124 65.1934 84.426 65.6349 84.2111C65.8886 84.0853 66.7617 83.4498 66.966 83.2348C66.989 83.6432 66.9264 84.3892 67.1208 84.7023C67.3548 85.083 67.2329 85.4238 67.6974 85.5036C67.8028 85.522 67.905 85.5312 68.0071 85.5312C68.3564 85.5312 68.6891 85.4238 68.9791 85.212C69.3118 84.9694 69.895 84.3339 70.0993 83.9195C70.2113 84.2203 70.3398 84.687 70.5605 84.8927C70.8142 85.126 70.9757 85.4545 71.6873 85.3378C72.231 85.2488 72.6626 84.994 72.9723 84.5795C73.9014 83.3362 73.4368 80.9047 73.1601 79.4526C73.0909 79.0934 73.0151 78.6881 73.0151 78.5561C73.3611 77.6504 74.7284 70.7459 75.0908 68.4772C75.1468 68.0443 76.4482 57.8303 74.0002 51.5797C73.4599 50.1982 72.8339 48.789 72.0563 47.4167C75.1204 45.9124 77.2357 44.0489 78.5107 41.7341C79.542 39.8214 79.9999 37.6724 79.934 34.9646ZM65.5163 77.4233C64.9463 77.6504 62.8772 78.725 61.8855 79.56C61.8196 79.1271 61.6911 77.8346 61.6252 77.4847C61.556 77.1285 61.4803 76.7233 61.4803 76.5913C61.7471 75.9036 62.7487 71.5196 63.1869 69.2416C65.6053 72.6187 65.6777 76.622 65.5163 77.4233ZM26.9976 58.3982C26.5034 56.8786 25.7621 54.6773 25.3568 53.3879C25.9828 54.2076 26.7966 56.0988 27.4654 56.8632C27.2776 57.4588 27.2019 57.7719 26.9976 58.3982Z" fill="white"/>
<path d="M65.6911 2.14883C65.6911 2.14883 65.421 3.29702 67.1474 3.48429C68.8771 3.67157 69.3516 5.1544 69.3516 5.1544C69.3516 5.1544 71.8259 4.41452 73.2987 6.47758C74.7714 8.54065 73.0614 10.7112 70.9363 9.70419C68.8112 8.69722 67.7734 9.67963 68.7816 11.2699C69.7898 12.8602 72.05 15.1566 74.7385 13.8119C77.427 12.4672 79.216 8.36566 77.7729 5.49517C76.3298 2.62468 70.8111 -0.746221 65.6911 2.14883Z" fill="#FF773B"/>
<path d="M68.6833 42.9561C65.9585 45.5134 62.7725 45.1727 60.3641 43.1587C57.9556 41.1448 55.8272 41.2338 54.5785 41.7312C51.465 42.7596 49.5804 43.0144 48.4997 41.857C45.6037 39.051 47.7057 35.8152 47.7057 35.8152C47.7057 35.8152 56.6806 37.4484 61.2141 38.6703C65.3457 39.7847 68.6833 42.9561 68.6833 42.9561Z" fill="#FF773B"/>
<path d="M25.3426 63.5315C25.3426 63.5315 29.9552 65.5393 28.802 67.2186C27.6489 68.8979 27.0723 68.5786 26.6242 70.522C26.1004 72.7846 24.4332 72.4162 23.3789 69.6132L25.3426 63.5315Z" fill="#FF773B"/>
<path d="M15.6348 56.028C15.6348 56.028 22.4878 54.5943 22.4713 58.8278C22.4549 63.0645 21.6839 63.5588 23.0446 65.1828C23.463 65.6832 23.6838 66.2573 24.1549 66.9849L22.1715 72.3268C22.1715 72.3299 17.3052 63.7645 15.6348 56.028Z" fill="#FF773B"/>
<path d="M75.3327 65.6772C75.3327 65.6772 74.7627 67.3136 71.3988 66.2176C68.0349 65.1216 72.5091 63.8874 69.8668 58.085C67.2244 52.2827 73.9819 51.5735 73.9819 51.5735C73.9819 51.5735 76.0642 58.2539 75.3327 65.6772Z" fill="#FF773B"/>
<path d="M42.3899 45.7063C42.3899 45.7063 29.547 77.0453 28.2851 78.3654C30.1928 78.4114 34.0575 79.2526 32.9867 82.1262C31.9159 84.9997 27.3494 81.417 27.3494 81.417C27.3494 81.417 31.6622 84.7848 28.351 86.9584C26.875 87.7597 24.1568 86.1848 24.338 82.8998C24.0481 84.7142 23.1124 86.8018 20.7698 86.2523C18.4306 85.7028 20.0285 82.1477 21.3201 80.9012C19.7188 81.4201 17.139 81.6503 16.8689 79.8359C16.5987 78.0215 18.737 76.8027 20.8522 77.2172C21.1389 76.1979 28.3411 56.5988 29.8765 49.9675" stroke="#505DD6" stroke-width="1.25677" stroke-miterlimit="10" stroke-linecap="round" stroke-linejoin="round"/>
<path d="M27.0005 59.5028C25.419 54.6829 24.1802 50.919 23.5938 48.248" stroke="#505DD6" stroke-width="1.25677" stroke-miterlimit="10" stroke-linecap="round" stroke-linejoin="round"/>
<path d="M32.6781 79.8519C32.3651 79.2501 31.9829 78.7129 31.6238 78.3568C33.2185 78.8879 35.7982 79.1427 36.0882 77.3314C36.3748 75.5201 34.2497 74.2798 32.1312 74.6789C32.0785 74.4854 31.7885 73.6351 31.3438 72.3364" stroke="#505DD6" stroke-width="1.25677" stroke-miterlimit="10" stroke-linecap="round" stroke-linejoin="round"/>
<path d="M13.1641 42.6577C13.1641 42.6577 15.1771 60.6144 22.3959 72.3818" stroke="#505DD6" stroke-width="1.25677" stroke-miterlimit="10" stroke-linecap="round" stroke-linejoin="round"/>
<path d="M61.4711 53.4796C56.2357 61.8977 60.4431 65.3361 63.5237 69.496C66.6043 73.659 65.4742 77.5795 65.4742 77.5795C65.4742 77.5795 59.8764 79.6302 61.8928 81.635C62.9866 82.7218 65.115 80.1859 65.115 80.1859C65.115 80.1859 62.7297 83.5323 64.6439 84.2138C66.5614 84.8954 67.5268 81.285 67.5268 81.285C67.5268 81.285 66.1035 85.0765 68.0671 85.4234C70.0934 85.7826 70.3668 81.4907 70.3668 81.4907C70.3668 81.4907 69.6717 85.623 71.9417 85.2545C74.739 84.8002 72.7127 79.1175 72.94 78.7184C73.1674 78.3193 74.594 71.3043 75.0223 68.6487C75.0223 68.6487 76.4094 58.1093 73.9449 51.8433C71.4805 45.5774 67.6816 40.1219 58.3905 37.9698C49.0994 35.8177 45.1951 36.1032 44.9414 33.856" stroke="#505DD6" stroke-width="1.25677" stroke-miterlimit="10" stroke-linecap="round" stroke-linejoin="round"/>
<path d="M61.7429 79.6977C61.588 78.2763 61.1992 76.9347 61.308 76.7474C61.4859 76.4312 62.4183 71.9766 63.0114 68.8145" stroke="#505DD6" stroke-width="1.25677" stroke-miterlimit="10" stroke-linecap="round" stroke-linejoin="round"/>
<path d="M53.3832 70.239C54.5199 73.2446 53.8379 75.6085 53.8379 75.6085C53.8379 75.6085 48.2401 77.6593 50.2565 79.664C51.3503 80.7508 53.4787 78.215 53.4787 78.215C53.4787 78.215 51.0933 81.5613 53.0076 82.2429C54.9251 82.9244 55.8905 79.314 55.8905 79.314C55.8905 79.314 54.4671 83.1055 56.4308 83.4525C58.4571 83.8117 58.7305 79.5197 58.7305 79.5197C58.7305 79.5197 58.0353 83.652 60.3054 83.2836C61.2345 83.1332 61.6332 82.4056 61.7551 81.4846" stroke="#505DD6" stroke-width="1.25677" stroke-miterlimit="10" stroke-linecap="round" stroke-linejoin="round"/>
<path d="M34.7441 64.0623C44.6843 71.326 56.2324 71.5347 62.1925 67.7678" stroke="#505DD6" stroke-width="1.25677" stroke-miterlimit="10" stroke-linecap="round" stroke-linejoin="round"/>
<path d="M24.6641 51.8435C25.4812 53.7807 26.351 55.8438 27.5206 57.17" stroke="#505DD6" stroke-width="1.25677" stroke-miterlimit="10" stroke-linecap="round" stroke-linejoin="round"/>
<path d="M69.7067 44.0671C69.7067 44.0671 74.9618 43.6895 73.377 35.1548C71.7923 26.6201 67.1401 22.2269 63.2523 17.2534C61.3183 15.0123 57.8259 2.79353 69.4596 1.35368C73.0113 0.856336 80.6551 3.87418 77.4724 10.7419C76.6915 12.4795 73.3177 16.9433 68.6524 11.1103C67.9407 10.0818 68.603 8.7709 70.2174 9.61209C71.8318 10.4533 73.9108 10.1678 73.868 8.19987C73.8251 6.23197 72.4117 4.58643 69.5057 4.96405C66.5998 5.34166 64.6131 9.60595 66.2407 13.1979C67.8715 16.7929 69.1697 18.5735 73.3935 22.1102C77.6207 25.6469 79.8182 30.2335 79.9336 35.0013C80.0423 39.4314 78.7903 44.0794 71.7923 47.3429" stroke="#505DD6" stroke-width="1.25677" stroke-miterlimit="10" stroke-linecap="round" stroke-linejoin="round"/>
<path d="M66.1906 2.17334C66.1906 2.17334 65.7062 3.14654 67.4524 3.33381C69.1987 3.52109 69.3502 4.81971 69.3502 4.81971" stroke="#505DD6" stroke-width="1.25677" stroke-miterlimit="10" stroke-linecap="round" stroke-linejoin="round"/>
<path d="M47.807 35.8303C47.807 35.8303 45.6885 39.1122 48.6175 41.9336C49.7114 43.0971 51.6124 42.8423 54.7589 41.8077C56.0208 41.3073 58.169 41.2182 60.6038 43.2445C63.0353 45.2707 65.7534 45.9645 68.5078 43.3918" stroke="#505DD6" stroke-width="1.25677" stroke-miterlimit="10" stroke-linecap="round" stroke-linejoin="round"/>
<path d="M25.7419 63.9146C25.7419 63.9146 29.8834 65.7566 28.7171 67.4451C27.5507 69.1336 26.8654 68.7959 26.5162 70.7669C26.1702 72.7378 24.6612 73.0848 23.5938 70.2665" stroke="#505DD6" stroke-width="1.25677" stroke-miterlimit="10" stroke-linecap="round" stroke-linejoin="round"/>
<path d="M16.0918 56.206C16.0918 56.206 22.3386 54.7447 22.3221 59.0059C22.3057 63.2671 21.5281 63.7644 22.8987 65.3977C23.3237 65.9012 23.8641 66.5674 24.3385 67.298" stroke="#505DD6" stroke-width="1.25677" stroke-miterlimit="10" stroke-linecap="round" stroke-linejoin="round"/>
<path d="M73.9478 51.8435C73.9478 51.8435 67.5297 52.4176 70.2017 58.2537C72.8737 64.0899 68.3533 65.3333 71.7502 66.4354C75.1471 67.5375 75.2789 65.9104 75.2789 65.9104" stroke="#505DD6" stroke-width="1.25677" stroke-miterlimit="10" stroke-linecap="round" stroke-linejoin="round"/>
<path d="M41.9358 16.6023C41.9424 16.5931 41.949 16.5839 41.9523 16.5747C42.5256 15.5032 43.3691 7.94174 40.4565 6.11507C39.1979 5.32607 37.2376 5.76201 34.6248 7.40755C32.7567 8.58645 31.2477 9.94954 31.1851 10.0079C31.1258 10.0631 31.0896 10.1337 31.0764 10.2044C26.6747 9.34782 23.0768 9.65175 20.6486 10.1368C20.3224 10.2013 20.0127 10.2719 19.7129 10.3425C19.5119 10.2013 17.7459 8.98555 15.6439 7.93867C12.6127 6.42821 10.4448 6.0598 9.20269 6.83652C7.61792 7.82815 7.01828 10.3671 6.79753 12.3196C6.5669 14.3305 6.66575 16.5716 7.01499 17.2163C7.02158 17.2286 7.03146 17.244 7.04135 17.2562C6.75141 17.6246 6.46147 18.0176 6.17813 18.4321C4.09256 21.5021 2.04324 26.4909 4.11892 32.8336C5.0052 35.5414 6.67233 38.0987 8.9424 40.2324C11.2026 42.3569 14.0196 44.0208 17.087 45.0462C19.4954 45.8506 21.983 46.2558 24.51 46.2558C25.3732 46.2558 26.243 46.2098 27.1161 46.1146C30.8326 45.7094 34.4272 44.4476 37.7977 42.363C44.8187 38.022 46.3936 32.5573 46.476 28.7351C46.5814 23.9459 44.5156 19.6048 41.9358 16.6023Z" fill="white"/>
<path d="M3.4001 25.9936C4.47089 20.9618 9.11646 21.6066 11.7457 20.3908C14.3748 19.1751 12.0784 16.8879 17.495 15.2393C22.9115 13.5907 20.48 10.7079 20.48 10.7079L20.1736 10.2351L19.7156 10.3426C19.7156 10.3426 12.0224 4.89326 9.20212 6.83659C7.48557 8.07996 6.81673 10.6127 6.69812 13.4986C6.57951 16.3844 7.01112 17.2164 7.01112 17.2164C7.01112 17.2164 3.50553 21.3671 3.26172 26.9515C3.52859 26.7059 3.4001 25.9936 3.4001 25.9936Z" fill="#FF773B"/>
<path d="M11.0297 13.3113C11.0297 13.3113 -0.0866799 20.6088 3.91971 32.8521C7.50768 43.8152 23.3916 51.1526 37.6182 42.3569C51.8614 33.552 45.8616 18.7207 38.6594 13.8577" stroke="#505DD6" stroke-width="1.25677" stroke-miterlimit="10" stroke-linecap="round"/>
<path d="M15.209 12.0125C15.209 12.0125 22.7704 7.46274 34.5128 11.1959" stroke="#505DD6" stroke-width="1.25677" stroke-miterlimit="10" stroke-linecap="round"/>
<path d="M31.3691 9.9772C31.3691 9.9772 37.5797 4.33754 40.3242 6.05676C43.0687 7.77598 42.2582 15.2392 41.7179 16.2462" stroke="#505DD6" stroke-width="1.25677" stroke-miterlimit="10" stroke-linecap="round"/>
<path d="M19.2199 10.3639C19.2199 10.3639 11.6914 5.07728 8.94689 6.7965C6.20238 8.51572 6.30781 15.8992 6.84485 16.9061" stroke="#505DD6" stroke-width="1.25677" stroke-miterlimit="10" stroke-linecap="round"/>
<path d="M22.1851 34.571C22.1851 34.571 20.7453 31.8448 22.8836 31.7619C25.0219 31.679 26.2574 31.7619 26.2574 31.7619C26.2574 31.7619 28.0794 32.0352 27.3381 33.8158C26.5967 35.5964 26.1223 36.8766 24.8407 36.7722C23.559 36.6679 22.1851 34.571 22.1851 34.571Z" fill="#505DD6"/>
<path d="M30.5294 26.7855C31.5229 26.7855 32.3283 25.4522 32.3283 23.8075C32.3283 22.1629 31.5229 20.8296 30.5294 20.8296C29.5359 20.8296 28.7305 22.1629 28.7305 23.8075C28.7305 25.4522 29.5359 26.7855 30.5294 26.7855Z" fill="#505DD6"/>
<path d="M19.2188 26.7855C20.2124 26.7855 21.0178 25.4522 21.0178 23.8075C21.0178 22.1629 20.2124 20.8296 19.2188 20.8296C18.2253 20.8296 17.4199 22.1629 17.4199 23.8075C17.4199 25.4522 18.2253 26.7855 19.2188 26.7855Z" fill="#505DD6"/>
<path d="M25.0078 36.0111C25.0078 36.0111 25.39 40.4719 30.2267 40.4842C34.8755 40.4964 35.7157 35.7041 35.7157 35.7041" stroke="#505DD6" stroke-width="1.25677" stroke-miterlimit="10" stroke-linecap="round"/>
<path d="M24.8055 36.0111C24.8055 36.0111 24.4233 40.4719 19.5867 40.4842C14.9378 40.4964 14.0977 35.7041 14.0977 35.7041" stroke="#505DD6" stroke-width="1.25677" stroke-miterlimit="10" stroke-linecap="round"/>
<path d="M28.4863 19.1809C28.4863 19.1809 31.3659 16.5806 34.2455 19.6844" stroke="#505DD6" stroke-width="1.25677" stroke-miterlimit="10" stroke-linecap="round"/>
<path d="M21.4897 19.1809C21.4897 19.1809 18.6101 16.5806 15.7305 19.6844" stroke="#505DD6" stroke-width="1.25677" stroke-miterlimit="10" stroke-linecap="round"/>
<path d="M20.2072 10.4409C20.2072 10.4409 22.6815 13.3759 17.1695 15.0521C11.6574 16.7284 13.9966 19.0554 11.318 20.2927C8.64269 21.5299 4.18821 21.665 3.09766 26.7858" stroke="#505DD6" stroke-width="1.25677" stroke-miterlimit="10" stroke-linecap="round" stroke-linejoin="round"/>
<path d="M26.9102 32.8949C26.9102 32.8949 40.0067 28.9959 45.0015 28.4495" stroke="#505DD6" stroke-width="1.25677" stroke-miterlimit="10" stroke-linecap="round" stroke-linejoin="round"/>
<path d="M26.7344 33.8989C26.7344 33.8989 39.6926 31.7898 47.9294 31.2986" stroke="#505DD6" stroke-width="1.25677" stroke-miterlimit="10" stroke-linecap="round" stroke-linejoin="round"/>
<path d="M26.1953 35.0746C26.3304 35.0317 41.6608 33.9019 46.8039 34.0984" stroke="#505DD6" stroke-width="1.25677" stroke-miterlimit="10" stroke-linecap="round" stroke-linejoin="round"/>
<path d="M22.4996 33.0084C22.4996 33.0084 9.40302 29.1095 4.4082 28.563" stroke="#505DD6" stroke-width="1.25677" stroke-miterlimit="10" stroke-linecap="round" stroke-linejoin="round"/>
<path d="M22.6774 34.0154C22.6774 34.0154 9.71925 31.9062 1.48242 31.415" stroke="#505DD6" stroke-width="1.25677" stroke-miterlimit="10" stroke-linecap="round" stroke-linejoin="round"/>
<path d="M23.2199 35.1879C23.0848 35.1449 7.7544 34.0152 2.61133 34.2116" stroke="#505DD6" stroke-width="1.25677" stroke-miterlimit="10" stroke-linecap="round" stroke-linejoin="round"/>
</svg>
