<svg width="65" height="62" viewBox="0 0 65 62" fill="none" xmlns="http://www.w3.org/2000/svg">
<path d="M32.6912 31.9861C27.4336 33.6284 24.4707 29.0713 18.1601 26.1598C8.9049 21.8868 8.18695 15.6789 11.9897 13.0407C15.7982 10.4005 21.1223 14.0292 25.683 12.3697C25.6946 12.3656 25.7118 12.3594 25.7234 12.3553C25.7349 12.3512 25.7521 12.345 25.7637 12.3409C30.3858 10.8655 32.2624 4.76873 36.9163 4.51091C41.5703 4.25309 44.9325 9.55793 40.385 18.5535C37.2903 24.686 37.8529 30.0657 32.6912 31.9861Z" fill="white"/>
<path d="M20.3463 39.9385C21.5635 35.7173 20.3546 31.5928 17.6428 30.7385C14.931 29.8843 11.746 32.6087 10.5231 36.8319C9.30596 41.0532 10.5149 45.1777 13.2267 46.0319C15.9406 46.892 19.1234 44.1617 20.3463 39.9385Z" fill="white"/>
<path d="M47.1704 30.4176C43.2275 27.6323 41.4301 23.321 43.1464 20.7893C44.8649 18.2635 49.4561 18.474 53.399 21.2592C57.3419 24.0445 59.1393 28.3558 57.423 30.8875C55.701 33.4212 51.1154 33.2086 47.1704 30.4176Z" fill="white"/>
<path d="M34.8751 46.4874C34.1119 42.0074 31.1916 38.7262 28.3478 39.152C25.504 39.5779 23.8145 43.5577 24.572 48.0397C25.3352 52.5197 28.2554 55.8009 31.0992 55.3751C33.9408 54.9434 35.6325 50.9694 34.8751 46.4874Z" fill="white"/>
<path d="M39.4362 44.9195C36.983 40.5666 37.2209 35.7959 39.9555 34.2656C42.6959 32.7332 46.9022 35.0202 49.3475 39.3694C51.8007 43.7224 51.5628 48.493 48.8282 50.0233C46.0957 51.5595 41.8837 49.2745 39.4362 44.9195Z" fill="white"/>
</svg>
