<svg width="55" height="57" viewBox="0 0 55 57" fill="none" xmlns="http://www.w3.org/2000/svg">
<g clip-path="url(#clip0_812_12985)">
<path d="M19.0656 38.0053C18.8669 37.7941 18.6806 37.5954 18.5067 37.3843C18.1341 36.9496 17.836 36.4776 17.5876 35.9808C17.538 35.8814 17.4759 35.8318 17.3765 35.8069C14.6068 35.0245 11.9365 34.0184 9.39041 32.6895C7.57709 31.7456 5.8507 30.6526 4.28578 29.3112C3.76414 28.8641 3.25492 28.417 2.8078 27.8954C2.43519 27.4731 2.17437 26.9639 1.97565 26.4422C1.45401 25.076 1.06899 23.685 0.932371 22.2194C0.795751 20.878 0.770911 19.5367 0.795751 18.1829C0.820591 16.9409 0.882691 15.6989 1.05657 14.4693C1.21803 13.2894 1.40433 12.1095 1.73967 10.9544C1.98807 10.1223 2.37309 9.35226 2.78296 8.60706C3.3667 7.55136 4.06222 6.57018 4.9813 5.76288C6.21088 4.68233 7.58951 3.82535 9.06749 3.15467C11.2783 2.14865 13.6008 1.51523 15.9854 1.1302C17.5628 0.869384 19.1526 0.732764 20.7547 0.670664C22.5681 0.608564 24.369 0.670664 26.1699 0.832124C29.9704 1.17988 33.6716 1.98719 37.2734 3.24161C40.366 4.32215 43.2971 5.72561 46.0047 7.58862C47.4205 8.5698 48.7371 9.66276 49.9045 10.9172C51.1714 12.271 52.2147 13.7738 52.8978 15.5126C53.2952 16.5186 53.5312 17.5619 53.5685 18.63C53.5933 19.1392 53.5064 19.6485 53.4443 20.1453C53.3697 20.7911 53.3076 21.4369 53.2207 22.0828C53.022 23.5608 52.7612 25.0263 52.3885 26.4795C52.1029 27.6221 51.8297 28.7772 51.3577 29.8577C50.6994 31.373 49.917 32.8013 48.9234 34.1302C48.3148 34.9624 47.6193 35.6703 46.7002 36.1423C45.8432 36.5894 44.9365 36.9123 44.0175 37.1855C42.8624 37.5085 41.7073 37.7817 40.5274 37.9556C39.6704 38.0798 38.8259 38.1791 37.9689 38.2288C36.4412 38.3158 34.9136 38.3654 33.3859 38.353C31.7465 38.3406 30.107 38.204 28.4676 38.0177C27.4119 37.8935 26.3686 37.7569 25.3253 37.583C25.1763 37.5581 25.1017 37.5954 25.0521 37.7444C24.9403 38.0425 24.9279 38.0301 25.2384 38.1543C27.8838 39.2224 29.7468 41.073 30.6162 43.793C31.6719 47.0843 31.0385 50.1024 28.7408 52.6982C27.1635 54.4742 25.139 55.4554 22.7668 55.6541C18.9663 55.9895 15.3893 53.9402 13.725 50.4998C13.0667 49.1336 12.7562 47.6929 12.8308 46.1776C12.955 43.7682 13.8865 41.7064 15.6253 40.0297C16.4822 39.21 17.4634 38.5766 18.5937 38.1791C18.7303 38.1046 18.9042 38.1046 19.0656 38.0053ZM23.3133 38.0549L23.3008 38.0425C23.3008 38.0425 23.3008 38.0425 23.3133 38.0549C23.3133 38.0425 23.3133 38.0425 23.3133 38.0549C23.425 38.2412 23.6113 38.353 23.7852 38.4648C24.5428 38.9492 24.667 39.9676 24.0212 40.5886C23.4996 41.0854 22.8786 41.1848 22.2203 40.924C21.6366 40.7004 21.2515 40.2906 21.2764 39.6199C21.2764 39.5578 21.2391 39.5329 21.2019 39.5081C20.5684 39.1852 19.9971 38.7877 19.4506 38.3406C19.4134 38.3158 19.3885 38.2785 19.3264 38.2909C19.1029 38.353 18.8669 38.4027 18.6558 38.4896C17.3889 39.0361 16.2587 39.7813 15.352 40.837C13.6753 42.7746 12.9798 45.0226 13.2903 47.5687C13.5387 49.618 14.4205 51.3692 15.9233 52.7851C17.9851 54.7226 20.4567 55.5051 23.2636 55.1201C25.375 54.8344 27.1386 53.8656 28.5173 52.2386C30.2685 50.1645 30.9764 47.7674 30.4424 45.1095C29.7468 41.5947 27.5982 39.2969 24.1702 38.2288C23.897 38.1419 23.6113 38.0425 23.3133 38.0549ZM19.4134 9.2529C17.836 9.24048 16.2711 9.30258 14.7062 9.47646C13.0419 9.66276 11.4025 9.96084 9.80027 10.4576C8.38439 10.8923 7.04303 11.4761 5.83828 12.3579C4.39756 13.426 3.40396 14.755 3.32944 16.618C3.31702 16.8291 3.29218 17.0403 3.40396 17.239C3.75172 17.8848 4.16158 18.4934 4.62112 19.0771C5.83828 20.6545 7.30385 21.971 8.89361 23.1385C11.6384 25.1505 14.6565 26.6285 17.8484 27.7836C17.9602 27.8208 18.0099 27.796 18.072 27.7091C18.457 27.2123 18.8917 26.7527 19.3885 26.3677C20.3325 25.6349 21.3882 25.1505 22.5929 25.1009C24.0833 25.0388 25.3129 25.5852 26.232 26.7776C26.9275 27.6966 27.2877 28.7399 27.2256 29.9074C27.2256 30.0192 27.2504 30.0564 27.3622 30.0689C29.1755 30.3048 31.0137 30.4291 32.8394 30.4415C34.1684 30.4539 35.4973 30.3918 36.8263 30.2676C38.1925 30.131 39.5338 29.9322 40.8752 29.6466C42.9617 29.187 44.9738 28.5288 46.8741 27.5352C48.1657 26.8521 49.3705 26.0324 50.4138 25.0015C50.538 24.8773 50.6125 24.7407 50.6497 24.5668C50.7491 23.9955 50.7243 23.4242 50.6249 22.8528C50.4883 22.0455 50.1157 21.3252 49.7182 20.6296C49.2463 19.7851 48.6625 19.0275 47.9422 18.3816C47.0852 17.6116 46.1164 16.9533 45.1353 16.3323C42.6016 14.7426 39.894 13.5006 37.0871 12.4821C34.1559 11.4264 31.1503 10.6315 28.0826 10.085C25.2259 9.58824 22.3321 9.27774 19.4134 9.2529ZM51.159 24.1694C51.4198 23.8713 51.6185 23.5856 51.8048 23.3C52.1526 22.7535 52.4382 22.1573 52.6618 21.5487C52.8854 20.9277 53.022 20.2695 53.0717 19.6112C53.0965 19.2759 53.1089 18.9281 53.0841 18.5803C53.0468 18.096 52.9971 17.6116 52.8853 17.1272C52.637 16.0342 52.2022 15.0034 51.6309 14.0346C51.0223 13.0038 50.2896 12.0722 49.4698 11.2028C48.7122 10.408 47.9049 9.67518 47.0355 8.99208C46.191 8.3214 45.2967 7.71282 44.3901 7.15392C43.3095 6.49566 42.2041 5.88707 41.0615 5.35301C40.3039 4.99283 39.5462 4.65749 38.7638 4.34699C37.8944 3.99923 37.025 3.68873 36.1307 3.40307C35.3607 3.15467 34.5906 2.91869 33.8082 2.71997C32.8891 2.48399 31.97 2.26043 31.0385 2.08655C30.5417 1.98719 30.0325 1.90025 29.5357 1.81331C29.0265 1.72637 28.5048 1.63943 27.9956 1.57733C27.5733 1.52765 27.1511 1.46555 26.7288 1.42829C26.3065 1.39103 25.8966 1.35377 25.4743 1.31651C24.8037 1.2544 24.1206 1.20472 23.4499 1.20472C22.0092 1.1923 20.556 1.16746 19.1153 1.29166C18.6806 1.32893 18.2459 1.36619 17.8112 1.40345C17.2771 1.45313 16.7555 1.55249 16.2338 1.61459C15.4514 1.72637 14.6689 1.87541 13.8865 2.06171C12.5203 2.37221 11.1913 2.79449 9.89963 3.32855C8.90603 3.73841 7.94969 4.22279 7.04303 4.80653C6.12394 5.39027 5.26696 6.07338 4.50934 6.88068C4.31062 7.09182 4.09948 7.27812 3.9256 7.5141C3.553 7.99848 3.2425 8.53254 2.95684 9.07902C2.72086 9.53856 2.5594 10.0229 2.39793 10.5073C2.19921 11.1283 2.11227 11.7617 2.08743 12.4076C2.07501 12.8671 2.12469 13.3267 2.18679 13.7738C2.31099 14.6184 2.5594 15.4381 2.90716 16.2081C2.932 16.2702 2.932 16.3572 3.01894 16.3944C3.03136 16.233 3.03136 16.0963 3.04378 15.9473C3.1183 15.2766 3.35428 14.6556 3.68962 14.0843C4.16158 13.2522 4.83226 12.5815 5.58988 12.0226C6.62074 11.2649 7.76339 10.7185 8.98055 10.2838C9.92447 9.94842 10.8808 9.6876 11.862 9.48888C12.6569 9.315 13.4642 9.1908 14.2715 9.09144C14.7559 9.02934 15.2278 8.99208 15.7122 8.95482C16.3829 8.89272 17.0536 8.85546 17.7242 8.84304C18.7427 8.83062 19.7611 8.80578 20.792 8.86788C21.2019 8.89272 21.6117 8.90514 22.0216 8.92998C22.6923 8.96724 23.3505 9.02934 24.0088 9.09144C24.6174 9.14112 25.2135 9.21564 25.8221 9.30258C26.6543 9.41436 27.474 9.53856 28.3061 9.70002C29.2252 9.8739 30.1567 10.0602 31.0634 10.2713C32.5538 10.6191 34.0193 11.0165 35.4725 11.4761C36.6896 11.8735 37.9068 12.2958 39.0991 12.7802C40.0182 13.1528 40.9249 13.5502 41.8067 13.9725C42.4153 14.2706 43.0114 14.5811 43.6076 14.904C44.3155 15.289 44.9986 15.6989 45.6817 16.1336C46.3648 16.5683 47.0107 17.0527 47.6565 17.5371C48.2775 17.9966 48.8364 18.5182 49.3208 19.1144C49.8673 19.7851 50.3392 20.5054 50.687 21.3003C50.8981 21.7723 51.072 22.2691 51.1217 22.7783C51.1838 23.213 51.2459 23.6726 51.159 24.1694ZM24.2075 29.5472C24.4311 29.5845 24.6174 29.6217 24.8037 29.659C25.4371 29.7832 26.0705 29.895 26.7164 29.9695C26.7536 29.9695 26.8033 30.0068 26.8157 29.9447C26.8281 29.8577 26.853 29.7584 26.8406 29.6714C26.8033 29.3858 26.7536 29.1001 26.6915 28.8144C26.4431 27.7587 25.9339 26.8769 25.0272 26.2559C24.2696 25.7343 23.4375 25.5231 22.5184 25.5852C21.8601 25.6225 21.2391 25.7964 20.6554 26.082C19.0159 26.9018 17.9478 28.2183 17.302 29.9198C16.9666 30.8265 16.8424 31.758 16.8797 32.7143C16.8921 32.9752 16.9045 33.236 16.979 33.4968C17.1157 33.9315 17.2647 34.3662 17.4386 34.8009C17.836 35.7945 18.3825 36.7012 19.1401 37.4712C19.7611 38.0922 20.4567 38.6138 21.2143 39.0361C21.7111 39.3094 22.2203 39.5578 22.8165 39.5205C23.2139 39.4957 23.4996 39.3218 23.6983 38.9864C23.7604 38.8871 23.748 38.825 23.661 38.738C23.4499 38.5517 23.1891 38.44 23.0028 38.2412C22.5184 37.7444 22.0961 37.2104 21.8229 36.577C21.4875 35.7821 21.3385 34.9375 21.3385 34.0805C21.3385 33.4223 21.4627 32.7889 21.649 32.1554C21.9719 31.0128 22.5929 30.0813 23.6238 29.4479C24.2944 29.038 24.99 28.8393 25.7724 29.0504C25.8345 29.0628 25.9339 29.0504 25.9215 29.1249C25.909 29.1995 25.8097 29.1622 25.7476 29.1622C25.2259 29.1374 24.7167 29.2491 24.2075 29.5472ZM21.5124 39.6571C21.6241 40.1912 22.0464 40.5762 22.5805 40.6756C23.127 40.7749 23.6734 40.5514 23.9343 40.1167C24.1206 39.8062 24.1454 39.4957 23.9964 39.1603C23.9715 39.1727 23.9591 39.1727 23.9591 39.1852C23.5989 39.8186 23.0276 39.9676 22.3445 39.8931C22.0588 39.8434 21.798 39.7441 21.5124 39.6571ZM23.1766 37.198C23.0897 37.1607 23.0649 37.198 23.0524 37.2601C23.04 37.3346 23.04 37.4091 23.0152 37.4836C22.9903 37.5706 23.0152 37.5954 23.1021 37.6078C23.5492 37.6699 23.9964 37.7569 24.4311 37.8811C24.4932 37.8935 24.5304 37.8935 24.5677 37.8438C24.6298 37.7569 24.6919 37.6575 24.7416 37.5706C24.7788 37.5085 24.7664 37.4836 24.7043 37.4712C24.1951 37.3718 23.6734 37.2849 23.1766 37.198ZM22.6798 37.2849C22.7171 37.2352 22.7668 37.1855 22.7544 37.1359C22.7295 37.0738 22.6426 37.0862 22.5805 37.0862C22.5805 37.1731 22.6426 37.2228 22.6798 37.2849Z" fill="#505DD6"/>
<path d="M23.3133 38.0549L23.3008 38.0425C23.3008 38.0425 23.3008 38.0425 23.3133 38.0549ZM23.3133 38.0549C23.3133 38.0425 23.3133 38.0425 23.3133 38.0549ZM23.3133 38.0549C23.425 38.2412 23.6113 38.353 23.7852 38.4648C24.5428 38.9492 24.667 39.9676 24.0212 40.5886C23.4996 41.0854 22.8786 41.1848 22.2203 40.924C21.6366 40.7004 21.2515 40.2906 21.2764 39.6199C21.2764 39.5578 21.2391 39.5329 21.2019 39.5081C20.5684 39.1852 19.9971 38.7877 19.4506 38.3406C19.4134 38.3158 19.3885 38.2785 19.3264 38.2909C19.1029 38.353 18.8669 38.4027 18.6558 38.4896C17.3889 39.0361 16.2587 39.7813 15.352 40.837C13.6753 42.7746 12.9798 45.0226 13.2903 47.5687C13.5387 49.618 14.4205 51.3692 15.9233 52.7851C17.9851 54.7226 20.4567 55.5051 23.2636 55.1201C25.375 54.8344 27.1386 53.8656 28.5173 52.2386C30.2685 50.1645 30.9764 47.7674 30.4424 45.1095C29.7468 41.5947 27.5982 39.2969 24.1702 38.2288C23.897 38.1419 23.6113 38.0425 23.3133 38.0549ZM19.0656 38.0053C18.8669 37.7941 18.6806 37.5954 18.5067 37.3843C18.1341 36.9496 17.836 36.4776 17.5876 35.9808C17.5379 35.8814 17.4759 35.8318 17.3765 35.8069C14.6068 35.0245 11.9365 34.0184 9.39041 32.6895C7.57709 31.7456 5.8507 30.6526 4.28578 29.3112C3.76414 28.8641 3.25492 28.417 2.8078 27.8954C2.43519 27.4731 2.17437 26.9639 1.97565 26.4422C1.45401 25.076 1.06899 23.685 0.932371 22.2194C0.795751 20.878 0.770911 19.5367 0.795751 18.1829C0.820591 16.9409 0.882691 15.6989 1.05657 14.4693C1.21803 13.2894 1.40433 12.1095 1.73967 10.9544C1.98807 10.1223 2.37309 9.35226 2.78296 8.60706C3.3667 7.55136 4.06222 6.57018 4.9813 5.76288C6.21088 4.68233 7.58951 3.82535 9.06749 3.15467C11.2783 2.14865 13.6008 1.51523 15.9854 1.1302C17.5628 0.869384 19.1526 0.732764 20.7547 0.670664C22.5681 0.608564 24.369 0.670664 26.1699 0.832124C29.9704 1.17988 33.6716 1.98719 37.2734 3.24161C40.366 4.32215 43.2971 5.72561 46.0047 7.58862C47.4205 8.5698 48.7371 9.66276 49.9045 10.9172C51.1714 12.271 52.2147 13.7738 52.8978 15.5126C53.2952 16.5186 53.5312 17.5619 53.5685 18.63C53.5933 19.1392 53.5064 19.6485 53.4443 20.1453C53.3697 20.7911 53.3076 21.4369 53.2207 22.0828C53.022 23.5608 52.7612 25.0263 52.3885 26.4795C52.1029 27.6221 51.8296 28.7772 51.3577 29.8577C50.6994 31.373 49.917 32.8013 48.9234 34.1302C48.3148 34.9624 47.6193 35.6703 46.7002 36.1423C45.8432 36.5894 44.9365 36.9123 44.0175 37.1855C42.8624 37.5085 41.7073 37.7817 40.5274 37.9556C39.6704 38.0798 38.8259 38.1791 37.9689 38.2288C36.4412 38.3158 34.9136 38.3654 33.3859 38.353C31.7465 38.3406 30.107 38.204 28.4676 38.0177C27.4119 37.8935 26.3686 37.7569 25.3253 37.583C25.1763 37.5581 25.1017 37.5954 25.0521 37.7444C24.9403 38.0425 24.9279 38.0301 25.2384 38.1543C27.8838 39.2224 29.7468 41.073 30.6162 43.793C31.6719 47.0843 31.0385 50.1024 28.7408 52.6982C27.1635 54.4742 25.139 55.4554 22.7668 55.6541C18.9663 55.9895 15.3893 53.9402 13.725 50.4998C13.0667 49.1336 12.7562 47.6929 12.8308 46.1776C12.955 43.7682 13.8865 41.7064 15.6253 40.0297C16.4822 39.21 17.4634 38.5766 18.5937 38.1791C18.7303 38.1046 18.9042 38.1046 19.0656 38.0053ZM19.4134 9.2529C17.836 9.24048 16.2711 9.30258 14.7062 9.47646C13.0419 9.66276 11.4025 9.96084 9.80027 10.4576C8.38439 10.8923 7.04303 11.4761 5.83828 12.3579C4.39756 13.426 3.40396 14.755 3.32944 16.618C3.31702 16.8291 3.29218 17.0403 3.40396 17.239C3.75172 17.8848 4.16158 18.4934 4.62112 19.0771C5.83828 20.6545 7.30385 21.971 8.89361 23.1385C11.6384 25.1505 14.6565 26.6285 17.8484 27.7836C17.9602 27.8208 18.0099 27.796 18.072 27.7091C18.457 27.2123 18.8917 26.7527 19.3885 26.3677C20.3325 25.6349 21.3882 25.1505 22.5929 25.1009C24.0833 25.0388 25.3129 25.5852 26.232 26.7776C26.9275 27.6966 27.2877 28.7399 27.2256 29.9074C27.2256 30.0192 27.2504 30.0564 27.3622 30.0689C29.1755 30.3048 31.0137 30.429 32.8394 30.4415C34.1684 30.4539 35.4973 30.3918 36.8263 30.2676C38.1925 30.131 39.5338 29.9322 40.8752 29.6466C42.9617 29.187 44.9738 28.5288 46.8741 27.5352C48.1657 26.8521 49.3705 26.0324 50.4138 25.0015C50.538 24.8773 50.6125 24.7407 50.6497 24.5668C50.7491 23.9955 50.7243 23.4242 50.6249 22.8528C50.4883 22.0455 50.1157 21.3252 49.7182 20.6296C49.2463 19.7851 48.6625 19.0275 47.9422 18.3816C47.0852 17.6116 46.1164 16.9533 45.1353 16.3323C42.6016 14.7426 39.894 13.5006 37.0871 12.4821C34.1559 11.4264 31.1503 10.6315 28.0826 10.085C25.2259 9.58824 22.3321 9.27774 19.4134 9.2529ZM51.159 24.1694C51.4198 23.8713 51.6185 23.5856 51.8048 23.3C52.1526 22.7535 52.4382 22.1573 52.6618 21.5487C52.8854 20.9277 53.022 20.2695 53.0717 19.6112C53.0965 19.2759 53.1089 18.9281 53.0841 18.5803C53.0468 18.096 52.9971 17.6116 52.8854 17.1272C52.637 16.0342 52.2022 15.0034 51.6309 14.0346C51.0223 13.0038 50.2896 12.0722 49.4698 11.2028C48.7122 10.408 47.9049 9.67518 47.0355 8.99208C46.191 8.3214 45.2967 7.71282 44.3901 7.15392C43.3095 6.49566 42.2041 5.88708 41.0615 5.35301C40.3039 4.99283 39.5462 4.65749 38.7638 4.34699C37.8944 3.99923 37.025 3.68873 36.1307 3.40307C35.3607 3.15467 34.5906 2.91869 33.8082 2.71997C32.8891 2.48399 31.97 2.26043 31.0385 2.08655C30.5417 1.98719 30.0325 1.90025 29.5357 1.81331C29.0265 1.72637 28.5048 1.63943 27.9956 1.57733C27.5733 1.52765 27.1511 1.46555 26.7288 1.42829C26.3065 1.39103 25.8966 1.35377 25.4743 1.31651C24.8037 1.2544 24.1206 1.20472 23.4499 1.20472C22.0092 1.1923 20.556 1.16746 19.1153 1.29166C18.6806 1.32893 18.2459 1.36619 17.8112 1.40345C17.2771 1.45313 16.7555 1.55249 16.2338 1.61459C15.4514 1.72637 14.6689 1.87541 13.8865 2.06171C12.5203 2.37221 11.1913 2.79449 9.89963 3.32855C8.90603 3.73841 7.94969 4.22279 7.04303 4.80653C6.12394 5.39027 5.26696 6.07338 4.50934 6.88068C4.31062 7.09182 4.09948 7.27812 3.9256 7.5141C3.553 7.99848 3.2425 8.53254 2.95684 9.07902C2.72086 9.53856 2.5594 10.0229 2.39793 10.5073C2.19921 11.1283 2.11227 11.7617 2.08743 12.4076C2.07501 12.8671 2.12469 13.3267 2.18679 13.7738C2.31099 14.6184 2.5594 15.4381 2.90716 16.2081C2.932 16.2702 2.932 16.3572 3.01894 16.3944C3.03136 16.233 3.03136 16.0963 3.04378 15.9473C3.1183 15.2766 3.35428 14.6556 3.68962 14.0843C4.16158 13.2522 4.83226 12.5815 5.58988 12.0226C6.62074 11.2649 7.76339 10.7185 8.98055 10.2838C9.92447 9.94842 10.8808 9.6876 11.862 9.48888C12.6569 9.315 13.4642 9.1908 14.2715 9.09144C14.7559 9.02934 15.2278 8.99208 15.7122 8.95482C16.3829 8.89272 17.0536 8.85546 17.7242 8.84304C18.7427 8.83062 19.7611 8.80578 20.792 8.86788C21.2019 8.89272 21.6117 8.90514 22.0216 8.92998C22.6923 8.96724 23.3505 9.02934 24.0088 9.09144C24.6174 9.14112 25.2135 9.21564 25.8221 9.30258C26.6543 9.41436 27.474 9.53856 28.3061 9.70002C29.2252 9.8739 30.1567 10.0602 31.0634 10.2713C32.5538 10.6191 34.0193 11.0165 35.4725 11.4761C36.6896 11.8735 37.9068 12.2958 39.0991 12.7802C40.0182 13.1528 40.9249 13.5502 41.8067 13.9725C42.4153 14.2706 43.0114 14.5811 43.6076 14.904C44.3155 15.289 44.9986 15.6989 45.6817 16.1336C46.3648 16.5683 47.0107 17.0527 47.6565 17.5371C48.2775 17.9966 48.8364 18.5182 49.3208 19.1144C49.8673 19.7851 50.3392 20.5054 50.687 21.3003C50.8981 21.7723 51.072 22.2691 51.1217 22.7783C51.1838 23.213 51.2459 23.6726 51.159 24.1694ZM24.2075 29.5472C24.4311 29.5845 24.6174 29.6217 24.8037 29.659C25.4371 29.7832 26.0705 29.895 26.7164 29.9695C26.7536 29.9695 26.8033 30.0068 26.8157 29.9447C26.8281 29.8577 26.853 29.7584 26.8406 29.6714C26.8033 29.3858 26.7536 29.1001 26.6915 28.8144C26.4431 27.7587 25.9339 26.8769 25.0272 26.2559C24.2696 25.7343 23.4375 25.5231 22.5184 25.5852C21.8601 25.6225 21.2391 25.7964 20.6554 26.082C19.0159 26.9018 17.9478 28.2183 17.302 29.9198C16.9666 30.8265 16.8424 31.758 16.8797 32.7143C16.8921 32.9752 16.9045 33.236 16.979 33.4968C17.1157 33.9315 17.2647 34.3662 17.4386 34.8009C17.836 35.7945 18.3825 36.7012 19.1401 37.4712C19.7611 38.0922 20.4567 38.6138 21.2143 39.0361C21.7111 39.3094 22.2203 39.5578 22.8165 39.5205C23.2139 39.4957 23.4996 39.3218 23.6983 38.9864C23.7604 38.8871 23.748 38.825 23.661 38.738C23.4499 38.5517 23.1891 38.44 23.0028 38.2412C22.5184 37.7444 22.0961 37.2104 21.8229 36.577C21.4875 35.7821 21.3385 34.9375 21.3385 34.0805C21.3385 33.4223 21.4627 32.7889 21.649 32.1554C21.9719 31.0128 22.5929 30.0813 23.6238 29.4479C24.2944 29.038 24.99 28.8393 25.7724 29.0504C25.8345 29.0628 25.9339 29.0504 25.9215 29.1249C25.909 29.1995 25.8097 29.1622 25.7476 29.1622C25.2259 29.1374 24.7167 29.2491 24.2075 29.5472ZM21.5124 39.6571C21.6241 40.1912 22.0464 40.5762 22.5805 40.6756C23.127 40.7749 23.6734 40.5514 23.9343 40.1167C24.1206 39.8062 24.1454 39.4957 23.9964 39.1603C23.9715 39.1727 23.9591 39.1727 23.9591 39.1852C23.5989 39.8186 23.0276 39.9676 22.3445 39.8931C22.0588 39.8434 21.798 39.7441 21.5124 39.6571ZM23.1766 37.198C23.0897 37.1607 23.0649 37.198 23.0524 37.2601C23.04 37.3346 23.04 37.4091 23.0152 37.4836C22.9903 37.5706 23.0152 37.5954 23.1021 37.6078C23.5492 37.6699 23.9964 37.7569 24.4311 37.8811C24.4932 37.8935 24.5304 37.8935 24.5677 37.8438C24.6298 37.7569 24.6919 37.6575 24.7416 37.5706C24.7788 37.5085 24.7664 37.4836 24.7043 37.4712C24.1951 37.3718 23.6734 37.2849 23.1766 37.198ZM22.6798 37.2849C22.7171 37.2352 22.7668 37.1855 22.7544 37.1359C22.7295 37.0738 22.6426 37.0862 22.5805 37.0862C22.5805 37.1731 22.6426 37.2228 22.6798 37.2849Z" stroke="#505DD6" stroke-width="1.06552" stroke-miterlimit="10"/>
<path d="M51.159 24.1693C51.2459 23.6725 51.1714 23.213 51.1217 22.7659C51.0596 22.2567 50.8981 21.7599 50.687 21.2879C50.3392 20.493 49.8673 19.7727 49.3208 19.102C48.8364 18.5058 48.2775 17.9842 47.6565 17.5246C47.0107 17.0402 46.3524 16.5683 45.6817 16.1212C45.0111 15.6865 44.3155 15.2766 43.6076 14.8916C43.0114 14.5687 42.4153 14.2582 41.8067 13.9601C40.9124 13.5254 40.0182 13.1404 39.0991 12.7678C37.9068 12.2834 36.7021 11.8611 35.4725 11.4637C34.0193 11.0041 32.5538 10.6067 31.0634 10.2589C30.1443 10.0478 29.2252 9.86147 28.3061 9.68759C27.4864 9.53855 26.6543 9.41435 25.8221 9.29015C25.226 9.20321 24.6174 9.14111 24.0088 9.07901C23.3505 9.01691 22.6798 8.95481 22.0216 8.91755C21.6117 8.89271 21.2019 8.88029 20.792 8.85545C19.7736 8.80577 18.7551 8.81819 17.7243 8.83061C17.0536 8.84303 16.3829 8.88029 15.7122 8.94239C15.2278 8.97965 14.7434 9.02933 14.2715 9.07901C13.4642 9.17837 12.6569 9.30257 11.862 9.47645C10.8808 9.68759 9.92447 9.93599 8.98055 10.2713C7.77581 10.6936 6.63317 11.2525 5.58988 12.0101C4.81984 12.569 4.16158 13.2397 3.68962 14.0719C3.35428 14.6556 3.1183 15.2642 3.04378 15.9349C3.03136 16.0839 3.01894 16.2205 3.01894 16.382C2.932 16.3447 2.932 16.2578 2.90716 16.1957C2.5594 15.4132 2.32342 14.6059 2.1868 13.7614C2.11228 13.3142 2.07502 12.8547 2.08744 12.3952C2.11228 11.7493 2.19922 11.1159 2.39794 10.4949C2.5594 10.0105 2.72086 9.52613 2.95684 9.06659C3.2425 8.52011 3.553 7.98605 3.9256 7.50167C4.09948 7.27811 4.31062 7.07938 4.50934 6.86824C5.26696 6.04852 6.12395 5.36542 7.05545 4.76926C7.96211 4.18552 8.91845 3.70114 9.91205 3.29128C11.2037 2.74479 12.5327 2.33493 13.8989 2.02443C14.6689 1.85055 15.4514 1.68909 16.2463 1.57731C16.7679 1.50279 17.302 1.41585 17.8236 1.36617C18.2583 1.32891 18.693 1.29165 19.1277 1.25439C20.5684 1.13019 22.0216 1.15503 23.4623 1.16745C24.133 1.17987 24.8161 1.21713 25.4868 1.27923C25.909 1.31649 26.3189 1.35375 26.7412 1.39101C27.1635 1.42827 27.5858 1.49037 28.008 1.54005C28.5297 1.60215 29.0389 1.67667 29.5481 1.77603C30.0449 1.86297 30.5541 1.94991 31.0509 2.04927C31.9824 2.23557 32.9015 2.44671 33.8206 2.68269C34.6031 2.88141 35.3731 3.1174 36.1432 3.3658C37.0374 3.65146 37.9068 3.97438 38.7762 4.30972C39.5587 4.62022 40.3163 4.95556 41.0739 5.31574C42.2165 5.8498 43.3219 6.45838 44.4025 7.11664C45.3216 7.67555 46.2034 8.29655 47.0479 8.95481C47.9049 9.63791 48.7246 10.3707 49.4823 11.1656C50.302 12.035 51.0348 12.9665 51.6433 13.9973C52.2147 14.9661 52.6494 15.997 52.8978 17.0899C53.0096 17.5619 53.0592 18.0463 53.0965 18.5431C53.1213 18.8908 53.1089 19.2386 53.0841 19.5739C53.0344 20.2322 52.9102 20.878 52.6742 21.5115C52.4506 22.1325 52.165 22.7162 51.8172 23.2627C51.6185 23.5856 51.4198 23.8713 51.159 24.1693Z" fill="#3240BD"/>
<path d="M23.3133 38.0552C23.6114 38.0552 23.8846 38.1421 24.1703 38.2291C27.5982 39.2972 29.7469 41.5949 30.4424 45.1098C30.9765 47.7676 30.2685 50.1771 28.5173 52.2389C27.1387 53.8659 25.3626 54.8222 23.2636 55.1203C20.4567 55.5053 17.9975 54.7229 15.9234 52.7853C14.4206 51.3694 13.5263 49.6182 13.2903 47.5689C12.9798 45.0228 13.6878 42.7748 15.3521 40.8373C16.2587 39.7816 17.3765 39.0364 18.6558 38.4899C18.8669 38.4029 19.1029 38.3657 19.3265 38.2912C19.3886 38.2663 19.4134 38.3036 19.4507 38.3408C19.9972 38.788 20.5685 39.1854 21.2019 39.5083C21.2516 39.5332 21.2764 39.558 21.2764 39.6201C21.2516 40.3032 21.6366 40.7006 22.2203 40.9242C22.8786 41.1726 23.4996 41.0857 24.0212 40.5889C24.6671 39.9679 24.5429 38.9494 23.7853 38.465C23.6114 38.3533 23.4251 38.2415 23.3133 38.0552Z" fill="#F9E5CD"/>
<path d="M24.2075 29.5474C24.7167 29.2494 25.226 29.1376 25.76 29.15C25.8221 29.15 25.9215 29.1873 25.9339 29.1127C25.9463 29.0382 25.8345 29.0506 25.7849 29.0382C25.0024 28.8271 24.3069 29.0258 23.6362 29.4357C22.6053 30.0691 21.9967 31.0006 21.6614 32.1432C21.4751 32.7766 21.3509 33.4101 21.3509 34.0683C21.3509 34.9253 21.4875 35.7699 21.8353 36.5648C22.1085 37.2106 22.5308 37.7447 23.0152 38.229C23.2139 38.4278 23.4747 38.5395 23.6735 38.7258C23.7604 38.8128 23.7728 38.8625 23.7107 38.9742C23.512 39.3096 23.2263 39.4835 22.8289 39.5083C22.2327 39.5456 21.7235 39.2972 21.2267 39.0239C20.4567 38.6016 19.7611 38.08 19.1526 37.459C18.3949 36.689 17.8485 35.7823 17.451 34.7887C17.2771 34.3664 17.1281 33.9317 16.9915 33.4846C16.917 33.2238 16.9045 32.9629 16.8921 32.7021C16.8549 31.7458 16.9791 30.8019 17.3144 29.9076C17.9478 28.2185 19.0159 26.8896 20.6678 26.0698C21.2515 25.7842 21.8725 25.6103 22.5308 25.573C23.4499 25.5109 24.2945 25.7221 25.0397 26.2437C25.9463 26.8647 26.4431 27.759 26.7039 28.8022C26.7785 29.0879 26.8157 29.3736 26.853 29.6592C26.8654 29.7462 26.8406 29.8455 26.8281 29.9325C26.8157 30.007 26.766 29.9697 26.7288 29.9573C26.0829 29.8704 25.4495 29.7586 24.8161 29.6468C24.6174 29.622 24.4311 29.5847 24.2075 29.5474Z" fill="#62C6F9"/>
<path d="M23.1767 37.198C23.6611 37.2849 24.1827 37.3719 24.7044 37.4712C24.7789 37.4836 24.7789 37.5085 24.7416 37.5706C24.6795 37.6575 24.6174 37.7445 24.5677 37.8438C24.5305 37.9059 24.4808 37.9059 24.4311 37.8811C23.9964 37.7569 23.5493 37.6699 23.1022 37.6078C23.0152 37.5954 22.9904 37.5706 23.0152 37.4836C23.0401 37.4091 23.0401 37.3346 23.0525 37.2601C23.0649 37.198 23.0898 37.1607 23.1767 37.198Z" fill="#62C6F9"/>
<path d="M23.3132 38.0427C23.3008 38.0427 23.3008 38.0303 23.3008 38.0303C23.3132 38.0427 23.3132 38.0427 23.3132 38.0427Z" fill="#F9E5CD"/>
</g>
<defs>
<clipPath id="clip0_812_12985">
<rect width="54.0147" height="56.3" fill="white" transform="translate(0.162354)"/>
</clipPath>
</defs>
</svg>
