<svg width="54" height="66" viewBox="0 0 54 66" fill="none" xmlns="http://www.w3.org/2000/svg">
<g clip-path="url(#clip0_812_12994)">
<path d="M21.8718 32.4916C21.8718 32.4246 21.8718 32.3444 21.8718 32.2774C21.8718 27.4465 21.8718 22.629 21.8852 17.7981C21.8852 16.3127 22.1935 14.8942 22.9441 13.5828C23.8288 12.0439 25.2095 11.1607 26.885 10.6789C27.2737 10.5718 27.1665 10.5585 27.1665 10.157C27.0593 8.5244 27.0191 6.93195 27.0459 5.29934C27.0593 4.53657 27.1263 3.7738 27.2335 3.01102C27.314 2.46236 27.6089 2.0609 28.0512 1.75312C28.708 1.28475 29.4587 1.04387 30.2361 0.896668C31.8983 0.5755 33.547 0.602264 35.1689 1.12416C35.6917 1.29813 36.1743 1.52562 36.5764 1.9137C36.9651 2.30178 37.1528 2.74338 36.9785 3.29204C36.9517 3.38572 36.9517 3.47939 36.9651 3.57307C37.059 5.24582 36.9651 6.91856 36.9249 8.59131C36.9115 9.11321 36.8981 9.64849 36.8981 10.1704C36.8981 10.3711 36.8311 10.438 37.0456 10.4782C38.386 10.7057 39.5388 11.2945 40.4503 12.3115C41.2546 13.2081 41.7103 14.2787 41.965 15.4429C42.1258 16.1923 42.2331 16.9551 42.2599 17.7312C42.3939 21.3042 42.3135 24.8906 42.3403 28.4636C42.3805 33.7227 42.3671 38.9684 42.3537 44.2276C42.3537 47.1984 42.3269 50.1826 42.3135 53.1534C42.3135 53.876 42.3001 54.5852 42.2867 55.3079C42.2733 56.539 41.8578 57.6229 41.0401 58.5329C39.8069 59.9113 38.2654 60.7409 36.4692 61.129C34.807 61.477 33.1315 61.4903 31.4425 61.3565C30.3836 61.2762 29.3246 61.1558 28.2657 60.9952C28.1852 60.9818 28.145 61.022 28.1048 61.0889C27.6223 61.865 26.8984 62.3735 26.0942 62.7616C25.3569 63.1096 24.5795 63.0025 23.8422 62.6813C23.2122 62.4137 22.6894 61.9855 22.1801 61.5171C21.0407 60.4599 20.1962 59.1753 19.4456 57.8237C18.0515 55.3614 16.8987 52.7787 15.6655 50.2361C15.4376 49.7677 15.2098 49.2726 15.0623 48.7641C15.0221 48.6302 14.9685 48.657 14.8881 48.7105C13.7353 49.3796 12.5691 50.0487 11.4163 50.7178C11.175 50.8517 10.9472 51.0122 10.6925 51.1327C10.0759 51.4271 9.44586 51.4271 8.84266 51.1059C7.99819 50.6643 7.36818 49.9818 6.76498 49.2726C5.33071 47.5731 4.20473 45.6728 3.21281 43.6923C2.71684 42.7154 2.22088 41.7519 1.81875 40.7349C1.14853 39.0755 1.55066 37.6838 2.8911 36.4928C4.75432 34.8602 6.80519 33.5086 8.90969 32.2239C10.5182 31.2336 12.1267 30.2568 13.8023 29.3869C14.5932 28.9721 15.4108 28.5974 16.2687 28.3298C17.0462 28.0889 17.7432 28.1959 18.4134 28.5974C19.2311 29.0791 19.8611 29.7884 20.4375 30.5244C20.8932 31.0998 21.3222 31.7154 21.7243 32.331C21.7645 32.3845 21.8047 32.438 21.8315 32.4916C21.8449 32.4916 21.8584 32.4916 21.8718 32.4916ZM41.7773 26.1083C41.7907 26.1083 41.7907 26.1083 41.7773 26.1083C41.7773 24.9173 41.7773 23.7263 41.7773 22.5354C41.7773 22.4149 41.7773 22.3346 41.6165 22.4149C40.209 23.1777 38.6809 23.5791 37.1528 23.9806C36.3887 24.1813 35.6113 24.3152 34.8204 24.4222C33.8821 24.556 32.9572 24.6497 32.0055 24.6363C31.6168 24.6229 31.228 24.6229 30.8527 24.6096C30.0082 24.5962 29.1638 24.5427 28.3193 24.4356C27.1933 24.2884 26.0673 24.1278 24.9682 23.82C24.1371 23.5791 23.3194 23.3249 22.5822 22.8565C22.542 22.8298 22.475 22.7762 22.4481 22.7896C22.4079 22.803 22.4079 22.8967 22.4079 22.9502C22.4079 26.4027 22.4079 29.8553 22.4079 33.2945C22.4079 33.4149 22.4347 33.5086 22.5018 33.6156C23.4133 35.1278 24.3382 36.64 25.062 38.2592C25.3435 38.8881 25.6518 39.5171 25.558 40.2531C25.4775 40.9356 25.2229 41.5244 24.7671 42.0329C24.1639 42.6886 23.3865 43.1436 22.7028 43.7057C22.4884 43.8796 22.3811 44.0402 22.4213 44.3079C22.4347 44.4149 22.4616 44.4684 22.5554 44.522C23.7752 45.1643 25.062 45.6461 26.4025 45.9806C27.3542 46.2215 28.3193 46.3954 29.2978 46.5159C30.1423 46.6229 30.9868 46.7032 31.8446 46.7434C32.5953 46.7701 33.3459 46.7701 34.11 46.7434C34.6194 46.73 35.1421 46.6765 35.6515 46.6096C36.3217 46.5159 36.9919 46.3687 37.6622 46.2215C39.016 45.9405 40.3431 45.539 41.5763 44.8967C41.7237 44.8164 41.7639 44.7361 41.7639 44.5889C41.7773 39.5706 41.7237 34.5658 41.7907 29.5475C41.7907 28.3967 41.7773 27.2458 41.7773 26.1083ZM41.7371 45.2044C41.2814 45.5122 40.8256 45.7531 40.3296 45.9405C37.5415 46.9843 34.673 47.466 31.6972 47.292C30.0619 47.1984 28.4533 47.0244 26.8582 46.6631C25.3703 46.3152 23.9092 45.8602 22.5822 45.084C22.4213 44.9903 22.4079 45.0171 22.4079 45.1911C22.4079 46.4222 22.4079 47.64 22.4079 48.8711C22.4079 48.9782 22.4347 49.0852 22.4884 49.1789C23.0648 50.0487 23.6277 50.9052 24.1907 51.775C25.491 53.7957 26.7376 55.8565 27.8501 57.9976C28.1852 58.64 28.3997 59.3492 28.3729 60.0852C28.3595 60.5536 28.3461 60.5536 28.8421 60.5937C29.5391 60.6473 30.2495 60.7008 30.9466 60.7677C32.4344 60.8881 33.9089 60.9551 35.3968 60.7677C36.8981 60.5804 38.3056 60.1388 39.5388 59.2288C41.0267 58.1181 41.8712 56.6862 41.8309 54.7993C41.8175 54.2105 41.8041 53.6217 41.8041 53.0329C41.7907 51.0791 41.7773 49.112 41.7907 47.1582C41.7907 46.5025 41.7237 45.8735 41.7371 45.2044ZM22.4213 19.792C22.4213 20.595 22.4213 21.2908 22.4213 22.0937C22.4213 22.2276 22.3811 22.2677 22.5956 22.3748C22.8369 22.4551 23.0379 22.522 23.2524 22.6156C23.9226 22.8967 24.6197 23.1108 25.3167 23.2847C27.4212 23.8066 29.5659 23.9806 31.724 24.0074C32.7427 24.0208 33.7481 23.9405 34.7668 23.82C36.429 23.6193 38.0375 23.1777 39.6326 22.6692C40.3431 22.4417 40.9999 22.1205 41.6969 21.8529C41.7907 21.8261 41.7907 21.7726 41.7907 21.7057C41.8041 20.1935 41.8175 18.6813 41.6567 17.1826C41.5629 16.2458 41.402 15.3358 41.0535 14.4526C40.3296 12.5925 39.0294 11.3748 37.0322 10.9733C36.697 10.9064 36.496 10.9332 36.0804 11.0937C35.9196 11.1607 35.7587 11.2276 35.5845 11.2811C34.7668 11.5354 33.9223 11.6023 33.0779 11.629C32.1395 11.6692 31.2012 11.6424 30.2629 11.5889C29.5123 11.5487 28.7482 11.522 28.0244 11.3079C27.5552 11.1607 27.1263 11.2008 26.6839 11.3614C26.5767 11.4015 26.4695 11.4283 26.3622 11.4684C25.3837 11.8431 24.5258 12.3784 23.869 13.2349C22.8771 14.5329 22.5152 16.0585 22.4213 17.6509C22.3945 18.3736 22.4213 19.0828 22.4213 19.792ZM25.0754 39.8517C25.062 39.6509 24.9548 39.3565 24.8475 39.0755C24.4722 38.1655 24.0165 37.2823 23.5205 36.4259C22.5018 34.6461 21.4696 32.8662 20.2632 31.2069C19.7405 30.4843 19.1775 29.8018 18.4536 29.2665C17.9979 28.9186 17.4885 28.6643 16.8987 28.7312C16.4296 28.7847 15.9872 28.9052 15.5583 29.1193C14.5529 29.6278 13.5878 30.2032 12.6227 30.7787C11.108 31.6753 9.59331 32.5585 8.11882 33.4952C6.61753 34.4587 5.12964 35.4624 3.70877 36.5463C3.21281 36.9344 2.69004 37.2823 2.39514 37.8711C2.15386 38.3395 2.01981 38.8346 2.03322 39.3565C2.07343 40.0524 2.30131 40.7215 2.60961 41.3504C3.02515 42.2069 3.4809 43.0366 3.95005 43.8662C4.82134 45.4319 5.73284 46.9709 6.832 48.376C7.4218 49.1254 8.02499 49.8748 8.81586 50.4234C9.21799 50.6911 9.63352 50.9186 10.1429 50.7446C10.4244 50.6509 10.6925 50.5305 10.9338 50.3833C11.3225 50.1558 11.6978 49.9283 12.0865 49.6874C13.1053 49.0718 14.1508 48.4964 15.1561 47.8407C16.2955 47.1181 17.4349 46.3954 18.5743 45.6728C20.3168 44.5621 22.113 43.5183 23.7618 42.2604C24.5526 41.6716 25.0352 40.9624 25.0754 39.8517ZM25.1424 62.4672C25.5178 62.494 25.9467 62.3334 26.3354 62.0524C26.6169 61.8383 26.8984 61.6108 27.1799 61.3833C27.6625 60.9818 27.8635 60.4332 27.7965 59.831C27.7295 59.3091 27.5686 58.8006 27.3274 58.3188C26.5901 56.8869 25.7322 55.522 24.9012 54.1302C24.3114 53.14 23.6814 52.1765 23.0513 51.213C21.912 49.4867 20.786 47.7604 19.7271 45.994C19.593 45.7665 19.5796 45.7665 19.3517 45.9137C18.0649 46.73 16.7915 47.5731 15.4779 48.3492C15.3438 48.4295 15.317 48.5098 15.384 48.657C15.5047 48.8979 15.6119 49.1521 15.7325 49.393C16.1079 50.129 16.51 50.865 16.8719 51.6144C17.4483 52.792 17.9979 53.9697 18.5877 55.1339C19.1909 56.3249 19.8343 57.5025 20.5179 58.6667C21.2015 59.831 22.0594 60.8614 23.1184 61.7044C23.6948 62.1461 24.298 62.4672 25.1424 62.4672ZM36.3753 6.23608C36.2949 6.26285 36.2413 6.28961 36.1743 6.32976C35.7587 6.57063 35.3298 6.7446 34.8472 6.5974C34.4987 6.49034 34.1502 6.3699 34.0698 5.94168C34.0296 5.71419 34.0296 5.48669 34.0698 5.2592C34.11 5.04509 34.0966 5.01832 33.8821 5.07185C33.2655 5.21905 32.6355 5.24582 32.0189 5.2592C31.4291 5.27258 30.8393 5.21905 30.2629 5.09861C29.5927 4.96479 28.9359 4.77745 28.3327 4.42951C28.0512 4.26893 27.7831 4.0682 27.5552 3.80056C27.5418 3.85409 27.5284 3.86747 27.5284 3.88085C27.5284 5.50007 27.5016 7.13268 27.582 8.7519C27.5954 9.00616 27.6089 9.26041 27.6357 9.51467C27.6625 9.83584 27.6893 10.157 27.6491 10.4782C27.6357 10.5852 27.6491 10.6388 27.7831 10.6789C28.3327 10.8395 28.9091 10.8796 29.4721 10.9599C30.3299 11.067 31.1878 11.067 32.0457 11.1071C32.8634 11.1339 33.6945 11.0804 34.5121 11.0001C35.0885 10.9465 35.6381 10.786 36.1609 10.5317C36.2547 10.4916 36.3217 10.438 36.3351 10.331C36.3485 10.1035 36.3753 9.87599 36.3753 9.64849C36.3753 8.67161 36.3753 7.68134 36.3753 6.70445C36.3619 6.54387 36.3753 6.41005 36.3753 6.23608ZM21.8986 48.3091C21.8986 46.9843 21.8986 45.713 21.8986 44.4417C21.8986 44.2945 21.845 44.3212 21.7511 44.3748C21.2149 44.7227 20.6788 45.0706 20.1426 45.4052C20.0354 45.4721 20.0219 45.5256 20.1024 45.6327C20.4509 46.0877 20.7592 46.556 21.0675 47.0378C21.349 47.4392 21.6037 47.8541 21.8986 48.3091ZM36.4826 3.97453C36.4022 4.04144 36.3351 4.08158 36.2681 4.13511C35.7587 4.49642 35.1958 4.7373 34.5926 4.89788C34.4585 4.93803 34.3915 4.99156 34.4049 5.15214C34.4183 5.33949 34.4049 5.52684 34.4183 5.71419C34.4183 5.82124 34.4719 5.95506 34.5792 6.02197C34.7668 6.14241 35.0617 6.23608 35.3834 6.16917C35.7319 6.10226 36.0268 5.91492 36.3485 5.7811C36.4022 5.75433 36.4156 5.72757 36.4156 5.67404C36.429 5.13876 36.4558 4.57672 36.4826 3.97453Z" fill="#505DD6"/>
<path d="M41.7773 26.1083C41.7907 26.1083 41.7907 26.1083 41.7773 26.1083ZM41.7773 26.1083C41.7773 24.9173 41.7773 23.7263 41.7773 22.5354C41.7773 22.4149 41.7773 22.3346 41.6165 22.4149C40.209 23.1777 38.6809 23.5791 37.1528 23.9806C36.3887 24.1813 35.6113 24.3152 34.8204 24.4222C33.8821 24.556 32.9572 24.6497 32.0055 24.6363C31.6168 24.6229 31.228 24.6229 30.8527 24.6096C30.0082 24.5962 29.1638 24.5427 28.3193 24.4356C27.1933 24.2884 26.0673 24.1278 24.9682 23.82C24.1371 23.5791 23.3194 23.3249 22.5822 22.8565C22.542 22.8298 22.475 22.7762 22.4481 22.7896C22.4079 22.803 22.4079 22.8967 22.4079 22.9502C22.4079 26.4027 22.4079 29.8553 22.4079 33.2945C22.4079 33.4149 22.4347 33.5086 22.5018 33.6156C23.4133 35.1278 24.3382 36.64 25.062 38.2592C25.3435 38.8881 25.6518 39.5171 25.558 40.2531C25.4775 40.9356 25.2229 41.5244 24.7671 42.0329C24.1639 42.6886 23.3865 43.1436 22.7028 43.7057C22.4884 43.8796 22.3811 44.0402 22.4213 44.3079C22.4347 44.4149 22.4616 44.4684 22.5554 44.522C23.7752 45.1643 25.062 45.6461 26.4025 45.9806C27.3542 46.2215 28.3193 46.3954 29.2978 46.5159C30.1423 46.6229 30.9868 46.7032 31.8446 46.7434C32.5953 46.7701 33.3459 46.7701 34.11 46.7434C34.6194 46.73 35.1421 46.6765 35.6515 46.6096C36.3217 46.5159 36.9919 46.3687 37.6622 46.2215C39.016 45.9405 40.3431 45.539 41.5763 44.8967C41.7237 44.8164 41.7639 44.7361 41.7639 44.5889C41.7773 39.5706 41.7237 34.5658 41.7907 29.5475C41.7907 28.3967 41.7773 27.2458 41.7773 26.1083ZM21.8718 32.4916C21.8718 32.4246 21.8718 32.3444 21.8718 32.2774C21.8718 27.4465 21.8718 22.629 21.8852 17.7981C21.8852 16.3127 22.1935 14.8942 22.9441 13.5828C23.8288 12.0439 25.2095 11.1607 26.885 10.6789C27.2737 10.5718 27.1665 10.5585 27.1665 10.157C27.0593 8.5244 27.0191 6.93195 27.0459 5.29934C27.0593 4.53657 27.1263 3.7738 27.2335 3.01102C27.314 2.46236 27.6089 2.0609 28.0512 1.75312C28.708 1.28475 29.4587 1.04387 30.2361 0.896668C31.8983 0.5755 33.547 0.602264 35.1689 1.12416C35.6917 1.29813 36.1743 1.52562 36.5764 1.9137C36.9651 2.30178 37.1528 2.74338 36.9785 3.29204C36.9517 3.38572 36.9517 3.47939 36.9651 3.57307C37.059 5.24582 36.9651 6.91856 36.9249 8.59131C36.9115 9.11321 36.8981 9.64849 36.8981 10.1704C36.8981 10.3711 36.8311 10.438 37.0456 10.4782C38.386 10.7057 39.5388 11.2945 40.4503 12.3115C41.2546 13.2081 41.7103 14.2787 41.965 15.4429C42.1258 16.1923 42.2331 16.9551 42.2599 17.7312C42.3939 21.3042 42.3135 24.8906 42.3403 28.4636C42.3805 33.7227 42.3671 38.9684 42.3537 44.2276C42.3537 47.1984 42.3269 50.1826 42.3135 53.1534C42.3135 53.876 42.3001 54.5852 42.2867 55.3079C42.2733 56.539 41.8578 57.6229 41.0401 58.5329C39.8069 59.9113 38.2654 60.7409 36.4692 61.129C34.807 61.477 33.1315 61.4903 31.4425 61.3565C30.3836 61.2762 29.3246 61.1558 28.2657 60.9952C28.1852 60.9818 28.145 61.022 28.1048 61.0889C27.6223 61.865 26.8984 62.3735 26.0942 62.7616C25.3569 63.1096 24.5795 63.0025 23.8422 62.6813C23.2122 62.4137 22.6894 61.9855 22.1801 61.5171C21.0407 60.4599 20.1962 59.1753 19.4456 57.8237C18.0515 55.3614 16.8987 52.7787 15.6655 50.2361C15.4376 49.7677 15.2098 49.2726 15.0623 48.7641C15.0221 48.6302 14.9685 48.657 14.8881 48.7105C13.7353 49.3796 12.5691 50.0487 11.4163 50.7178C11.175 50.8517 10.9472 51.0122 10.6925 51.1327C10.0759 51.4271 9.44586 51.4271 8.84266 51.1059C7.99819 50.6643 7.36818 49.9818 6.76498 49.2726C5.33071 47.5731 4.20473 45.6728 3.21281 43.6923C2.71684 42.7154 2.22088 41.7519 1.81875 40.7349C1.14853 39.0755 1.55066 37.6838 2.8911 36.4928C4.75432 34.8602 6.80519 33.5086 8.90969 32.2239C10.5182 31.2336 12.1267 30.2568 13.8023 29.3869C14.5932 28.9721 15.4108 28.5974 16.2687 28.3298C17.0462 28.0889 17.7432 28.1959 18.4134 28.5974C19.2311 29.0791 19.8611 29.7884 20.4375 30.5244C20.8932 31.0998 21.3222 31.7154 21.7243 32.331C21.7645 32.3845 21.8047 32.438 21.8315 32.4916C21.8449 32.4916 21.8584 32.4916 21.8718 32.4916ZM41.7371 45.2044C41.2814 45.5122 40.8256 45.7531 40.3296 45.9405C37.5415 46.9843 34.673 47.466 31.6972 47.292C30.0619 47.1984 28.4533 47.0244 26.8582 46.6631C25.3703 46.3152 23.9092 45.8602 22.5822 45.084C22.4213 44.9903 22.4079 45.0171 22.4079 45.1911C22.4079 46.4222 22.4079 47.64 22.4079 48.8711C22.4079 48.9782 22.4347 49.0852 22.4884 49.1789C23.0648 50.0487 23.6277 50.9052 24.1907 51.775C25.491 53.7957 26.7376 55.8565 27.8501 57.9976C28.1852 58.64 28.3997 59.3492 28.3729 60.0852C28.3595 60.5536 28.3461 60.5536 28.8421 60.5937C29.5391 60.6473 30.2495 60.7008 30.9466 60.7677C32.4344 60.8881 33.9089 60.9551 35.3968 60.7677C36.8981 60.5804 38.3056 60.1388 39.5388 59.2288C41.0267 58.1181 41.8712 56.6862 41.8309 54.7993C41.8175 54.2105 41.8041 53.6217 41.8041 53.0329C41.7907 51.0791 41.7773 49.112 41.7907 47.1582C41.7907 46.5025 41.7237 45.8735 41.7371 45.2044ZM22.4213 19.792C22.4213 20.595 22.4213 21.2908 22.4213 22.0937C22.4213 22.2276 22.3811 22.2677 22.5956 22.3748C22.8369 22.4551 23.0379 22.522 23.2524 22.6156C23.9226 22.8967 24.6197 23.1108 25.3167 23.2847C27.4212 23.8066 29.5659 23.9806 31.724 24.0074C32.7427 24.0208 33.7481 23.9405 34.7668 23.82C36.429 23.6193 38.0375 23.1777 39.6326 22.6692C40.3431 22.4417 40.9999 22.1205 41.6969 21.8529C41.7907 21.8261 41.7907 21.7726 41.7907 21.7057C41.8041 20.1935 41.8175 18.6813 41.6567 17.1826C41.5629 16.2458 41.402 15.3358 41.0535 14.4526C40.3296 12.5925 39.0294 11.3748 37.0322 10.9733C36.697 10.9064 36.496 10.9332 36.0804 11.0937C35.9196 11.1607 35.7587 11.2276 35.5845 11.2811C34.7668 11.5354 33.9223 11.6023 33.0779 11.629C32.1395 11.6692 31.2012 11.6424 30.2629 11.5889C29.5123 11.5487 28.7482 11.522 28.0244 11.3079C27.5552 11.1607 27.1263 11.2008 26.6839 11.3614C26.5767 11.4015 26.4695 11.4283 26.3622 11.4684C25.3837 11.8431 24.5258 12.3784 23.869 13.2349C22.8771 14.5329 22.5152 16.0585 22.4213 17.6509C22.3945 18.3736 22.4213 19.0828 22.4213 19.792ZM25.0754 39.8516C25.062 39.6509 24.9548 39.3565 24.8475 39.0755C24.4722 38.1655 24.0165 37.2823 23.5205 36.4259C22.5018 34.6461 21.4696 32.8662 20.2632 31.2069C19.7405 30.4843 19.1775 29.8018 18.4536 29.2665C17.9979 28.9186 17.4885 28.6643 16.8987 28.7312C16.4296 28.7847 15.9872 28.9052 15.5583 29.1193C14.5529 29.6278 13.5878 30.2032 12.6227 30.7787C11.108 31.6753 9.59331 32.5585 8.11883 33.4952C6.61753 34.4587 5.12964 35.4624 3.70877 36.5463C3.21281 36.9344 2.69004 37.2823 2.39514 37.8711C2.15386 38.3395 2.01981 38.8346 2.03322 39.3565C2.07343 40.0524 2.30131 40.7215 2.60961 41.3504C3.02515 42.2069 3.4809 43.0366 3.95005 43.8662C4.82134 45.4319 5.73284 46.9709 6.832 48.376C7.4218 49.1254 8.02499 49.8748 8.81586 50.4234C9.21799 50.6911 9.63352 50.9186 10.1429 50.7446C10.4244 50.6509 10.6925 50.5305 10.9338 50.3833C11.3225 50.1558 11.6978 49.9283 12.0865 49.6874C13.1053 49.0718 14.1508 48.4964 15.1561 47.8407C16.2955 47.1181 17.4349 46.3954 18.5743 45.6728C20.3168 44.5621 22.113 43.5183 23.7618 42.2604C24.5526 41.6716 25.0352 40.9624 25.0754 39.8516ZM25.1424 62.4672C25.5178 62.494 25.9467 62.3334 26.3354 62.0524C26.6169 61.8383 26.8984 61.6108 27.1799 61.3833C27.6625 60.9818 27.8635 60.4332 27.7965 59.831C27.7295 59.3091 27.5686 58.8006 27.3274 58.3188C26.5901 56.8869 25.7322 55.522 24.9012 54.1302C24.3114 53.14 23.6814 52.1765 23.0513 51.213C21.912 49.4867 20.786 47.7604 19.7271 45.994C19.593 45.7665 19.5796 45.7665 19.3517 45.9137C18.0649 46.73 16.7915 47.5731 15.4779 48.3492C15.3438 48.4295 15.317 48.5098 15.384 48.657C15.5047 48.8979 15.6119 49.1521 15.7325 49.393C16.1079 50.129 16.51 50.865 16.8719 51.6144C17.4483 52.792 17.9979 53.9697 18.5877 55.1339C19.1909 56.3249 19.8343 57.5025 20.5179 58.6667C21.2015 59.831 22.0594 60.8614 23.1184 61.7044C23.6948 62.1461 24.298 62.4672 25.1424 62.4672ZM36.3753 6.23608C36.2949 6.26285 36.2413 6.28961 36.1743 6.32976C35.7587 6.57063 35.3298 6.7446 34.8472 6.5974C34.4987 6.49034 34.1502 6.3699 34.0698 5.94168C34.0296 5.71419 34.0296 5.48669 34.0698 5.2592C34.11 5.04509 34.0966 5.01832 33.8821 5.07185C33.2655 5.21905 32.6355 5.24582 32.0189 5.2592C31.4291 5.27258 30.8393 5.21905 30.2629 5.09861C29.5927 4.96479 28.9359 4.77745 28.3327 4.42951C28.0512 4.26893 27.7831 4.0682 27.5552 3.80056C27.5418 3.85409 27.5284 3.86747 27.5284 3.88085C27.5284 5.50007 27.5016 7.13268 27.582 8.7519C27.5954 9.00616 27.6089 9.26041 27.6357 9.51467C27.6625 9.83584 27.6893 10.157 27.6491 10.4782C27.6357 10.5852 27.6491 10.6388 27.7831 10.6789C28.3327 10.8395 28.9091 10.8796 29.4721 10.9599C30.3299 11.067 31.1878 11.067 32.0457 11.1071C32.8634 11.1339 33.6945 11.0804 34.5121 11.0001C35.0885 10.9465 35.6381 10.786 36.1609 10.5317C36.2547 10.4916 36.3217 10.438 36.3351 10.331C36.3485 10.1035 36.3753 9.87598 36.3753 9.64849C36.3753 8.67161 36.3753 7.68134 36.3753 6.70445C36.3619 6.54387 36.3753 6.41005 36.3753 6.23608ZM21.8986 48.3091C21.8986 46.9843 21.8986 45.713 21.8986 44.4417C21.8986 44.2945 21.845 44.3212 21.7511 44.3748C21.2149 44.7227 20.6788 45.0706 20.1426 45.4052C20.0354 45.4721 20.0219 45.5256 20.1024 45.6327C20.4509 46.0877 20.7592 46.556 21.0675 47.0378C21.349 47.4392 21.6037 47.8541 21.8986 48.3091ZM36.4826 3.97453C36.4022 4.04144 36.3351 4.08158 36.2681 4.13511C35.7587 4.49642 35.1958 4.7373 34.5926 4.89788C34.4585 4.93803 34.3915 4.99156 34.4049 5.15214C34.4183 5.33949 34.4049 5.52684 34.4183 5.71419C34.4183 5.82124 34.4719 5.95506 34.5791 6.02197C34.7668 6.14241 35.0617 6.23608 35.3834 6.16917C35.7319 6.10226 36.0268 5.91492 36.3485 5.7811C36.4022 5.75433 36.4156 5.72757 36.4156 5.67404C36.429 5.13876 36.4558 4.57672 36.4826 3.97453Z" stroke="#505DD6" stroke-width="1.17033" stroke-miterlimit="10"/>
<path d="M46.8308 65.6655C44.6995 65.6387 42.7157 64.0195 42.7023 61.5572C42.7023 59.309 44.5655 57.4355 46.8174 57.4355C49.1096 57.4355 50.9594 59.2823 50.946 61.5572C50.946 63.8188 49.0828 65.6655 46.8308 65.6655ZM46.8979 65.3443C48.9755 65.3443 50.6645 63.6582 50.6645 61.5706C50.6645 59.483 48.9621 57.7701 46.8576 57.7969C44.7397 57.8236 43.1178 59.4964 43.1178 61.5572C43.1178 63.4441 44.6727 65.3844 46.8979 65.3443Z" fill="#505DD6" stroke="#505DD6" stroke-width="0.569749" stroke-miterlimit="10"/>
<path d="M51.08 57.2749C49.9004 57.2615 48.9487 56.3114 48.9487 55.1338C48.9621 53.9026 49.9004 52.9391 51.1068 52.9659C52.2864 52.9926 53.2784 53.916 53.265 55.1338C53.265 56.2846 52.2462 57.2883 51.08 57.2749ZM51.1471 53.2335C50.0747 53.1934 49.2436 54.1167 49.2436 55.0401C49.2302 56.1776 50.1685 56.9671 51.1336 56.9671C52.1926 56.9671 52.9701 56.1776 52.9969 55.1338C53.0103 54.1301 52.1524 53.18 51.1471 53.2335Z" fill="#505DD6" stroke="#505DD6" stroke-width="0.569749" stroke-miterlimit="10"/>
<path d="M46.4019 55.7227C45.6244 55.7227 45.0212 55.0938 45.0212 54.2909C45.0212 53.4879 45.6244 52.8857 46.4287 52.8857C47.1928 52.8857 47.8362 53.5415 47.8228 54.3176C47.8228 55.0938 47.1794 55.7227 46.4019 55.7227ZM46.3617 55.4417C47.0051 55.4417 47.4743 54.9867 47.4743 54.3444C47.4743 53.7288 47.0051 53.2872 46.3751 53.2604C45.8523 53.2337 45.2357 53.7556 45.2357 54.3578C45.2491 54.9466 45.7585 55.4417 46.3617 55.4417Z" fill="#505DD6" stroke="#505DD6" stroke-width="0.569749" stroke-miterlimit="10"/>
<path d="M41.7773 26.1083C41.7773 27.2592 41.7908 28.3966 41.7773 29.5475C41.7103 34.5657 41.7639 39.5706 41.7505 44.5889C41.7505 44.7494 41.7103 44.8297 41.5629 44.8966C40.3297 45.5524 39.0026 45.9404 37.6488 46.2215C36.9786 46.3687 36.3083 46.5025 35.6381 46.6095C35.1288 46.6898 34.6194 46.73 34.0966 46.7434C33.346 46.7701 32.5953 46.7701 31.8313 46.7434C30.9734 46.7166 30.1289 46.6229 29.2844 46.5159C28.3059 46.3954 27.3408 46.2081 26.3891 45.9806C25.0486 45.646 23.7618 45.1643 22.542 44.5219C22.4482 44.4684 22.4214 44.4015 22.408 44.3078C22.3812 44.0402 22.475 43.8796 22.6895 43.7056C23.3731 43.1436 24.1505 42.6886 24.7537 42.0329C25.2229 41.5244 25.4642 40.9356 25.5446 40.2531C25.6384 39.5171 25.3301 38.8881 25.0486 38.2592C24.3248 36.6399 23.3999 35.1278 22.4884 33.6156C22.4214 33.5086 22.3946 33.4149 22.3946 33.2944C22.3946 29.8419 22.3946 26.3893 22.3946 22.9502C22.3946 22.8966 22.3812 22.803 22.4348 22.7896C22.475 22.7762 22.5286 22.8297 22.5688 22.8565C23.3061 23.3249 24.1237 23.5925 24.9548 23.82C26.054 24.1278 27.1799 24.3018 28.3059 24.4356C29.1504 24.5426 29.9949 24.5828 30.8393 24.6095C31.2281 24.6229 31.6168 24.6229 31.9921 24.6363C32.9304 24.6497 33.8687 24.556 34.807 24.4222C35.5845 24.3151 36.3754 24.1813 37.1394 23.9806C38.6675 23.5657 40.1956 23.1643 41.6031 22.4149C41.7639 22.3346 41.7639 22.4149 41.7639 22.5353C41.7907 23.7129 41.7908 24.9039 41.7773 26.1083C41.7908 26.1083 41.7908 26.1083 41.7773 26.1083Z" fill="#62C6F9"/>
<path d="M41.7371 45.2043C41.7371 45.8734 41.7907 46.5023 41.7907 47.1447C41.7907 49.0985 41.8042 51.0656 41.8042 53.0194C41.8042 53.6082 41.8176 54.197 41.831 54.7858C41.8712 56.6727 41.0267 58.1045 39.5388 59.2152C38.3056 60.1386 36.8981 60.5668 35.3968 60.7542C33.909 60.9415 32.4345 60.8746 30.9466 60.7542C30.2495 60.7006 29.5391 60.6337 28.8421 60.5802C28.3461 60.5401 28.3595 60.5401 28.3729 60.0717C28.3863 59.3357 28.1853 58.6264 27.8502 57.9841C26.7376 55.8564 25.491 53.7955 24.1907 51.7615C23.6278 50.8916 23.0648 50.0218 22.4884 49.1654C22.4214 49.0717 22.408 48.978 22.408 48.8576C22.408 47.6264 22.4214 46.4087 22.408 45.1775C22.408 45.0036 22.4348 44.9902 22.5822 45.0705C23.9093 45.86 25.3703 46.3016 26.8582 46.6496C28.4534 47.0109 30.0619 47.1848 31.6972 47.2785C34.673 47.4525 37.5415 46.9573 40.3297 45.9269C40.8122 45.753 41.2814 45.5121 41.7371 45.2043Z" fill="#F9E5CD"/>
<path d="M22.4213 19.7922C22.4213 19.0829 22.3811 18.3603 22.4347 17.6645C22.542 16.072 22.8905 14.5598 23.8824 13.2484C24.5258 12.4053 25.3837 11.8567 26.3756 11.482C26.4829 11.4418 26.5901 11.4017 26.6973 11.3749C27.1397 11.2143 27.5552 11.1742 28.0378 11.3214C28.7616 11.5489 29.5257 11.5623 30.2763 11.6024C31.2146 11.6559 32.1529 11.6827 33.0913 11.6426C33.9357 11.6024 34.7802 11.5489 35.5979 11.2946C35.7721 11.2411 35.933 11.1742 36.0938 11.1073C36.4558 10.9467 36.7104 10.9199 37.0456 10.9868C39.0428 11.3883 40.343 12.6061 41.0669 14.4662C41.4154 15.3494 41.5628 16.2593 41.6701 17.1961C41.8309 18.6949 41.8175 20.207 41.8041 21.7192C41.8041 21.7861 41.8041 21.8396 41.7103 21.8664C41.0133 22.1207 40.3564 22.4552 39.646 22.6827C38.0509 23.1912 36.4558 23.6328 34.7802 23.8336C33.7615 23.954 32.7561 24.0343 31.7374 24.0209C29.5793 23.9941 27.4346 23.8202 25.3301 23.2983C24.6197 23.1243 23.936 22.9102 23.2658 22.6292C23.0513 22.5355 22.9039 22.4954 22.609 22.3883C22.475 22.3481 22.4213 22.2679 22.4347 22.2009C22.4213 21.398 22.4213 20.5951 22.4213 19.7922Z" fill="#F9E5CD"/>
<path d="M25.0755 39.8517C25.0353 40.949 24.5527 41.6716 23.7618 42.2738C22.1131 43.5451 20.3169 44.5755 18.5743 45.6862C17.435 46.4088 16.2956 47.1181 15.1562 47.8541C14.1509 48.4964 13.1053 49.0719 12.0866 49.7008C11.7113 49.9283 11.3225 50.1692 10.9338 50.3967C10.6791 50.5439 10.411 50.6643 10.143 50.758C9.63359 50.932 9.21805 50.7178 8.81592 50.4368C8.01165 49.8882 7.40845 49.1521 6.83206 48.3894C5.7329 46.9709 4.8214 45.432 3.95011 43.8796C3.48096 43.05 3.03861 42.2203 2.60967 41.3638C2.30137 40.7349 2.06009 40.0658 2.03328 39.3699C2.00647 38.8614 2.15392 38.3529 2.3952 37.8845C2.6901 37.2957 3.21287 36.9344 3.70883 36.5597C5.1297 35.4624 6.60419 34.4721 8.11889 33.5086C9.59337 32.5585 11.1081 31.6753 12.6228 30.7921C13.5879 30.2166 14.5664 29.6546 15.5583 29.1327C15.9739 28.9186 16.4296 28.7981 16.8988 28.7446C17.4886 28.6777 17.9979 28.932 18.4537 29.2799C19.1775 29.8152 19.7405 30.4977 20.2633 31.2203C21.4697 32.8796 22.4884 34.6595 23.5206 36.4393C24.0165 37.2957 24.4723 38.1789 24.8476 39.0889C24.9548 39.3699 25.0621 39.6509 25.0755 39.8517ZM4.47289 39.8383C4.44608 40.5341 4.64714 41.123 4.88842 41.7118C5.37098 42.9295 6.00099 44.0938 6.75164 45.1777C7.36824 46.0609 7.98484 46.9307 8.81592 47.6266C9.49954 48.202 10.6791 48.5232 11.6308 47.9745C12.5692 47.4393 13.5343 46.9575 14.4726 46.4356C16.3492 45.4052 18.1588 44.2543 19.9818 43.1303C20.4912 42.8091 21.0005 42.4745 21.5099 42.1668C21.912 41.9259 22.2471 41.6181 22.5554 41.2702C22.9174 40.8553 23.0648 40.3602 23.0916 39.8115C23.1184 39.1424 22.8772 38.5536 22.5957 37.9648C22.0059 36.7203 21.2954 35.556 20.5582 34.4052C20.022 33.5621 19.4858 32.7057 18.8022 31.9697C18.5877 31.7288 18.3599 31.4879 18.0516 31.3675C17.2473 31.0597 16.4564 31.0865 15.6924 31.4879C14.9015 31.9028 14.1375 32.3711 13.3868 32.8529C12.1938 33.629 11.0008 34.3918 9.78104 35.1144C8.34676 35.9709 6.9527 36.9076 5.57205 37.8444C4.86161 38.3395 4.40586 38.9685 4.47289 39.8383Z" fill="#62C6F9"/>
<path d="M25.1425 62.4671C24.2846 62.4671 23.6814 62.1593 23.1318 61.7177C22.0729 60.8746 21.215 59.8442 20.5314 58.68C19.8477 57.5291 19.2043 56.3515 18.6011 55.1471C18.0113 53.9829 17.4617 52.7919 16.8854 51.6277C16.51 50.8783 16.1213 50.1423 15.746 49.4063C15.6253 49.1654 15.5181 48.9111 15.3975 48.6703C15.317 48.523 15.3438 48.4428 15.4913 48.3625C16.8049 47.5863 18.0783 46.7432 19.3652 45.9269C19.593 45.7797 19.593 45.7797 19.7405 46.0072C20.7994 47.7737 21.9254 49.5133 23.0648 51.2262C23.6948 52.1897 24.3248 53.1532 24.9146 54.1435C25.7457 55.5218 26.5902 56.9002 27.3408 58.332C27.5821 58.8004 27.7429 59.3089 27.81 59.8442C27.877 60.4598 27.6759 60.9951 27.1933 61.3965C26.9253 61.624 26.6438 61.8515 26.3489 62.0656C25.9467 62.3333 25.5178 62.4938 25.1425 62.4671ZM23.9361 59.9245C23.8959 60.607 24.4723 61.1958 25.0889 61.1557C25.8261 61.1021 26.3489 60.714 26.3623 59.9513C26.3757 59.2688 25.8529 58.7469 25.1559 58.7335C24.4723 58.7067 23.8959 59.2956 23.9361 59.9245Z" fill="#62C6F9"/>
<path d="M36.3753 6.23606C36.3753 6.42341 36.3619 6.54385 36.3619 6.70443C36.3753 7.68132 36.3619 8.67158 36.3619 9.64847C36.3619 9.87596 36.3217 10.1035 36.3217 10.3309C36.3217 10.4514 36.2413 10.4915 36.1474 10.5317C35.6247 10.7859 35.0885 10.9465 34.4987 11C33.681 11.0803 32.8499 11.1473 32.0323 11.1071C31.1744 11.067 30.3165 11.067 29.4586 10.9599C28.8956 10.893 28.3193 10.8395 27.7697 10.6789C27.649 10.6387 27.6222 10.5852 27.6356 10.4782C27.6222 10.1168 27.5686 9.00613 27.5552 8.75187C27.4882 7.13265 27.5016 5.50005 27.5016 3.88083C27.5016 3.86745 27.515 3.84068 27.5284 3.80054C27.7697 4.05479 28.0244 4.25552 28.3058 4.42949C28.909 4.77742 29.5659 4.96477 30.2361 5.09859C30.8125 5.21903 31.4023 5.25917 31.9921 5.25917C32.6221 5.24579 33.2521 5.21903 33.8553 5.07183C34.0697 5.0183 34.0832 5.04506 34.0429 5.25917C34.0027 5.48667 34.0027 5.71416 34.0429 5.94166C34.1234 6.36988 34.4719 6.49032 34.8204 6.59737C35.303 6.74458 35.7319 6.55723 36.1474 6.32973C36.2413 6.28959 36.2949 6.24944 36.3753 6.23606Z" fill="#3240BD"/>
<path d="M36.4825 3.97461C36.4557 4.56342 36.4289 5.12546 36.4021 5.6875C36.4021 5.74103 36.3887 5.7678 36.3351 5.79456C36.0134 5.915 35.7185 6.11573 35.37 6.18264C35.0617 6.23617 34.7668 6.15587 34.5657 6.03544C34.4451 5.95514 34.4049 5.83471 34.4049 5.72765C34.3915 5.5403 34.4049 5.35295 34.3915 5.16561C34.378 5.0184 34.4451 4.95149 34.5791 4.91135C35.1823 4.75077 35.7453 4.50989 36.2547 4.14858C36.3351 4.09505 36.4021 4.04152 36.4825 3.97461Z" fill="#62C6F9"/>
<path d="M46.8978 65.3444C44.6727 65.3845 43.1044 63.4441 43.1044 61.5573C43.1044 59.4965 44.7263 57.8237 46.8442 57.7969C48.9353 57.7702 50.6511 59.4831 50.6511 61.5707C50.6645 63.6583 48.9889 65.3444 46.8978 65.3444Z" fill="#62C6F9"/>
<path d="M51.147 53.2336C52.1657 53.1801 53.0236 54.1168 52.9968 55.1339C52.97 56.1777 52.1925 56.9806 51.1336 56.9672C50.1551 56.9672 49.2301 56.1777 49.2436 55.0402C49.2436 54.1168 50.0746 53.2069 51.147 53.2336Z" fill="#62C6F9"/>
<path d="M46.3616 55.4415C45.745 55.4415 45.2356 54.9464 45.2356 54.3576C45.2356 53.7554 45.8522 53.2335 46.375 53.2603C47.005 53.287 47.4741 53.7286 47.4741 54.3442C47.4741 54.9732 47.005 55.4415 46.3616 55.4415Z" fill="#62C6F9"/>
<path d="M11.8587 25.707C9.72736 25.6802 7.74351 24.061 7.7301 21.5987C7.7301 19.3505 9.59332 17.4771 11.8453 17.4771C14.1374 17.4771 15.9872 19.3238 15.9738 21.5987C15.9738 23.8603 14.1106 25.707 11.8587 25.707ZM11.9391 25.3858C14.0168 25.3858 15.7057 23.6997 15.7057 21.6121C15.7057 19.5245 14.0034 17.8116 11.8989 17.8384C9.78098 17.8517 8.15904 19.5379 8.14564 21.5987C8.14564 23.4856 9.71396 25.426 11.9391 25.3858Z" fill="#505DD6" stroke="#505DD6" stroke-width="0.569749" stroke-miterlimit="10"/>
<path d="M16.2017 17.4768C15.0221 17.4634 14.0704 16.5133 14.0704 15.3357C14.0838 14.1045 15.0221 13.141 16.2285 13.1678C17.4081 13.1945 18.4001 14.1179 18.3867 15.3357C18.3867 16.4999 17.3679 17.4902 16.2017 17.4768ZM16.2688 13.4354C15.1964 13.3953 14.3653 14.3186 14.3653 15.242C14.3519 16.3795 15.2902 17.169 16.2554 17.169C17.3143 17.169 18.0918 16.3795 18.1186 15.3357C18.132 14.332 17.2875 13.3819 16.2688 13.4354Z" fill="#505DD6" stroke="#505DD6" stroke-width="0.569749" stroke-miterlimit="10"/>
<path d="M11.4967 16.4066C10.7193 16.4066 10.1161 15.7776 10.1161 14.9747C10.1161 14.1718 10.7193 13.5696 11.5236 13.5696C12.2876 13.5696 12.931 14.2253 12.9176 15.0015C12.9176 15.7776 12.2742 16.4066 11.4967 16.4066ZM11.4565 16.1255C12.0999 16.1255 12.5691 15.6706 12.5691 15.0282C12.5691 14.4126 12.0999 13.971 11.4699 13.9443C10.9472 13.9175 10.3306 14.4394 10.3306 15.0416C10.344 15.6304 10.8533 16.1255 11.4565 16.1255Z" fill="#505DD6" stroke="#505DD6" stroke-width="0.569749" stroke-miterlimit="10"/>
<path d="M11.9391 25.3856C9.71395 25.4258 8.14563 23.4854 8.14563 21.5985C8.14563 19.5377 9.76756 17.865 11.8855 17.8382C13.9766 17.8114 15.6923 19.5243 15.6923 21.6119C15.7057 23.6861 14.0168 25.3856 11.9391 25.3856Z" fill="#62C6F9"/>
<path d="M16.2687 13.4355C17.2874 13.382 18.1453 14.3187 18.1185 15.3358C18.0917 16.3796 17.3142 17.1825 16.2553 17.1691C15.2768 17.1691 14.3519 16.3796 14.3653 15.2421C14.3653 14.3187 15.1963 13.4088 16.2687 13.4355Z" fill="#62C6F9"/>
<path d="M11.4565 16.1254C10.8399 16.1254 10.3306 15.6302 10.3306 15.0414C10.3306 14.4392 10.9472 13.9173 11.4699 13.9441C12.0999 13.9709 12.5691 14.4125 12.5691 15.028C12.5691 15.657 12.1 16.1254 11.4565 16.1254Z" fill="#62C6F9"/>
<path d="M4.47279 39.8381C4.40577 38.9683 4.87492 38.326 5.58535 37.8442C6.96601 36.8941 8.36007 35.9707 9.79434 35.1143C11.0141 34.3917 12.2071 33.6289 13.4001 32.8661C14.1508 32.3844 14.9148 31.9026 15.7057 31.5012C16.4697 31.1131 17.2606 31.0729 18.0649 31.3807C18.3866 31.5012 18.601 31.742 18.8155 31.9829C19.4991 32.7189 20.0353 33.5754 20.5715 34.4184C21.3087 35.5693 22.0192 36.7469 22.609 37.978C22.8905 38.5668 23.1317 39.1557 23.1049 39.8248C23.0781 40.3734 22.9307 40.8686 22.5688 41.2834C22.2605 41.6313 21.9253 41.9257 21.5232 42.18C21.0138 42.5012 20.5045 42.8223 19.9951 43.1435C18.1721 44.2676 16.3625 45.405 14.4859 46.4488C13.5476 46.9707 12.5691 47.4391 11.6442 47.9878C10.7058 48.5364 9.52625 48.2153 8.82922 47.6398C7.99815 46.944 7.38155 46.0742 6.76494 45.1909C6.00089 44.107 5.38429 42.9561 4.90173 41.725C4.64705 41.1362 4.44598 40.534 4.47279 39.8381ZM4.98216 39.7712C4.96875 40.5206 5.19663 41.1362 5.46471 41.7384C6.0277 43.0231 6.77835 44.2007 7.58261 45.3381C8.02496 45.9537 8.48071 46.5693 9.04369 47.0778C9.48604 47.4926 10.0222 47.7068 10.6254 47.7201C11.0544 47.7201 11.4699 47.5462 11.8318 47.3321C14.8612 45.5924 17.8638 43.826 20.8128 41.9391C21.2685 41.6447 21.7511 41.3904 22.0862 40.9221C22.4615 40.4002 22.5956 39.8515 22.4347 39.236C22.2873 38.6739 22.0192 38.1654 21.7511 37.6569C20.8396 35.8637 19.727 34.2177 18.6413 32.5316C18.2123 31.8625 17.5689 31.6617 16.8317 31.742C16.1614 31.8089 15.5716 32.1033 15.0087 32.4647C12.6495 34.0304 10.2635 35.5425 7.8373 37.0012C7.11346 37.4428 6.36281 37.8442 5.70599 38.3795C5.26365 38.7542 4.88833 39.1824 4.98216 39.7712Z" fill="#505DD6"/>
<path d="M23.9361 59.9248C23.8959 59.2959 24.4722 58.7071 25.1559 58.7204C25.8529 58.7338 26.3891 59.2557 26.3623 59.9382C26.3489 60.701 25.8261 61.0891 25.0888 61.1426C24.4722 61.1827 23.8959 60.6073 23.9361 59.9248ZM25.2229 60.7411C25.5446 60.7545 25.8663 60.4066 25.8797 60.0185C25.8931 59.6438 25.5714 59.2959 25.1961 59.2825C24.7805 59.2691 24.432 59.5769 24.432 59.9783C24.4186 60.4066 24.7537 60.7277 25.2229 60.7411Z" fill="#6A71C4"/>
<path d="M4.98218 39.7712C4.88835 39.1824 5.25027 38.7542 5.71942 38.3795C6.37624 37.8442 7.12688 37.4428 7.85072 37.0012C10.2769 35.5425 12.6629 34.0304 15.0221 32.4647C15.5717 32.09 16.1749 31.8089 16.8451 31.742C17.5823 31.6617 18.2257 31.8625 18.6547 32.5316C19.7404 34.2043 20.8664 35.8637 21.7645 37.6569C22.0192 38.1654 22.3007 38.6739 22.4481 39.236C22.609 39.8515 22.4615 40.4002 22.0996 40.9221C21.7645 41.3905 21.2819 41.6447 20.8262 41.9391C17.8906 43.826 14.8746 45.6058 11.8452 47.3321C11.4699 47.5462 11.0678 47.7201 10.6388 47.7201C10.0356 47.7201 9.49947 47.4926 9.05712 47.0778C8.49414 46.5559 8.03839 45.9537 7.59604 45.3381C6.79177 44.1873 6.02772 43.0231 5.47814 41.7384C5.21005 41.1362 4.98218 40.5206 4.98218 39.7712ZM16.8585 33.7092C16.8585 33.3613 16.6038 33.0802 16.2955 33.0936C15.947 33.0936 15.6253 33.4416 15.6253 33.7895C15.6253 34.1107 15.8666 34.3114 16.2285 34.3114C16.5904 34.3114 16.8585 34.0571 16.8585 33.7092ZM15.7057 35.9172C15.7057 36.2384 15.9336 36.4525 16.2419 36.4525C16.5904 36.4391 16.8853 36.1715 16.8853 35.8503C16.8853 35.5291 16.6172 35.2481 16.3223 35.2481C16.0006 35.2347 15.7057 35.5559 15.7057 35.9172ZM12.2072 41.0961C12.2072 40.7615 11.9525 40.4939 11.6308 40.4939C11.2957 40.4939 11.0142 40.7749 11.0008 41.1094C10.9874 41.4038 11.242 41.6715 11.5235 41.6715C11.9257 41.6715 12.2072 41.4306 12.2072 41.0961ZM15.384 38.1654C15.384 38.4732 15.6387 38.7408 15.9202 38.7274C16.2151 38.7274 16.5234 38.4197 16.5234 38.1119C16.5234 37.8041 16.2821 37.5498 15.9738 37.5498C15.6387 37.5498 15.384 37.8175 15.384 38.1654ZM10.545 43.5851C10.545 43.8795 10.7997 44.1338 11.108 44.1471C11.4163 44.1471 11.7514 43.8527 11.7648 43.5717C11.7648 43.2907 11.5101 43.0364 11.2152 43.0364C10.8533 43.0231 10.545 43.2773 10.545 43.5851ZM18.0381 36.4926C18.0381 36.854 18.2526 37.0948 18.6011 37.1082C18.9228 37.1216 19.2043 36.8807 19.2177 36.6131C19.2177 36.2919 18.8692 35.9841 18.4938 35.9841C18.2123 35.9707 18.0381 36.1849 18.0381 36.4926ZM13.9229 37.9379C14.2178 37.9379 14.4457 37.7104 14.4457 37.4294C14.4457 37.0948 14.1508 36.8004 13.8291 36.8004C13.5342 36.8004 13.3063 37.0413 13.3063 37.3357C13.3197 37.6703 13.5878 37.9379 13.9229 37.9379ZM7.73008 39.9051C7.73008 39.5839 7.4754 39.3162 7.1671 39.3296C6.8722 39.3296 6.60411 39.6107 6.60411 39.9051C6.60411 40.2128 6.84539 40.4805 7.14029 40.4805C7.462 40.4805 7.73008 40.2128 7.73008 39.9051ZM20.7458 38.781C20.4375 38.781 20.156 39.062 20.1694 39.3698C20.1694 39.6508 20.4241 39.9051 20.7056 39.9051C21.0273 39.9051 21.3356 39.6374 21.3356 39.3564C21.3356 39.0754 21.0273 38.781 20.7458 38.781ZM10.1697 40.2931C10.1697 39.9853 9.84798 39.6909 9.53968 39.6909C9.25819 39.6909 9.03031 39.972 9.03031 40.2931C9.03031 40.5875 9.24478 40.8016 9.52628 40.8016C9.92841 40.8016 10.1697 40.6143 10.1697 40.2931ZM15.8666 40.6143C16.1749 40.6143 16.443 40.3734 16.443 40.1058C16.443 39.8114 16.1347 39.4768 15.8398 39.4768C15.5717 39.4768 15.3304 39.7445 15.317 40.0255C15.3036 40.3333 15.5717 40.6143 15.8666 40.6143ZM16.1883 42.8892C16.4966 42.8892 16.7647 42.635 16.7647 42.3272C16.7647 42.0462 16.4966 41.7785 16.1883 41.7785C15.8934 41.7652 15.6789 41.9926 15.6655 42.3138C15.6655 42.635 15.88 42.8892 16.1883 42.8892ZM14.7808 35.0474C14.7808 34.753 14.5529 34.5121 14.2848 34.5121C13.9765 34.5121 13.6816 34.8065 13.695 35.1143C13.695 35.3953 13.9229 35.6362 14.191 35.6362C14.4993 35.6362 14.7808 35.3552 14.7808 35.0474ZM8.57456 43.0632C8.93648 43.0632 9.19116 42.8491 9.19116 42.5413C9.19116 42.2469 8.93648 41.9793 8.61478 41.9793C8.33328 41.9659 8.092 42.1934 8.092 42.4878C8.092 42.7956 8.29307 43.0498 8.57456 43.0632ZM11.7514 37.2019C12.0865 37.2019 12.3278 36.961 12.3278 36.6265C12.3278 36.3454 12.1133 36.1046 11.8452 36.1046C11.5369 36.1046 11.2554 36.3856 11.2554 36.7068C11.2554 36.9878 11.4699 37.2019 11.7514 37.2019ZM18.1989 39.1423C18.5072 39.1423 18.8155 38.8479 18.8021 38.5802C18.7887 38.3126 18.5072 38.0583 18.2257 38.0583C17.9577 38.0717 17.6896 38.3527 17.6896 38.6204C17.6896 38.9148 17.9174 39.1423 18.1989 39.1423ZM13.7889 41.4172C13.4538 41.4038 13.1991 41.6313 13.1857 41.9391C13.1857 42.2201 13.3867 42.461 13.6548 42.4744C13.9765 42.4878 14.2848 42.2068 14.2848 41.9124C14.2982 41.6313 14.0838 41.4306 13.7889 41.4172ZM17.7432 40.708C17.7432 41.0425 17.9308 41.27 18.2257 41.27C18.5206 41.27 18.8021 41.0158 18.8021 40.7481C18.8021 40.4671 18.5072 40.1727 18.2123 40.1727C17.9577 40.1727 17.7432 40.4136 17.7432 40.708ZM13.3331 43.6119C13.0516 43.6119 12.8238 43.8126 12.8238 44.0802C12.8238 44.3746 13.0516 44.6155 13.3331 44.6289C13.6146 44.6423 13.8961 44.4014 13.8961 44.1471C13.8961 43.8795 13.6146 43.6252 13.3331 43.6119ZM11.604 39.3965C11.872 39.3965 12.1535 39.1557 12.1535 38.9014C12.1535 38.6338 11.872 38.3394 11.604 38.3394C11.3359 38.3394 11.108 38.5936 11.108 38.888C11.1214 39.1824 11.3225 39.3965 11.604 39.3965ZM14.0838 39.6508C14.0838 39.3564 13.8559 39.1021 13.5878 39.1155C13.3063 39.1289 13.0516 39.3832 13.0516 39.6508C13.0516 39.9318 13.2929 40.1727 13.5744 40.1727C13.8827 40.1727 14.0972 39.9586 14.0838 39.6508ZM10.9471 45.9939C10.9471 45.7262 10.7595 45.5255 10.5182 45.5255C10.2367 45.5255 9.95522 45.7931 9.94181 46.0608C9.92841 46.3016 10.1563 46.5158 10.4244 46.5158C10.7059 46.5024 10.9471 46.2749 10.9471 45.9939ZM9.84798 37.978C9.84798 37.7104 9.5933 37.4561 9.3118 37.4428C9.07053 37.4428 8.86946 37.6301 8.86946 37.871C8.86946 38.1654 9.09733 38.4063 9.39223 38.4197C9.64692 38.4197 9.84798 38.2323 9.84798 37.978Z" fill="#F8E4CD"/>
<path d="M16.8586 33.7093C16.8586 34.0572 16.5905 34.3115 16.2286 34.3115C15.8801 34.3115 15.6388 34.0974 15.6254 33.7896C15.6254 33.4417 15.9471 33.1071 16.2956 33.0937C16.6039 33.0803 16.8586 33.3614 16.8586 33.7093Z" fill="#6A71C4"/>
<path d="M15.7057 35.9173C15.7057 35.556 15.9872 35.2348 16.3223 35.2482C16.6172 35.2482 16.8853 35.5292 16.8853 35.8504C16.8853 36.1716 16.6038 36.4392 16.2419 36.4526C15.9336 36.4526 15.7057 36.2385 15.7057 35.9173Z" fill="#505DD6"/>
<path d="M12.2072 41.0963C12.2072 41.4308 11.9257 41.6717 11.5235 41.6717C11.2287 41.6717 10.9874 41.4174 11.0008 41.1097C11.0142 40.7751 11.2957 40.4807 11.6308 40.4941C11.9525 40.4941 12.2072 40.7617 12.2072 41.0963Z" fill="#505DD6"/>
<path d="M15.384 38.1654C15.384 37.8175 15.6521 37.5498 15.9872 37.5632C16.2955 37.5632 16.5368 37.8175 16.5368 38.1253C16.5368 38.4331 16.2419 38.7275 15.9336 38.7408C15.6387 38.7275 15.384 38.4732 15.384 38.1654Z" fill="#505DD6"/>
<path d="M10.545 43.5852C10.545 43.2774 10.8533 43.0098 11.2019 43.0232C11.4968 43.0366 11.7648 43.2908 11.7514 43.5585C11.7514 43.8395 11.4163 44.1339 11.0946 44.1339C10.7997 44.1473 10.5316 43.8796 10.545 43.5852Z" fill="#505DD6"/>
<path d="M18.0381 36.4928C18.0381 36.1851 18.2257 35.9709 18.4804 35.9709C18.8557 35.9709 19.2043 36.2787 19.2043 36.5999C19.2043 36.8675 18.9094 37.1084 18.5876 37.095C18.2391 37.095 18.0247 36.8542 18.0381 36.4928Z" fill="#505DD6"/>
<path d="M13.923 37.938C13.5879 37.938 13.3198 37.6704 13.3064 37.3358C13.3064 37.0414 13.5343 36.8005 13.8292 36.8005C14.1509 36.8005 14.4458 37.1083 14.4458 37.4295C14.4458 37.7105 14.2179 37.938 13.923 37.938Z" fill="#505DD6"/>
<path d="M7.7301 39.9053C7.7301 40.213 7.46201 40.4807 7.1403 40.4807C6.84541 40.4807 6.60413 40.213 6.60413 39.9053C6.60413 39.5975 6.87221 39.3298 7.16711 39.3298C7.46201 39.3164 7.71669 39.5841 7.7301 39.9053Z" fill="#505DD6"/>
<path d="M20.7458 38.7812C21.0407 38.7812 21.3356 39.0757 21.3356 39.3567C21.3356 39.6377 21.0273 39.9053 20.7056 39.9053C20.4241 39.9053 20.1694 39.6645 20.1694 39.3701C20.156 39.0623 20.4375 38.7812 20.7458 38.7812Z" fill="#505DD6"/>
<path d="M10.1696 40.2934C10.1696 40.6145 9.92837 40.8019 9.52624 40.8019C9.24474 40.8019 9.03027 40.5878 9.03027 40.2934C9.03027 39.9722 9.25815 39.6912 9.53964 39.6912C9.84794 39.6912 10.1696 39.9856 10.1696 40.2934Z" fill="#505DD6"/>
<path d="M15.8666 40.6143C15.5717 40.6143 15.3036 40.3333 15.3036 40.0255C15.317 39.7444 15.5583 39.4768 15.8264 39.4768C16.1213 39.4768 16.443 39.798 16.4296 40.1058C16.443 40.3868 16.1749 40.6143 15.8666 40.6143Z" fill="#505DD6"/>
<path d="M16.1883 42.8895C15.88 42.8895 15.6655 42.6353 15.6789 42.3007C15.6789 41.9796 15.9068 41.7521 16.2017 41.7655C16.4966 41.7788 16.7781 42.0465 16.7781 42.3141C16.7647 42.6353 16.4966 42.8895 16.1883 42.8895Z" fill="#505DD6"/>
<path d="M14.7808 35.0476C14.7808 35.3554 14.4859 35.6364 14.1776 35.6498C13.9229 35.6498 13.695 35.4089 13.6816 35.1279C13.6816 34.8201 13.9631 34.5257 14.2714 34.5257C14.5529 34.5123 14.7808 34.7532 14.7808 35.0476Z" fill="#505DD6"/>
<path d="M8.5746 43.0634C8.29311 43.0634 8.09204 42.7957 8.09204 42.4746C8.09204 42.1936 8.33332 41.9661 8.61481 41.9661C8.93652 41.9794 9.1912 42.2337 9.1912 42.5281C9.1912 42.8359 8.93652 43.0634 8.5746 43.0634Z" fill="#505DD6"/>
<path d="M11.7515 37.2021C11.47 37.2021 11.2555 36.9879 11.2555 36.7069C11.2555 36.3858 11.537 36.1047 11.8453 36.1047C12.1134 36.1047 12.3278 36.3456 12.3278 36.6266C12.3278 36.9612 12.1 37.2021 11.7515 37.2021Z" fill="#505DD6"/>
<path d="M18.1989 39.1426C17.9175 39.1426 17.6896 38.9151 17.6896 38.6207C17.6896 38.353 17.9577 38.0586 18.2258 38.0586C18.5072 38.0452 18.7887 38.2995 18.8021 38.5805C18.8155 38.8481 18.5072 39.1292 18.1989 39.1426Z" fill="#505DD6"/>
<path d="M13.7889 41.4172C14.0838 41.4306 14.2982 41.6313 14.2982 41.9124C14.2982 42.2068 13.9899 42.4878 13.6682 42.4744C13.4001 42.461 13.1857 42.2335 13.1991 41.9391C13.1991 41.6313 13.4538 41.4172 13.7889 41.4172Z" fill="#505DD6"/>
<path d="M17.7432 40.7081C17.7432 40.4137 17.9576 40.1729 18.2123 40.1729C18.4938 40.1729 18.8021 40.4673 18.8021 40.7483C18.8021 41.0159 18.5206 41.2702 18.2257 41.2702C17.9308 41.2702 17.7432 41.0427 17.7432 40.7081Z" fill="#505DD6"/>
<path d="M13.3331 43.6118C13.6146 43.6118 13.8961 43.8795 13.8961 44.1471C13.8961 44.4014 13.628 44.6288 13.3331 44.6288C13.0517 44.6155 12.8104 44.3746 12.8238 44.0802C12.8238 43.8125 13.0517 43.6118 13.3331 43.6118Z" fill="#505DD6"/>
<path d="M11.604 39.3968C11.3225 39.3968 11.1215 39.1827 11.1215 38.8883C11.1215 38.5939 11.3493 38.3396 11.6174 38.3396C11.8855 38.3396 12.167 38.634 12.167 38.9016C12.1536 39.1559 11.8721 39.3968 11.604 39.3968Z" fill="#505DD6"/>
<path d="M14.0838 39.6508C14.0838 39.9452 13.8693 40.1593 13.5744 40.1727C13.2929 40.1727 13.065 39.9318 13.0516 39.6508C13.0516 39.3831 13.3063 39.1155 13.5878 39.1155C13.8559 39.1155 14.0838 39.3564 14.0838 39.6508Z" fill="#505DD6"/>
<path d="M10.9472 45.994C10.9472 46.275 10.7059 46.5025 10.4244 46.5025C10.1563 46.5025 9.92844 46.3017 9.94185 46.0475C9.95525 45.7798 10.2367 45.5122 10.5182 45.5122C10.7595 45.5256 10.9472 45.7263 10.9472 45.994Z" fill="#505DD6"/>
<path d="M9.84803 37.9781C9.84803 38.2323 9.64696 38.4197 9.39228 38.4197C9.09738 38.4197 8.88291 38.1788 8.86951 37.871C8.86951 37.6301 9.07057 37.4294 9.31185 37.4428C9.59335 37.4562 9.84803 37.7104 9.84803 37.9781Z" fill="#505DD6"/>
</g>
<defs>
<clipPath id="clip0_812_12994">
<rect width="52.8" height="66" fill="white" transform="translate(0.800049)"/>
</clipPath>
</defs>
</svg>
