<svg width="48" height="54" viewBox="0 0 48 54" fill="none" xmlns="http://www.w3.org/2000/svg">
<path d="M39.5068 53.0999H7.63352C3.41499 53.0999 0 49.6849 0 45.4664V11.2495H47.1403V45.4664C47.1403 49.6849 43.7253 53.0999 39.5068 53.0999Z" fill="#62C6F9"/>
<path d="M47.1403 11.3164H0V6.89695C0 5.28989 1.33921 3.95068 2.94627 3.95068H44.194C45.8011 3.95068 47.1403 5.28989 47.1403 6.89695V11.3164Z" fill="#505DD6"/>
<path d="M8.70497 7.83441C7.23184 7.83441 6.09351 6.62912 6.09351 5.22294V2.61148C6.09351 1.13835 7.2988 0 8.70497 0C10.1781 0 11.3164 1.20531 11.3164 2.61148V5.22294C11.3164 6.69608 10.1781 7.83441 8.70497 7.83441Z" fill="#505DD6"/>
<path d="M18.2133 7.83441C16.7401 7.83441 15.6018 6.62912 15.6018 5.22294V2.61148C15.6018 1.13835 16.8071 0 18.2133 0C19.6864 0 20.8247 1.20531 20.8247 2.61148V5.22294C20.8247 6.69608 19.6864 7.83441 18.2133 7.83441Z" fill="#505DD6"/>
<path d="M27.6547 7.83441C26.1815 7.83441 25.0432 6.62912 25.0432 5.22294V2.61148C25.0432 1.13835 26.2485 0 27.6547 0C29.1278 0 30.2661 1.20531 30.2661 2.61148V5.22294C30.2661 6.69608 29.0609 7.83441 27.6547 7.83441Z" fill="#505DD6"/>
<path d="M37.431 7.83441C35.9579 7.83441 34.8196 6.62912 34.8196 5.22294V2.61148C34.8196 1.13835 36.0249 0 37.431 0C38.9042 0 40.0425 1.20531 40.0425 2.61148V5.22294C40.0425 6.69608 38.9042 7.83441 37.431 7.83441Z" fill="#505DD6"/>
<path d="M23.3024 31.0698C20.2222 31.1368 19.4856 34.0161 16.7403 36.6276C12.6557 40.4443 13.4592 43.7924 15.9367 44.462C18.4143 45.1316 20.557 42.3192 23.2354 42.3862C25.9139 42.3192 28.0566 45.1316 30.5342 44.462C33.0117 43.7924 33.8152 40.4443 29.7306 36.6276C27.1192 34.0161 26.3826 31.1368 23.3024 31.0698Z" fill="#505DD6"/>
<path d="M15.4681 29.1281C16.8743 31.0699 17.0082 33.4805 15.736 34.351C14.4637 35.2885 12.254 34.418 10.8478 32.4761C9.44166 30.5343 9.30774 28.1237 10.58 27.2532C11.8522 26.2488 14.0619 27.1193 15.4681 29.1281Z" fill="#505DD6"/>
<path d="M31.204 29.1948C29.6639 31.3375 29.53 33.882 30.8692 34.8864C32.2754 35.8909 34.619 34.9534 36.226 32.8107C37.7661 30.6679 37.9001 28.1234 36.5609 27.119C35.0877 26.1146 32.7441 27.052 31.204 29.1948Z" fill="#505DD6"/>
<path d="M21.8963 23.0345C22.365 25.5121 21.4276 27.7218 19.8205 27.9896C18.2135 28.2574 16.6064 26.5165 16.1377 24.0389C15.669 21.5614 16.6064 19.3517 18.2135 19.0838C19.8205 18.816 21.4945 20.557 21.8963 23.0345Z" fill="#505DD6"/>
<path d="M24.5076 22.9676C24.0389 25.646 25.0433 28.1235 26.7843 28.3914C28.5252 28.7262 30.3332 26.7843 30.8019 24.1059C31.2706 21.4275 30.2662 18.9499 28.5252 18.6821C26.7843 18.3473 24.9763 20.2891 24.5076 22.9676Z" fill="#505DD6"/>
</svg>
