<svg width="58" height="43" viewBox="0 0 58 43" fill="none" xmlns="http://www.w3.org/2000/svg">
<path d="M54.6931 5.93829C43.3286 -8.56412 29.0806 8.05852 29.0806 8.05852C29.0806 8.05852 14.7478 -8.56412 3.38336 5.93829C-9.59247 22.5609 28.9958 43 28.9958 43C28.9958 43 67.6689 22.6457 54.6931 5.93829Z" fill="#FF773B"/>
<mask id="mask0_905_1260" style="mask-type:luminance" maskUnits="userSpaceOnUse" x="0" y="0" width="58" height="43">
<path d="M54.6931 5.93829C43.3286 -8.56412 29.0806 8.05852 29.0806 8.05852C29.0806 8.05852 14.7478 -8.56412 3.38336 5.93829C-9.59247 22.5609 28.9958 43 28.9958 43C28.9958 43 67.6689 22.6457 54.6931 5.93829Z" fill="white"/>
</mask>
<g mask="url(#mask0_905_1260)">
<path d="M23.3985 46.0532C23.3985 46.0532 29.9288 43.2545 30.0984 39.1836C30.268 35.1976 26.5364 27.0559 26.1124 24.4268C25.6883 21.8825 24.4162 14.7585 32.3035 12.1294C40.1907 9.50033 41.9717 17.8117 39.9363 18.5749C37.9009 19.3382 36.2895 15.861 33.0667 16.2003C31.2009 16.4547 27.9782 17.5572 29.7592 24.766C31.5402 31.9748 35.2718 37.6571 31.7098 43C28.1478 48.343 20.5998 47.6646 23.3985 46.0532Z" fill="#505DD6" stroke="#505DD6" stroke-width="2" stroke-miterlimit="10"/>
</g>
</svg>
