<svg width="57" height="43" viewBox="0 0 57 43" fill="none" xmlns="http://www.w3.org/2000/svg">
<path d="M53.9684 5.95354C42.6289 -8.59193 28.3209 8.09086 28.3209 8.09086C28.3209 8.09086 14.0129 -8.59193 2.67332 5.95354C-10.3286 22.6363 28.3209 43 28.3209 43C28.3209 43 66.9703 22.6363 53.9684 5.95354Z" fill="#62C6F9"/>
<path d="M28.1429 22.2802C25.6494 22.3395 25.0557 24.7143 22.7403 26.8516C19.4156 29.9982 20.0093 32.7292 22.0872 33.3229C24.1058 33.9166 25.8868 31.6011 28.0835 31.6011C30.2802 31.5418 32.0612 33.8572 34.0798 33.3229C36.1577 32.7292 36.7514 29.9982 33.4267 26.8516C31.2301 24.7143 30.6364 22.3395 28.1429 22.2802Z" fill="#505DD6"/>
<path d="M21.6715 20.6772C22.8589 22.2802 22.9776 24.2394 21.909 24.9518C20.8403 25.7236 19.0593 25.0112 17.8719 23.4082C16.6845 21.8052 16.5657 19.846 17.6344 19.1336C18.703 18.3618 20.4841 19.0149 21.6715 20.6772Z" fill="#505DD6"/>
<path d="M34.5547 20.7366C33.2485 22.5176 33.1298 24.5956 34.3172 25.4267C35.4452 26.2579 37.4044 25.4861 38.7105 23.7644C40.0166 21.9833 40.1354 19.9054 38.948 19.0742C37.82 18.1837 35.8608 18.9555 34.5547 20.7366Z" fill="#505DD6"/>
<path d="M26.9553 15.6902C27.3115 17.7087 26.5397 19.5492 25.2336 19.7867C23.9275 20.0242 22.562 18.5399 22.2058 16.5214C21.8495 14.5028 22.6213 12.6624 23.9275 12.4249C25.2336 12.1874 26.5991 13.6716 26.9553 15.6902Z" fill="#505DD6"/>
<path d="M29.0927 15.6308C28.6771 17.8274 29.5083 19.846 30.9332 20.0835C32.358 20.3209 33.8423 18.7773 34.1985 16.5213C34.6141 14.3246 33.7829 12.3061 32.358 12.0686C30.9332 11.8311 29.4489 13.4341 29.0927 15.6308Z" fill="#505DD6"/>
</svg>
