<svg width="22" height="22" viewBox="0 0 22 22" fill="none" xmlns="http://www.w3.org/2000/svg">
<path d="M11.0001 0.166992C8.85746 0.166992 6.76294 0.802356 4.98141 1.99274C3.19988 3.18312 1.81134 4.87505 0.991391 6.85459C0.171442 8.83412 -0.0430942 11.0123 0.374912 13.1138C0.792919 15.2153 1.82469 17.1456 3.33976 18.6606C4.85483 20.1757 6.78515 21.2075 8.88661 21.6255C10.9881 22.0435 13.1663 21.829 15.1458 21.009C17.1254 20.1891 18.8173 18.8005 20.0077 17.019C21.1981 15.2375 21.8334 13.143 21.8334 11.0003C21.8305 8.12803 20.6883 5.37419 18.6572 3.34317C16.6262 1.31215 13.8724 0.16986 11.0001 0.166992ZM17.434 8.52274V9.22258C17.434 9.27614 17.4233 9.32916 17.4025 9.37851C17.3817 9.42786 17.3512 9.47254 17.3128 9.50991C17.2744 9.54727 17.2289 9.57657 17.1791 9.59606C17.1292 9.61556 17.0759 9.62486 17.0223 9.62341C15.8786 9.54234 14.7843 9.1247 13.8774 8.42308V13.5451C13.8773 14.112 13.7642 14.6732 13.5447 15.1958C13.3252 15.7185 13.0037 16.1922 12.5991 16.5892C12.1908 16.9962 11.7057 17.3178 11.1719 17.5354C10.6381 17.753 10.0663 17.8623 9.48992 17.8567C8.33068 17.8547 7.21809 17.3999 6.38942 16.5892C5.86226 16.0578 5.48255 15.3982 5.28766 14.6754C5.09277 13.9527 5.08942 13.1916 5.27792 12.4672C5.45017 11.7717 5.79792 11.1325 6.28867 10.6114C6.65465 10.1641 7.11598 9.80421 7.63893 9.55811C8.16188 9.31201 8.73322 9.18589 9.31117 9.18899H10.1995V11.0339C10.1999 11.0875 10.1889 11.1405 10.1671 11.1895C10.1454 11.2385 10.1135 11.2823 10.0735 11.318C10.0335 11.3536 9.98641 11.3804 9.93528 11.3964C9.88415 11.4124 9.83019 11.4174 9.777 11.4109C9.26122 11.256 8.70543 11.3074 8.22679 11.5542C7.74816 11.8011 7.38407 12.2242 7.21128 12.7343C7.03849 13.2443 7.0705 13.8016 7.30056 14.2885C7.53061 14.7755 7.94075 15.154 8.4445 15.3445C8.737 15.5124 9.06417 15.611 9.4 15.6337C9.66 15.6446 9.92 15.6121 10.167 15.5341C10.5795 15.3952 10.9384 15.131 11.1934 14.7783C11.4484 14.4256 11.5869 14.002 11.5894 13.5667V4.23383C11.5893 4.18266 11.5992 4.13197 11.6187 4.08466C11.6382 4.03735 11.6668 3.99435 11.7029 3.95812C11.7391 3.92189 11.782 3.89315 11.8293 3.87353C11.8765 3.85392 11.9272 3.84383 11.9783 3.84383H13.5113C13.6109 3.84369 13.7069 3.88182 13.7792 3.95037C13.8516 4.01891 13.8949 4.11262 13.9002 4.21216C13.9562 4.69011 14.1081 5.15184 14.3468 5.56972C14.5854 5.98761 14.9059 6.35307 15.289 6.64424C15.8069 7.03304 16.4221 7.27145 17.0668 7.33324C17.1633 7.3415 17.2536 7.38446 17.3209 7.45417C17.3882 7.52388 17.428 7.61562 17.4329 7.71241L17.434 8.52274Z" fill="black"/>
</svg>
