<svg width="50" height="53" viewBox="0 0 50 53" fill="none" xmlns="http://www.w3.org/2000/svg">
<path d="M38.3652 18.796C39.5753 20.0867 41.2693 20.8934 43.1247 20.8934C46.7549 20.8934 49.659 17.9893 49.659 14.3592C49.659 10.7291 46.7549 7.82496 43.1247 7.82496C42.6407 7.82496 42.1567 7.90563 41.6727 7.9863C41.7533 7.50228 41.834 7.01826 41.834 6.53424C41.834 2.90411 38.9299 0 35.2998 0C31.6696 0 28.7655 2.90411 28.7655 6.53424C28.7655 7.9863 29.2495 9.35768 30.0562 10.4064L11.9862 30.2511C10.7762 28.9604 9.08213 28.1537 7.22673 28.1537C3.51592 28.1537 0.611816 31.1385 0.611816 34.688C0.611816 38.3181 3.51592 41.2222 7.14606 41.2222C7.63008 41.2222 8.11409 41.1415 8.59811 41.0609C8.51744 41.5449 8.43677 42.0289 8.43677 42.5129C8.43677 46.143 11.3409 49.0471 14.971 49.0471C18.6011 49.0471 21.5053 46.143 21.5053 42.5129C21.5053 41.0609 21.0212 39.6895 20.2145 38.6408L38.3652 18.796Z" fill="#505DD6"/>
<path d="M30.2178 53C37.3908 53 43.2056 47.1852 43.2056 40.0122C43.2056 32.8393 37.3908 27.0244 30.2178 27.0244C23.0448 27.0244 17.23 32.8393 17.23 40.0122C17.23 47.1852 23.0448 53 30.2178 53Z" fill="#62C6F9"/>
<path d="M18.7622 33.8812C18.7622 33.8812 23.199 35.0106 26.9098 32.5098C30.6206 30.0091 31.508 27.105 31.508 27.105C31.508 27.105 32.1534 27.1857 32.476 27.2663C32.8794 27.347 33.5247 27.5083 33.5247 27.5083C33.5247 27.5083 31.9114 31.5418 28.2812 33.9619C25.0544 36.14 21.3436 36.2207 18.1975 35.414C18.5202 34.3653 18.7622 33.8812 18.7622 33.8812Z" fill="#505DD6"/>
<path d="M41.5919 46.1431C41.5919 46.1431 37.1551 45.0137 33.4443 47.5144C29.8141 50.0152 28.8461 52.9193 28.8461 52.9193C28.8461 52.9193 28.2007 52.8386 27.8781 52.758C27.4747 52.6773 26.8293 52.516 26.8293 52.516C26.8293 52.516 28.4427 48.4825 32.0729 46.0624C35.2997 43.8843 39.0105 43.8036 42.1566 44.6103C41.9146 45.659 41.5919 46.1431 41.5919 46.1431Z" fill="#505DD6"/>
<path d="M30.2987 39.7701C29.4113 40.1734 29.5727 41.1415 29.0886 42.2708C28.3626 43.8842 29.008 44.7716 29.8147 44.6909C30.6214 44.6103 30.944 43.4809 31.7507 43.1582C32.5574 42.8355 33.5255 43.4002 34.1708 42.8355C34.8162 42.3515 34.6548 41.2221 32.9608 40.5768C31.7507 40.1734 31.186 39.3667 30.2987 39.7701Z" fill="#505DD6"/>
<path d="M27.717 40.1735C28.3624 40.5768 28.6851 41.2222 28.4431 41.7062C28.2011 42.1096 27.3944 42.1902 26.749 41.7869C26.1036 41.3835 25.781 40.7382 26.023 40.2542C26.265 39.7701 27.0717 39.7701 27.717 40.1735Z" fill="#505DD6"/>
<path d="M32.3154 38.2375C32.1541 39.0442 32.3961 39.8509 32.9608 39.9316C33.5255 40.0929 34.0902 39.4475 34.2515 38.6408C34.4128 37.8342 34.1708 37.0275 33.6061 36.9468C33.1221 36.7854 32.5574 37.3501 32.3154 38.2375Z" fill="#505DD6"/>
<path d="M28.8467 37.5115C29.2501 38.1568 29.2501 38.9635 28.8467 39.2055C28.4434 39.4475 27.7173 39.2055 27.314 38.4795C26.9106 37.8341 26.9106 37.0274 27.314 36.7854C27.7173 36.5434 28.4434 36.8661 28.8467 37.5115Z" fill="#505DD6"/>
<path d="M29.5725 37.1887C29.7338 38.076 30.3792 38.6407 30.9439 38.4794C31.5086 38.3181 31.7506 37.592 31.5892 36.7047C31.4279 35.8173 30.7825 35.2526 30.2178 35.4139C29.7338 35.5753 29.4111 36.382 29.5725 37.1887Z" fill="#505DD6"/>
</svg>
