<svg width="40" height="56" viewBox="0 0 40 56" fill="none" xmlns="http://www.w3.org/2000/svg">
<path d="M39.0863 19.5432C39.0863 8.73695 30.3494 0 19.5432 0C8.73695 0 0 8.73695 0 19.5432C0 22.992 0.919679 26.2108 2.47164 29.0274L16.3243 53.5713C17.7038 56.0429 21.325 56.0429 22.7046 53.5713L36.5572 29.0274C38.2241 26.2108 39.0863 22.992 39.0863 19.5432Z" fill="#505DD6"/>
<path d="M19.6008 30.8667C26.2673 30.8667 31.6716 25.4624 31.6716 18.7959C31.6716 12.1294 26.2673 6.7251 19.6008 6.7251C12.9343 6.7251 7.53003 12.1294 7.53003 18.7959C7.53003 25.4624 12.9343 30.8667 19.6008 30.8667Z" fill="#62C6F9"/>
<path d="M19.4283 18.6235C17.6464 18.681 17.2441 20.2905 15.6921 21.7849C13.3929 23.9692 13.7953 25.866 15.2323 26.2684C16.6693 26.6707 17.8763 25.0613 19.4283 25.0613C20.9803 25.0038 22.1873 26.6132 23.6243 26.2684C25.0613 25.866 25.5212 23.9692 23.1645 21.7849C21.6125 20.2905 21.2102 18.6235 19.4283 18.6235Z" fill="#505DD6"/>
<path d="M14.9447 17.4739C15.7494 18.6234 15.8644 19.9455 15.1171 20.4628C14.3699 20.9801 13.1628 20.5203 12.3006 19.3707C11.4959 18.2211 11.3809 16.899 12.1282 16.3817C12.8754 15.8644 14.14 16.3243 14.9447 17.4739Z" fill="#505DD6"/>
<path d="M23.9118 17.5315C22.9921 18.7386 22.9346 20.2331 23.7393 20.8079C24.544 21.3827 25.8661 20.8654 26.7858 19.6583C27.7054 18.4512 27.7629 16.9567 26.9582 16.3819C26.1535 15.7496 24.8314 16.267 23.9118 17.5315Z" fill="#505DD6"/>
<path d="M18.6235 14.0251C18.8534 15.4046 18.3361 16.7266 17.4164 16.8416C16.4967 17.014 15.577 15.9794 15.3471 14.5999C15.1172 13.2204 15.6345 11.8983 16.5542 11.7834C17.4164 11.6109 18.3935 12.5881 18.6235 14.0251Z" fill="#505DD6"/>
<path d="M20.118 13.9676C19.8306 15.5195 20.4054 16.899 21.4401 17.0715C22.4172 17.2439 23.4519 16.1518 23.7393 14.5998C24.0267 13.0479 23.4519 11.6684 22.4172 11.4959C21.3826 11.3235 20.3479 12.4156 20.118 13.9676Z" fill="#505DD6"/>
</svg>
