<svg width="47" height="53" viewBox="0 0 47 53" fill="none" xmlns="http://www.w3.org/2000/svg">
<path d="M39 52.4001H7.5C3.4 52.4001 0 49.0001 0 44.9001V11.1001H46.5V44.9001C46.5 49.0001 43.2 52.4001 39 52.4001Z" fill="#FF773B"/>
<path d="M46.5 11.0999H0V6.7999C0 5.1999 1.3 3.8999 2.9 3.8999H43.6C45.2 3.8999 46.5 5.1999 46.5 6.7999V11.0999Z" fill="#505DD6"/>
<path d="M8.6 7.7C7.1 7.7 6 6.6 6 5.1V2.6C6 1.2 7.1 0 8.6 0C10 0 11.2 1.2 11.2 2.6V5.2C11.2 6.6 10 7.7 8.6 7.7Z" fill="#505DD6"/>
<path d="M17.9999 7.7C16.5999 7.7 15.3999 6.5 15.3999 5.1V2.6C15.3999 1.2 16.4999 0 17.9999 0C19.3999 0 20.5999 1.2 20.5999 2.6V5.2C20.4999 6.6 19.3999 7.7 17.9999 7.7Z" fill="#505DD6"/>
<path d="M27.3002 7.7C25.9002 7.7 24.7002 6.5 24.7002 5.1V2.6C24.7002 1.2 25.9002 0 27.3002 0C28.7002 0 29.9002 1.2 29.9002 2.6V5.2C29.8002 6.6 28.7002 7.7 27.3002 7.7Z" fill="#505DD6"/>
<path d="M36.8998 7.7C35.4998 7.7 34.2998 6.5 34.2998 5.1V2.6C34.2998 1.2 35.4998 0 36.8998 0C38.2998 0 39.4998 1.2 39.4998 2.6V5.2C39.4998 6.6 38.3998 7.7 36.8998 7.7Z" fill="#505DD6"/>
<mask id="mask0_912_1326" style="mask-type:luminance" maskUnits="userSpaceOnUse" x="0" y="11" width="47" height="42">
<path d="M39 52.4001H7.5C3.4 52.4001 0 49.0001 0 44.9001V11.1001H46.5V44.9001C46.5 49.0001 43.2 52.4001 39 52.4001Z" fill="white"/>
</mask>
<g mask="url(#mask0_912_1326)">
<path d="M15.4 52.2002C15.4 52.2002 22.2 49.3002 22.4 45.1002C22.6 40.9002 18.7 32.5002 18.2 29.8002C17.7 27.1002 16.4 19.7002 24.7 17.0002C33 14.3002 34.8 22.9002 32.6 23.7002C30.4 24.5002 28.8 20.8002 25.4 21.3002C23.5 21.5002 20.2 22.7002 22 30.2002C23.8 37.7002 27.7 43.6002 24 49.1002C20.3 54.6002 12.4 53.9002 15.4 52.2002Z" fill="#505DD6" stroke="#505DD6" stroke-width="1.7606" stroke-miterlimit="10"/>
</g>
</svg>
