<svg width="28" height="40" viewBox="0 0 28 40" fill="none" xmlns="http://www.w3.org/2000/svg">
<g id="Group 529">
<path id="Vector" d="M12.6048 20.9161C17.3916 20.9161 21.2721 17.0356 21.2721 12.2488C21.2721 7.46201 17.3916 3.58154 12.6048 3.58154C7.81797 3.58154 3.9375 7.46201 3.9375 12.2488C3.9375 17.0356 7.81797 20.9161 12.6048 20.9161Z" fill="white" stroke="#505DD6" stroke-width="0.922051" stroke-miterlimit="10"/>
<g id="Vector_2">
<path d="M15.9258 22.9448C15.9258 22.9448 16.8478 26.4486 17.7699 27.1862L21.2737 25.3421C21.2737 25.3421 20.9049 24.0512 18.6919 21.4695" fill="#FF773B"/>
<path d="M15.9258 22.9448C15.9258 22.9448 16.8478 26.4486 17.7699 27.1862L21.2737 25.3421C21.2737 25.3421 20.9049 24.0512 18.6919 21.4695" stroke="#505DD6" stroke-width="0.922051" stroke-miterlimit="10"/>
</g>
<g id="Vector_3">
<path d="M17.7695 27.3705L22.3798 37.8818C22.3798 37.8818 23.4862 39.9104 25.5148 38.9883C27.5433 38.2507 26.8056 35.8533 26.8056 35.8533L21.2733 25.5264" fill="#505DD6"/>
<path d="M17.7695 27.3705L22.3798 37.8818C22.3798 37.8818 23.4862 39.9104 25.5148 38.9883C27.5433 38.2507 26.8056 35.8533 26.8056 35.8533L21.2733 25.5264" stroke="#505DD6" stroke-width="0.922051" stroke-miterlimit="10"/>
</g>
<g id="Vector_4">
<path d="M7.62562 8.00732C7.62562 8.00732 5.96592 9.85143 6.51915 12.4332L7.62562 8.00732Z" fill="white"/>
<path d="M7.62562 8.00732C7.62562 8.00732 5.96592 9.85143 6.51915 12.4332" stroke="#505DD6" stroke-width="0.922051" stroke-miterlimit="10" stroke-linecap="round"/>
</g>
<path id="Vector_5" d="M12.6084 23.498C18.8211 23.498 23.8574 18.4617 23.8574 12.249C23.8574 6.03636 18.8211 1 12.6084 1C6.39573 1 1.35938 6.03636 1.35938 12.249C1.35938 18.4617 6.39573 23.498 12.6084 23.498Z" stroke="#505DD6" stroke-width="0.922051" stroke-miterlimit="10"/>
</g>
</svg>
