<svg width="73" height="44" viewBox="0 0 73 44" fill="none" xmlns="http://www.w3.org/2000/svg">
<path d="M19.1787 43.7184C20.6482 43.7184 22.3933 43.4428 23.771 42.2488C24.6894 41.4222 25.6997 39.9527 25.3324 37.2892C25.2405 36.187 24.1384 35.3604 23.0362 35.4523C21.9341 35.5441 21.1075 36.6463 21.1993 37.7484C21.2912 38.2076 21.2911 38.8506 20.9238 39.1261C20.4645 39.4935 19.1787 39.6772 17.5255 39.3098C16.056 38.9424 14.7701 38.575 13.4843 38.2076C9.2594 36.9218 5.2182 35.636 0.90146 38.575C-0.0169943 39.2179 -0.292531 40.5038 0.350388 41.4222C0.993306 42.3407 2.27914 42.6162 3.1976 41.9733C5.76927 40.2282 8.0654 40.8712 12.2903 42.157C13.668 42.6162 15.0457 42.9836 16.607 43.351C17.1581 43.5347 18.0766 43.6265 19.1787 43.7184Z" fill="#FF773B"/>
<path d="M11.0044 25.8086C10.3615 23.788 9.99414 21.6755 9.99414 19.3794C9.99414 17.5425 10.2697 15.7974 10.7289 14.0524C13.5761 14.2361 16.3315 14.879 18.9031 15.7974C16.3315 17.6343 12.9332 20.7571 11.0044 25.8086Z" fill="#FF773B"/>
<path d="M12.3823 10.1947C13.1171 8.9089 13.9437 7.62306 14.954 6.52092C36.9969 5.51062 47.4673 25.1655 47.9265 25.9922C47.9265 25.9922 47.9265 26.084 48.0184 26.084C47.1917 28.3801 45.9978 30.4926 44.4364 32.2376C41.0381 27.3698 29.4656 11.848 12.3823 10.1947Z" fill="#FF773B"/>
<path d="M19.7295 2.66352C22.6685 0.918455 26.0668 0 29.7406 0C40.5784 0.0918455 49.2119 8.90901 49.12 19.6549C49.12 19.9305 49.12 20.206 49.12 20.4815C44.8951 14.6953 35.2514 3.94935 19.7295 2.66352Z" fill="#FF773B"/>
<path d="M23.4953 17.9098C25.5159 19.0119 27.4447 20.2978 29.1898 21.6755C25.4241 23.5124 18.9949 27.7373 17.5254 34.9012C16.1477 33.7991 14.8619 32.5132 13.8516 31.1355C15.1374 22.4102 21.291 18.8282 23.4953 17.9098Z" fill="#FF773B"/>
<path d="M32.4962 24.5227C37.1803 28.9313 40.3031 33.3399 41.4971 35.0849C38.1906 37.6566 33.9657 39.1261 29.4653 39.1261C26.5263 39.1261 23.7709 38.3914 21.1992 37.1974C21.6584 29.4824 29.9245 25.533 32.4962 24.5227Z" fill="#FF773B"/>
<path d="M35.5273 29.6659C35.5273 29.6659 35.8946 27.5535 34.6088 26.3595C33.323 25.1655 31.9453 25.3492 31.4861 26.084C31.0268 26.8187 30.935 28.1964 31.7616 29.2067C32.5882 30.217 33.5985 30.9518 33.5985 30.9518L35.5273 29.6659Z" fill="#FAE6CE"/>
<path d="M72.3571 29.9415C71.8979 29.7578 71.4387 30.0334 71.3468 30.4926C69.6018 35.7278 67.673 36.0952 62.9889 34.8093C61.152 34.2583 58.5803 34.7175 56.6515 35.3604V35.2686C57.2945 31.6866 56.6515 27.278 52.9777 25.9922C49.3039 24.7063 40.946 27.0025 36.9048 28.472C34.1494 29.4823 28.1795 30.5844 28.7305 34.993C29.0061 36.9218 31.8533 38.6668 40.5786 40.0445C47.3751 41.1467 52.8859 39.769 55.3657 37.4728C57.2945 36.7381 60.6009 35.8196 62.6215 36.3707C68.5915 38.1158 71.0713 36.7381 73 31.0437C73 30.5844 72.8163 30.1252 72.3571 29.9415Z" fill="#505DD6"/>
<path d="M31.3938 31.9622C31.6474 31.9622 31.853 31.7566 31.853 31.5029C31.853 31.2493 31.6474 31.0437 31.3938 31.0437C31.1402 31.0437 30.9346 31.2493 30.9346 31.5029C30.9346 31.7566 31.1402 31.9622 31.3938 31.9622Z" fill="#FAE6CE"/>
<path d="M32.3123 32.9724C32.5659 32.9724 32.7715 32.7668 32.7715 32.5132C32.7715 32.2596 32.5659 32.054 32.3123 32.054C32.0586 32.054 31.853 32.2596 31.853 32.5132C31.853 32.7668 32.0586 32.9724 32.3123 32.9724Z" fill="#FAE6CE"/>
<path d="M28.9144 34.1664C29.2187 34.1664 29.4654 33.9196 29.4654 33.6153C29.4654 33.3109 29.2187 33.0642 28.9144 33.0642C28.61 33.0642 28.3633 33.3109 28.3633 33.6153C28.3633 33.9196 28.61 34.1664 28.9144 34.1664Z" fill="#FAE6CE"/>
<path d="M35.6189 33.0643C35.6189 33.0643 34.976 32.4214 35.3434 31.4111C35.6189 30.309 36.9047 28.3802 38.6498 29.3905C40.3949 30.4008 39.8438 32.4214 39.0172 33.248C38.1906 34.0746 36.7211 34.5338 36.2618 33.7072C35.9863 33.3399 35.6189 33.0643 35.6189 33.0643Z" fill="#FAE6CE"/>
</svg>
