<svg width="22" height="22" viewBox="0 0 22 22" fill="none" xmlns="http://www.w3.org/2000/svg">
<path d="M11.0001 0.166504C8.85746 0.166504 6.76294 0.801868 4.98141 1.99225C3.19988 3.18263 1.81134 4.87457 0.991391 6.8541C0.171442 8.83363 -0.0430942 11.0119 0.374912 13.1133C0.792919 15.2148 1.82469 17.1451 3.33976 18.6602C4.85483 20.1752 6.78515 21.207 8.88661 21.625C10.9881 22.043 13.1663 21.8285 15.1458 21.0085C17.1254 20.1886 18.8173 18.8 20.0077 17.0185C21.1981 15.237 21.8334 13.1425 21.8334 10.9998C21.8305 8.12754 20.6883 5.3737 18.6572 3.34268C16.6262 1.31166 13.8724 0.169372 11.0001 0.166504ZM17.434 8.52225V9.22209C17.434 9.27565 17.4233 9.32867 17.4025 9.37802C17.3817 9.42737 17.3512 9.47205 17.3128 9.50942C17.2744 9.54678 17.2289 9.57608 17.1791 9.59557C17.1292 9.61507 17.0759 9.62437 17.0223 9.62292C15.8786 9.54185 14.7843 9.12422 13.8774 8.42259V13.5446C13.8773 14.1115 13.7642 14.6727 13.5447 15.1953C13.3252 15.718 13.0037 16.1917 12.5991 16.5888C12.1908 16.9957 11.7057 17.3173 11.1719 17.5349C10.6381 17.7526 10.0663 17.8618 9.48992 17.8563C8.33068 17.8542 7.21809 17.3994 6.38942 16.5888C5.86226 16.0573 5.48255 15.3977 5.28766 14.6749C5.09277 13.9522 5.08942 13.1911 5.27792 12.4667C5.45017 11.7712 5.79792 11.132 6.28867 10.6109C6.65465 10.1636 7.11598 9.80372 7.63893 9.55762C8.16188 9.31152 8.73322 9.1854 9.31117 9.1885H10.1995V11.0334C10.1999 11.087 10.1889 11.14 10.1671 11.189C10.1454 11.238 10.1135 11.2818 10.0735 11.3175C10.0335 11.3531 9.98641 11.3799 9.93528 11.3959C9.88415 11.4119 9.83019 11.4169 9.777 11.4104C9.26122 11.2555 8.70543 11.3069 8.22679 11.5538C7.74816 11.8006 7.38407 12.2237 7.21128 12.7338C7.03849 13.2438 7.0705 13.8011 7.30056 14.288C7.53061 14.775 7.94075 15.1536 8.4445 15.344C8.737 15.5119 9.06417 15.6105 9.4 15.6333C9.66 15.6441 9.92 15.6116 10.167 15.5336C10.5795 15.3948 10.9384 15.1305 11.1934 14.7778C11.4484 14.4251 11.5869 14.0015 11.5894 13.5663V4.23334C11.5893 4.18217 11.5992 4.13148 11.6187 4.08417C11.6382 4.03686 11.6668 3.99386 11.7029 3.95763C11.7391 3.9214 11.782 3.89266 11.8293 3.87304C11.8765 3.85343 11.9272 3.84334 11.9783 3.84334H13.5113C13.6109 3.8432 13.7069 3.88133 13.7792 3.94988C13.8516 4.01842 13.8949 4.11213 13.9002 4.21167C13.9562 4.68962 14.1081 5.15135 14.3468 5.56924C14.5854 5.98712 14.9059 6.35258 15.289 6.64375C15.8069 7.03255 16.4221 7.27096 17.0668 7.33275C17.1633 7.34101 17.2536 7.38397 17.3209 7.45368C17.3882 7.52339 17.428 7.61513 17.4329 7.71192L17.434 8.52225Z" fill="white"/>
</svg>
