<svg width="40" height="55" viewBox="0 0 40 55" fill="none" xmlns="http://www.w3.org/2000/svg">
<path d="M39.548 19.348C39.548 8.67324 30.8748 0 20.2 0C9.52529 0 0.852051 8.67324 0.852051 19.348C0.852051 22.7673 1.76941 25.9363 3.27055 28.7718L17.031 53.1236C18.4487 55.6255 21.9514 55.6255 23.3691 53.1236L37.1295 28.7718C38.7141 26.0197 39.548 22.7673 39.548 19.348Z" fill="#505DD6"/>
<path d="M20.2001 30.523C26.7865 30.523 32.1258 25.1837 32.1258 18.5973C32.1258 12.0109 26.7865 6.67163 20.2001 6.67163C13.6137 6.67163 8.27441 12.0109 8.27441 18.5973C8.27441 25.1837 13.6137 30.523 20.2001 30.523Z" fill="#FF773B"/>
<path d="M15.6129 29.8558C15.6129 29.8558 19.3658 28.1879 19.5326 25.8528C19.616 23.5177 17.4477 18.8475 17.1975 17.3463C16.9473 15.8452 16.1967 11.7588 20.7835 10.2576C25.3703 8.75648 26.3711 13.5101 25.2035 13.9271C24.036 14.3441 23.0352 12.3425 21.2005 12.5927C20.1163 12.7595 18.2816 13.3433 19.2824 17.5131C20.2831 21.6829 22.5348 25.0188 20.4499 28.1879C18.365 31.3569 14.0284 30.7732 15.6129 29.8558Z" fill="#505DD6" stroke="#505DD6" stroke-width="1.1748" stroke-miterlimit="10"/>
</svg>
