<svg width="66" height="59" viewBox="0 0 66 59" fill="none" xmlns="http://www.w3.org/2000/svg">
<g clip-path="url(#clip0_812_13063)">
<path d="M3.41241 41.1904C3.42528 39.9537 3.38665 38.7171 3.45104 37.4805C3.50254 36.5372 3.59268 35.5938 3.70857 34.6631C3.73432 34.4209 3.69569 34.2679 3.47679 34.1149C2.70418 33.6177 2.00884 33.0313 1.41651 32.3302C0.631027 31.3995 0.450752 30.3669 0.901439 29.2195C1.17185 28.5311 1.51952 27.8682 1.81569 27.1925C3.46391 23.4954 5.4083 19.9641 7.6231 16.573C8.74338 14.8647 9.9538 13.2202 11.4861 11.8306C12.9283 10.5302 14.4607 9.35737 16.2634 8.57972C17.242 8.15902 18.2464 8.00603 19.3023 7.99329C19.9462 7.99329 20.59 7.92954 21.221 7.8658C21.3884 7.85305 21.5042 7.77656 21.5944 7.62358C23.1138 5.12488 25.1484 3.17436 27.8396 1.925C29.3719 1.21109 30.9944 0.803138 32.6941 0.662904C34.4454 0.509923 35.952 1.0836 37.3169 2.11623C38.2955 2.85564 39.081 3.76079 39.5703 4.8954C39.8407 5.50733 39.9953 6.14475 39.9953 6.80768C39.9953 6.93516 40.0081 6.9989 40.1627 7.01165C40.8451 7.0244 41.4632 7.26662 42.0427 7.58533C43.266 8.24826 44.3476 9.11515 45.3906 10.0075C46.3564 10.8235 47.2578 11.7158 48.1591 12.6082C51.5071 15.9101 54.6233 19.4287 57.5978 23.062C59.4907 25.3822 61.3578 27.7279 63.0962 30.1502C63.6499 30.9278 64.1778 31.7182 64.5384 32.6106C64.8732 33.4648 65.0534 34.3317 64.8216 35.2496C64.6285 36.0017 63.946 36.5754 62.9674 36.3332C62.7485 36.2822 62.8129 36.4097 62.8257 36.5117C62.903 38.2454 63.006 39.9665 62.9545 41.7003C62.8901 43.8803 62.8515 46.073 62.697 48.253C62.6068 49.5661 62.3879 50.8537 61.8471 52.0648C61.0874 53.7604 59.7997 54.8057 57.9455 55.1117C55.5504 55.4942 53.1682 55.9276 50.7731 56.2591C48.906 56.514 47.0388 56.7308 45.1588 56.922C43.1887 57.1132 41.2057 57.3172 39.2355 57.4957C37.7032 57.6359 36.158 57.7634 34.6257 57.9036C32.7328 58.0821 30.8399 58.2223 28.947 58.3498C27.6207 58.4391 26.3459 58.2988 25.1484 57.6487C24.7234 57.4192 24.2212 57.3299 23.7577 57.177C20.4999 56.1061 17.2292 55.099 14.0229 53.8751C12.1428 53.1612 10.2628 52.4345 8.43434 51.6059C7.4042 51.1469 6.47707 50.535 5.60145 49.8466C4.53268 49.0052 3.99186 47.8833 3.73432 46.583C3.5283 45.4993 3.55405 44.403 3.47679 43.3193C3.39953 42.5927 3.39953 41.8915 3.41241 41.1904ZM12.5034 27.167C12.4905 27.167 12.4905 27.1798 12.4776 27.1798H12.4905C12.4905 27.1798 12.5034 27.1798 12.5034 27.167C12.5163 27.1543 12.5163 27.1543 12.5163 27.1415C12.5163 27.1543 12.5034 27.167 12.5034 27.167ZM9.81215 27.9447C9.92804 27.9447 10.0311 27.8809 10.1341 27.8427C10.2371 27.8044 10.353 27.7662 10.4689 27.7662C10.6491 27.7662 10.7135 27.8809 10.6234 28.0339C10.5976 28.0849 10.559 28.1231 10.5204 28.1614C10.2757 28.4291 10.0311 28.6841 9.82503 28.9773C9.43873 29.5 9.16831 30.0609 9.03955 30.6983C9.10393 30.6983 9.12968 30.6601 9.15544 30.6219C9.34859 30.3541 9.55462 30.0992 9.77352 29.8569C10.0568 29.5382 10.3787 29.245 10.7522 29.0155C10.8294 28.9646 10.9324 28.9391 11.0097 29.0155C11.087 29.0793 11.1256 29.1558 11.0998 29.2705C11.087 29.3343 11.0741 29.4107 11.0612 29.4745C11.0483 29.5255 11.0097 29.5892 11.0741 29.6275C11.1256 29.6657 11.1642 29.5892 11.2028 29.5637C11.4861 29.347 11.7565 29.1303 12.0398 28.9263C12.2587 28.7733 12.336 28.5439 12.542 28.3144C12.439 28.3271 12.4133 28.3399 12.3746 28.3399C12.2587 28.3781 12.1428 28.3781 12.0527 28.2889C11.9497 28.1869 11.9883 28.0594 12.027 27.9447C12.1042 27.7407 12.2201 27.5495 12.3489 27.371C12.3746 27.3327 12.439 27.3072 12.3617 27.2308C11.6149 27.7025 11.0354 28.3526 10.3401 28.9518C10.353 28.7861 10.4302 28.6968 10.4946 28.6203C10.9968 27.9702 11.5763 27.3965 12.233 26.8993C13.1472 26.2109 14.1774 25.7009 15.1303 25.0763C15.259 24.987 15.4135 24.9105 15.5423 24.834C14.1001 24.987 12.6837 25.2165 11.4604 26.0579C11.4861 26.1344 11.5376 26.1216 11.5634 26.1344C11.6922 26.1471 11.8467 26.1599 11.8724 26.3129C11.8982 26.4531 11.7565 26.5296 11.6535 26.5678C11.2028 26.7463 10.8294 27.0268 10.4431 27.3072C10.2113 27.4985 9.9538 27.6515 9.81215 27.9447H9.79927V27.9574L9.81215 27.9447ZM12.1557 29.7422C12.2845 29.7167 12.3746 29.6147 12.4776 29.5382C12.6837 29.3598 12.8897 29.1813 13.1344 29.0665C13.2116 29.0283 13.276 28.99 13.3533 29.041C13.4434 29.1048 13.379 29.1813 13.3661 29.2578C13.173 29.9717 13.0185 30.6983 13.1472 31.4505C13.2245 31.8967 13.3404 32.3302 13.6237 32.7509C13.6237 32.2537 13.6881 31.7947 13.8039 31.3613C13.8683 31.1445 13.9327 30.9151 14.0615 30.7366C14.1902 30.5581 14.2933 30.5836 14.3963 30.7621C14.4349 30.8258 14.422 30.9151 14.4993 30.9661C14.5637 30.8768 14.5766 30.7876 14.5637 30.6856C14.5379 30.2904 14.5894 29.8952 14.6538 29.5C14.6796 29.3725 14.7439 29.2578 14.8598 29.2195C14.9757 29.1685 15.0144 29.296 15.0916 29.347C15.1174 29.3598 15.1303 29.3853 15.156 29.4107C15.1946 29.4362 15.2204 29.5 15.2719 29.4872C15.3363 29.4617 15.3492 29.398 15.3492 29.347C15.3749 29.041 15.4007 28.7223 15.4393 28.4164C15.4908 28.0594 15.5037 27.6897 15.6324 27.3455C15.6711 27.2435 15.6582 27.1033 15.7998 27.065C15.9544 27.0395 15.9672 27.1925 16.0445 27.269C16.0574 27.2817 16.0831 27.2945 16.1089 27.3072C16.302 26.6188 16.1733 25.9177 16.3664 25.242C16.096 25.5607 15.8642 25.9049 15.6453 26.2619C15.1689 27.0268 14.7439 27.8172 14.4092 28.6586C14.216 29.1558 14.0744 29.6785 13.907 30.1757C13.8941 30.2267 13.8941 30.3031 13.8039 30.2904C13.7396 30.2776 13.7653 30.2012 13.7653 30.1629C13.8426 29.5 13.9585 28.8498 14.1774 28.2251C14.5122 27.2563 15.0659 26.3894 15.6582 25.548C15.7741 25.3822 15.89 25.2292 16.0187 25.0763C15.7226 25.191 15.465 25.344 15.2075 25.497C14.3319 26.0196 13.482 26.5806 12.7867 27.3455C12.6193 27.5367 12.4519 27.7407 12.3746 27.9957C12.542 27.9319 12.6965 27.8554 12.8511 27.7789C13.0056 27.7024 13.1472 27.626 13.3018 27.5877C13.3661 27.575 13.4563 27.5495 13.4949 27.626C13.5464 27.7152 13.482 27.7789 13.4048 27.8172C13.2374 27.9192 13.1215 28.0722 13.0056 28.2251C12.6837 28.6841 12.336 29.1685 12.1557 29.7422C12.1557 29.7422 12.1557 29.755 12.1428 29.755C12.1428 29.755 12.1557 29.755 12.1557 29.7422ZM23.6675 56.4885C23.6804 56.4885 23.7062 56.5013 23.719 56.5013C23.719 56.4885 23.7062 56.4758 23.7062 56.463C23.3327 56.0168 23.0495 55.5324 22.8821 54.9715C22.4442 53.5691 22.2125 52.1413 22.0451 50.688C21.8905 49.3494 21.7747 47.998 21.6845 46.6595C21.5558 44.8492 21.4785 43.0389 21.4527 41.2158C21.4527 41.1649 21.4785 41.1011 21.4141 41.0501C21.2596 41.1649 21.1051 41.2796 20.9377 41.3816C20.1393 41.8023 19.2122 41.6111 18.7872 40.8844C18.6327 40.6167 18.4525 40.4892 18.1692 40.4127C18.0919 40.3999 18.0146 40.3617 17.9374 40.3362C15.3105 39.4948 12.7223 38.5642 10.1985 37.4805C8.97516 36.9579 7.81626 36.3332 6.59296 35.8105C5.85899 35.4918 5.16364 35.1348 4.4683 34.7524C4.35241 34.6886 4.28803 34.6631 4.27515 34.8289C4.22364 35.7467 4.12063 36.6519 4.082 37.5698C4.04337 38.7936 4.06912 40.0175 4.06912 41.2413C4.06912 42.5289 4.12063 43.8165 4.14638 45.1041C4.15926 45.6268 4.19789 46.1495 4.3009 46.6595C4.58419 47.9598 5.22803 49.0052 6.30968 49.8083C7.19817 50.4585 8.13817 50.9812 9.16831 51.3636C11.396 52.205 13.6237 53.0337 15.8513 53.8496C17.8215 54.5763 19.8303 55.2137 21.8262 55.8894C22.4442 56.0806 23.0495 56.2846 23.6675 56.4885ZM17.6541 26.912C17.6541 26.912 17.6541 26.8993 17.6412 26.8993H17.6283C17.6412 26.8993 17.6541 26.912 17.6541 26.912C17.6155 26.9885 17.6798 27.065 17.7056 27.1288C17.9374 27.7152 18.0919 28.3271 18.1949 28.9518C18.2593 29.347 18.0533 29.5255 17.667 29.398C17.5125 29.347 17.3579 29.2705 17.1648 29.194C17.2678 29.7805 17.3579 30.3286 17.4609 30.8768C17.5511 31.3613 17.6155 31.8457 17.6541 32.3429C17.667 32.4704 17.6412 32.5979 17.5125 32.6744C17.3708 32.7509 17.242 32.6871 17.139 32.6106C17.0875 32.5724 17.036 32.5214 16.9845 32.4576C16.8042 32.2282 16.624 31.9987 16.4566 31.7565C16.2763 31.5142 16.1089 31.2593 15.9157 30.9916C15.9029 31.0681 15.9029 31.1063 15.89 31.1445C15.8513 31.2848 15.7998 31.4123 15.6324 31.425C15.465 31.4505 15.3749 31.3358 15.3234 31.2083C15.259 31.0553 15.1946 30.9023 15.156 30.7493C15.0659 30.4051 14.9886 30.0609 14.95 29.704C14.9371 29.9844 14.9371 30.2649 14.9371 30.5454C14.9371 30.7493 14.9242 30.9661 14.8341 31.1573C14.7439 31.374 14.5508 31.4378 14.3576 31.323C14.319 31.2975 14.3061 31.2338 14.2418 31.2593C14.113 31.7947 14.0357 32.3429 13.9713 32.8911C13.9456 33.0823 13.907 33.2863 13.7009 33.3373C13.5078 33.3883 13.4176 33.197 13.3275 33.0696C12.8382 32.3811 12.6322 31.6162 12.7094 30.7621C12.7352 30.4306 12.8382 30.0992 12.9026 29.7805C12.9283 29.7677 12.9283 29.755 12.9155 29.7422C12.9155 29.7422 12.9026 29.755 12.8897 29.7677C12.7996 29.7932 12.7481 29.8824 12.6708 29.9334C12.5034 30.0609 12.3489 30.2012 12.1428 30.2521C11.8467 30.3286 11.6407 30.1374 11.6922 29.8442C11.705 29.7805 11.7437 29.704 11.7179 29.6402C11.7437 29.653 11.7565 29.6275 11.7437 29.6147C11.7308 29.6275 11.7308 29.6402 11.7179 29.6402C11.6149 29.7167 11.5119 29.7932 11.4089 29.8824C10.9968 30.2012 10.7779 30.1247 10.6749 29.602C10.6749 29.5892 10.662 29.5765 10.6363 29.5637C10.3787 29.7677 10.1598 29.9972 9.94092 30.2394C9.68338 30.5199 9.4516 30.8003 9.19407 31.0681C9.11681 31.1573 9.00092 31.221 8.85927 31.17C8.71763 31.1063 8.69187 30.9788 8.679 30.8513C8.66612 30.7876 8.69187 30.7238 8.69187 30.6601C8.83352 29.9079 9.20694 29.2578 9.67051 28.6586C9.76064 28.5438 9.87654 28.4674 9.91517 28.3144C9.94092 28.3144 9.9538 28.3144 9.94092 28.2889C9.92804 28.3016 9.92804 28.3016 9.91517 28.3144C9.86366 28.3271 9.81215 28.3271 9.77352 28.3399C9.63188 28.3654 9.47736 28.3909 9.37434 28.2506C9.28421 28.1232 9.34859 27.9957 9.41297 27.8682C9.52886 27.6642 9.69626 27.5112 9.87654 27.3582C10.2242 27.065 10.5976 26.8101 10.9711 26.5551C11.0097 26.5296 11.1256 26.5168 11.0483 26.4149C10.8809 26.1981 10.8809 26.1216 11.0741 25.9304C11.3702 25.6372 11.7308 25.4715 12.1042 25.3057C13.3146 24.7575 14.5894 24.5281 15.9029 24.4261C16.1475 24.4006 16.2763 24.2986 16.4051 24.1329C17.139 23.1895 17.5253 22.0931 17.8086 20.9585C18.2335 19.2502 18.4396 17.5037 18.7615 15.7699C19.122 13.8321 19.5599 11.9198 20.3325 10.0968C20.5514 9.56135 20.796 9.03866 21.0664 8.50322C20.8089 8.47773 20.59 8.52872 20.3582 8.54147C19.7788 8.57972 19.1864 8.57972 18.607 8.65621C17.4223 8.80919 16.3278 9.22989 15.3105 9.82907C12.7867 11.3334 10.7393 13.3477 9.05242 15.7316C7.32694 18.1793 5.84611 20.78 4.40392 23.3935C3.60556 24.8595 2.91021 26.4149 2.15048 27.9319C1.85432 28.5184 1.63541 29.1175 1.42939 29.7422C1.1976 30.4179 1.31349 31.0298 1.67404 31.629C1.82857 31.8712 2.00884 32.0879 2.21487 32.2919C3.12912 33.1843 4.14638 33.9237 5.27954 34.5101C6.81187 35.2878 8.36996 36.0017 9.94092 36.6901C12.6965 37.9012 15.5294 38.8829 18.3494 39.9155C18.4653 39.9537 18.4782 39.9282 18.4782 39.8135C18.4138 38.8319 18.5941 37.8757 18.813 36.9324C19.1092 35.6065 19.6371 34.3572 20.1264 33.1078C21.1695 30.4816 22.5988 28.0594 24.1569 25.7009C25.8823 23.1002 27.6336 20.5251 29.3977 17.9499C30.6467 16.1396 31.9215 14.342 33.2994 12.621C33.6857 12.1365 34.1492 11.6903 34.4969 11.1804C35.1278 10.2625 35.8618 9.44661 36.6602 8.6817C36.8276 8.51597 37.0207 8.36299 37.2396 8.15902C36.8018 8.15902 36.4155 8.15902 36.0292 8.15902C33.9818 8.13352 31.9473 8.06978 29.8999 8.09527C27.2988 8.13352 24.7106 8.22276 22.1095 8.37574C21.9421 8.38849 21.8519 8.43948 21.7747 8.59246C21.2467 9.56135 20.8218 10.5685 20.4741 11.6011C19.8947 13.3094 19.5599 15.0814 19.2508 16.8662C18.9933 18.3833 18.7615 19.9131 18.3366 21.4047C18.0275 22.5011 17.6026 23.5464 16.8171 24.4006C16.7141 24.5153 16.7914 24.5536 16.8686 24.6173C17.5125 25.089 17.8086 25.7774 18.0275 26.5041C18.1563 26.861 18.0275 26.9758 17.6541 26.912ZM62.2849 39.5585C62.2592 38.4494 62.2334 37.3276 62.2334 36.2184C62.2334 36.091 62.1948 36.0272 62.0789 35.9635C60.6238 35.2113 59.4134 34.1404 58.2931 32.9676C57.1342 31.7437 56.1298 30.4051 55.1255 29.0538C52.9879 26.1726 50.8375 23.3042 48.3652 20.6908C46.6654 18.8805 44.9786 17.0575 43.1243 15.4002C42.3002 14.6607 41.4117 13.9978 40.4459 13.4369C40.1627 13.2712 40.0725 13.2712 39.8279 13.4879C39.6476 13.6536 39.4673 13.8448 39.3128 14.0361C37.407 16.3945 35.6172 18.8295 33.9561 21.3665C32.8229 23.1002 31.7541 24.8723 30.621 26.6188C28.7539 29.4745 26.9125 32.3429 25.2385 35.3133C24.3243 36.9451 23.3585 38.5514 22.2511 40.0557C22.1095 40.247 22.0322 40.4382 22.0451 40.6932C22.0708 41.5601 22.0966 42.427 22.1352 43.2811C22.2125 45.2061 22.3284 47.1311 22.4958 49.0562C22.6374 50.6497 22.7533 52.2433 23.101 53.8114C23.2426 54.4488 23.3971 55.0862 23.8092 55.6216C24.9166 57.0622 26.3717 57.8271 28.2259 57.7634C28.6508 57.7506 29.0758 57.6741 29.5007 57.6359C31.0717 57.4957 32.6298 57.3427 34.2007 57.2152C34.381 57.2024 34.4068 57.1515 34.3295 56.9985C33.6213 55.3794 33.2865 53.6711 33.2092 51.9246C33.132 50.178 33.3251 48.457 33.8531 46.7869C34.5999 44.3902 35.8232 42.2867 37.8191 40.7059C40.1627 38.8446 42.7895 38.1945 45.7125 38.9976C47.8887 39.5968 49.6013 40.8844 50.9534 42.6437C52.9235 45.1934 53.7991 48.1128 53.8893 51.2999C53.9279 52.5365 53.7991 53.7731 53.5159 54.9842C53.4772 55.1244 53.4901 55.1627 53.6575 55.1372C54.5718 54.9842 55.4989 54.844 56.4131 54.7165C57.1729 54.6273 57.9326 54.5508 58.6537 54.2958C59.2718 54.0791 59.8383 53.7986 60.2761 53.3142C61.126 52.3835 61.5767 51.2617 61.7827 50.0506C61.9888 48.8267 62.0403 47.5901 62.0789 46.3535C62.1819 44.0715 62.3236 41.815 62.2849 39.5585ZM19.0834 39.3801C19.0705 39.6478 19.0963 39.9028 19.1349 40.1705C19.2251 40.8844 19.8947 41.2031 20.487 40.9481C20.8475 40.7952 21.1308 40.5402 21.3626 40.2342C22.3799 38.9211 23.2555 37.5315 24.0796 36.091C24.6719 35.0328 25.2514 33.9747 25.8695 32.9421C27.2473 30.6346 28.7024 28.3781 30.1703 26.1344C31.2906 24.4261 32.3593 22.6668 33.4667 20.9585C34.2651 19.7346 35.115 18.549 35.9906 17.3762C37.1237 15.8336 38.2827 14.3165 39.5832 12.9142C39.6991 12.7995 39.8279 12.723 40.0081 12.723C40.2013 12.7102 40.3816 12.7867 40.549 12.8632C42.004 13.5771 43.2273 14.597 44.412 15.6679C45.0687 16.2671 45.6868 16.8917 46.3177 17.5164C47.7084 18.9187 49.0476 20.3593 50.361 21.8381C51.2882 22.8708 52.1638 23.9289 53.0008 25.038C54.0953 26.4786 55.1641 27.9192 56.2328 29.3725C57.0827 30.5326 57.997 31.6417 58.9885 32.6999C59.6709 33.4393 60.4436 34.0767 61.2548 34.6759C61.7956 35.0711 62.3622 35.4153 62.9931 35.632C63.5597 35.8232 63.9203 35.6958 64.0877 35.2113C64.1521 35.0201 64.1907 34.8289 64.1907 34.6249C64.2164 33.8855 63.9975 33.197 63.7014 32.5341C63.0318 31.0553 62.0918 29.755 61.0616 28.5056C59.6581 26.7973 58.3189 25.038 56.9024 23.3425C56.0912 22.3736 55.28 21.3919 54.4559 20.4358C53.606 19.4414 52.7432 18.4725 51.8676 17.5037C50.7731 16.2926 49.6528 15.0942 48.5068 13.9341C46.9616 12.366 45.4164 10.8107 43.678 9.44661C42.8539 8.79644 41.9912 8.19726 40.9996 7.82756C40.6262 7.68732 40.2528 7.59808 39.8665 7.62358C39.3128 7.66182 38.8106 7.87855 38.347 8.18451C37.1624 8.96217 36.2095 9.9948 35.3081 11.0529C34.484 12.0091 33.7243 13.0162 32.9646 14.0233C31.2777 16.2671 29.6295 18.5363 28.0843 20.882C26.8481 22.756 25.5991 24.6173 24.3758 26.4913C23.2684 28.1869 22.2382 29.9334 21.3884 31.782C20.7059 33.2608 20.1007 34.7779 19.6242 36.3332C19.3152 37.2893 19.1092 38.3219 19.0834 39.3801ZM22.3026 7.75106C22.4829 7.73832 22.5988 7.73832 22.7147 7.72557C24.9166 7.53434 27.1185 7.4706 29.3333 7.4451C32.1147 7.40686 34.8961 7.48335 37.6646 7.64908C37.8706 7.66182 38.038 7.62358 38.2183 7.52159C38.5788 7.29212 38.978 7.13914 39.4029 7.06265C39.5446 7.03715 39.5832 6.97341 39.5446 6.84592C39.4416 6.52721 39.3385 6.2085 39.2484 5.87704C38.8621 4.44921 37.9994 3.36558 36.8018 2.52418C35.8361 1.84851 34.7931 1.37682 33.5826 1.35132C32.3851 1.32583 31.2133 1.49156 30.0544 1.82302C27.2602 2.62617 24.9938 4.19424 23.204 6.46347C22.8821 6.85867 22.5859 7.26662 22.3026 7.75106ZM50.7474 43.3321C50.7345 43.3448 50.7087 43.3576 50.6958 43.3703C50.7087 43.3958 50.7216 43.4341 50.7345 43.4596C51.0693 44.199 51.3397 44.9512 51.5586 45.7288C51.8419 46.7104 51.9964 47.7176 52.0222 48.7375C52.0608 49.7446 51.9835 50.739 51.8032 51.7333C51.6874 52.3453 51.5972 52.97 51.3654 53.5564C51.2624 53.8114 51.2238 54.1173 50.8117 54.1428C50.3739 54.1683 49.949 54.2703 49.5112 54.3213C48.8545 54.4105 48.1849 54.487 47.5282 54.5635C47.0517 54.6145 46.5882 54.6528 46.1117 54.7038C45.6353 54.7547 45.1588 54.8185 44.6824 54.8567C44.1802 54.9077 43.678 54.9332 43.1887 54.997C42.6608 55.0607 42.1199 55.1117 41.5791 55.1627C41.2443 55.1882 40.9095 55.2264 40.5747 55.2519C40.0725 55.3029 39.5575 55.3667 39.0553 55.4177C38.5402 55.4687 38.0251 55.4942 37.51 55.5579C36.7889 55.6344 36.0679 55.7109 35.3468 55.7619C35.0763 55.7874 34.8188 55.8256 34.5613 55.8384C34.4325 55.8511 34.4196 55.9021 34.4454 56.0041C34.5613 56.3356 34.6772 56.667 34.7931 56.9985C34.8317 57.1005 34.8961 57.1387 35.012 57.126C35.2566 57.0877 35.5013 57.075 35.7331 57.0495C36.0936 57.0112 36.4413 56.973 36.8018 56.9475C37.3555 56.9092 37.9092 56.8327 38.4758 56.7945C39.0295 56.7435 39.5832 56.7053 40.124 56.6543C40.6906 56.6033 41.2701 56.5395 41.8366 56.4885C42.1843 56.4503 42.5191 56.4248 42.8668 56.3993C43.5106 56.3356 44.1545 56.2591 44.7854 56.1953C45.2747 56.1443 45.7512 56.1061 46.2405 56.0551C46.8071 55.9913 47.3736 55.9149 47.9531 55.8511C48.4939 55.7874 49.0347 55.7364 49.5756 55.6726C50.5027 55.5579 51.4169 55.4177 52.3441 55.2902C52.8205 55.2264 52.8334 55.2392 52.9364 54.7802C53.1038 54.0153 53.2326 53.2249 53.2583 52.4345C53.2841 51.7206 53.2969 51.0067 53.2326 50.2928C53.1682 49.5024 53.0523 48.7247 52.8591 47.9598C52.5243 46.583 51.9964 45.2699 51.2367 44.0588C51.0821 43.8293 50.9147 43.5871 50.7474 43.3321ZM15.8642 27.5877C15.8513 27.6132 15.8513 27.6132 15.8513 27.626C15.7741 28.1486 15.8127 28.6841 15.7226 29.194C15.6711 29.4617 15.7097 29.7677 15.3492 29.8697C15.2848 29.8824 15.2848 29.9462 15.2976 29.9972C15.3749 30.2904 15.4393 30.5836 15.5681 30.9023C15.5938 30.7876 15.6067 30.6983 15.6453 30.6091C15.7355 30.3924 15.9672 30.3669 16.1089 30.5454C16.1475 30.5964 16.1733 30.6346 16.199 30.6856C16.3922 31.0681 16.6497 31.4123 16.9072 31.7565C17.036 31.9222 17.1133 32.1262 17.3193 32.2537C17.3322 32.2282 17.3322 32.2154 17.3322 32.2027C17.1905 31.3868 17.0489 30.5581 16.933 29.7422C16.8944 29.4872 16.83 29.245 16.8944 28.9773C16.9459 28.7861 17.0231 28.7351 17.2292 28.7988C17.3708 28.8498 17.5125 28.9263 17.667 28.99C17.7185 29.0155 17.7957 29.0665 17.8472 29.0283C17.8988 28.99 17.8601 28.9136 17.8472 28.8498C17.7185 28.1869 17.5382 27.5495 17.3322 26.912C17.2935 26.7973 17.2163 26.6443 17.3451 26.5296C17.4738 26.4149 17.6026 26.5041 17.7314 26.5551C17.7442 26.5551 17.7571 26.5423 17.8086 26.5296C17.5125 25.9432 17.242 25.3567 16.7914 24.8468C16.7398 24.9998 16.7141 25.1145 16.7141 25.2547C16.7141 25.5735 16.727 25.8794 16.7141 26.1981C16.6883 26.7081 16.727 27.2308 16.4051 27.677C16.3664 27.7279 16.3793 27.8044 16.3793 27.8682C16.3922 28.1996 16.3922 28.5438 16.4179 28.8753C16.4566 29.347 16.4823 29.8314 16.5724 30.2904C16.5853 30.3669 16.5982 30.4434 16.5467 30.5071C16.4694 30.4561 16.4566 30.3796 16.4308 30.3159C16.1218 29.5255 16.0059 28.7096 16.0059 27.8682C15.9672 27.7662 15.993 27.6515 15.8642 27.5877Z" fill="#515ED5"/>
<path d="M12.5034 27.167C12.4905 27.167 12.4905 27.1798 12.4776 27.1798H12.4905C12.4905 27.1798 12.5034 27.1798 12.5034 27.167ZM12.5034 27.167C12.5163 27.1543 12.5163 27.1543 12.5163 27.1415C12.5163 27.1543 12.5034 27.167 12.5034 27.167ZM9.81215 27.9447C9.92804 27.9447 10.0311 27.8809 10.1341 27.8427C10.2371 27.8044 10.353 27.7662 10.4689 27.7662C10.6491 27.7662 10.7135 27.8809 10.6234 28.0339C10.5976 28.0849 10.559 28.1231 10.5204 28.1614C10.2757 28.4291 10.0311 28.6841 9.82503 28.9773C9.43873 29.5 9.16831 30.0609 9.03955 30.6983C9.10393 30.6983 9.12968 30.6601 9.15544 30.6219C9.34859 30.3541 9.55462 30.0992 9.77352 29.8569C10.0568 29.5382 10.3787 29.245 10.7522 29.0155C10.8294 28.9646 10.9324 28.9391 11.0097 29.0155C11.087 29.0793 11.1256 29.1558 11.0998 29.2705C11.087 29.3343 11.0741 29.4107 11.0612 29.4745C11.0483 29.5255 11.0097 29.5892 11.0741 29.6275C11.1256 29.6657 11.1642 29.5892 11.2028 29.5637C11.4861 29.347 11.7565 29.1303 12.0398 28.9263C12.2587 28.7733 12.336 28.5439 12.542 28.3144C12.439 28.3271 12.4133 28.3399 12.3746 28.3399C12.2587 28.3781 12.1428 28.3781 12.0527 28.2889C11.9497 28.1869 11.9883 28.0594 12.027 27.9447C12.1042 27.7407 12.2201 27.5495 12.3489 27.371C12.3746 27.3327 12.439 27.3072 12.3617 27.2308C11.6149 27.7025 11.0354 28.3526 10.3401 28.9518C10.353 28.7861 10.4302 28.6968 10.4946 28.6203C10.9968 27.9702 11.5763 27.3965 12.233 26.8993C13.1472 26.2109 14.1774 25.7009 15.1303 25.0763C15.259 24.987 15.4135 24.9105 15.5423 24.834C14.1001 24.987 12.6837 25.2165 11.4604 26.0579C11.4861 26.1344 11.5376 26.1216 11.5634 26.1344C11.6922 26.1471 11.8467 26.1599 11.8724 26.3129C11.8982 26.4531 11.7565 26.5296 11.6535 26.5678C11.2028 26.7463 10.8294 27.0268 10.4431 27.3072C10.2113 27.4985 9.9538 27.6515 9.81215 27.9447ZM9.81215 27.9447H9.79927V27.9574C9.79927 27.9574 9.81215 27.9447 9.81215 27.9447ZM12.1557 29.7422C12.2845 29.7167 12.3746 29.6147 12.4776 29.5382C12.6837 29.3598 12.8897 29.1813 13.1344 29.0665C13.2116 29.0283 13.276 28.99 13.3533 29.041C13.4434 29.1048 13.379 29.1813 13.3661 29.2578C13.173 29.9717 13.0185 30.6983 13.1472 31.4505C13.2245 31.8967 13.3404 32.3302 13.6237 32.7509C13.6237 32.2537 13.6881 31.7947 13.8039 31.3613C13.8683 31.1445 13.9327 30.9151 14.0615 30.7366C14.1902 30.5581 14.2933 30.5836 14.3963 30.7621C14.4349 30.8258 14.422 30.9151 14.4993 30.9661C14.5637 30.8768 14.5766 30.7876 14.5637 30.6856C14.5379 30.2904 14.5894 29.8952 14.6538 29.5C14.6796 29.3725 14.7439 29.2578 14.8598 29.2195C14.9757 29.1685 15.0144 29.296 15.0916 29.347C15.1174 29.3598 15.1303 29.3853 15.156 29.4107C15.1946 29.4362 15.2204 29.5 15.2719 29.4872C15.3363 29.4617 15.3492 29.398 15.3492 29.347C15.3749 29.041 15.4007 28.7223 15.4393 28.4164C15.4908 28.0594 15.5037 27.6897 15.6324 27.3455C15.6711 27.2435 15.6582 27.1033 15.7998 27.065C15.9544 27.0395 15.9672 27.1925 16.0445 27.269C16.0574 27.2817 16.0831 27.2945 16.1089 27.3072C16.302 26.6188 16.1733 25.9177 16.3664 25.242C16.096 25.5607 15.8642 25.9049 15.6453 26.2619C15.1689 27.0268 14.7439 27.8172 14.4092 28.6586C14.216 29.1558 14.0744 29.6785 13.907 30.1757C13.8941 30.2267 13.8941 30.3031 13.8039 30.2904C13.7396 30.2776 13.7653 30.2012 13.7653 30.1629C13.8426 29.5 13.9585 28.8498 14.1774 28.2251C14.5122 27.2563 15.0659 26.3894 15.6582 25.548C15.7741 25.3822 15.89 25.2292 16.0187 25.0763C15.7226 25.191 15.465 25.344 15.2075 25.497C14.3319 26.0196 13.482 26.5806 12.7867 27.3455C12.6193 27.5367 12.4519 27.7407 12.3746 27.9957C12.542 27.9319 12.6965 27.8554 12.8511 27.7789C13.0056 27.7024 13.1472 27.626 13.3018 27.5877C13.3661 27.575 13.4563 27.5495 13.4949 27.626C13.5464 27.7152 13.482 27.7789 13.4048 27.8172C13.2374 27.9192 13.1215 28.0722 13.0056 28.2251C12.6837 28.6841 12.336 29.1685 12.1557 29.7422ZM12.1557 29.7422C12.1557 29.7422 12.1557 29.755 12.1428 29.755C12.1428 29.755 12.1557 29.755 12.1557 29.7422ZM17.6541 26.912C17.6541 26.912 17.6541 26.8993 17.6412 26.8993H17.6283C17.6412 26.8993 17.6541 26.912 17.6541 26.912ZM17.6541 26.912C17.6155 26.9885 17.6798 27.065 17.7056 27.1288C17.9374 27.7152 18.0919 28.3271 18.1949 28.9518C18.2593 29.347 18.0533 29.5255 17.667 29.398C17.5125 29.347 17.3579 29.2705 17.1648 29.194C17.2678 29.7805 17.3579 30.3286 17.4609 30.8768C17.5511 31.3613 17.6155 31.8457 17.6541 32.3429C17.667 32.4704 17.6412 32.5979 17.5125 32.6744C17.3708 32.7509 17.242 32.6871 17.139 32.6106C17.0875 32.5724 17.036 32.5214 16.9845 32.4576C16.8042 32.2282 16.624 31.9987 16.4566 31.7565C16.2763 31.5142 16.1089 31.2593 15.9157 30.9916C15.9029 31.0681 15.9029 31.1063 15.89 31.1445C15.8513 31.2848 15.7998 31.4123 15.6324 31.425C15.465 31.4505 15.3749 31.3358 15.3234 31.2083C15.259 31.0553 15.1946 30.9023 15.156 30.7493C15.0659 30.4051 14.9886 30.0609 14.95 29.704C14.9371 29.9844 14.9371 30.2649 14.9371 30.5454C14.9371 30.7493 14.9242 30.9661 14.8341 31.1573C14.7439 31.374 14.5508 31.4378 14.3576 31.323C14.319 31.2975 14.3061 31.2338 14.2418 31.2593C14.113 31.7947 14.0357 32.3429 13.9713 32.8911C13.9456 33.0823 13.907 33.2863 13.7009 33.3373C13.5078 33.3883 13.4176 33.197 13.3275 33.0696C12.8382 32.3811 12.6322 31.6162 12.7094 30.7621C12.7352 30.4306 12.8382 30.0992 12.9026 29.7805C12.9283 29.7677 12.9283 29.755 12.9154 29.7422C12.9154 29.7422 12.9026 29.755 12.8897 29.7677C12.7996 29.7932 12.7481 29.8824 12.6708 29.9334C12.5034 30.0609 12.3489 30.2012 12.1428 30.2521C11.8467 30.3286 11.6407 30.1374 11.6922 29.8442C11.705 29.7805 11.7437 29.704 11.7179 29.6402M17.6541 26.912C18.0275 26.9758 18.1563 26.861 18.0275 26.5041C17.8086 25.7774 17.5125 25.089 16.8686 24.6173C16.7914 24.5536 16.7141 24.5153 16.8171 24.4006C17.6026 23.5464 18.0275 22.5011 18.3366 21.4047C18.7615 19.9131 18.9933 18.3833 19.2508 16.8662C19.5599 15.0814 19.8947 13.3094 20.4741 11.6011C20.8218 10.5685 21.2467 9.56135 21.7747 8.59246C21.8519 8.43948 21.9421 8.38849 22.1095 8.37574C24.7106 8.22276 27.2988 8.13352 29.8999 8.09527C31.9473 8.06978 33.9818 8.13352 36.0292 8.15902C36.4155 8.15902 36.8018 8.15902 37.2396 8.15902C37.0207 8.36299 36.8276 8.51597 36.6602 8.6817C35.8618 9.44661 35.1278 10.2625 34.4969 11.1804C34.1492 11.6903 33.6857 12.1365 33.2994 12.621C31.9215 14.342 30.6467 16.1396 29.3977 17.9499C27.6336 20.5251 25.8823 23.1002 24.1569 25.7009C22.5988 28.0594 21.1694 30.4816 20.1264 33.1078C19.6371 34.3572 19.1092 35.6065 18.813 36.9324C18.5941 37.8757 18.4138 38.8319 18.4782 39.8135C18.4782 39.9282 18.4653 39.9537 18.3494 39.9155C15.5294 38.8829 12.6965 37.9012 9.94092 36.6901C8.36996 36.0017 6.81187 35.2878 5.27954 34.5101C4.14638 33.9237 3.12912 33.1843 2.21487 32.2919C2.00884 32.0879 1.82857 31.8712 1.67404 31.629C1.31349 31.0298 1.1976 30.4179 1.42939 29.7422C1.63541 29.1175 1.85432 28.5184 2.15048 27.9319C2.91021 26.4149 3.60556 24.8595 4.40392 23.3935C5.84611 20.78 7.32694 18.1793 9.05242 15.7316C10.7393 13.3477 12.7867 11.3334 15.3105 9.82907C16.3278 9.22989 17.4223 8.80919 18.607 8.65621C19.1864 8.57972 19.7788 8.57972 20.3582 8.54147C20.59 8.52872 20.8089 8.47773 21.0664 8.50322C20.796 9.03866 20.5514 9.56135 20.3325 10.0968C19.5599 11.9198 19.122 13.8321 18.7615 15.7699C18.4396 17.5037 18.2335 19.2502 17.8086 20.9585C17.5253 22.0931 17.139 23.1895 16.405 24.1329C16.2763 24.2986 16.1475 24.4006 15.9029 24.4261C14.5894 24.5281 13.3146 24.7575 12.1042 25.3057C11.7308 25.4715 11.3702 25.6372 11.0741 25.9304C10.8809 26.1216 10.8809 26.1981 11.0483 26.4149C11.1256 26.5168 11.0097 26.5296 10.9711 26.5551C10.5976 26.8101 10.2242 27.065 9.87654 27.3582C9.69626 27.5112 9.52886 27.6642 9.41297 27.8682C9.34859 27.9957 9.28421 28.1232 9.37434 28.2506C9.47736 28.3909 9.63188 28.3654 9.77352 28.3399C9.81215 28.3271 9.86366 28.3271 9.91517 28.3144M11.7179 29.6402C11.7437 29.653 11.7565 29.6275 11.7437 29.6147C11.7308 29.6275 11.7308 29.6402 11.7179 29.6402ZM11.7179 29.6402C11.6149 29.7167 11.5119 29.7932 11.4089 29.8824C10.9968 30.2012 10.7779 30.1247 10.6749 29.602C10.6749 29.5892 10.662 29.5765 10.6363 29.5637C10.3787 29.7677 10.1598 29.9972 9.94092 30.2394C9.68338 30.5199 9.4516 30.8003 9.19407 31.0681C9.11681 31.1573 9.00092 31.221 8.85927 31.17C8.71763 31.1063 8.69187 30.9788 8.679 30.8513C8.66612 30.7876 8.69187 30.7238 8.69187 30.6601C8.83352 29.9079 9.20694 29.2578 9.67051 28.6586C9.76064 28.5439 9.87654 28.4674 9.91517 28.3144M9.91517 28.3144C9.94092 28.3144 9.9538 28.3144 9.94092 28.2889C9.92804 28.3016 9.92804 28.3016 9.91517 28.3144ZM3.41241 41.1904C3.42528 39.9537 3.38665 38.7171 3.45104 37.4805C3.50254 36.5372 3.59268 35.5938 3.70857 34.6631C3.73432 34.4209 3.69569 34.2679 3.47679 34.1149C2.70418 33.6177 2.00884 33.0313 1.41651 32.3302C0.631027 31.3995 0.450752 30.3669 0.901439 29.2195C1.17185 28.5311 1.51952 27.8682 1.81569 27.1925C3.46391 23.4954 5.4083 19.9641 7.6231 16.573C8.74338 14.8647 9.9538 13.2202 11.4861 11.8306C12.9283 10.5302 14.4607 9.35737 16.2634 8.57972C17.242 8.15902 18.2464 8.00603 19.3023 7.99329C19.9462 7.99329 20.59 7.92954 21.221 7.8658C21.3884 7.85305 21.5042 7.77656 21.5944 7.62358C23.1138 5.12488 25.1484 3.17436 27.8396 1.925C29.3719 1.21109 30.9944 0.803138 32.6941 0.662904C34.4454 0.509923 35.952 1.0836 37.3169 2.11623C38.2955 2.85564 39.081 3.76079 39.5703 4.8954C39.8407 5.50733 39.9953 6.14475 39.9953 6.80768C39.9953 6.93516 40.0081 6.9989 40.1627 7.01165C40.8451 7.0244 41.4632 7.26662 42.0427 7.58533C43.266 8.24826 44.3476 9.11515 45.3906 10.0075C46.3564 10.8234 47.2578 11.7158 48.1591 12.6082C51.5071 15.9101 54.6233 19.4287 57.5978 23.062C59.4907 25.3822 61.3578 27.7279 63.0962 30.1502C63.6499 30.9278 64.1778 31.7182 64.5384 32.6106C64.8732 33.4648 65.0534 34.3317 64.8216 35.2496C64.6285 36.0017 63.946 36.5754 62.9674 36.3332C62.7485 36.2822 62.8129 36.4097 62.8257 36.5117C62.903 38.2454 63.006 39.9665 62.9545 41.7003C62.8901 43.8803 62.8515 46.073 62.697 48.253C62.6068 49.5661 62.3879 50.8537 61.8471 52.0648C61.0874 53.7604 59.7997 54.8057 57.9455 55.1117C55.5504 55.4942 53.1682 55.9276 50.7731 56.2591C48.906 56.514 47.0388 56.7308 45.1588 56.922C43.1887 57.1132 41.2057 57.3172 39.2355 57.4957C37.7032 57.6359 36.158 57.7634 34.6257 57.9036C32.7328 58.0821 30.8399 58.2223 28.947 58.3498C27.6207 58.4391 26.3459 58.2988 25.1484 57.6487C24.7234 57.4192 24.2212 57.3299 23.7577 57.177C20.4999 56.1061 17.2292 55.099 14.0229 53.8751C12.1428 53.1612 10.2628 52.4345 8.43434 51.6059C7.4042 51.1469 6.47707 50.535 5.60145 49.8466C4.53268 49.0052 3.99186 47.8833 3.73432 46.583C3.5283 45.4993 3.55405 44.403 3.47679 43.3193C3.39953 42.5927 3.39953 41.8915 3.41241 41.1904ZM23.6675 56.4885C23.6804 56.4885 23.7062 56.5013 23.719 56.5013C23.719 56.4885 23.7062 56.4758 23.7062 56.463C23.3327 56.0168 23.0495 55.5324 22.8821 54.9715C22.4442 53.5691 22.2125 52.1413 22.0451 50.688C21.8905 49.3494 21.7747 47.998 21.6845 46.6595C21.5558 44.8492 21.4785 43.0389 21.4527 41.2158C21.4527 41.1649 21.4785 41.1011 21.4141 41.0501C21.2596 41.1649 21.1051 41.2796 20.9377 41.3816C20.1393 41.8023 19.2122 41.6111 18.7872 40.8844C18.6327 40.6167 18.4525 40.4892 18.1692 40.4127C18.0919 40.3999 18.0146 40.3617 17.9374 40.3362C15.3105 39.4948 12.7223 38.5642 10.1985 37.4805C8.97516 36.9579 7.81626 36.3332 6.59296 35.8105C5.85899 35.4918 5.16364 35.1348 4.4683 34.7524C4.35241 34.6886 4.28803 34.6631 4.27515 34.8289C4.22364 35.7467 4.12063 36.6519 4.082 37.5698C4.04337 38.7936 4.06912 40.0175 4.06912 41.2413C4.06912 42.5289 4.12063 43.8165 4.14638 45.1041C4.15926 45.6268 4.19789 46.1495 4.3009 46.6595C4.58419 47.9598 5.22803 49.0052 6.30968 49.8083C7.19817 50.4585 8.13817 50.9812 9.16831 51.3636C11.396 52.205 13.6237 53.0337 15.8513 53.8496C17.8215 54.5763 19.8303 55.2137 21.8262 55.8894C22.4442 56.0806 23.0495 56.2846 23.6675 56.4885ZM62.2849 39.5585C62.2592 38.4494 62.2334 37.3276 62.2334 36.2184C62.2334 36.091 62.1948 36.0272 62.0789 35.9635C60.6238 35.2113 59.4134 34.1404 58.2931 32.9676C57.1342 31.7437 56.1298 30.4051 55.1254 29.0538C52.9879 26.1726 50.8375 23.3042 48.3652 20.6908C46.6654 18.8805 44.9786 17.0575 43.1243 15.4002C42.3002 14.6607 41.4117 13.9978 40.446 13.4369C40.1627 13.2712 40.0725 13.2712 39.8279 13.4879C39.6476 13.6536 39.4673 13.8448 39.3128 14.0361C37.407 16.3945 35.6172 18.8295 33.9561 21.3665C32.8229 23.1002 31.7541 24.8723 30.621 26.6188C28.7539 29.4745 26.9125 32.3429 25.2385 35.3133C24.3243 36.9451 23.3585 38.5514 22.2511 40.0557C22.1095 40.247 22.0322 40.4382 22.0451 40.6932C22.0708 41.5601 22.0966 42.427 22.1352 43.2811C22.2125 45.2061 22.3284 47.1311 22.4958 49.0562C22.6374 50.6497 22.7533 52.2433 23.101 53.8114C23.2426 54.4488 23.3971 55.0862 23.8092 55.6216C24.9166 57.0622 26.3717 57.8271 28.2259 57.7634C28.6508 57.7506 29.0758 57.6741 29.5007 57.6359C31.0717 57.4957 32.6298 57.3427 34.2007 57.2152C34.381 57.2025 34.4068 57.1515 34.3295 56.9985C33.6213 55.3794 33.2865 53.6711 33.2092 51.9246C33.132 50.178 33.3251 48.457 33.8531 46.7869C34.5999 44.3902 35.8232 42.2867 37.8191 40.7059C40.1627 38.8446 42.7895 38.1945 45.7125 38.9976C47.8887 39.5968 49.6013 40.8844 50.9534 42.6437C52.9235 45.1934 53.7991 48.1128 53.8893 51.2999C53.9279 52.5365 53.7991 53.7731 53.5159 54.9842C53.4772 55.1244 53.4901 55.1627 53.6575 55.1372C54.5717 54.9842 55.4989 54.844 56.4131 54.7165C57.1729 54.6273 57.9326 54.5508 58.6537 54.2958C59.2718 54.0791 59.8383 53.7986 60.2762 53.3142C61.126 52.3835 61.5767 51.2617 61.7827 50.0506C61.9888 48.8267 62.0403 47.5901 62.0789 46.3535C62.1819 44.0715 62.3236 41.815 62.2849 39.5585ZM19.0834 39.3801C19.0705 39.6478 19.0963 39.9028 19.1349 40.1705C19.2251 40.8844 19.8947 41.2031 20.487 40.9481C20.8475 40.7951 21.1308 40.5402 21.3626 40.2342C22.3799 38.9211 23.2555 37.5315 24.0796 36.091C24.6719 35.0328 25.2514 33.9747 25.8695 32.9421C27.2473 30.6346 28.7024 28.3781 30.1703 26.1344C31.2906 24.4261 32.3593 22.6668 33.4667 20.9585C34.2651 19.7346 35.115 18.549 35.9906 17.3762C37.1237 15.8336 38.2827 14.3165 39.5832 12.9142C39.6991 12.7995 39.8279 12.723 40.0081 12.723C40.2013 12.7102 40.3816 12.7867 40.549 12.8632C42.004 13.5771 43.2273 14.597 44.412 15.6679C45.0687 16.2671 45.6868 16.8917 46.3178 17.5164C47.7084 18.9187 49.0476 20.3593 50.3611 21.8381C51.2882 22.8708 52.1638 23.9289 53.0008 25.038C54.0953 26.4786 55.1641 27.9192 56.2329 29.3725C57.0827 30.5326 57.997 31.6417 58.9885 32.6999C59.6709 33.4393 60.4435 34.0767 61.2548 34.6759C61.7956 35.0711 62.3622 35.4153 62.9931 35.632C63.5597 35.8232 63.9203 35.6958 64.0877 35.2113C64.1521 35.0201 64.1907 34.8289 64.1907 34.6249C64.2164 33.8855 63.9975 33.197 63.7014 32.5341C63.0318 31.0553 62.0918 29.755 61.0616 28.5056C59.6581 26.7973 58.3189 25.038 56.9024 23.3425C56.0912 22.3736 55.28 21.3919 54.4559 20.4358C53.606 19.4414 52.7432 18.4725 51.8676 17.5037C50.7731 16.2926 49.6528 15.0942 48.5068 13.9341C46.9616 12.366 45.4164 10.8107 43.678 9.44661C42.8539 8.79644 41.9912 8.19726 40.9996 7.82756C40.6262 7.68732 40.2528 7.59808 39.8665 7.62358C39.3128 7.66182 38.8106 7.87855 38.347 8.18451C37.1624 8.96217 36.2095 9.9948 35.3081 11.0529C34.484 12.0091 33.7243 13.0162 32.9646 14.0233C31.2777 16.2671 29.6295 18.5363 28.0843 20.882C26.8481 22.756 25.5991 24.6173 24.3758 26.4913C23.2684 28.1869 22.2382 29.9334 21.3884 31.782C20.7059 33.2608 20.1007 34.7779 19.6242 36.3332C19.3152 37.2893 19.1092 38.3219 19.0834 39.3801ZM22.3026 7.75106C22.4829 7.73832 22.5988 7.73832 22.7147 7.72557C24.9166 7.53434 27.1185 7.4706 29.3333 7.4451C32.1147 7.40686 34.8961 7.48335 37.6646 7.64908C37.8706 7.66182 38.038 7.62358 38.2183 7.52159C38.5788 7.29212 38.978 7.13914 39.4029 7.06265C39.5446 7.03715 39.5832 6.97341 39.5446 6.84592C39.4416 6.52721 39.3385 6.2085 39.2484 5.87704C38.8621 4.44921 37.9994 3.36558 36.8018 2.52418C35.8361 1.84851 34.7931 1.37682 33.5826 1.35132C32.3851 1.32583 31.2133 1.49156 30.0544 1.82302C27.2602 2.62617 24.9938 4.19424 23.204 6.46347C22.8821 6.85867 22.5859 7.26662 22.3026 7.75106ZM50.7474 43.3321C50.7345 43.3448 50.7087 43.3576 50.6958 43.3703C50.7087 43.3958 50.7216 43.4341 50.7345 43.4596C51.0693 44.199 51.3397 44.9512 51.5586 45.7288C51.8419 46.7104 51.9964 47.7176 52.0222 48.7375C52.0608 49.7446 51.9835 50.739 51.8032 51.7333C51.6874 52.3453 51.5972 52.97 51.3654 53.5564C51.2624 53.8114 51.2238 54.1173 50.8117 54.1428C50.3739 54.1683 49.949 54.2703 49.5112 54.3213C48.8545 54.4105 48.1849 54.487 47.5282 54.5635C47.0517 54.6145 46.5882 54.6528 46.1117 54.7038C45.6353 54.7547 45.1588 54.8185 44.6824 54.8567C44.1802 54.9077 43.678 54.9332 43.1887 54.997C42.6608 55.0607 42.1199 55.1117 41.5791 55.1627C41.2443 55.1882 40.9095 55.2264 40.5747 55.2519C40.0725 55.3029 39.5575 55.3667 39.0553 55.4177C38.5402 55.4687 38.0251 55.4942 37.51 55.5579C36.7889 55.6344 36.0679 55.7109 35.3468 55.7619C35.0763 55.7874 34.8188 55.8256 34.5613 55.8384C34.4325 55.8511 34.4196 55.9021 34.4454 56.0041C34.5613 56.3356 34.6772 56.667 34.7931 56.9985C34.8317 57.1005 34.8961 57.1387 35.012 57.126C35.2566 57.0877 35.5013 57.075 35.7331 57.0495C36.0936 57.0112 36.4413 56.973 36.8018 56.9475C37.3555 56.9092 37.9092 56.8327 38.4758 56.7945C39.0295 56.7435 39.5832 56.7053 40.124 56.6543C40.6906 56.6033 41.2701 56.5395 41.8366 56.4885C42.1843 56.4503 42.5191 56.4248 42.8668 56.3993C43.5106 56.3356 44.1545 56.2591 44.7854 56.1953C45.2747 56.1443 45.7512 56.1061 46.2405 56.0551C46.8071 55.9913 47.3736 55.9149 47.9531 55.8511C48.4939 55.7874 49.0347 55.7364 49.5756 55.6726C50.5027 55.5579 51.4169 55.4177 52.3441 55.2902C52.8205 55.2264 52.8334 55.2392 52.9364 54.7802C53.1038 54.0153 53.2326 53.2249 53.2583 52.4345C53.2841 51.7206 53.2969 51.0067 53.2326 50.2928C53.1682 49.5024 53.0523 48.7247 52.8591 47.9598C52.5243 46.583 51.9964 45.2699 51.2367 44.0588C51.0821 43.8293 50.9148 43.5871 50.7474 43.3321ZM15.8642 27.5877C15.8513 27.6132 15.8513 27.6132 15.8513 27.626C15.7741 28.1486 15.8127 28.6841 15.7226 29.194C15.6711 29.4617 15.7097 29.7677 15.3492 29.8697C15.2848 29.8824 15.2848 29.9462 15.2976 29.9972C15.3749 30.2904 15.4393 30.5836 15.5681 30.9023C15.5938 30.7876 15.6067 30.6983 15.6453 30.6091C15.7355 30.3924 15.9672 30.3669 16.1089 30.5454C16.1475 30.5964 16.1733 30.6346 16.199 30.6856C16.3922 31.0681 16.6497 31.4123 16.9072 31.7565C17.036 31.9222 17.1133 32.1262 17.3193 32.2537C17.3322 32.2282 17.3322 32.2154 17.3322 32.2027C17.1905 31.3868 17.0489 30.5581 16.933 29.7422C16.8944 29.4872 16.83 29.245 16.8944 28.9773C16.9459 28.7861 17.0231 28.7351 17.2292 28.7988C17.3708 28.8498 17.5125 28.9263 17.667 28.99C17.7185 29.0155 17.7957 29.0665 17.8472 29.0283C17.8988 28.99 17.8601 28.9136 17.8472 28.8498C17.7185 28.1869 17.5382 27.5495 17.3322 26.912C17.2935 26.7973 17.2163 26.6443 17.3451 26.5296C17.4738 26.4149 17.6026 26.5041 17.7314 26.5551C17.7442 26.5551 17.7571 26.5423 17.8086 26.5296C17.5125 25.9432 17.242 25.3567 16.7914 24.8468C16.7398 24.9998 16.7141 25.1145 16.7141 25.2547C16.7141 25.5735 16.727 25.8794 16.7141 26.1981C16.6883 26.7081 16.727 27.2308 16.405 27.677C16.3664 27.7279 16.3793 27.8044 16.3793 27.8682C16.3922 28.1996 16.3922 28.5439 16.4179 28.8753C16.4566 29.347 16.4823 29.8314 16.5724 30.2904C16.5853 30.3669 16.5982 30.4434 16.5467 30.5071C16.4694 30.4561 16.4566 30.3796 16.4308 30.3159C16.1218 29.5255 16.0059 28.7096 16.0059 27.8682C15.9672 27.7662 15.993 27.6515 15.8642 27.5877Z" stroke="#505DD6" stroke-width="1.05445" stroke-miterlimit="10"/>
<path d="M62.2849 39.5584C62.3106 41.8149 62.169 44.0714 62.0917 46.3279C62.0531 47.5645 62.0016 48.8011 61.7956 50.0249C61.5895 51.2361 61.1389 52.3579 60.289 53.2886C59.8512 53.773 59.2846 54.0662 58.6665 54.2702C57.9454 54.5252 57.1728 54.5889 56.426 54.6909C55.4988 54.8056 54.5846 54.9586 53.6703 55.1116C53.5029 55.1371 53.4901 55.0988 53.5287 54.9586C53.812 53.7475 53.9408 52.5237 53.9021 51.2743C53.812 48.0999 52.9364 45.1678 50.9662 42.6181C49.6142 40.8588 47.9016 39.5712 45.7254 38.972C42.8024 38.1689 40.1626 38.819 37.8319 40.6803C35.836 42.2739 34.6127 44.3774 33.8659 46.7613C33.3379 48.4314 33.1319 50.1524 33.2221 51.899C33.2993 53.6583 33.6341 55.3538 34.3423 56.9729C34.4067 57.1259 34.3938 57.1768 34.2136 57.1896C32.6426 57.3298 31.0845 57.4701 29.5135 57.6103C29.0886 57.6485 28.6637 57.7123 28.2387 57.7378C26.3845 57.8015 24.9294 57.0366 23.822 55.596C23.4228 55.0733 23.2554 54.4359 23.1138 53.7858C22.7661 52.2177 22.6374 50.6241 22.5086 49.0306C22.3412 47.1055 22.2253 45.1805 22.148 43.2555C22.1094 42.3886 22.0837 41.5217 22.0579 40.6676C22.045 40.4126 22.1223 40.2214 22.2639 40.0301C23.3842 38.5258 24.3371 36.9195 25.2513 35.2877C26.9253 32.3173 28.7667 29.4489 30.6338 26.5932C31.767 24.8594 32.8357 23.0746 33.9689 21.3408C35.63 18.8039 37.4199 16.3689 39.3256 14.0105C39.4802 13.8192 39.6604 13.628 39.8407 13.4623C40.0854 13.2456 40.1755 13.2456 40.4588 13.4113C41.4245 13.9722 42.3002 14.6351 43.1372 15.3746C45.0043 17.0319 46.6783 18.8676 48.378 20.6652C50.8503 23.2786 53.0008 26.147 55.1383 29.0282C56.1298 30.3795 57.1471 31.7181 58.306 32.942C59.4263 34.1148 60.6367 35.1857 62.0917 35.9379C62.2076 36.0016 62.2463 36.0654 62.2463 36.1928C62.2334 37.3275 62.2591 38.4366 62.2849 39.5584ZM42.3259 28.9262C41.3988 28.9517 40.7292 29.3979 40.2785 30.1755C39.9952 30.6727 39.7119 31.1699 39.4029 31.6544C39.2613 31.8711 39.1067 32.1006 38.9522 32.3045C38.5788 32.789 38.5144 33.4902 38.8106 33.9364C39.1067 34.3826 39.6476 34.5483 40.3171 34.3953C40.7163 34.3061 41.0769 34.1148 41.4245 33.9236C42.1456 33.5284 42.8925 33.4264 43.6651 33.7324C43.9098 33.8216 44.1544 33.9109 44.3991 33.9746C44.9141 34.1276 45.4292 34.1913 45.9443 33.9618C46.4079 33.7579 46.6911 33.2607 46.6525 32.7762C46.601 32.2026 46.2662 31.8074 45.8413 31.4631C45.3262 31.0552 44.8498 30.609 44.412 30.1246C44.09 29.7676 43.7295 29.4744 43.3303 29.2194C43.0341 29.0154 42.6865 28.9262 42.3259 28.9262ZM41.5791 26.4785C41.5791 26.2363 41.5533 25.9813 41.4889 25.7391C41.3087 25.0379 41.0382 24.4005 40.4588 23.916C39.8793 23.4316 39.0295 23.6101 38.8492 24.4515C38.6432 25.3949 38.9007 26.249 39.3771 27.0522C39.5574 27.3581 39.7892 27.6131 40.1111 27.8043C40.6391 28.1103 41.167 27.9318 41.4245 27.3964C41.5404 27.1032 41.5791 26.7972 41.5791 26.4785ZM45.0944 25.0124C45.1073 24.7447 45.0687 24.4642 44.9914 24.2093C44.8626 23.8141 44.6824 23.4443 44.2317 23.3551C43.781 23.2659 43.4591 23.5463 43.2144 23.8778C42.6607 24.6172 42.4547 25.4714 42.5062 26.3765C42.5191 26.708 42.5963 27.0394 42.7895 27.3326C43.0856 27.7661 43.5492 27.8681 43.987 27.5749C44.2446 27.4091 44.4377 27.1924 44.5794 26.9374C44.927 26.351 45.0815 25.7008 45.0944 25.0124ZM36.1966 28.225C36.1966 28.2505 36.1966 28.327 36.2095 28.3908C36.3769 29.4106 37.4971 30.507 38.5273 30.6472C39.2999 30.7492 39.815 30.2265 39.6862 29.4616C39.5574 28.7222 39.1067 28.1995 38.553 27.7406C38.2054 27.4601 37.8191 27.2689 37.3555 27.2179C36.6859 27.1542 36.2095 27.5366 36.1966 28.225ZM44.824 29.0664C44.8111 29.8951 45.3005 30.2903 45.9829 30.1373C46.9229 29.9206 47.9402 28.6075 47.8758 27.6641C47.8372 27.0777 47.3865 26.606 46.6911 26.8227C46.3177 26.9374 45.9958 27.1414 45.7254 27.4091C45.2232 27.8936 44.8626 28.4673 44.824 29.0664Z" fill="#F9E5CD"/>
<path d="M12.9026 29.7551C12.8253 30.0865 12.7352 30.4052 12.7094 30.7367C12.6322 31.5781 12.8511 32.3557 13.3275 33.0442C13.4177 33.1716 13.5078 33.3629 13.701 33.3119C13.907 33.2609 13.9585 33.0569 13.9714 32.8657C14.0358 32.3175 14.1259 31.7821 14.2418 31.2339C14.3062 31.2084 14.319 31.2721 14.3577 31.2976C14.5379 31.4124 14.7311 31.3486 14.8341 31.1319C14.9242 30.9407 14.9371 30.7367 14.9371 30.52C14.9371 30.2395 14.9371 29.959 14.95 29.6786C14.9886 30.0355 15.053 30.3797 15.156 30.7239C15.1947 30.8769 15.259 31.0299 15.3234 31.1829C15.3749 31.3104 15.4651 31.4251 15.6325 31.3996C15.7999 31.3741 15.8514 31.2466 15.89 31.1191C15.9029 31.0809 15.9029 31.0426 15.9158 30.9662C16.1089 31.2466 16.2763 31.4888 16.4566 31.7311C16.624 31.9733 16.8043 32.2028 16.9845 32.4322C17.0232 32.4832 17.0747 32.547 17.139 32.5852C17.2549 32.6617 17.3708 32.7255 17.5125 32.649C17.6541 32.5725 17.667 32.445 17.6541 32.3175C17.6155 31.8203 17.5511 31.3359 17.461 30.8514C17.358 30.3032 17.2678 29.7551 17.1648 29.1686C17.358 29.2451 17.4996 29.3216 17.667 29.3726C18.0533 29.5001 18.2593 29.3216 18.1949 28.9264C18.0919 28.3017 17.9374 27.7025 17.7056 27.1034C17.6799 27.0396 17.6155 26.9631 17.6541 26.8866C18.0275 26.9504 18.1563 26.8356 18.0404 26.4787C17.8215 25.752 17.5254 25.0636 16.8815 24.5919C16.8043 24.5409 16.7141 24.5027 16.83 24.3752C17.6155 23.5083 18.0404 22.4757 18.3495 21.3793C18.7744 19.8877 18.9933 18.3579 19.2637 16.8408C19.5728 15.0688 19.9076 13.2968 20.487 11.5757C20.8347 10.5431 21.2725 9.53595 21.7876 8.56706C21.8648 8.42683 21.955 8.36309 22.1224 8.35034C24.7106 8.19736 27.3117 8.10812 29.9128 8.06987C31.9602 8.04438 33.9947 8.10812 36.0421 8.13361C36.4284 8.13361 36.8147 8.13361 37.2525 8.13361C37.0336 8.32484 36.8534 8.49057 36.6731 8.6563C35.8747 9.42121 35.1407 10.2499 34.5098 11.155C34.1492 11.6649 33.6986 12.0984 33.3123 12.5956C31.9344 14.3166 30.6596 16.1142 29.4106 17.9245C27.6465 20.4997 25.8824 23.0748 24.1698 25.6755C22.6117 28.0213 21.1823 30.4435 20.1393 33.0824C19.6371 34.3445 19.1221 35.5939 18.8259 36.907C18.607 37.8631 18.4267 38.8065 18.4911 39.7881C18.504 39.9028 18.4782 39.9283 18.3623 39.8901C15.5423 38.8575 12.6966 37.8758 9.95382 36.6647C8.36998 35.9891 6.82477 35.2751 5.29243 34.4975C4.1464 33.9238 3.12914 33.1844 2.22777 32.2793C2.02174 32.0753 1.82859 31.8586 1.68694 31.6163C1.3264 31.0299 1.2105 30.4052 1.44229 29.7296C1.66119 29.1176 1.8801 28.5057 2.16338 27.9193C2.92311 26.4022 3.61846 24.8341 4.44257 23.3426C5.88477 20.7291 7.36559 18.1284 9.09108 15.6807C10.7779 13.2968 12.8253 11.2825 15.3492 9.77817C16.3664 9.16624 17.461 8.74554 18.6456 8.60531C19.2251 8.52882 19.8045 8.52882 20.3969 8.49057C20.6286 8.47782 20.8476 8.42683 21.1051 8.45233C20.8347 8.98776 20.59 9.51045 20.3711 10.0459C19.5985 11.8689 19.1607 13.7812 18.8001 15.719C18.4782 17.4528 18.2722 19.1993 17.8473 20.9076C17.564 22.0422 17.1777 23.1386 16.4437 24.082C16.3149 24.2477 16.1862 24.3497 15.9415 24.3752C14.641 24.4772 13.3533 24.7067 12.1429 25.2548C11.7694 25.4206 11.4089 25.5863 11.1127 25.8795C10.9196 26.0707 10.9196 26.1472 11.087 26.364C11.1771 26.4787 11.0612 26.4787 11.0097 26.5042C10.6363 26.7592 10.2629 27.0141 9.91519 27.3073C9.73492 27.4603 9.56752 27.6133 9.45163 27.8173C9.37437 27.932 9.30998 28.0595 9.413 28.1997C9.51601 28.34 9.65765 28.3272 9.81218 28.289C9.86368 28.2762 9.91519 28.2762 9.95382 28.2635C9.91519 28.4037 9.7993 28.493 9.70916 28.6077C9.23272 29.2069 8.87217 29.857 8.73053 30.6092C8.71765 30.6729 8.70477 30.7367 8.71765 30.8004C8.73053 30.9279 8.75628 31.0554 8.89793 31.1191C9.03957 31.1701 9.14258 31.1064 9.23272 31.0172C9.49026 30.7494 9.73492 30.4562 9.97957 30.1885C10.1985 29.9463 10.4174 29.7168 10.6749 29.5128C10.6878 29.5383 10.7007 29.5383 10.7135 29.5511C10.8166 30.0738 11.0355 30.1503 11.4475 29.8315C11.5505 29.7551 11.6536 29.6786 11.7566 29.5893C11.7823 29.6658 11.7437 29.7296 11.7308 29.7933C11.6664 30.0865 11.8853 30.2777 12.1815 30.2012C12.3875 30.1503 12.542 30.01 12.7094 29.8825C12.7867 29.8315 12.8253 29.7423 12.9284 29.7168C12.8897 29.7423 12.8897 29.7423 12.9026 29.7551Z" fill="#F9E5CD"/>
<path d="M19.0834 39.3802C19.1091 38.3221 19.3152 37.3022 19.6113 36.2951C20.0878 34.7398 20.693 33.2227 21.3754 31.7439C22.2124 29.8953 23.2554 28.1615 24.3629 26.4532C25.5861 24.5792 26.8352 22.7052 28.0714 20.8439C29.6166 18.4982 31.2777 16.2417 32.9516 13.9852C33.7114 12.9781 34.4711 11.971 35.2952 11.0148C36.2095 9.9567 37.1495 8.91132 38.3341 8.14641C38.7977 7.84045 39.2999 7.62372 39.8536 7.58548C40.2399 7.55998 40.6262 7.66197 40.9867 7.78945C41.9911 8.15916 42.841 8.75834 43.6651 9.40851C45.4035 10.7726 46.9487 12.3279 48.4939 13.896C49.6399 15.0561 50.7602 16.2544 51.8547 17.4656C52.7303 18.4344 53.606 19.4033 54.4429 20.3977C55.2671 21.3666 56.0783 22.3355 56.8895 23.3044C58.306 24.9999 59.658 26.7592 61.0487 28.4675C62.066 29.7169 63.0189 31.0299 63.6885 32.496C63.9846 33.1589 64.2035 33.8474 64.1778 34.5868C64.1649 34.7908 64.1391 34.982 64.0748 35.1732C63.9202 35.6576 63.5468 35.7851 62.9802 35.5939C62.3493 35.3772 61.7827 35.033 61.2419 34.6378C60.4306 34.0386 59.658 33.4012 58.9756 32.6618C57.9841 31.6036 57.0827 30.4945 56.2199 29.3344C55.1512 27.8811 54.0695 26.4405 52.9879 24.9999C52.1509 23.9035 51.2753 22.8327 50.3481 21.8C49.0347 20.334 47.6955 18.8806 46.3048 17.4783C45.6868 16.8536 45.0558 16.229 44.3991 15.6298C43.2144 14.5589 41.9911 13.539 40.5361 12.8251C40.3687 12.7359 40.2013 12.6721 39.9952 12.6849C39.8278 12.6976 39.6862 12.7614 39.5703 12.8761C38.2697 14.2784 37.1108 15.8083 35.9777 17.3381C35.1021 18.5109 34.2522 19.6965 33.4538 20.9204C32.3336 22.6414 31.2777 24.388 30.1574 26.0963C28.6894 28.34 27.2215 30.5965 25.8566 32.904C25.2385 33.9366 24.659 35.0075 24.0667 36.0529C23.2554 37.4934 22.367 38.8958 21.3497 40.1961C21.1179 40.5021 20.8346 40.757 20.4741 40.91C19.8817 41.165 19.2121 40.8463 19.122 40.1324C19.0963 39.9029 19.0705 39.6479 19.0834 39.3802Z" fill="#62C5F8"/>
<path d="M23.6675 56.4887C23.0623 56.2847 22.4571 56.068 21.8519 55.864C19.856 55.1883 17.8472 54.5509 15.8771 53.8242C13.6494 52.9956 11.4088 52.1797 9.19403 51.3383C8.17677 50.9558 7.22389 50.4331 6.33539 49.783C5.25374 48.9798 4.60991 47.9217 4.32662 46.6341C4.21073 46.1241 4.1721 45.6015 4.1721 45.0788C4.14634 43.7912 4.08196 42.5036 4.09484 41.216C4.09484 39.9921 4.06908 38.7683 4.10771 37.5444C4.13347 36.6265 4.23648 35.7214 4.30086 34.8035C4.31374 34.625 4.37812 34.6633 4.49401 34.727C5.18936 35.1094 5.8847 35.4792 6.61868 35.7851C7.84197 36.3078 9.00088 36.9325 10.2242 37.4552C12.7609 38.5388 15.3491 39.4822 17.9631 40.3108C18.0404 40.3363 18.1176 40.3618 18.1949 40.3873C18.4653 40.4511 18.6584 40.5913 18.813 40.859C19.225 41.5857 20.165 41.7769 20.9634 41.3562C21.1308 41.267 21.2853 41.1522 21.4398 41.0247C21.5042 41.0757 21.4785 41.1395 21.4785 41.1905C21.5042 43.0008 21.5815 44.8238 21.7102 46.6341C21.8004 47.9854 21.9163 49.324 22.0708 50.6626C22.2382 52.1159 22.47 53.5438 22.9078 54.9461C23.0752 55.507 23.3585 55.9915 23.7319 56.4377C23.6804 56.4632 23.6675 56.4759 23.6675 56.4887Z" fill="#F9E5CD"/>
<path d="M50.7473 43.332C50.9147 43.587 51.095 43.8292 51.2495 44.0842C51.9964 45.2953 52.5243 46.6084 52.872 47.9852C53.0651 48.7501 53.181 49.5278 53.2454 50.3182C53.3098 51.0321 53.2969 51.746 53.2712 52.4599C53.2454 53.2504 53.1166 54.028 52.9493 54.8057C52.8462 55.2519 52.8334 55.2519 52.3569 55.3156C51.4298 55.4431 50.5155 55.5706 49.5884 55.6981C49.0476 55.7746 48.5068 55.8128 47.9659 55.8765C47.3994 55.9403 46.8328 56.0168 46.2533 56.0805C45.764 56.1315 45.2876 56.1698 44.7983 56.2208C44.1544 56.2845 43.5106 56.361 42.8796 56.4247C42.532 56.463 42.1972 56.4885 41.8495 56.514C41.2829 56.565 40.7035 56.6287 40.1369 56.6797C39.5832 56.7307 39.0295 56.7689 38.4887 56.8199C37.935 56.8709 37.3813 56.9347 36.8147 56.9729C36.4541 56.9984 36.0936 57.0239 35.7459 57.0749C35.5012 57.1004 35.2566 57.1131 35.0248 57.1514C34.9089 57.1641 34.8445 57.1259 34.8059 57.0239C34.69 56.6924 34.5741 56.361 34.4582 56.0295C34.4196 55.9275 34.4454 55.8765 34.5741 55.8638C34.8445 55.8383 35.1021 55.8001 35.3596 55.7873C36.0807 55.7363 36.8018 55.6598 37.5229 55.5833C38.038 55.5323 38.553 55.4941 39.0681 55.4431C39.5703 55.3921 40.0854 55.3411 40.5876 55.2774C40.9224 55.2391 41.2572 55.2136 41.592 55.1881C42.1328 55.1499 42.6607 55.0861 43.2015 55.0224C43.7037 54.9587 44.2059 54.9332 44.6953 54.8822C45.1717 54.8312 45.6481 54.7674 46.1246 54.7292C46.601 54.6782 47.0646 54.6399 47.541 54.5889C48.1977 54.5125 48.8673 54.436 49.524 54.3467C49.9618 54.2957 50.3868 54.1937 50.8246 54.1682C51.2238 54.1427 51.2753 53.824 51.3783 53.5818C51.6101 52.9954 51.7002 52.3707 51.8161 51.7588C51.9964 50.7644 52.0736 49.77 52.035 48.7629C51.9964 47.743 51.8547 46.7359 51.5714 45.7542C51.3397 44.9766 51.0821 44.2117 50.7473 43.485C50.7344 43.4595 50.7216 43.4213 50.7087 43.3958C50.7087 43.3703 50.7216 43.3448 50.7473 43.332Z" fill="#3240BD"/>
<path d="M12.1558 29.7422C12.336 29.1685 12.6837 28.684 13.0314 28.2124C13.1473 28.0594 13.2632 27.9064 13.4306 27.8044C13.4949 27.7662 13.5593 27.7024 13.5207 27.6132C13.4821 27.5367 13.3919 27.5622 13.3275 27.5749C13.1601 27.6132 13.0185 27.6897 12.8769 27.7662C12.7223 27.8426 12.5678 27.9191 12.4004 27.9829C12.4777 27.7279 12.6451 27.5239 12.8125 27.3327C13.5078 26.5678 14.3577 26.0069 15.2333 25.4842C15.4908 25.3312 15.7484 25.1782 16.0445 25.0635C15.9287 25.2165 15.7999 25.3822 15.684 25.5352C15.0917 26.3766 14.538 27.2307 14.2032 28.2124C13.9843 28.837 13.8684 29.4872 13.7911 30.1501C13.7911 30.2011 13.7654 30.2649 13.8297 30.2776C13.907 30.3031 13.907 30.2139 13.9328 30.1629C14.1002 29.6529 14.2418 29.143 14.4349 28.6458C14.7569 27.8044 15.1947 27.014 15.6711 26.2491C15.89 25.8921 16.1089 25.5479 16.3922 25.2292C16.1991 25.9049 16.3278 26.606 16.1347 27.2945C16.096 27.269 16.0832 27.269 16.0703 27.2562C15.993 27.1797 15.9802 27.0267 15.8256 27.0522C15.684 27.0777 15.684 27.2307 15.6582 27.3327C15.5295 27.6769 15.5166 28.0466 15.4651 28.4036C15.4265 28.7095 15.4007 29.0283 15.375 29.3342C15.375 29.3852 15.3621 29.449 15.2977 29.4745C15.2462 29.4999 15.2076 29.4362 15.1818 29.398C15.156 29.3852 15.1432 29.3597 15.1174 29.3342C15.053 29.2832 15.0015 29.1557 14.8856 29.2067C14.7697 29.2577 14.7054 29.3597 14.6796 29.4872C14.6152 29.8824 14.5637 30.2776 14.5895 30.6728C14.5895 30.7748 14.5766 30.864 14.5251 30.9533C14.4478 30.9023 14.4478 30.813 14.4221 30.7493C14.3191 30.5581 14.216 30.5453 14.0873 30.7238C13.9456 30.915 13.8812 31.1318 13.8297 31.3485C13.7138 31.7947 13.6495 32.2409 13.6495 32.7381C13.3791 32.3174 13.2503 31.8839 13.173 31.4377C13.0443 30.6856 13.1988 29.9716 13.3919 29.245C13.4048 29.1685 13.4692 29.092 13.3791 29.0283C13.3018 28.9773 13.2245 29.0155 13.1601 29.0538C12.9026 29.1685 12.6966 29.347 12.5034 29.5254C12.3747 29.6147 12.2845 29.7167 12.1558 29.7422Z" fill="#3240BD"/>
<path d="M9.81216 27.9446C9.94092 27.6641 10.2113 27.4984 10.4431 27.3199C10.8165 27.0394 11.2028 26.759 11.6535 26.5805C11.7694 26.5295 11.8982 26.4657 11.8724 26.3255C11.8467 26.1725 11.705 26.147 11.5634 26.147C11.5248 26.147 11.4861 26.147 11.4604 26.0705C12.6837 25.2419 14.1001 24.9997 15.5423 24.8467C15.4007 24.9232 15.259 24.9997 15.1303 25.0889C14.1774 25.7136 13.1472 26.2235 12.233 26.9119C11.5763 27.4091 10.9968 27.9701 10.4946 28.633C10.4302 28.7095 10.353 28.786 10.3401 28.9644C11.0354 28.378 11.6149 27.7151 12.3618 27.2434C12.4261 27.3199 12.3746 27.3454 12.3489 27.3836C12.2201 27.5621 12.1042 27.7533 12.027 27.9573C11.9883 28.072 11.9497 28.1995 12.0527 28.3015C12.1428 28.3908 12.2587 28.378 12.3746 28.3525C12.4133 28.3398 12.439 28.3398 12.542 28.327C12.336 28.5565 12.2459 28.786 12.0398 28.9389C11.7565 29.1429 11.4861 29.3596 11.2028 29.5764C11.1642 29.6019 11.1385 29.6656 11.0741 29.6401C11.0097 29.6019 11.0483 29.5381 11.0612 29.4871C11.0741 29.4234 11.087 29.3469 11.0998 29.2832C11.1256 29.1812 11.087 29.1047 11.0097 29.0282C10.9196 28.9517 10.8294 28.9772 10.7522 29.0282C10.3787 29.2577 10.0697 29.5509 9.77353 29.8696C9.55462 30.1118 9.33572 30.3668 9.15544 30.6345C9.12969 30.6727 9.10393 30.711 9.03955 30.711C9.1812 30.0736 9.45161 29.5126 9.82503 28.9899C10.0439 28.6967 10.2757 28.4418 10.5204 28.174C10.559 28.1358 10.5976 28.0848 10.6234 28.0466C10.7135 27.8936 10.6491 27.7788 10.4689 27.7788C10.353 27.7788 10.2371 27.8171 10.1341 27.8553C10.0439 27.8808 9.94092 27.9446 9.81216 27.9446Z" fill="#62C5F8"/>
<path d="M15.8643 27.5876C16.0059 27.6513 15.9673 27.7661 15.9673 27.8681C15.9673 28.7095 16.0832 29.5254 16.3922 30.3158C16.418 30.3795 16.418 30.456 16.5081 30.507C16.5596 30.4305 16.5467 30.354 16.5338 30.2903C16.4308 29.8186 16.418 29.3469 16.3793 28.8752C16.3536 28.5437 16.3407 28.2123 16.3407 27.8681C16.3407 27.8043 16.3407 27.7278 16.3664 27.6768C16.6884 27.2306 16.6497 26.6952 16.6755 26.198C16.6884 25.8793 16.6884 25.5733 16.6755 25.2546C16.6755 25.1271 16.7012 24.9997 16.7528 24.8467C17.2034 25.3566 17.4738 25.9558 17.77 26.5295C17.7185 26.5422 17.7056 26.555 17.6928 26.555C17.564 26.504 17.4352 26.4147 17.3065 26.5295C17.1777 26.6442 17.2549 26.7845 17.2936 26.9119C17.4996 27.5494 17.6799 28.1995 17.8086 28.8497C17.8215 28.9134 17.8602 28.9899 17.8086 29.0282C17.7571 29.0664 17.6799 29.0154 17.6284 28.9899C17.4867 28.9262 17.3451 28.8497 17.1906 28.7987C16.9974 28.7222 16.9201 28.7732 16.8558 28.9772C16.7785 29.2322 16.8558 29.4871 16.8944 29.7421C17.0232 30.5708 17.1648 31.3867 17.2936 32.2026C17.2936 32.2153 17.2936 32.2281 17.2807 32.2536C17.0875 32.1388 16.9974 31.9348 16.8686 31.7564C16.6111 31.4122 16.3664 31.0552 16.1604 30.6855C16.1347 30.6345 16.096 30.5835 16.0703 30.5453C15.9286 30.3668 15.6969 30.3923 15.6067 30.609C15.5681 30.6855 15.5552 30.7747 15.5295 30.9022C15.4007 30.5962 15.3363 30.2903 15.259 29.9971C15.2462 29.9461 15.2462 29.8951 15.3106 29.8696C15.6711 29.7676 15.6454 29.4616 15.684 29.1939C15.7741 28.6712 15.7484 28.1485 15.8127 27.6259C15.8385 27.6131 15.8514 27.6004 15.8643 27.5876Z" fill="#62C5F8"/>
<path d="M12.5047 27.167C12.5047 27.167 12.5047 27.1804 12.4912 27.1804H12.4777C12.4912 27.1804 12.4912 27.1804 12.5047 27.167Z" fill="#62C5F8"/>
<path d="M17.6553 26.9128C17.6418 26.9128 17.6418 26.8994 17.6283 26.8994H17.6418C17.6553 26.8994 17.6553 26.9128 17.6553 26.9128Z" fill="#F9E5CD"/>
<path d="M11.7179 29.6157C11.7312 29.6025 11.7312 29.5894 11.7445 29.5894C11.7577 29.6025 11.7577 29.6288 11.7179 29.6157Z" fill="#F9E5CD"/>
<path d="M12.8768 29.7304C12.8901 29.7173 12.9034 29.7041 12.9034 29.7041C12.93 29.7173 12.9167 29.7304 12.8901 29.7436C12.8901 29.7436 12.8901 29.7435 12.8768 29.7304Z" fill="#F9E5CD"/>
<path d="M12.1584 29.7422C12.1584 29.7422 12.1584 29.7576 12.1428 29.7576C12.1584 29.7576 12.1584 29.7576 12.1584 29.7422Z" fill="#3240BD"/>
<path d="M12.5034 27.1683C12.5034 27.155 12.5169 27.155 12.5169 27.1416C12.5169 27.155 12.5169 27.155 12.5034 27.1683Z" fill="#62C5F8"/>
<path d="M9.81339 27.9448C9.79988 27.9448 9.79988 27.9582 9.78638 27.9582V27.9448C9.79988 27.9448 9.81339 27.9448 9.81339 27.9448Z" fill="#62C5F8"/>
<path d="M9.94092 28.2893C9.95398 28.2764 9.95398 28.2764 9.96705 28.2634C9.98011 28.2893 9.96705 28.2893 9.94092 28.2893Z" fill="#F9E5CD"/>
<path d="M23.6945 56.4502C23.6945 56.4633 23.7078 56.4765 23.7078 56.4896C23.6945 56.4896 23.6679 56.4765 23.6547 56.4765C23.6679 56.4765 23.6812 56.4633 23.6945 56.4502Z" fill="#F9E5CD"/>
<path d="M42.3259 28.9263C42.6865 28.9263 43.0342 29.0155 43.3303 29.2195C43.7295 29.4745 44.1029 29.7677 44.412 30.1246C44.8498 30.6091 45.3391 31.0425 45.8413 31.4632C46.2662 31.8074 46.601 32.2026 46.6525 32.7763C46.6912 33.2735 46.395 33.7707 45.9443 33.9619C45.4292 34.1914 44.9142 34.1277 44.3991 33.9747C44.1544 33.8982 43.8969 33.8217 43.6651 33.7325C42.8796 33.4265 42.1457 33.5285 41.4246 33.9237C41.0769 34.1149 40.7163 34.2934 40.3172 34.3954C39.6476 34.5484 39.1067 34.3954 38.8106 33.9364C38.5144 33.4902 38.5788 32.7891 38.9522 32.3046C39.1196 32.1006 39.2613 31.8712 39.4029 31.6544C39.712 31.17 39.9952 30.6728 40.2785 30.1756C40.7292 29.398 41.3988 28.9518 42.3259 28.9263ZM39.1068 33.2608C39.1068 33.6305 39.2355 33.8089 39.5961 33.9109C39.8794 34.0002 40.1626 33.9109 40.4073 33.8089C40.7936 33.656 41.167 33.4775 41.5405 33.299C42.1585 33.0058 42.8024 32.9675 43.4462 33.1588C43.9613 33.3118 44.4506 33.5412 44.9914 33.5922C45.4936 33.6432 46.0473 33.4775 46.0988 32.9165C46.1503 32.4958 45.9443 32.1771 45.6224 31.9477C45.1202 31.5652 44.6309 31.17 44.1931 30.7238C44.0128 30.5326 43.8454 30.3286 43.6522 30.1501C43.3818 29.9207 43.15 29.6402 42.8024 29.5127C42.1199 29.2577 41.2958 29.5 40.9224 30.1246C40.4073 30.966 39.9051 31.8074 39.3257 32.6106C39.1969 32.7891 39.0939 33.0058 39.1068 33.2608Z" fill="#515ED5"/>
<path d="M41.5791 26.4786C41.5791 26.8101 41.5405 27.1033 41.3989 27.3965C41.1413 27.9447 40.6134 28.1104 40.0854 27.8044C39.7764 27.626 39.5317 27.3583 39.3515 27.0523C38.875 26.2491 38.6304 25.395 38.8235 24.4516C39.0038 23.6102 39.8537 23.419 40.4331 23.9162C40.9997 24.4006 41.283 25.038 41.4633 25.7392C41.5534 25.9814 41.592 26.2364 41.5791 26.4786ZM40.9739 26.4786C40.9482 25.7902 40.7422 25.1528 40.3558 24.5791C40.2528 24.4388 40.1241 24.3114 39.9824 24.1966C39.7764 24.0309 39.5961 24.0691 39.4931 24.3241C39.403 24.5663 39.3515 24.8213 39.3772 25.0763C39.4287 25.5352 39.5189 25.9687 39.7249 26.3894C39.8794 26.7208 40.0983 27.0013 40.3816 27.2308C40.6134 27.4092 40.8065 27.3455 40.8967 27.065C40.9482 26.8738 40.9868 26.6826 40.9739 26.4786Z" fill="#515ED5"/>
<path d="M45.0944 25.0124C45.0815 25.6881 44.927 26.3383 44.5922 26.9375C44.4506 27.1924 44.2574 27.4219 43.9999 27.5749C43.5621 27.8554 43.0985 27.7661 42.8023 27.3327C42.6092 27.0395 42.5319 26.7207 42.5191 26.3765C42.4804 25.4714 42.6865 24.6172 43.2273 23.8778C43.4719 23.5464 43.781 23.2659 44.2445 23.3551C44.6952 23.4444 44.8884 23.8141 45.0043 24.2093C45.0687 24.477 45.0944 24.7447 45.0944 25.0124ZM43.047 25.9048C43.0341 26.3765 43.0856 26.6825 43.2273 26.9757C43.3689 27.2434 43.5492 27.2689 43.781 27.065C44.1287 26.7462 44.3218 26.351 44.4377 25.9048C44.6051 25.3184 44.7081 24.7192 44.4763 24.1201C44.3476 23.7886 44.1029 23.7121 43.8196 23.9288C43.7552 23.9798 43.6908 24.0436 43.6393 24.1201C43.2273 24.6937 43.0728 25.3694 43.047 25.9048Z" fill="#515ED5"/>
<path d="M36.1967 28.2252C36.1967 27.5368 36.686 27.1544 37.3556 27.2308C37.8062 27.2818 38.2054 27.4731 38.5531 27.7535C39.1068 28.2125 39.5575 28.7352 39.6863 29.4746C39.815 30.2395 39.3 30.7749 38.5273 30.6602C37.4843 30.52 36.3641 29.4236 36.2095 28.4037C36.1967 28.3272 36.2095 28.2507 36.1967 28.2252ZM37.0594 27.5751C36.8147 27.5368 36.5572 27.9065 36.6602 28.3145C36.8405 29.1049 37.8449 29.9845 38.669 30.0865C38.9008 30.112 39.0939 29.9973 39.1712 29.7805C39.2484 29.5511 39.1454 29.3471 39.0682 29.1431C38.8879 28.6969 38.5402 28.3527 38.1926 28.0467C37.8964 27.7918 37.5616 27.626 37.0594 27.5751Z" fill="#515ED5"/>
<path d="M44.8241 29.0665C44.8627 28.4673 45.2233 27.8937 45.7255 27.4092C45.9959 27.1415 46.3178 26.9248 46.6912 26.8228C47.3866 26.6188 47.8373 27.0905 47.8759 27.6642C47.9403 28.6203 46.923 29.9334 45.983 30.1374C45.3005 30.2904 44.8112 29.8952 44.8241 29.0665ZM47.4252 27.6642C47.4252 27.2435 47.2836 27.1542 46.8586 27.2435C46.4208 27.3455 46.1375 27.6642 45.8671 27.9574C45.5452 28.3016 45.3649 28.7223 45.3005 29.1813C45.2619 29.5255 45.5066 29.7294 45.8414 29.6402C45.9186 29.6147 45.9959 29.5892 46.0603 29.551C46.3564 29.4107 46.6011 29.2323 46.8071 28.99C47.1419 28.6076 47.4381 28.1996 47.4252 27.6642Z" fill="#515ED5"/>
<path d="M39.1068 33.2608C39.0939 33.0058 39.1969 32.7891 39.3386 32.5851C39.9052 31.7819 40.4073 30.9278 40.9353 30.0991C41.3216 29.4745 42.1457 29.245 42.8153 29.4872C43.163 29.6147 43.4076 29.8952 43.6652 30.1246C43.8583 30.3031 44.0257 30.5071 44.206 30.6983C44.6567 31.1445 45.1331 31.5397 45.6353 31.9222C45.9572 32.1644 46.1504 32.4831 46.1118 32.891C46.0474 33.452 45.5065 33.6177 45.0044 33.5667C44.4635 33.5157 43.9742 33.2735 43.4591 33.1333C42.8024 32.942 42.1715 32.9803 41.5534 33.2735C41.18 33.452 40.8065 33.6305 40.4202 33.7834C40.1627 33.8854 39.8923 33.9747 39.609 33.8854C39.2356 33.8089 39.1068 33.6305 39.1068 33.2608Z" fill="#3240BD"/>
<path d="M40.9739 26.4788C40.9868 26.6828 40.9481 26.874 40.8838 27.0652C40.7936 27.3457 40.6005 27.4095 40.3687 27.231C40.0854 27.0015 39.8794 26.721 39.712 26.3896C39.5059 25.9689 39.4158 25.5354 39.3643 25.0765C39.3385 24.8215 39.39 24.5665 39.4802 24.3243C39.5703 24.0693 39.7635 24.0311 39.9695 24.1968C40.1111 24.3116 40.2399 24.4391 40.3429 24.5793C40.7421 25.153 40.9481 25.7904 40.9739 26.4788Z" fill="#3240BD"/>
<path d="M43.047 25.905C43.0728 25.3569 43.2144 24.6939 43.6522 24.1203C43.7037 24.0565 43.7552 23.98 43.8325 23.929C44.1158 23.7123 44.3604 23.7888 44.4892 24.1203C44.7081 24.7194 44.6051 25.3186 44.4506 25.905C44.3347 26.3385 44.1415 26.7464 43.7939 27.0652C43.5621 27.2691 43.3818 27.2436 43.2401 26.9759C43.0856 26.6955 43.047 26.3895 43.047 25.905Z" fill="#3240BD"/>
<path d="M37.0594 27.575C37.5616 27.626 37.8964 27.7917 38.1796 28.0339C38.5402 28.3399 38.875 28.6841 39.0553 29.1303C39.1325 29.3343 39.2355 29.5383 39.1583 29.7677C39.081 29.9845 38.9007 30.0992 38.6561 30.0737C37.832 29.9845 36.8276 29.1048 36.6473 28.3017C36.5572 27.9065 36.8147 27.5368 37.0594 27.575Z" fill="#3240BD"/>
<path d="M47.4252 27.6643C47.4252 28.1997 47.129 28.6076 46.8071 28.9901C46.6011 29.2323 46.3435 29.4235 46.0603 29.551C45.983 29.5893 45.9186 29.6148 45.8413 29.6403C45.5066 29.7295 45.2619 29.5255 45.3005 29.1813C45.3649 28.7224 45.5452 28.3017 45.8671 27.9575C46.1504 27.6515 46.4208 27.3328 46.8586 27.2436C47.2835 27.1543 47.4252 27.2436 47.4252 27.6643Z" fill="#3240BD"/>
<path d="M21.0536 7.57252C21.0536 7.57252 18.2336 12.4934 18.0275 18.6382C17.9374 19.7983 17.3579 23.1639 16.1604 24.3495C17.3579 24.783 18.5297 21.7616 19.0705 18.9824C19.6114 16.2032 20.9506 9.58678 23.307 7.39404C21.3626 8.01872 21.0536 7.57252 21.0536 7.57252Z" fill="#505DD6"/>
</g>
<defs>
<clipPath id="clip0_812_13063">
<rect width="65.5556" height="59" fill="white"/>
</clipPath>
</defs>
</svg>
