<svg width="63" height="66" viewBox="0 0 63 66" fill="none" xmlns="http://www.w3.org/2000/svg">
<g clip-path="url(#clip0_812_13045)">
<path d="M22.2511 42.1321C22.2938 39.1156 22.4503 36.4263 22.6495 33.737C22.806 31.4888 22.8914 29.2406 23.0764 27.0066C23.304 24.3174 23.5601 21.6423 23.9728 18.9672C24.0439 18.5261 24.2574 18.142 24.485 17.7578C25.2249 16.4914 26.0787 15.2961 26.9182 14.1009C27.3593 13.4748 27.7862 12.8488 28.2273 12.2227C28.5118 11.81 28.6826 11.3974 28.7111 10.8709C28.768 9.8322 29.0241 8.82194 29.1522 7.78322C29.3656 6.10419 29.7782 4.48208 30.3901 2.90266C30.5893 2.40464 30.8027 1.93508 31.2581 1.59358C31.6992 1.26632 32.1403 1.19517 32.6525 1.46552C32.994 1.6505 33.2928 1.86394 33.5774 2.13429C33.8477 2.39041 34.1323 2.61808 34.4454 2.81728C34.7584 3.01649 34.8438 3.01649 35.0857 2.73191C35.4841 2.29081 35.854 1.80702 36.224 1.33746C36.6082 0.867904 37.092 0.640239 37.7038 0.739843C38.0595 0.796759 38.3299 0.981736 38.5718 1.23786C38.9417 1.63627 39.1836 2.12006 39.5109 2.54693C39.7101 2.80305 39.9662 2.95957 40.2793 3.03072C40.4358 3.05918 40.5638 3.03072 40.6777 2.91689C41.0049 2.60385 41.2184 2.21966 41.5172 1.87817C41.6026 1.77856 41.6879 1.67896 41.7733 1.59358C42.3282 1.03865 42.997 1.03865 43.5662 1.57936C43.9219 1.93508 44.2634 2.30504 44.5907 2.68922C45.046 3.22992 45.0744 3.2157 45.5155 2.68922C45.8428 2.30504 46.1558 1.89239 46.6396 1.67896C47.1803 1.45129 47.7353 1.53667 48.1764 1.93508C48.4894 2.23389 48.8167 2.51847 49.1297 2.81728C49.2293 2.91689 49.3147 2.91689 49.4001 2.80305C49.457 2.71768 49.5281 2.6323 49.585 2.54693C49.8127 2.14852 50.1115 1.79279 50.4246 1.46552C50.9368 0.939049 51.7479 1.03865 52.1605 1.6505C52.3739 1.96354 52.5162 2.29081 52.6443 2.64653C52.7012 2.81728 52.7724 2.9738 52.872 3.11609C53.0285 3.32953 53.1992 3.34376 53.3984 3.17301C53.555 3.03072 53.6688 2.84574 53.7826 2.67499C53.9818 2.36195 54.2237 2.06314 54.5225 1.83548C54.8498 1.59358 55.2055 1.57936 55.5755 1.62204C55.7889 1.6505 55.9454 1.77856 56.0735 1.94931C56.3865 2.34772 56.5004 2.83151 56.5857 3.32953C56.7992 4.46785 56.7849 5.60617 56.7992 6.75873C56.8134 8.13894 56.8419 9.51916 56.8134 10.8994C56.7992 11.5824 56.9557 12.1942 57.2403 12.8061C57.7098 13.8163 58.2221 14.7981 58.6205 15.8369C59.4742 18.0708 60.0718 20.3759 60.4845 22.7237C60.7548 24.3174 60.9967 25.911 61.1533 27.5189C61.2955 28.9418 61.4094 30.3789 61.509 31.8161C61.5801 32.7694 61.694 33.7228 61.7651 34.6619C61.8363 35.6294 61.9359 36.597 61.9643 37.5646C62.0355 40.1543 62.0355 42.744 61.9928 45.3337C61.9785 46.7281 61.9643 48.1368 61.8789 49.5312C61.8647 49.7447 61.8505 49.9723 61.822 50.1858C61.7651 50.5984 61.3809 50.9684 60.9114 51.0395C60.5841 51.0964 60.2568 51.1249 59.9153 51.1249C58.7628 51.1249 57.781 51.5233 56.9557 52.3343C56.2727 52.9889 55.6182 53.6861 54.9067 54.2979C54.1241 54.9667 53.3557 55.6639 52.5589 56.3185C51.321 57.3145 49.8981 57.841 48.3187 58.0117C47.2799 58.1256 46.227 58.154 45.1883 58.1398C43.9646 58.1256 42.7551 58.154 41.5314 58.0971C40.2081 58.026 38.899 57.9121 37.5757 57.8125C36.8501 57.7556 36.1244 57.6845 35.3987 57.5991C35.2849 57.5849 35.228 57.5991 35.228 57.7414C35.2422 58.7943 34.7869 59.6481 34.0754 60.388C33.2217 61.2844 32.1687 61.9105 31.0446 62.4227C28.8107 63.4472 26.4486 64.0164 24.0439 64.3863C21.9665 64.6994 19.8748 64.8417 17.7832 64.8274C14.6101 64.8132 11.4655 64.4859 8.39199 63.6607C6.78411 63.2338 5.21891 62.6788 3.78178 61.8109C2.82844 61.2417 1.97469 60.5587 1.41976 59.5769C0.651393 58.2252 0.978661 56.8592 1.93201 55.8204C1.96046 55.792 1.97469 55.7635 2.00315 55.7493C2.25927 55.6924 2.24505 55.4932 2.25927 55.294C2.34465 53.8568 2.75729 52.5051 3.4972 51.2672C4.52169 49.5739 6.00151 48.4071 7.89397 47.781C9.00384 47.4111 10.1137 47.0269 11.2805 46.8135C12.2196 46.6427 13.1445 46.5147 14.0978 46.4293C15.6773 46.287 17.2567 46.1447 18.8361 46.1732C19.9033 46.1874 20.9562 46.2159 22.0092 46.3297C22.2084 46.3581 22.2795 46.3012 22.2653 46.0878C22.2511 44.6507 22.2084 43.2278 22.2511 42.1321ZM45.3021 57.4283C45.7148 57.4283 46.1274 57.4426 46.5258 57.4283C47.3084 57.3999 48.0768 57.3999 48.8451 57.2576C49.7843 57.0726 50.6949 56.8307 51.4917 56.29C51.7336 56.1335 51.9613 55.9485 52.0467 55.6639C52.1605 55.2798 52.2601 54.8813 52.317 54.4829C52.4309 53.4727 52.5447 52.4624 52.5731 51.4521C52.6016 50.1858 52.6727 48.9051 52.7012 47.6388C52.7297 46.0593 52.7439 44.4799 52.7866 42.9147C52.8293 40.9938 52.8293 39.0729 52.7724 37.1377C52.7439 35.8998 52.687 34.6619 52.6443 33.4382C52.6158 32.7836 52.6016 32.1291 52.5589 31.4746C52.502 30.6635 52.4593 29.8525 52.4309 29.0414C52.4024 28.3157 52.3455 27.59 52.3028 26.8644C52.2459 25.8826 52.2032 24.8865 52.1605 23.9047C52.1463 23.6201 52.132 23.3356 52.1178 23.0652C52.0609 22.2115 51.9898 21.3577 51.9613 20.504C51.9328 19.5364 51.9186 18.5688 51.9898 17.6013C52.0467 16.904 52.0894 16.2068 52.1036 15.5096C52.132 14.3855 52.317 13.2756 52.2601 12.1515C52.2174 11.3547 52.2743 10.5437 52.3313 9.7326C52.4024 8.73656 52.4593 7.7263 52.5447 6.73027C52.6301 5.80538 52.6443 4.88049 52.8435 3.98406C52.8577 3.91292 52.8862 3.84177 52.7724 3.78486C52.4024 3.61411 52.2317 3.28684 52.0894 2.93111C51.9471 2.58962 51.819 2.23389 51.6198 1.92085C51.5202 1.77856 51.3921 1.70742 51.2214 1.70742C50.9368 1.69319 50.7945 1.89239 50.638 2.06314C50.3534 2.37618 50.14 2.74614 49.8839 3.08763C49.5424 3.55719 49.0586 3.59988 48.6317 3.20147C48.3044 2.90266 48.0056 2.58962 47.6926 2.29081C47.6214 2.21966 47.5503 2.17698 47.4365 2.14852C47.0807 2.06314 46.7962 2.20543 46.5543 2.4331C46.2697 2.68922 46.0136 2.9738 45.7717 3.27261C45.359 3.77063 44.8468 3.81331 44.3915 3.34376C43.993 2.94534 43.6231 2.50424 43.2389 2.10583C42.8405 1.67896 42.5559 1.69319 42.1433 2.0916C41.816 2.40464 41.5883 2.78882 41.2611 3.10186C40.7061 3.62834 40.1512 3.72794 39.5536 3.40067C39.3259 3.27261 39.1694 3.08763 39.0271 2.88843C38.7425 2.49001 38.4722 2.07737 38.1876 1.66473C37.8745 1.22363 37.1773 1.23786 36.9354 1.46552C36.7789 1.60781 36.6224 1.76433 36.4943 1.92085C36.1528 2.36195 35.7829 2.7746 35.356 3.15878C35.0287 3.44336 34.5592 3.59988 34.1039 3.27261C33.805 3.05918 33.5062 2.84574 33.2501 2.58962C32.9513 2.30504 32.6525 2.03469 32.2541 1.89239C32.1118 1.84971 31.9837 1.84971 31.8414 1.90662C31.4146 2.07737 31.2011 2.4331 31.0446 2.83151C30.6177 3.91292 30.2762 5.03701 30.0486 6.17534C29.8494 7.15714 29.7071 8.1674 29.5363 9.14921C29.451 9.64722 29.3087 10.1452 29.2802 10.6433C29.2518 11.3405 29.081 11.9808 28.6968 12.5642C28.3838 13.0337 28.085 13.5033 27.7719 13.9586C26.8897 15.2819 26.0075 16.6194 25.1111 17.9427C24.7981 18.4123 24.5562 18.8676 24.5419 19.4795C24.5277 20.319 24.357 21.1585 24.2716 21.998C24.1578 23.051 24.0724 24.1039 23.9586 25.1569C23.8305 26.3094 23.7593 27.462 23.674 28.6145C23.6028 29.5821 23.5601 30.5639 23.5032 31.5315C23.4463 32.4137 23.3894 33.3101 23.3325 34.1923C23.2613 35.2595 23.1902 36.3267 23.119 37.4081C23.0621 38.2334 23.0337 39.0729 22.991 39.8982C22.9625 40.7519 22.9198 41.5914 22.9056 42.4452C22.8771 43.4839 22.8771 44.5084 22.8487 45.5471C22.8487 45.789 22.8202 46.0309 22.7918 46.2585C22.7775 46.3866 22.8202 46.4008 22.9198 46.4151C23.5744 46.4577 24.2289 46.5573 24.8692 46.657C25.7372 46.785 26.5909 46.9415 27.4304 47.1834C28.3838 47.468 29.266 47.9091 30.1197 48.4213C30.8027 48.834 31.4146 49.3605 31.8984 50.0008C32.311 50.5415 32.5956 51.1533 32.8517 51.7936C33.2643 52.8324 33.6912 53.8568 33.862 54.9809C33.8762 55.109 33.9331 55.2086 34.0327 55.3082C34.5165 55.7493 34.8722 56.2758 35.0999 56.8876C35.1283 56.9872 35.1853 57.0015 35.2849 57.0157C35.7687 57.0868 36.2382 57.0299 36.722 57.0868C37.3765 57.158 38.0311 57.1722 38.6856 57.2291C39.8524 57.343 41.0334 57.4141 42.2144 57.471C43.2104 57.471 44.2634 57.3999 45.3021 57.4283ZM18.2812 46.785C17.9539 46.785 17.6266 46.7708 17.2994 46.785C16.2464 46.8419 15.1935 46.9131 14.1405 46.9842C13.3579 47.0411 12.5611 47.1265 11.7785 47.2546C10.441 47.468 9.16036 47.8949 7.87974 48.3218C6.20072 48.8767 4.9201 49.9581 4.0379 51.4664C3.22685 52.8466 2.72883 54.3691 2.79998 56.0054C2.81421 56.5034 2.94227 56.973 3.18416 57.3999C3.61103 58.1682 4.25134 58.7089 4.97702 59.1643C6.37147 60.0607 7.9082 60.6156 9.50185 61.0283C12.5611 61.8109 15.663 62.0955 18.8076 62.0243C20.2732 61.9959 21.7388 61.882 23.2044 61.6686C24.9261 61.4125 26.6194 61.0567 28.2415 60.4733C29.5221 60.0038 30.7458 59.4489 31.7988 58.5667C32.4391 58.0402 32.9655 57.4283 33.1932 56.603C33.3782 55.9485 33.2359 55.294 33.1078 54.6537C32.8659 53.5438 32.4391 52.5051 31.998 51.4806C31.6707 50.7265 31.2296 50.0719 30.6035 49.5312C30.134 49.1186 29.5933 48.8198 29.0668 48.5067C28.4122 48.1225 27.715 47.8237 26.9751 47.6388C25.4811 47.2688 23.9586 47.0411 22.4076 46.9415C21.0416 46.8846 19.6614 46.785 18.2812 46.785ZM61.324 43.9392C61.2813 42.6301 61.3382 40.9938 61.2955 39.3575C61.2529 37.963 61.2244 36.5686 61.1248 35.1741C61.0679 34.4342 60.9967 33.6943 60.9256 32.9686C60.8402 32.0437 60.7833 31.1331 60.7264 30.2082C60.6979 29.8098 60.6695 29.4256 60.641 29.0272C60.5841 28.4722 60.5414 27.9173 60.4845 27.3624C60.4418 26.9213 60.3991 26.4659 60.3422 26.0248C60.2711 25.4841 60.1857 24.9434 60.1003 24.4027C60.0007 23.7055 59.9011 23.0083 59.773 22.3111C59.5027 20.8597 59.1612 19.4226 58.7201 18.0281C58.3644 16.8898 57.9802 15.7657 57.4679 14.6843C57.2403 14.2005 57.0126 13.7167 56.7849 13.2187C56.3723 12.2938 56.3012 11.2978 56.2727 10.3018C56.23 9.03537 56.2869 7.75476 56.23 6.48837C56.2016 5.40697 56.2016 4.33979 56.0593 3.27261C56.0166 2.95957 55.9739 2.64653 55.7747 2.37618C55.6751 2.23389 55.5186 2.20543 55.3763 2.1912C55.3336 2.1912 55.3478 2.1912 55.3194 2.1912C55.3194 2.21966 55.3194 2.26235 55.3336 2.47579C55.3194 3.24415 55.3478 3.99829 55.3051 4.76666C55.2482 5.76269 55.2197 6.77295 55.2197 7.76899C55.2055 8.87885 55.1771 9.98872 55.2482 11.0986C55.2767 11.5255 55.2624 11.9381 55.2767 12.365C55.3051 13.0337 55.362 13.7025 55.3905 14.3713C55.4047 14.6132 55.4047 14.8693 55.4332 15.1112C55.4901 15.7657 55.5612 16.406 55.6324 17.0605C55.6893 17.587 55.7462 18.1277 55.8174 18.6542C55.8885 19.2945 55.9597 19.9348 56.0166 20.5893C56.0593 21.0447 56.102 21.5142 56.1589 21.9696C56.23 22.5956 56.3012 23.2075 56.3581 23.8336C56.415 24.4454 56.4719 25.0715 56.543 25.6833C56.6142 26.3806 56.728 27.0778 56.7849 27.775C56.8419 28.458 56.913 29.141 56.9699 29.8098C57.0411 30.6066 57.0838 31.4176 57.1122 32.2145C57.1549 32.9828 57.1834 33.7512 57.1976 34.5196C57.226 35.5725 57.2687 36.6397 57.283 37.6927C57.3114 39.6847 57.3114 41.6626 57.2118 43.6546C57.1691 44.3518 57.1691 45.0491 57.1122 45.7463C57.0838 46.0736 57.0838 46.3866 56.9984 46.7139C56.9699 46.8277 57.0268 46.8846 57.1122 46.9415C57.3826 47.1265 57.6529 47.2973 57.9233 47.4822C59.0616 48.2506 60.1999 49.0047 61.0963 50.0719C61.139 50.1288 61.1959 50.2284 61.2671 50.2142C61.3667 50.1715 61.3525 50.0577 61.3951 49.9581C61.4094 49.9154 61.4094 49.8585 61.4094 49.8158C61.3525 49.332 61.3382 48.8625 61.3382 48.3787C61.324 47.0127 61.324 45.6467 61.324 43.9392ZM52.872 54.426C52.9431 54.3549 52.9716 54.3122 53 54.241C53.2277 53.7715 53.4696 53.2877 53.6972 52.8039C53.9818 52.1778 54.2522 51.5375 54.551 50.9114C55.0063 49.9012 55.5186 48.9336 56.0308 47.9518C56.2585 47.5392 56.5857 47.1834 56.5573 46.6285C56.5288 46.0309 56.5715 45.419 56.6 44.8072C56.6427 43.6546 56.6711 42.4878 56.6853 41.3353C56.6996 40.0974 56.7138 38.8594 56.6711 37.6215C56.6427 36.9243 56.6284 36.2271 56.6142 35.5298C56.6142 35.0887 56.6 34.6476 56.5857 34.1923C56.5573 33.2959 56.5146 32.3995 56.4861 31.503C56.4719 30.9765 56.4292 30.4643 56.3865 29.9378C56.3296 29.1125 56.23 28.3015 56.1446 27.4762C56.0735 26.7648 56.0023 26.0533 55.9312 25.3276C55.8316 24.4454 55.732 23.5632 55.6466 22.681C55.5612 21.685 55.4332 20.6747 55.3478 19.6787C55.2767 18.8107 55.1771 17.957 55.0775 17.1032C54.9779 16.2495 54.9067 15.3815 54.8356 14.5136C54.7786 13.6883 54.736 12.8488 54.7075 12.0235C54.679 11.4116 54.6933 10.814 54.6648 10.2022C54.6079 9.02114 54.679 7.8259 54.6933 6.64489C54.6933 6.61644 54.6933 6.58798 54.6933 6.55952C54.7502 5.83384 54.8071 5.09393 54.864 4.36825C54.9067 3.89869 54.9494 3.42913 54.9779 2.95957C54.9921 2.70345 55.0063 2.44733 55.0205 2.1912C54.8783 2.21966 54.8071 2.29081 54.7217 2.36195C54.4372 2.61808 54.2664 2.95957 54.053 3.25838C53.868 3.51451 53.6546 3.71371 53.3557 3.81331C53.2704 3.84177 53.2135 3.88446 53.2135 3.98406C53.2419 5.1793 53.1138 6.37454 53.0569 7.56978C53.0142 8.267 52.9716 8.97846 52.9289 9.67568C52.872 10.501 52.815 11.3405 52.8435 12.1658C52.8577 12.8772 52.815 13.5887 52.7866 14.3001C52.7724 14.6274 52.7724 14.9689 52.7439 15.2961C52.687 16.1926 52.6158 17.089 52.5874 17.9997C52.5447 19.5791 52.6158 21.1443 52.7439 22.7237C52.8008 23.364 52.8008 24.0043 52.8435 24.6446C52.8577 24.9292 52.872 25.2138 52.8862 25.4841C52.9431 26.3663 53 27.2628 53.0427 28.145C53.0712 28.643 53.0996 29.1268 53.1281 29.6248C53.1708 30.4785 53.2135 31.3465 53.2561 32.2002C53.2846 32.869 53.3131 33.5235 53.3415 34.1923C53.37 34.918 53.4269 35.6437 53.4269 36.3694C53.4269 38.7598 53.4838 41.1361 53.3984 43.5266C53.37 44.3803 53.3273 45.234 53.3415 46.0878C53.3415 46.657 53.3415 47.2119 53.3131 47.781C53.2846 48.5921 53.2277 49.4174 53.2135 50.2284C53.2135 50.9541 53.1565 51.6656 53.1138 52.3913C53.0996 52.7043 53.0427 53.0031 53 53.3161C52.9716 53.7146 52.9289 54.0703 52.872 54.426ZM2.20236 56.2473C1.59051 57.1295 1.36285 58.0544 1.81817 59.0504C2.15967 59.8046 2.72883 60.3453 3.38337 60.8291C4.479 61.6544 5.73116 62.1951 7.01177 62.6504C8.98961 63.3334 11.0244 63.7318 13.0876 63.9737C15.0227 64.2014 16.9721 64.2867 18.9357 64.244C20.7997 64.1871 22.6495 64.0306 24.485 63.7176C26.7332 63.3334 28.9387 62.7785 31.0162 61.7966C32.0406 61.3129 33.0082 60.7152 33.7908 59.8615C34.9007 58.6663 34.9861 57.343 34.0327 56.105C33.99 56.0481 33.9758 55.977 33.8762 55.977C33.8477 56.2616 33.805 56.5319 33.7197 56.788C33.3782 57.7414 32.7521 58.4671 31.9695 59.0789C30.8312 59.9611 29.5363 60.5303 28.1846 60.9998C26.1783 61.6828 24.1151 62.0955 21.9949 62.3231C20.3728 62.4939 18.7365 62.5792 17.1002 62.5366C15.7342 62.5081 14.3824 62.4085 13.0164 62.2377C11.3232 62.0101 9.64415 61.6686 8.02203 61.1279C6.49953 60.6156 5.03394 59.9753 3.79601 58.9224C3.18416 58.3959 2.65769 57.7841 2.40156 56.9872C2.33042 56.7453 2.2735 56.5034 2.20236 56.2473ZM53.2846 54.8956C53.3557 54.8671 53.37 54.8671 53.3842 54.8529C53.9107 54.2979 54.5225 53.8284 55.0632 53.3019C55.4901 52.8893 55.8885 52.4624 56.3154 52.064C56.6996 51.7083 57.0838 51.3668 57.5533 51.0964C58.3644 50.6411 59.2466 50.513 60.1715 50.513C60.4133 50.513 60.6695 50.4988 60.9114 50.4703C60.9683 50.4703 61.0394 50.4561 61.0537 50.3992C61.0537 50.3565 60.9967 50.328 60.9683 50.2996C60.2711 49.6735 59.5311 49.1328 58.7912 48.5636C58.2078 48.1225 57.6102 47.6814 57.0268 47.2403C56.8561 47.1123 56.7707 47.1407 56.6996 47.3399C56.5573 47.781 56.3723 48.1937 56.1873 48.6206C55.7747 49.5597 55.3763 50.4988 54.9636 51.4379C54.5652 52.3486 54.1668 53.245 53.6972 54.113C53.555 54.3549 53.4411 54.611 53.2846 54.8956Z" fill="#505DD6" stroke="#505DD6" stroke-width="1.16226" stroke-miterlimit="10"/>
<path d="M45.3021 57.4281C44.2492 57.3997 43.2104 57.4708 42.1575 57.4139C40.9765 57.357 39.8097 57.2858 38.6287 57.172C37.9741 57.1151 37.3196 57.1009 36.6651 57.0297C36.1813 56.9728 35.6975 57.0297 35.2279 56.9586C35.1283 56.9443 35.0857 56.9159 35.043 56.8305C34.8153 56.2187 34.4596 55.6922 33.9758 55.2511C33.8762 55.1515 33.8193 55.0519 33.805 54.9238C33.6485 53.814 33.2074 52.7752 32.7948 51.7365C32.5387 51.1104 32.2541 50.4844 31.8414 49.9437C31.3434 49.3034 30.7458 48.7769 30.0628 48.3642C29.2091 47.852 28.3269 47.3967 27.3735 47.1263C26.534 46.8844 25.666 46.7279 24.8123 46.5998C24.1577 46.5002 23.5174 46.4006 22.8629 46.3579C22.7633 46.3437 22.7206 46.3295 22.7348 46.2014C22.7633 45.9595 22.7918 45.7176 22.7918 45.49C22.8202 44.4513 22.8202 43.4268 22.8487 42.388C22.8629 41.5343 22.8914 40.6948 22.9341 39.841C22.9625 39.0158 23.0052 38.1762 23.0621 37.351C23.1333 36.2838 23.2044 35.2166 23.2755 34.1352C23.3325 33.253 23.3894 32.3566 23.4463 31.4744C23.5032 30.5068 23.5459 29.525 23.617 28.5574C23.7024 27.4049 23.7736 26.2523 23.9016 25.0998C24.0155 24.0468 24.1008 22.9939 24.2147 21.9409C24.3 21.1014 24.4566 20.2619 24.485 19.4224C24.4992 18.8105 24.7554 18.3552 25.0542 17.8856C25.9364 16.5623 26.8186 15.2248 27.715 13.9015C28.028 13.4319 28.3269 12.9766 28.6399 12.5071C29.0241 11.9237 29.1948 11.2834 29.2233 10.5861C29.2517 10.0739 29.394 9.5901 29.4794 9.09209C29.6502 8.09606 29.7924 7.10002 29.9917 6.11822C30.2193 4.9799 30.5608 3.8558 30.9877 2.77439C31.1442 2.37598 31.3576 2.03448 31.7845 1.84951C31.9268 1.79259 32.0549 1.79259 32.1972 1.83528C32.5956 1.97757 32.8944 2.24792 33.1932 2.5325C33.4635 2.78862 33.7481 3.00206 34.0469 3.21549C34.5023 3.54276 34.986 3.40047 35.2991 3.10166C35.7117 2.73171 36.0817 2.30484 36.4374 1.86374C36.5655 1.69299 36.722 1.5507 36.8785 1.40841C37.1204 1.19497 37.8176 1.16651 38.1307 1.60761C38.4152 2.00603 38.6856 2.41867 38.9702 2.83131C39.1125 3.03052 39.269 3.21549 39.4967 3.34356C40.1085 3.67082 40.6492 3.58545 41.2041 3.04475C41.5314 2.73171 41.7591 2.34752 42.0863 2.03448C42.499 1.63607 42.7836 1.62184 43.182 2.04871C43.5662 2.46136 43.9361 2.88823 44.3345 3.28664C44.7899 3.7562 45.3021 3.71351 45.7147 3.21549C45.9566 2.91669 46.2128 2.6321 46.4973 2.37598C46.7535 2.14832 47.0238 2.00603 47.3795 2.0914C47.4791 2.11986 47.5503 2.16255 47.6357 2.23369C47.9487 2.5325 48.2617 2.84554 48.5748 3.14435C49.0016 3.54276 49.4854 3.50008 49.8269 3.03052C50.0831 2.68902 50.2965 2.31907 50.5811 2.00603C50.7376 1.83528 50.8799 1.63607 51.1645 1.6503C51.3494 1.66453 51.4775 1.72145 51.5629 1.86374C51.7763 2.17677 51.8901 2.5325 52.0324 2.874C52.1747 3.22972 52.3597 3.55699 52.7154 3.72774C52.815 3.77043 52.8008 3.8558 52.7866 3.92695C52.6016 4.83761 52.5731 5.76249 52.4878 6.67315C52.4024 7.66918 52.3455 8.66522 52.2743 9.67548C52.2174 10.4865 52.1605 11.2834 52.2032 12.0944C52.2601 13.2185 52.0751 14.3284 52.0467 15.4525C52.0324 16.1497 51.9755 16.8469 51.9328 17.5441C51.8617 18.5117 51.8901 19.4793 51.9044 20.4469C51.9186 21.3006 52.004 22.1543 52.0609 23.0081C52.0751 23.2927 52.0894 23.5772 52.1036 23.8476C52.1463 24.8294 52.189 25.8254 52.2459 26.8072C52.2886 27.5329 52.3455 28.2586 52.3739 28.9843C52.4024 29.7953 52.4451 30.6064 52.502 31.4174C52.5447 32.072 52.5589 32.7265 52.5874 33.3811C52.6443 34.619 52.687 35.8569 52.7154 37.0806C52.7723 39.0015 52.7723 40.9225 52.7297 42.8576C52.7012 44.437 52.6727 46.0164 52.6443 47.5816C52.6158 48.848 52.5447 50.1286 52.5162 51.395C52.4878 52.4053 52.3882 53.4155 52.2601 54.4258C52.2174 54.8242 52.1036 55.2084 51.9897 55.6068C51.9044 55.8914 51.6767 56.0621 51.4348 56.2329C50.638 56.7736 49.7131 57.0155 48.7882 57.2005C48.0198 57.3428 47.2373 57.3428 46.4689 57.3712C46.1274 57.4424 45.7147 57.4281 45.3021 57.4281ZM30.575 11.5537C30.2905 11.5679 30.0059 11.5679 29.7213 11.5679C29.6075 11.5679 29.4936 11.5822 29.4794 11.7102C29.451 11.8668 29.579 11.8952 29.6928 11.9237C29.7355 11.9379 29.7782 11.9379 29.8209 11.9379C30.76 12.009 31.6849 12.0802 32.624 12.1513C33.6485 12.2225 34.673 12.2652 35.6833 12.3221C36.4801 12.3648 37.2912 12.4217 38.088 12.4501C38.9133 12.4786 39.7385 12.5355 40.5638 12.5782C41.4318 12.6351 42.314 12.6636 43.182 12.7063C44.1069 12.749 45.046 12.7916 45.9709 12.8343C46.8531 12.877 47.7495 12.8912 48.6459 12.9339C48.9874 12.9482 49.3431 12.9624 49.6846 12.9766C50.268 13.0051 50.8372 13.0335 51.4206 13.0478C51.5629 13.0478 51.6625 13.0051 51.6625 12.8486C51.6625 12.7205 51.5629 12.6778 51.449 12.6636C51.0079 12.6209 50.5811 12.6067 50.14 12.5782C49.1013 12.5213 48.0768 12.4501 47.038 12.379C46.3266 12.3363 45.6151 12.2936 44.9037 12.2509C43.865 12.194 42.8262 12.1371 41.8018 12.0802C41.0049 12.0375 40.2081 11.9948 39.4113 11.9521C38.273 11.8952 37.1346 11.8241 36.0105 11.7814C35.1426 11.7387 34.2604 11.696 33.3924 11.6533C32.4533 11.6106 31.5142 11.5964 30.575 11.5537ZM49.2435 5.5206C49.2578 5.15064 49.1724 4.78069 49.1866 4.42496C49.1866 4.36805 49.1866 4.2969 49.1155 4.28267C49.0586 4.26844 49.0159 4.46765 49.0159 4.48188C48.7598 5.49214 48.7028 6.53086 48.589 7.55535C48.5321 8.11028 48.4752 8.67945 48.4325 9.23438C48.3898 9.81777 48.3471 10.3869 48.3756 10.9703C48.3898 11.1695 48.5036 11.2691 48.6886 11.2122C48.8736 11.1553 48.8736 10.9845 48.8878 10.8423C48.9447 10.2589 49.0159 9.66125 49.0586 9.07786C49.1155 7.91108 49.1724 6.71584 49.2435 5.5206ZM39.2405 10.2162C39.2405 10.3585 39.2405 10.5008 39.2405 10.6431C39.2405 10.7427 39.2832 10.828 39.3828 10.8423C39.4967 10.8707 39.582 10.8138 39.6247 10.7142C39.6674 10.6288 39.6959 10.5292 39.7101 10.4296C39.7955 9.9316 39.8381 9.41936 39.8951 8.92134C39.9804 8.05337 40.0516 7.19963 40.1085 6.33165C40.1227 5.99016 40.1227 5.63443 40.1654 5.29293C40.2081 4.99412 40.1512 4.70954 40.1085 4.41073C40.1085 4.38228 40.1085 4.33959 40.0658 4.32536C40.0089 4.31113 39.9947 4.35382 39.9804 4.3965C39.9235 4.56725 39.8524 4.738 39.8097 4.92298C39.6389 5.77672 39.5393 6.64469 39.454 7.51266C39.3544 8.40909 39.2974 9.30552 39.2405 10.2162ZM44.8468 6.90082C44.8183 6.28897 44.8895 5.69135 44.8041 5.0795C44.7899 4.93721 44.8325 4.69531 44.6618 4.68109C44.5195 4.66686 44.491 4.90875 44.4626 5.06527C44.3772 5.54906 44.3772 6.04707 44.3345 6.54509C44.2918 6.98619 44.3061 7.42729 44.2918 7.85416C44.2349 8.89288 44.2492 9.9316 44.3061 10.9703C44.3061 11.0984 44.3488 11.2122 44.5053 11.2264C44.6618 11.2407 44.7045 11.1268 44.7329 11.013C44.7472 10.9419 44.7614 10.8707 44.7614 10.7996C44.7756 10.4438 44.7899 10.0739 44.7899 9.71817C44.8041 8.77905 44.8895 7.83993 44.8468 6.90082ZM34.1038 9.29129C34.1038 9.60433 34.1038 9.9316 34.1038 10.2446C34.1038 10.3442 34.1181 10.4296 34.1465 10.515C34.175 10.6004 34.2177 10.6573 34.3031 10.6715C34.4027 10.6857 34.4738 10.6288 34.488 10.5434C34.5307 10.4154 34.5592 10.2731 34.5592 10.1308C34.6161 9.149 34.6872 8.1672 34.7299 7.19963C34.7726 6.38857 34.8153 5.57752 34.7726 4.76646C34.7726 4.65263 34.8153 4.46765 34.7015 4.45342C34.6019 4.43919 34.5592 4.62417 34.5307 4.738C34.4027 5.16487 34.36 5.60597 34.3031 6.04707C34.1892 7.10002 34.0896 8.19566 34.1038 9.29129Z" fill="#62C6F9"/>
<path d="M18.2811 46.7847C19.6613 46.7847 21.0416 46.8844 22.4076 46.9697C23.9443 47.0693 25.4668 47.297 26.9751 47.6669C27.715 47.8519 28.4122 48.1507 29.0667 48.5349C29.5932 48.848 30.1339 49.1468 30.6035 49.5594C31.2296 50.1001 31.6707 50.7689 31.9979 51.5088C32.439 52.5333 32.8801 53.5862 33.1078 54.6819C33.2501 55.3222 33.3781 55.9625 33.1932 56.6312C32.9655 57.4565 32.439 58.0684 31.7987 58.5948C30.7458 59.4628 29.5221 60.032 28.2415 60.5015C26.6051 61.0992 24.9119 61.4549 23.2044 61.6968C21.753 61.9102 20.2874 62.0098 18.8076 62.0525C15.663 62.1237 12.5468 61.8391 9.50181 61.0565C7.90816 60.6438 6.37142 60.0889 4.97698 59.1925C4.2513 58.7371 3.61099 58.1822 3.18412 57.4281C2.94223 57.0012 2.82839 56.5316 2.79994 56.0336C2.74302 54.3831 3.22681 52.8748 4.03786 51.4946C4.92006 50.0005 6.20068 48.9049 7.8797 48.3499C9.16032 47.9231 10.4409 47.5104 11.7785 47.2828C12.5611 47.1547 13.3437 47.0693 14.1405 47.0124C15.1934 46.9413 16.2464 46.8701 17.2993 46.8132C17.6266 46.7705 17.9539 46.7847 18.2811 46.7847ZM18.2527 47.4535C16.2606 47.4535 14.4677 47.5958 12.6891 47.8804C11.0812 48.1507 9.53027 48.5776 8.07891 49.3175C7.65204 49.531 7.23939 49.8013 6.91213 50.157C6.35719 50.7689 6.31451 51.523 6.81252 52.1918C7.01173 52.4621 7.26785 52.6756 7.5382 52.8748C8.30657 53.4013 9.17454 53.7427 10.0567 54.0131C12.5468 54.753 15.1081 55.0091 17.6977 55.066C19.2629 55.0945 20.8424 55.0234 22.3933 54.8384C23.8874 54.6676 25.3672 54.3831 26.8043 53.8993C27.6438 53.6147 28.4549 53.259 29.1379 52.6613C29.7924 52.0922 29.9916 51.3096 29.6501 50.6408C29.4367 50.2282 29.1094 49.9151 28.7395 49.659C27.7719 48.9902 26.6905 48.6203 25.5664 48.3357C23.1048 47.667 20.5862 47.4677 18.2527 47.4535Z" fill="#F8E5CD"/>
<path d="M61.3239 43.9395C61.3239 45.6328 61.3239 47.013 61.3239 48.379C61.3239 48.8628 61.3524 49.3323 61.3951 49.8161C61.3951 49.8588 61.3951 49.8873 61.3951 49.9442C61.3809 50.058 61.3666 50.1718 61.267 50.2145C61.1959 50.243 61.139 50.1292 61.0963 50.0722C60.1999 49.0051 59.0615 48.2509 57.9232 47.4826C57.6529 47.2976 57.3825 47.1268 57.1122 46.9418C57.0268 46.8849 56.9699 46.828 56.9983 46.7142C57.0837 46.4011 57.0837 46.0739 57.1122 45.7466C57.1691 45.0494 57.1691 44.3522 57.2118 43.6549C57.3114 41.6629 57.3114 39.685 57.2829 37.693C57.2687 36.64 57.2118 35.5728 57.1975 34.5199C57.1833 33.7515 57.1548 32.9832 57.1122 32.2148C57.0695 31.418 57.041 30.6069 56.9699 29.8101C56.9129 29.1271 56.8418 28.4441 56.7849 27.7753C56.728 27.0781 56.6141 26.3809 56.543 25.6837C56.4718 25.0718 56.4292 24.4457 56.358 23.8339C56.3011 23.2078 56.23 22.596 56.1588 21.9699C56.1161 21.5146 56.0734 21.045 56.0165 20.5897C55.9454 19.9494 55.8885 19.3091 55.8173 18.6545C55.7604 18.1281 55.7035 17.5873 55.6323 17.0609C55.5612 16.4063 55.49 15.766 55.4331 15.1115C55.4047 14.8696 55.4047 14.6135 55.3904 14.3716C55.362 13.7028 55.3051 13.0341 55.2766 12.3653C55.2624 11.9384 55.2766 11.5115 55.2481 11.0989C55.177 9.98904 55.2055 8.87918 55.2197 7.76931C55.2339 6.77328 55.2482 5.76302 55.3051 4.76699C55.3478 3.99862 55.3193 3.24448 55.3335 2.47611C55.3335 2.40497 55.3193 2.27691 55.3193 2.19153C55.5327 2.1773 55.675 2.21999 55.7746 2.37651C55.9596 2.64686 56.0165 2.9599 56.0592 3.27294C56.2015 4.34012 56.2015 5.40729 56.2442 6.47447C56.2869 7.74085 56.2442 9.02147 56.2869 10.2879C56.3153 11.2839 56.3865 12.2799 56.7991 13.2048C57.0126 13.6886 57.2544 14.1866 57.4821 14.6704C57.9944 15.7518 58.3785 16.8759 58.7343 18.0142C59.1754 19.4229 59.5026 20.86 59.7872 22.2972C59.9153 22.9944 60.0006 23.6916 60.1145 24.3888C60.1999 24.9295 60.2852 25.4702 60.3564 26.0109C60.4133 26.452 60.456 26.9074 60.4987 27.3485C60.5556 27.9034 60.6125 28.4583 60.6552 29.0133C60.6836 29.4117 60.7121 29.7959 60.7406 30.1943C60.8117 31.1192 60.8686 32.0298 60.9398 32.9547C61.0109 33.6946 61.0821 34.4203 61.139 35.1602C61.2386 36.5546 61.2813 37.9491 61.3097 39.3435C61.3382 41.0083 61.2955 42.6304 61.3239 43.9395Z" fill="#62C6F9"/>
<path d="M52.8719 54.426C52.9146 54.056 52.9573 53.7003 53 53.3588C53.0427 53.0458 53.0996 52.747 53.1138 52.4339C53.1423 51.7082 53.1992 50.9968 53.2134 50.2711C53.2277 49.4458 53.2704 48.6348 53.313 47.8237C53.3415 47.2546 53.3415 46.6996 53.3415 46.1305C53.3273 45.2767 53.37 44.423 53.3984 43.5692C53.4696 41.1788 53.4269 38.8025 53.4269 36.412C53.4269 35.6863 53.37 34.9607 53.3415 34.235C53.313 33.5662 53.2846 32.9117 53.2561 32.2429C53.2134 31.3892 53.1708 30.5212 53.1281 29.6675C53.0996 29.1695 53.0711 28.6857 53.0427 28.1876C52.9858 27.3054 52.9289 26.409 52.8862 25.5268C52.8719 25.2422 52.8719 24.9577 52.8435 24.6873C52.8008 24.047 52.8008 23.4067 52.7439 22.7664C52.6158 21.2012 52.5447 19.6218 52.5874 18.0423C52.6158 17.1459 52.687 16.2353 52.7439 15.3388C52.7581 15.0116 52.7723 14.6701 52.7866 14.3428C52.815 13.6313 52.8577 12.9199 52.8435 12.2084C52.815 11.3689 52.8862 10.5436 52.9289 9.71836C52.9715 9.02114 53.0142 8.30968 53.0569 7.61246C53.1281 6.41722 53.2419 5.22198 53.2134 4.02675C53.2134 3.91291 53.2704 3.88445 53.3557 3.856C53.6545 3.75639 53.868 3.55719 54.053 3.30106C54.2664 3.00225 54.4371 2.66076 54.7217 2.40464C54.8071 2.33349 54.8925 2.24812 55.0205 2.23389C55.0063 2.49001 55.0063 2.74613 54.9778 3.00225C54.9352 3.47181 54.8925 3.94137 54.864 4.41093C54.8071 5.13661 54.7502 5.87652 54.6933 6.6022C54.6933 6.63066 54.6933 6.65912 54.6933 6.68757C54.679 7.86858 54.6079 9.06382 54.6648 10.2448C54.6933 10.8567 54.679 11.4543 54.7075 12.0662C54.7359 12.8914 54.7786 13.7309 54.8355 14.5562C54.9067 15.4242 54.9778 16.2779 55.0774 17.1459C55.177 17.9997 55.2766 18.8676 55.3478 19.7214C55.4332 20.7174 55.547 21.7277 55.6466 22.7237C55.732 23.6059 55.8458 24.4881 55.9312 25.3703C56.0023 26.0818 56.0735 26.7932 56.1446 27.5189C56.23 28.3442 56.3296 29.1552 56.3865 29.9805C56.4292 30.507 56.4719 31.0192 56.4861 31.5457C56.5146 32.4421 56.5573 33.3386 56.5857 34.235C56.6 34.6761 56.6142 35.1172 56.6142 35.5725C56.6284 36.2697 56.6426 36.967 56.6711 37.6642C56.728 38.9021 56.7138 40.14 56.6853 41.378C56.6711 42.5305 56.6426 43.6973 56.5999 44.8498C56.5715 45.4617 56.543 46.0735 56.5573 46.6712C56.5715 47.2403 56.2442 47.5818 56.0308 47.9945C55.5185 48.962 55.0063 49.9438 54.551 50.9541C54.2664 51.5802 53.996 52.2205 53.6972 52.8466C53.4696 53.3303 53.2419 53.7999 53 54.2837C52.9715 54.3122 52.8719 54.4829 52.8719 54.426Z" fill="#62C6F9"/>
<path d="M2.2024 56.2475C2.27355 56.5036 2.33046 56.7455 2.40161 56.9732C2.6435 57.77 3.16997 58.3818 3.79605 58.9083C5.03398 59.9755 6.48534 60.6158 8.02208 61.1138C9.64419 61.6545 11.3232 61.996 13.0165 62.2237C14.3682 62.4086 15.7342 62.494 17.1002 62.5225C18.7365 62.5652 20.3587 62.4798 21.995 62.309C24.1009 62.0814 26.1641 61.6687 28.1846 60.9857C29.5364 60.5304 30.8312 59.947 31.9695 59.0648C32.7521 58.453 33.3782 57.7131 33.7197 56.7739C33.8193 56.5178 33.8478 56.2475 33.8762 55.9629C33.9616 55.9629 33.9901 56.034 34.0328 56.091C34.9861 57.3289 34.9007 58.6522 33.7909 59.8474C33.0083 60.6869 32.0549 61.2846 31.0162 61.7826C28.9388 62.7644 26.7475 63.3335 24.4851 63.7035C22.6495 64.0165 20.7998 64.173 18.9357 64.23C16.9864 64.2869 15.037 64.1873 13.0876 63.9596C11.0244 63.7177 8.98965 63.3193 7.01181 62.6363C5.71697 62.1952 4.47905 61.6403 3.38341 60.815C2.72887 60.3312 2.15971 59.7763 1.81822 59.0364C1.36289 58.0546 1.57632 57.1297 2.2024 56.2475Z" fill="#F8E5CD"/>
<path d="M53.2704 54.938C53.4127 54.6534 53.555 54.3546 53.683 54.1127C54.1526 53.2447 54.551 52.334 54.9494 51.4376C55.3621 50.4985 55.7605 49.5594 56.1731 48.6203C56.3581 48.1934 56.5431 47.7808 56.6854 47.3397C56.7565 47.1262 56.8419 47.112 57.0126 47.2401C57.596 47.6812 58.1936 48.108 58.777 48.5634C59.5169 49.1325 60.2711 49.6732 60.9541 50.2993C60.9825 50.3278 61.0537 50.3704 61.0394 50.3989C61.0252 50.4558 60.9541 50.47 60.8972 50.47C60.6553 50.4985 60.4134 50.5127 60.1572 50.5127C59.2466 50.5127 58.3644 50.6408 57.5391 51.0961C57.0838 51.3522 56.6854 51.6937 56.3012 52.0637C55.8743 52.4621 55.4759 52.889 55.049 53.3016C54.5083 53.8281 53.8965 54.2977 53.37 54.8526C53.3842 54.8668 53.2704 54.9807 53.2704 54.938Z" fill="#62C6F9"/>
<path d="M33.3923 11.6676C34.2603 11.7103 35.1425 11.753 36.0105 11.7957C37.1488 11.8384 38.2871 11.9095 39.4112 11.9664C40.2081 12.0091 41.0049 12.0518 41.8017 12.0945C42.8404 12.1514 43.8791 12.2083 44.9036 12.2652C45.6151 12.3079 46.3265 12.3506 47.038 12.3933C48.0767 12.4644 49.1012 12.5356 50.1399 12.5925C50.581 12.621 51.0079 12.6352 51.449 12.6779C51.5628 12.6921 51.6624 12.7348 51.6624 12.8629C51.6624 13.0194 51.5486 13.0621 51.4205 13.0621C50.8371 13.0336 50.268 13.0194 49.6846 12.9909C49.3431 12.9767 48.9874 12.9767 48.6459 12.9482C47.7637 12.8913 46.8672 12.8771 45.9708 12.8486C45.0459 12.8059 44.1068 12.7633 43.1819 12.7206C42.314 12.6779 41.4318 12.6352 40.5638 12.5925C39.7385 12.5498 38.9132 12.4929 38.0879 12.4644C37.2911 12.436 36.48 12.3791 35.6832 12.3364C34.6587 12.2795 33.6342 12.2368 32.624 12.1656C31.6849 12.1087 30.76 12.0233 29.8209 11.9522C29.7782 11.9522 29.7355 11.938 29.6928 11.938C29.579 11.9095 29.4509 11.8811 29.4794 11.7245C29.4936 11.5965 29.6074 11.5822 29.7213 11.5822C30.3046 11.5253 32.4532 11.6107 33.3923 11.6676Z" fill="#505DD6" stroke="#505DD6" stroke-width="0.348678" stroke-miterlimit="10"/>
<path d="M49.2436 5.52082C49.1867 6.71606 49.1298 7.89707 49.0444 9.0923C49.0017 9.67569 48.9448 10.2733 48.8736 10.8567C48.8594 10.999 48.8594 11.1697 48.6744 11.2267C48.5037 11.2836 48.3756 11.184 48.3614 10.9848C48.3329 10.4014 48.3756 9.83221 48.4183 9.24882C48.461 8.69389 48.5179 8.12473 48.5748 7.5698C48.6887 6.54531 48.7313 5.50659 48.9875 4.51055C49.0302 4.38249 49.0444 4.29712 49.1013 4.29712C49.1724 4.29712 49.1724 4.38249 49.1724 4.43941C49.1724 4.79514 49.2578 5.15086 49.2436 5.52082Z" fill="#505DD6" stroke="#505DD6" stroke-width="0.348678" stroke-miterlimit="10"/>
<path d="M39.2405 10.2161C39.2975 9.31969 39.3544 8.40903 39.4398 7.5126C39.5251 6.64463 39.6247 5.77666 39.7955 4.92292C39.8239 4.73794 39.9093 4.56719 39.9662 4.39645C39.9805 4.35376 40.0089 4.31107 40.0516 4.3253C40.0943 4.33953 40.0943 4.38222 40.0943 4.41068C40.137 4.70948 40.1939 4.99407 40.1512 5.29288C40.1085 5.63437 40.1085 5.9901 40.0943 6.3316C40.0374 7.19957 39.9662 8.05331 39.8809 8.92128C39.8239 9.4193 39.7812 9.93154 39.6959 10.4296C39.6816 10.5292 39.6532 10.6288 39.6105 10.7141C39.5678 10.8137 39.4824 10.8707 39.3686 10.8422C39.269 10.8137 39.2263 10.7426 39.2263 10.643C39.2405 10.5007 39.2405 10.3584 39.2405 10.2161Z" fill="#505DD6" stroke="#505DD6" stroke-width="0.348678" stroke-miterlimit="10"/>
<path d="M44.8468 6.90088C44.8752 7.84 44.8041 8.77912 44.7899 9.71823C44.7899 10.074 44.7756 10.4439 44.7614 10.7996C44.7614 10.8708 44.7472 10.9419 44.7329 11.0131C44.7045 11.1411 44.6618 11.255 44.5053 11.2265C44.3488 11.2123 44.3203 11.0842 44.3061 10.9704C44.2492 9.93167 44.2349 8.89295 44.2918 7.85423C44.3203 7.41313 44.3061 6.97203 44.3345 6.54516C44.3772 6.04714 44.3915 5.56335 44.4626 5.06534C44.4911 4.90882 44.5195 4.68115 44.6618 4.68115C44.8183 4.69538 44.7756 4.93727 44.8041 5.07957C44.8895 5.69141 44.8326 6.28903 44.8468 6.90088Z" fill="#505DD6" stroke="#505DD6" stroke-width="0.348678" stroke-miterlimit="10"/>
<path d="M34.1039 9.29093C34.0897 8.1953 34.1893 7.11389 34.3031 6.01826C34.3458 5.57716 34.4027 5.13605 34.5308 4.70918C34.5592 4.59535 34.6019 4.41037 34.7015 4.4246C34.8153 4.43883 34.7727 4.62381 34.7727 4.73764C34.8011 5.5487 34.7584 6.35975 34.73 7.17081C34.6873 8.15261 34.6161 9.13441 34.5592 10.102C34.545 10.2443 34.5165 10.3866 34.4881 10.5146C34.4596 10.6 34.4027 10.6569 34.3031 10.6427C34.2177 10.6285 34.175 10.5715 34.1466 10.4862C34.1181 10.4008 34.1039 10.3012 34.1039 10.2158C34.1039 9.93124 34.1039 9.60397 34.1039 9.29093Z" fill="#505DD6" stroke="#505DD6" stroke-width="0.348678" stroke-miterlimit="10"/>
<path d="M18.2527 47.4534C20.5863 47.4676 23.1048 47.6668 25.5522 48.3071C26.6763 48.5917 27.7577 48.9759 28.7253 49.6304C29.0953 49.8865 29.4225 50.1996 29.636 50.6122C29.9917 51.2668 29.7783 52.0636 29.1237 52.6327C28.4407 53.2161 27.6297 53.5719 26.7902 53.8707C25.3673 54.3687 23.8874 54.639 22.3792 54.8098C20.814 54.9948 19.2488 55.0801 17.6836 55.0374C15.0939 54.9805 12.5327 54.7386 10.0426 53.9845C9.14616 53.7141 8.29241 53.3869 7.52405 52.8462C7.25369 52.6612 6.99757 52.4335 6.79836 52.1632C6.30035 51.4944 6.32881 50.7545 6.89797 50.1284C7.22524 49.7727 7.62365 49.5023 8.06475 49.2889C9.51611 48.549 11.0813 48.1221 12.675 47.8518C14.4678 47.5814 16.2607 47.4534 18.2527 47.4534ZM18.2243 54.511C19.1492 54.4825 20.0883 54.4541 21.0132 54.3829C21.625 54.3402 22.2369 54.2691 22.8345 54.1979C23.5744 54.0983 24.3001 53.9703 25.0258 53.7995C25.3957 53.7141 25.4384 53.6288 25.2107 53.3157C25.1823 53.273 25.1396 53.2304 25.0969 53.1877C24.727 52.8035 24.2432 52.6043 23.7594 52.4335C22.2369 51.8928 20.6574 51.779 19.0638 51.7078C18.6369 51.6936 18.2101 51.7221 17.769 51.7363C17.0575 51.7648 16.346 51.8217 15.6488 51.9071C14.667 52.0351 13.6994 52.2343 12.7746 52.5758C12.2196 52.7893 11.6789 53.0312 11.2805 53.5007C11.124 53.6857 11.124 53.7284 11.3659 53.7711C11.9777 53.9134 12.5896 54.013 13.2014 54.1268C14.2544 54.2975 15.3073 54.3971 16.3603 54.4398C17.0006 54.4825 17.6124 54.5394 18.2243 54.511Z" fill="#505DD6"/>
<path d="M18.2242 54.5118C17.6124 54.5402 17.0005 54.4833 16.3887 54.4548C15.3357 54.3979 14.2685 54.3126 13.2298 54.1418C12.618 54.0422 11.9919 53.9284 11.3943 53.7861C11.1666 53.7292 11.1524 53.6865 11.3089 53.5157C11.7215 53.0604 12.248 52.8043 12.8029 52.5908C13.7278 52.2351 14.6954 52.0501 15.6772 51.9221C16.3887 51.8367 17.0859 51.7798 17.7973 51.7513C18.2242 51.7371 18.6653 51.7086 19.0922 51.7229C20.6858 51.794 22.2653 51.9079 23.7878 52.4486C24.2715 52.6193 24.7553 52.8185 25.1253 53.2027C25.168 53.2454 25.2107 53.2881 25.2391 53.3308C25.4526 53.6438 25.4099 53.7292 25.0541 53.8145C24.3285 53.9853 23.5886 54.1134 22.8629 54.213C22.251 54.2983 21.6534 54.3552 21.0416 54.3979C20.0882 54.4548 19.1491 54.4691 18.2242 54.5118Z" fill="#3240BD"/>
<path d="M53.612 3.71357C53.612 3.71357 53.0998 17.8572 52.8436 18.839C53.0286 20.6461 55.1203 48.4781 53.0001 54.7104C52.559 55.1231 52.559 55.1231 52.559 55.1231C52.559 55.1231 53.7401 41.8474 52.8436 30.08C52.744 22.752 52.3456 20.3473 52.3456 20.3473C52.3456 20.3473 52.2887 16.8754 52.4168 16.0501C52.5448 15.2249 52.5733 10.3728 52.5733 10.3728L53.0855 3.37207L53.612 3.71357Z" fill="#505DD6"/>
</g>
<defs>
<clipPath id="clip0_812_13045">
<rect width="62.437" height="65.5105" fill="white" transform="translate(0.281494)"/>
</clipPath>
</defs>
</svg>
