<svg width="56" height="56" viewBox="0 0 56 56" fill="none" xmlns="http://www.w3.org/2000/svg">
<g id="Group 522">
<circle id="Ellipse 66" cx="28.3132" cy="27.6667" r="27.4382" fill="#FDE3C4"/>
<g id="Group 445">
<path id="Vector" d="M27.9379 41.7567C35.5148 41.7567 41.657 35.6144 41.657 28.0375C41.657 20.4606 35.5148 14.3184 27.9379 14.3184C20.361 14.3184 14.2188 20.4606 14.2188 28.0375C14.2188 35.6144 20.361 41.7567 27.9379 41.7567Z" fill="#62C6F9"/>
<path id="Vector_2" d="M15.8387 21.5616C15.8387 21.5616 20.5253 22.7546 24.4451 20.113C28.3648 17.4714 29.3022 14.4038 29.3022 14.4038C29.3022 14.4038 29.9839 14.489 30.3247 14.5742C30.7508 14.6594 31.4325 14.8299 31.4325 14.8299C31.4325 14.8299 29.7282 19.0905 25.8937 21.6468C22.4852 23.9476 18.5655 24.0328 15.2422 23.1807C15.583 22.0729 15.8387 21.5616 15.8387 21.5616Z" fill="#505DD6"/>
<path id="Vector_3" d="M39.9532 34.5135C39.9532 34.5135 35.2665 33.3205 31.3468 35.9621C27.5122 38.6037 26.4897 41.6713 26.4897 41.6713C26.4897 41.6713 25.808 41.5861 25.4671 41.5009C25.0411 41.4157 24.3594 41.2453 24.3594 41.2453C24.3594 41.2453 26.0636 36.9847 29.8982 34.4283C33.3066 32.1276 37.2264 32.0424 40.5497 32.8945C40.294 34.0022 39.9532 34.5135 39.9532 34.5135Z" fill="#505DD6"/>
<g id="Group">
<path id="Vector_4" d="M28.026 27.7819C27.0886 28.208 27.2591 29.2305 26.7478 30.4235C25.9809 32.1277 26.6626 33.065 27.5147 32.9798C28.3668 32.8946 28.7077 31.7016 29.5598 31.3608C30.4119 31.02 31.4344 31.6164 32.1161 31.02C32.7978 30.5087 32.6274 29.3157 30.838 28.634C29.5598 28.208 28.9633 27.3558 28.026 27.7819Z" fill="#505DD6"/>
<path id="Vector_5" d="M25.2962 28.2078C25.9779 28.6339 26.3187 29.3156 26.0631 29.8268C25.8075 30.2529 24.9554 30.3381 24.2737 29.9121C23.592 29.486 23.2511 28.8043 23.5068 28.293C23.7624 27.7818 24.6145 27.7818 25.2962 28.2078Z" fill="#505DD6"/>
<path id="Vector_6" d="M30.1534 26.1629C29.983 27.015 30.2386 27.8672 30.8351 27.9524C31.4316 28.1228 32.0281 27.4411 32.1985 26.589C32.3689 25.7369 32.1133 24.8847 31.5168 24.7995C31.0055 24.6291 30.409 25.2256 30.1534 26.1629Z" fill="#505DD6"/>
<path id="Vector_7" d="M26.4894 25.396C26.9154 26.0777 26.9154 26.9298 26.4894 27.1854C26.0633 27.4411 25.2964 27.1854 24.8703 26.4185C24.4443 25.7368 24.4443 24.8847 24.8703 24.6291C25.2964 24.3734 26.0633 24.7143 26.4894 25.396Z" fill="#505DD6"/>
<path id="Vector_8" d="M27.2553 25.055C27.4257 25.9924 28.1074 26.5889 28.7039 26.4184C29.3004 26.248 29.556 25.4811 29.3856 24.5438C29.2151 23.6064 28.5335 23.01 27.937 23.1804C27.4257 23.3508 27.0848 24.2029 27.2553 25.055Z" fill="#505DD6"/>
</g>
</g>
</g>
</svg>
