<svg width="56" height="56" viewBox="0 0 56 56" fill="none" xmlns="http://www.w3.org/2000/svg">
<g id="Group 525">
<circle id="Ellipse 69" cx="27.946" cy="27.6667" r="27.4382" fill="#FDE3C4"/>
<g id="Group">
<g id="Group_2">
<path id="Vector" d="M14.0296 18.9977C14.0296 18.9977 12.2068 25.4368 13.6079 28.9831C14.1787 30.0788 17.6865 33.0194 24.4891 35.0559C32.0251 37.318 37.4375 36.5155 39.6136 34.8011C41.7897 33.0866 42.7479 27.3604 42.9385 24.5722C41.7825 28.0701 40.6252 30.5579 33.5388 31.0709C31.3451 31.2362 22.6584 31.2601 16.7156 25.5143C15.7738 24.4403 13.1914 22.0344 14.0296 18.9977Z" fill="#505DD6"/>
</g>
<g id="Group_3">
<g id="Group_4">
<path id="Vector_2" d="M24.737 45.3661C27.5789 45.4573 29.9567 43.2275 30.048 40.3857C30.1392 37.5438 27.9094 35.166 25.0676 35.0747C22.2257 34.9834 19.8479 37.2132 19.7566 40.0551C19.6653 42.897 21.8951 45.2748 24.737 45.3661Z" fill="#FAE6CE"/>
</g>
<g id="Group_5">
<path id="Vector_3" d="M24.7316 45.5345C21.772 45.4394 19.4608 42.9749 19.5559 40.0153C19.6509 37.0556 22.1144 34.7781 25.074 34.8732C28.0336 34.9682 30.3448 37.4328 30.2498 40.3924C30.1547 43.352 27.6576 45.6285 24.7316 45.5345ZM25.0611 35.2768C22.3369 35.1893 20.0795 37.3387 19.9931 40.0293C19.9067 42.7199 22.0204 45.0434 24.7446 45.1309C27.4687 45.2184 29.7261 43.0689 29.8125 40.3784C29.899 37.6878 27.7853 35.3643 25.0611 35.2768Z" fill="#505DD6"/>
</g>
</g>
<g id="Group_6">
<path id="Vector_4" d="M25.5223 37.4458C26.0795 37.4637 26.5457 37.0265 26.5636 36.4693C26.5815 35.912 26.1443 35.4458 25.5871 35.4279C25.0299 35.41 24.5636 35.8472 24.5457 36.4045C24.5278 36.9617 24.965 37.4279 25.5223 37.4458Z" fill="#505DD6"/>
</g>
<g id="Group_7">
<path id="Vector_5" d="M28.1285 30.8296C28.1285 30.8296 27.9577 27.7604 25.1468 28.2761C22.3359 28.7918 20.7004 32.5436 22.8792 34.9366C23.4977 35.5961 25.6276 37.4152 26.005 36.148C26.0949 35.4439 24.9612 35.1045 24.8297 33.9556C24.6994 32.7731 25.2915 31.1088 26.4555 30.5065C26.5543 30.577 28.1285 30.8296 28.1285 30.8296Z" fill="#62C6F9"/>
<path id="Vector_6" d="M25.4142 36.8024C24.4389 36.7711 23.0663 35.4813 22.7419 35.1005C21.7339 33.9908 21.4462 32.4666 21.9309 31.0008C22.4504 29.5025 23.6989 28.3643 25.1223 28.0734C25.9685 27.9322 26.6715 28.0558 27.2303 28.4777C28.248 29.2847 28.335 30.7689 28.3339 30.8025C28.3318 30.8698 28.296 30.936 28.2613 30.9685C28.2266 31.0011 28.1582 31.0325 28.091 31.0304C27.4888 30.91 26.7522 30.7854 26.4853 30.7095C25.4569 31.2824 24.9027 32.8133 25.0363 33.8949C25.1199 34.4363 25.4118 34.7823 25.7047 35.0947C25.9977 35.4071 26.257 35.7185 26.2105 36.121L26.2094 36.1546C26.0955 36.5549 25.8221 36.6808 25.6518 36.7427C25.5824 36.8078 25.4815 36.8045 25.4142 36.8024ZM25.8514 28.4334C25.6496 28.427 25.4467 28.4541 25.2102 28.4802C23.9236 28.7082 22.7791 29.7488 22.3313 31.1147C21.8845 32.447 22.1439 33.802 23.0543 34.8076C23.6066 35.4313 24.9857 36.5193 25.5628 36.3695C25.6311 36.338 25.7331 36.3076 25.8069 36.108C25.8144 35.8726 25.6517 35.699 25.3913 35.4213C25.0657 35.0742 24.7088 34.6587 24.5958 33.9818C24.434 32.7309 25.0619 31.0004 26.329 30.3341C26.3973 30.3026 26.4646 30.3048 26.4971 30.3395C26.597 30.3764 27.1991 30.4967 27.8349 30.6181C27.748 30.1777 27.5396 29.3293 26.9157 28.838C26.6553 28.5603 26.2886 28.4475 25.8514 28.4334Z" fill="#505DD6"/>
</g>
<g id="Group_8">
<path id="Vector_7" d="M15.0001 23.439C15.0001 23.439 12.844 20.3398 14.9852 17.6142C17.1264 14.8887 23.2081 13.165 29.6916 14.6526C34.7723 15.7921 39.6959 17.6336 41.8976 21.4076C43.0143 23.3288 43.0037 25.7525 41.7661 27.5981C41.5188 27.9605 41.239 28.2881 40.8929 28.58C40.9557 27.673 41.5172 23.8194 29.7749 20.4459C18.0326 17.0724 14.8046 22.1871 15.0001 23.439Z" fill="#3240BD"/>
<path id="Vector_8" d="M40.6409 29.0096L40.6919 28.4726C40.9247 25.4164 37.2389 22.773 29.7333 20.6129C26.2626 19.6598 23.2769 19.3282 20.8425 19.654C18.4764 19.9484 17.103 20.7796 16.3751 21.4295C15.439 22.2748 15.1776 23.0744 15.2005 23.4118L15.3395 24.3253L14.8251 23.5681C14.7926 23.5334 14.2793 22.7426 13.9786 21.6219C13.6237 20.0955 13.9044 18.6905 14.8178 17.5079C15.9068 16.0952 18.0309 14.9514 20.6421 14.362C23.4573 13.7117 26.6882 13.7482 29.7292 14.4518C33.84 15.3919 39.6087 17.1258 42.0665 21.3121C43.2482 23.3027 43.2009 25.8262 41.9275 27.7379C41.6444 28.1665 41.3309 28.4931 40.9859 28.7514L40.6409 29.0096ZM23.2498 19.1254C25.0323 19.1826 27.2097 19.5219 29.8125 20.2452C34.7164 21.6483 38.0972 23.3056 39.7877 25.1779C40.8934 26.3917 41.0953 27.4419 41.0748 28.0809C41.2483 27.9181 41.3893 27.7207 41.5651 27.4906C42.7322 25.7438 42.7742 23.3885 41.6901 21.502C39.3613 17.4882 33.6925 15.7911 29.649 14.8533C23.1318 13.3646 17.1825 15.1598 15.1465 17.7541C14.3037 18.838 14.0619 20.0759 14.3865 21.5003C14.5038 22.0428 14.7252 22.4875 14.8825 22.8293C15.0332 22.3291 15.4226 21.7356 16.0811 21.1508C17.1561 20.1753 19.3149 18.999 23.2498 19.1254Z" fill="#505DD6"/>
</g>
<g id="Group_9">
<path id="Vector_9" d="M26.4169 30.7077C26.3496 30.7056 26.2835 30.6698 26.2509 30.6351C26.1869 30.532 26.2248 30.3986 26.2943 30.3335C26.7759 30.0123 27.0818 29.9211 27.1155 29.9222C27.2174 29.8918 27.3498 29.9634 27.3802 30.0654C27.4106 30.1673 27.339 30.2997 27.237 30.3301C27.237 30.3301 26.9658 30.3887 26.5525 30.6784C26.5178 30.711 26.4842 30.7099 26.4169 30.7077Z" fill="#505DD6"/>
</g>
</g>
</g>
</svg>
