<svg width="56" height="56" viewBox="0 0 56 56" fill="none" xmlns="http://www.w3.org/2000/svg">
<g id="Group 523">
<circle id="Ellipse 67" cx="28.1921" cy="27.6667" r="27.4382" fill="#FDE3C4"/>
<g id="Group">
<g id="Group_2">
<path id="Vector" d="M18.9183 23.4031C20.1107 23.4081 21.0813 22.4455 21.0863 21.2531C21.0913 20.0608 20.1287 19.0901 18.9363 19.0852C17.744 19.0802 16.7733 20.0428 16.7683 21.2352C16.7634 22.4275 17.726 23.3982 18.9183 23.4031Z" fill="#62C6F9"/>
<path id="Vector_2" d="M18.9179 23.6509C17.6084 23.6454 16.5156 22.5791 16.5212 21.2341C16.5267 19.9246 17.593 18.8318 18.938 18.8374C20.2829 18.843 21.3403 19.9092 21.3347 21.2542C21.2938 22.5636 20.2275 23.6563 18.9179 23.6509ZM18.9361 19.2975C17.8743 19.2931 16.9858 20.1743 16.9813 21.236C16.9769 22.2978 17.8581 23.1864 18.9198 23.1908C19.9816 23.1952 20.8702 22.3141 20.8746 21.2523C20.879 20.1905 19.9979 19.302 18.9361 19.2975Z" fill="#505DD6"/>
</g>
<g id="Group_3">
<path id="Vector_3" d="M37.973 45.3914C39.1654 45.3964 40.136 44.4338 40.141 43.2414C40.146 42.0491 39.1834 41.0784 37.991 41.0734C36.7986 41.0685 35.828 42.0311 35.823 43.2234C35.8181 44.4158 36.7806 45.3864 37.973 45.3914Z" fill="#62C6F9"/>
<path id="Vector_4" d="M37.9726 45.6392C36.6631 45.6337 35.5703 44.5673 35.5759 43.2224C35.5814 41.9129 36.6477 40.8201 37.9927 40.8257C39.3376 40.8313 40.395 41.8975 40.3894 43.2425C40.3485 44.5519 39.2822 45.6446 37.9726 45.6392ZM37.9908 41.2858C36.929 41.2814 36.0404 42.1625 36.036 43.2243C36.0316 44.2861 36.9127 45.1746 37.9745 45.1791C39.0363 45.1835 39.9248 44.3023 39.9293 43.2405C39.9337 42.1788 39.0525 41.2902 37.9908 41.2858Z" fill="#505DD6"/>
</g>
<g id="Group_4">
<path id="Vector_5" d="M21.3105 18.9889C21.9751 18.9917 22.5161 18.4551 22.5189 17.7905C22.5217 17.1259 21.9852 16.5849 21.3206 16.5822C20.656 16.5794 20.1149 17.1159 20.1122 17.7805C20.1094 18.4451 20.6459 18.9861 21.3105 18.9889Z" fill="#62C6F9"/>
<path id="Vector_6" d="M21.3102 19.2014C20.5315 19.1981 19.8971 18.5584 19.9004 17.7797C19.9036 17.0011 20.5433 16.3667 21.322 16.3699C22.1006 16.3732 22.735 17.0129 22.7318 17.7915C22.764 18.5703 22.1242 19.2048 21.3102 19.2014ZM21.3202 16.7946C20.7893 16.7924 20.3274 17.2152 20.3251 17.7815C20.3229 18.3124 20.7457 18.7743 21.3119 18.7766C21.8782 18.779 22.3047 18.3561 22.3071 17.7898C22.3093 17.2589 21.8865 16.797 21.3202 16.7946Z" fill="#505DD6"/>
</g>
<g id="Group_5">
<path id="Vector_7" d="M40.4004 40.9064C41.065 40.9091 41.606 40.3726 41.6088 39.708C41.6115 39.0434 41.075 38.5024 40.4104 38.4996C39.7458 38.4969 39.2048 39.0334 39.202 39.698C39.1992 40.3626 39.7358 40.9036 40.4004 40.9064Z" fill="#62C6F9"/>
<path id="Vector_8" d="M40.4 41.1188C39.6214 41.1156 38.987 40.4759 38.9902 39.6972C38.9934 38.9186 39.6332 38.2841 40.4118 38.2874C41.1905 38.2906 41.8249 38.9304 41.8216 39.709C41.8184 40.4877 41.1787 41.1221 40.4 41.1188ZM40.41 38.7121C39.8792 38.7099 39.4173 39.1327 39.4149 39.699C39.4127 40.2299 39.8355 40.6918 40.4018 40.6941C40.9327 40.6963 41.3946 40.2735 41.3969 39.7072C41.3991 39.1763 40.9409 38.7143 40.41 38.7121Z" fill="#505DD6"/>
</g>
<g id="Group_6">
<path id="Vector_9" d="M18.7253 18.4473C19.1553 18.4491 19.5054 18.1019 19.5072 17.6719C19.509 17.2418 19.1618 16.8918 18.7318 16.89C18.3017 16.8882 17.9517 17.2353 17.9499 17.6654C17.9481 18.0954 18.2952 18.4455 18.7253 18.4473Z" fill="#62C6F9"/>
<path id="Vector_10" d="M18.729 18.5889C18.2335 18.5868 17.8105 18.1604 17.8126 17.6649C17.8146 17.1693 18.2411 16.7464 18.7366 16.7485C19.2321 16.7505 19.6551 17.177 19.653 17.6725C19.651 18.168 19.2245 18.591 18.729 18.5889ZM18.7354 17.0316C18.3815 17.0301 18.0972 17.3121 18.0957 17.666C18.0942 18.02 18.3762 18.3043 18.7301 18.3058C19.0841 18.3072 19.3684 18.0253 19.3699 17.6713C19.3713 17.3174 19.0894 17.0331 18.7354 17.0316Z" fill="#505DD6"/>
</g>
<g id="Group_7">
<path id="Vector_11" d="M37.7448 40.0459C38.1749 40.0477 38.5249 39.7005 38.5267 39.2705C38.5285 38.8405 38.1813 38.4904 37.7513 38.4886C37.3213 38.4868 36.9712 38.834 36.9694 39.264C36.9676 39.694 37.3148 40.0441 37.7448 40.0459Z" fill="#62C6F9"/>
<path id="Vector_12" d="M37.7485 40.1875C37.253 40.1855 36.83 39.759 36.8321 39.2635C36.8342 38.768 37.2607 38.345 37.7562 38.3471C38.2517 38.3492 38.6746 38.7756 38.6725 39.2711C38.6351 39.7665 38.244 40.1896 37.7485 40.1875ZM37.755 38.6302C37.401 38.6288 37.1167 38.9107 37.1152 39.2647C37.1138 39.6186 37.3957 39.9029 37.7497 39.9044C38.1036 39.9059 38.3879 39.6239 38.3894 39.27C38.3555 38.9159 38.0735 38.6316 37.755 38.6302Z" fill="#505DD6"/>
</g>
<g id="Group_8">
<g id="Group_9">
<path id="Vector_13" d="M32.0384 43.0662L27.5789 43.0476C25.8092 43.0402 24.3641 41.583 24.3715 39.8134L24.4592 18.7545C24.4666 16.9848 25.9238 15.5397 27.6934 15.5471L32.153 15.5657C33.9226 15.5731 35.3677 17.0302 35.3603 18.7999L35.2726 39.8588C35.2651 41.6639 33.8081 43.0735 32.0384 43.0662Z" fill="#FAE6CE"/>
</g>
<g id="Group_10">
<path id="Vector_14" d="M32.038 43.2784L27.5785 43.2598C25.6673 43.2518 24.1519 41.6882 24.1597 39.8124L24.2474 18.7535C24.2554 16.8422 25.819 15.3268 27.6949 15.3346L32.1544 15.3532C34.0656 15.3612 35.581 16.9248 35.5732 18.8006L35.4855 39.8596C35.4775 41.7708 33.9493 43.2863 32.038 43.2784ZM27.6929 15.7947C26.0295 15.7878 24.6789 17.1271 24.672 18.7906L24.5842 39.8495C24.5773 41.513 25.9167 42.8635 27.5801 42.8705L32.0397 42.8891C33.7031 42.896 35.0537 41.5567 35.0606 39.8932L35.1484 18.8343C35.1553 17.1708 33.816 15.8202 32.1525 15.8133L27.6929 15.7947Z" fill="#505DD6"/>
</g>
</g>
<g id="Group_11">
<path id="Vector_15" d="M24.4489 21.7981C24.4489 21.7981 29.9943 24.5465 35.3503 21.7727C35.3363 25.1351 35.2983 34.2665 35.2983 34.2665C35.2983 34.2665 30.9303 37.7523 24.3964 34.398C24.4104 31.0357 24.4489 21.7981 24.4489 21.7981Z" fill="#62C6F9"/>
<path id="Vector_16" d="M29.9814 36.0495C28.3887 36.0428 26.479 35.681 24.2892 34.5746L24.1833 34.5034L24.2378 21.4079L24.5558 21.5508C24.5558 21.5508 25.9333 22.2291 27.9494 22.556C29.7887 22.8468 32.549 22.9291 35.2448 21.5246L35.5641 21.3489L35.5101 34.3028L35.439 34.3733C35.4035 34.4086 34.3026 35.2888 32.3541 35.7408C31.6807 35.9504 30.9016 36.0533 29.9814 36.0495ZM24.609 34.2574C27.8584 35.8991 30.5489 35.7687 32.214 35.3863C33.7728 35.0389 34.7666 34.3705 35.086 34.1595L35.1361 22.1258C32.4054 23.424 29.6804 23.3419 27.8765 23.0512C26.3557 22.7971 25.2249 22.3677 24.6949 22.1531L24.6444 34.2576L24.609 34.2574Z" fill="#505DD6"/>
</g>
<g id="Group_12">
<g id="Group_13">
<path id="Vector_17" d="M26.3926 29.8405C25.831 28.7055 24.5302 26.6119 23.6851 25.5465C23.1218 24.8363 22.1324 24.4429 21.2815 24.7932C19.2252 25.6341 16.1022 27.6386 14.3262 29.1531C13.6513 29.7166 13.3296 30.4939 13.7842 31.8054C14.2039 33.0105 15.5745 35.3522 16.561 36.4535C17.1597 37.1639 18.2216 37.1329 19.0725 36.7825C21.129 35.9063 24.2165 33.9371 25.9571 32.4224C26.7027 31.8592 27.1998 31.4719 26.3926 29.8405Z" fill="#62C6F9"/>
<path id="Vector_18" d="M17.9751 37.2734C17.4088 37.271 16.8432 37.0917 16.4558 36.63C15.4695 35.4933 14.0635 33.1514 13.644 31.9109C13.2244 30.6703 13.4052 29.7509 14.2576 29.0465C16.1047 27.4615 19.2275 25.4925 21.2485 24.6514C22.1348 24.3012 23.1953 24.6242 23.8996 25.4765C24.7798 26.5774 26.0807 28.6711 26.6423 29.806C27.5199 31.544 26.916 32.0724 26.2411 32.6358L26.2056 32.6711C24.3939 34.2563 21.2711 36.2253 19.2501 37.0663C18.8603 37.1709 18.3998 37.2751 17.9751 37.2734ZM21.9553 24.9021C21.7784 24.9014 21.5659 24.9359 21.3886 25.006C19.403 25.8471 16.3157 27.7809 14.5042 29.3307C14.0069 29.7534 13.5441 30.3885 14.034 31.7355C14.4538 32.9407 15.8245 35.247 16.7757 36.3128C17.3392 36.9876 18.366 36.8857 19.0397 36.6053C21.0252 35.7642 24.0771 33.8302 25.8887 32.2804L25.9242 32.2452C26.5635 31.7169 26.9189 31.3645 26.217 29.9458C25.6906 28.8464 24.3898 26.7528 23.5448 25.6874C23.1572 25.2611 22.5924 24.9048 21.9553 24.9021Z" fill="#505DD6"/>
</g>
<g id="Group_14">
<g id="Group_15">
<path id="Vector_19" d="M24.7999 30.0109C24.3785 29.1951 23.4996 27.7757 22.8658 26.9944C22.4431 26.4971 21.7012 26.1755 21.0629 26.456C19.503 27.0866 17.1962 28.5635 15.8466 29.6905C15.3493 30.1131 15.0992 30.6784 15.4491 31.6355C15.764 32.5216 16.8196 34.0126 17.5595 34.8297C18.0175 35.3271 18.7962 35.3304 19.4343 35.0853C20.9942 34.4547 23.1945 33.0481 24.5086 31.9564C25.006 31.4983 25.3967 31.1814 24.7999 30.0109Z" fill="#FAE6CE"/>
</g>
<g id="Group_16">
<path id="Vector_20" d="M18.5852 35.4356C18.1605 35.4338 17.701 35.2903 17.3839 34.9351C16.6088 34.0824 15.5534 32.5561 15.2385 31.6699C14.8884 30.7482 15.0683 30.0411 15.7076 29.5129C16.9508 28.4562 19.3286 26.9088 20.9595 26.2431C21.6332 25.9628 22.4816 26.2141 23.0098 26.8534C23.6437 27.6347 24.5226 29.0541 24.9792 29.9054C25.6111 31.1468 25.2554 31.5701 24.6516 32.0631L24.6161 32.0983C23.1953 33.2958 20.9952 34.667 19.4708 35.2623C19.258 35.3676 18.9038 35.4369 18.5852 35.4356ZM21.5599 26.5642C21.4183 26.5636 21.2766 26.5984 21.1349 26.6332C19.5395 27.2636 17.2325 28.8113 15.9894 29.8326C15.5988 30.1495 15.3139 30.573 15.6638 31.5301C15.9788 32.3809 16.9638 33.8361 17.7037 34.6533C18.1265 35.1152 18.8346 35.0473 19.331 34.837C20.7846 34.2414 22.9848 32.8702 24.3344 31.7432L24.3699 31.708C24.8317 31.3206 25.0803 31.1092 24.5891 30.0808C24.1679 29.2296 23.2888 27.8455 22.6902 27.0998C22.4437 26.8156 22.02 26.5661 21.5599 26.5642Z" fill="#505DD6"/>
</g>
</g>
<g id="Group_17">
<path id="Vector_21" d="M20.0893 30.947C20.2652 30.9477 20.4085 30.8057 20.4092 30.6298C20.4099 30.4539 20.2679 30.3107 20.092 30.3099C19.9161 30.3092 19.7728 30.4512 19.7721 30.6271C19.7714 30.8031 19.9134 30.9463 20.0893 30.947Z" fill="#505DD6"/>
</g>
<g id="Group_18">
<path id="Vector_22" d="M21.3628 31.2353C21.5387 31.2361 21.6819 31.094 21.6826 30.9181C21.6834 30.7422 21.5413 30.599 21.3654 30.5983C21.1895 30.5975 21.0463 30.7395 21.0455 30.9155C21.0448 31.0914 21.1868 31.2346 21.3628 31.2353Z" fill="#505DD6"/>
</g>
<g id="Group_19">
<path id="Vector_23" d="M20.1557 32.2212C20.3317 32.2219 20.4749 32.0799 20.4756 31.904C20.4763 31.728 20.3343 31.5848 20.1584 31.5841C19.9825 31.5834 19.8392 31.7254 19.8385 31.9013C19.8378 32.0772 19.9798 32.2204 20.1557 32.2212Z" fill="#505DD6"/>
</g>
<g id="Group_20">
<path id="Vector_24" d="M19.9409 33.4236C20.1168 33.4243 20.26 33.2823 20.2607 33.1063C20.2615 32.9304 20.1195 32.7872 19.9435 32.7865C19.7676 32.7858 19.6244 32.9278 19.6237 33.1037C19.6229 33.2796 19.765 33.4228 19.9409 33.4236Z" fill="#505DD6"/>
</g>
<g id="Group_21">
<path id="Vector_25" d="M21.4995 32.4746C21.6754 32.4753 21.8186 32.3333 21.8193 32.1574C21.8201 31.9814 21.6781 31.8382 21.5021 31.8375C21.3262 31.8368 21.183 31.9788 21.1823 32.1547C21.1815 32.3306 21.3236 32.4738 21.4995 32.4746Z" fill="#505DD6"/>
</g>
<g id="Group_22">
<path id="Vector_26" d="M27.7327 40.2872L23.5102 34.3589L20.8129 36.1173L24.5385 42.3975C25.0657 43.2846 26.2324 43.608 27.1548 43.0809C28.1129 42.4832 28.4014 41.2102 27.7327 40.2872ZM26.1672 42.2627C25.7425 42.261 25.39 41.9056 25.3918 41.4808C25.3936 41.0561 25.749 40.7037 26.1737 40.7054C26.5984 40.7072 26.9508 41.0626 26.9491 41.4873C26.9473 41.9121 26.5919 42.2645 26.1672 42.2627Z" fill="#62C6F9"/>
<path id="Vector_27" d="M26.1628 43.5369C25.4196 43.5339 24.7132 43.177 24.3267 42.5029L20.4956 36.0453L23.5477 34.0759L27.9111 40.1818C28.263 40.6788 28.402 41.2811 28.258 41.8822C28.1493 42.4834 27.7579 42.9773 27.2611 43.2938C26.9065 43.4339 26.5522 43.5386 26.1628 43.5369ZM21.0967 36.1893L24.717 42.2567C25.1739 43.0373 26.2345 43.3249 27.0151 42.868C27.4408 42.622 27.7256 42.2339 27.8337 41.7742C27.9418 41.3146 27.8377 40.8186 27.5561 40.4281L23.439 34.6772L21.0967 36.1893ZM26.1673 42.4752C25.601 42.4728 25.1782 42.0109 25.1804 41.48C25.1827 40.9137 25.6446 40.4909 26.1755 40.4931C26.7064 40.4953 27.1646 40.9574 27.1624 41.4883C27.16 42.0546 26.7335 42.4775 26.1673 42.4752ZM26.1736 40.9532C25.8551 40.9519 25.6063 41.1986 25.6049 41.5172C25.6036 41.8357 25.8503 42.0845 26.1689 42.0858C26.4874 42.0872 26.7362 41.8404 26.7375 41.5219C26.7389 41.2034 26.4921 40.9546 26.1736 40.9532Z" fill="#505DD6"/>
</g>
<g id="Group_23">
<path id="Vector_28" d="M17.9682 29.947C18.1442 29.9477 18.2874 29.8057 18.2881 29.6298C18.2888 29.4539 18.1468 29.3107 17.9709 29.3099C17.795 29.3092 17.6517 29.4512 17.651 29.6271C17.6503 29.8031 17.7923 29.9463 17.9682 29.947Z" fill="#505DD6"/>
</g>
<g id="Group_24">
<path id="Vector_29" d="M16.7651 31.0036C16.941 31.0044 17.0842 30.8623 17.085 30.6864C17.0857 30.5105 16.9437 30.3673 16.7678 30.3666C16.5918 30.3658 16.4486 30.5078 16.4479 30.6838C16.4472 30.8597 16.5892 31.0029 16.7651 31.0036Z" fill="#505DD6"/>
</g>
<g id="Group_25">
<path id="Vector_30" d="M19.3198 29.2446C19.4957 29.2453 19.6389 29.1033 19.6397 28.9274C19.6404 28.7515 19.4984 28.6083 19.3224 28.6075C19.1465 28.6068 19.0033 28.7488 19.0026 28.9247C19.0018 29.1007 19.1439 29.2439 19.3198 29.2446Z" fill="#505DD6"/>
</g>
<g id="Group_26">
<path id="Vector_31" d="M20.6674 28.4363C20.8434 28.437 20.9866 28.295 20.9873 28.119C20.988 27.9431 20.846 27.7999 20.6701 27.7992C20.4942 27.7984 20.351 27.9405 20.3502 28.1164C20.3495 28.2923 20.4915 28.4355 20.6674 28.4363Z" fill="#505DD6"/>
</g>
<g id="Group_27">
<path id="Vector_32" d="M21.769 27.6975C21.9449 27.6982 22.0881 27.5562 22.0889 27.3803C22.0896 27.2043 21.9476 27.0611 21.7717 27.0604C21.5957 27.0597 21.4525 27.2017 21.4518 27.3776C21.4511 27.5535 21.5931 27.6967 21.769 27.6975Z" fill="#505DD6"/>
</g>
<g id="Group_28">
<path id="Vector_33" d="M21.7964 28.8657C21.9723 28.8664 22.1155 28.7244 22.1162 28.5485C22.117 28.3726 21.9749 28.2294 21.799 28.2286C21.6231 28.2279 21.4799 28.3699 21.4791 28.5458C21.4784 28.7218 21.6204 28.865 21.7964 28.8657Z" fill="#505DD6"/>
</g>
<g id="Group_29">
<path id="Vector_34" d="M20.4878 29.6743C20.6637 29.675 20.8069 29.533 20.8076 29.3571C20.8084 29.1812 20.6663 29.0379 20.4904 29.0372C20.3145 29.0365 20.1713 29.1785 20.1705 29.3544C20.1698 29.5304 20.3118 29.6736 20.4878 29.6743Z" fill="#505DD6"/>
</g>
<g id="Group_30">
<path id="Vector_35" d="M19.2104 30.4831C19.3863 30.4839 19.5295 30.3418 19.5303 30.1659C19.531 29.99 19.389 29.8468 19.2131 29.8461C19.0371 29.8453 18.8939 29.9873 18.8932 30.1633C18.8925 30.3392 19.0345 30.4824 19.2104 30.4831Z" fill="#505DD6"/>
</g>
<g id="Group_31">
<path id="Vector_36" d="M18.1089 31.1863C18.2848 31.187 18.428 31.045 18.4287 30.869C18.4295 30.6931 18.2874 30.5499 18.1115 30.5492C17.9356 30.5484 17.7924 30.6905 17.7916 30.8664C17.7909 31.0423 17.9329 31.1855 18.1089 31.1863Z" fill="#505DD6"/>
</g>
<g id="Group_32">
<path id="Vector_37" d="M17.5385 32.4228C17.7145 32.4236 17.8577 32.2815 17.8584 32.1056C17.8591 31.9297 17.7171 31.7865 17.5412 31.7858C17.3653 31.785 17.2221 31.927 17.2213 32.103C17.2206 32.2789 17.3626 32.4221 17.5385 32.4228Z" fill="#505DD6"/>
</g>
<g id="Group_33">
<path id="Vector_38" d="M19.1674 31.6863C19.3434 31.687 19.4866 31.545 19.4873 31.369C19.488 31.1931 19.346 31.0499 19.1701 31.0492C18.9942 31.0484 18.851 31.1905 18.8502 31.3664C18.8495 31.5423 18.9915 31.6855 19.1674 31.6863Z" fill="#505DD6"/>
</g>
<g id="Group_34">
<path id="Vector_39" d="M21.5815 30.1035C21.7574 30.1042 21.9006 29.9622 21.9014 29.7863C21.9021 29.6104 21.7601 29.4671 21.5842 29.4664C21.4082 29.4657 21.265 29.6077 21.2643 29.7836C21.2636 29.9596 21.4056 30.1028 21.5815 30.1035Z" fill="#505DD6"/>
</g>
<g id="Group_35">
<path id="Vector_40" d="M23.0698 29.2602C23.2457 29.261 23.3889 29.1189 23.3897 28.943C23.3904 28.7671 23.2484 28.6239 23.0724 28.6232C22.8965 28.6224 22.7533 28.7644 22.7526 28.9404C22.7518 29.1163 22.8939 29.2595 23.0698 29.2602Z" fill="#505DD6"/>
</g>
<g id="Group_36">
<path id="Vector_41" d="M22.8159 30.3918C22.9918 30.3926 23.135 30.2505 23.1357 30.0746C23.1365 29.8987 22.9945 29.7555 22.8185 29.7547C22.6426 29.754 22.4994 29.896 22.4987 30.072C22.4979 30.2479 22.64 30.3911 22.8159 30.3918Z" fill="#505DD6"/>
</g>
<g id="Group_37">
<path id="Vector_42" d="M18.8393 33.0298C19.0152 33.0305 19.1585 32.8885 19.1592 32.7126C19.1599 32.5366 19.0179 32.3934 18.842 32.3927C18.6661 32.392 18.5228 32.534 18.5221 32.7099C18.5214 32.8858 18.6634 33.029 18.8393 33.0298Z" fill="#505DD6"/>
</g>
<g id="Group_38">
<path id="Vector_43" d="M18.6596 34.3386C18.8356 34.3393 18.9788 34.1973 18.9795 34.0214C18.9802 33.8455 18.8382 33.7023 18.6623 33.7015C18.4864 33.7008 18.3432 33.8428 18.3424 34.0187C18.3417 34.1947 18.4837 34.3379 18.6596 34.3386Z" fill="#505DD6"/>
</g>
<g id="Group_39">
<path id="Vector_44" d="M22.812 31.5598C22.9879 31.5605 23.1311 31.4185 23.1318 31.2426C23.1326 31.0667 22.9906 30.9234 22.8146 30.9227C22.6387 30.922 22.4955 31.064 22.4948 31.2399C22.494 31.4158 22.6361 31.5591 22.812 31.5598Z" fill="#505DD6"/>
</g>
<g id="Group_40">
<path id="Vector_45" d="M24.1987 30.8222C24.3746 30.823 24.5178 30.681 24.5186 30.505C24.5193 30.3291 24.3773 30.1859 24.2014 30.1852C24.0254 30.1844 23.8822 30.3265 23.8815 30.5024C23.8808 30.6783 24.0228 30.8215 24.1987 30.8222Z" fill="#505DD6"/>
</g>
</g>
<g id="Group_41">
<path id="Vector_46" d="M27.2148 11.5103L27.198 15.5451C27.1964 15.9344 32.647 15.9571 32.6486 15.5678L32.6652 11.5684L27.2148 11.5103Z" fill="#3240BD"/>
<path id="Vector_47" d="M29.9219 16.0873C29.214 16.0844 28.5417 16.0462 28.0109 16.0086C27.3388 15.935 26.9497 15.8626 26.9509 15.5794L26.9688 11.2969L32.8439 11.3567L32.8263 15.5685C32.8251 15.8517 32.4708 15.9564 31.7628 15.9888C31.3022 16.0931 30.6297 16.0903 29.9219 16.0873ZM27.4115 15.4752C27.6589 15.547 28.5079 15.6567 29.9236 15.6626C31.3394 15.6685 32.1892 15.5659 32.4373 15.4961L32.4526 11.8152L27.4269 11.7589L27.4115 15.4752Z" fill="#505DD6"/>
</g>
<g id="Group_42">
<path id="Vector_48" d="M29.9342 12.654C31.5566 12.6608 32.8744 12.0641 32.8775 11.3213C32.8806 10.5785 31.5679 9.9709 29.9454 9.96414C28.323 9.95738 27.0053 10.5541 27.0022 11.2968C26.9991 12.0396 28.3118 12.6473 29.9342 12.654Z" fill="#505DD6"/>
</g>
<g id="Group_43">
<path id="Vector_49" d="M31.0011 12.3752C31.0011 12.3752 30.8546 13.5426 31.2786 13.7214C31.738 13.9002 32.66 13.4794 32.66 13.4794L32.6666 11.8867C32.6666 11.8867 32.2052 12.2033 31.0011 12.3752Z" fill="#62C6F9"/>
<path id="Vector_50" d="M31.5259 14.0055C31.3843 14.0049 31.2783 13.9691 31.1723 13.9333C30.607 13.6832 30.7178 12.5864 30.7542 12.3388L30.7903 12.162L30.9674 12.1273C32.1008 11.9551 32.562 11.6739 32.562 11.6739L32.917 11.4276L32.9152 11.8523L32.908 13.5866L32.8015 13.6569C32.6598 13.6917 32.0568 14.0077 31.5259 14.0055ZM31.178 12.5529C31.1409 12.9775 31.2097 13.4379 31.351 13.5093C31.5629 13.6164 32.059 13.4768 32.4137 13.3014L32.4183 12.2042C32.2053 12.3449 31.78 12.4847 31.178 12.5529Z" fill="#505DD6"/>
</g>
</g>
</g>
</svg>
