<svg width="56" height="56" viewBox="0 0 56 56" fill="none" xmlns="http://www.w3.org/2000/svg">
<g id="Group 524">
<circle id="Ellipse 68" cx="28.0671" cy="27.6667" r="27.4382" fill="#FDE3C4"/>
<g id="Group">
<g id="Group_2">
<path id="Vector" d="M15.9062 29.4019C15.9062 29.4019 15.0626 35.7139 15.9062 36.8774C16.9824 38.3318 18.2623 38.6518 25.5051 41.1533C24.5161 34.9576 24.9525 31.2635 24.9525 31.2635L15.9062 29.4019Z" fill="#FAE6CE"/>
<path id="Vector_2" d="M25.8807 41.5896L25.4153 41.415C24.6009 41.1242 23.8737 40.8915 23.2046 40.6588C17.8234 38.7971 16.7181 38.419 15.7 37.0519C15.5546 36.8483 15.0892 36.2374 15.3219 32.6887C15.4382 30.9725 15.6418 29.3727 15.6418 29.3727L15.6709 29.0527L25.299 31.0307L25.2699 31.2925C25.2699 31.3216 24.8626 35.0157 25.8225 41.0951L25.8807 41.5896ZM16.1654 29.7508C15.8454 32.1651 15.6127 35.9465 16.1363 36.7028C17.038 37.9245 18.1434 38.3026 23.3501 40.1061C23.9027 40.2806 24.4845 40.4842 25.0953 40.7169C24.3391 35.7138 24.5136 32.456 24.6009 31.5252L16.1654 29.7508Z" fill="#505DD6"/>
</g>
<g id="Group_3">
<g id="Group_4">
<path id="Vector_3" d="M24.3427 31.6413C24.3427 31.6413 23.3537 40.2804 25.8843 41.3566C28.3859 42.4038 40.4573 40.2804 40.4573 40.2804C40.4573 40.2804 42.9879 39.9313 43.1916 37.7497C43.3952 35.5682 43.3079 28.9943 43.3079 28.9943L33.1854 18.6973L24.3427 31.6413Z" fill="#FAE6CE"/>
</g>
<g id="Group_5">
<path id="Vector_4" d="M28.3539 41.9385C27.2195 41.9385 26.2886 41.8513 25.736 41.6186C24.5725 41.1241 23.9325 39.2625 23.8453 36.0919C23.7871 33.794 24.0198 31.6124 24.0198 31.5833V31.496L33.1243 18.1738L43.5959 28.8199V28.9363C43.5959 29.1981 43.654 35.5392 43.4795 37.7208C43.305 39.6406 41.4434 40.3969 40.4835 40.5423C40.0472 40.6587 32.688 41.9385 28.3539 41.9385ZM24.6306 31.7578C24.3689 34.143 24.1362 40.2805 25.9978 41.0659C26.4632 41.2695 27.3067 41.3568 28.3539 41.3568C32.6298 41.3568 40.338 40.0187 40.4253 39.9896C40.5126 39.9896 42.7232 39.6406 42.8978 37.7208C43.0723 35.7428 43.0432 30.0125 43.0141 29.1108L33.2115 19.1628L24.6306 31.7578Z" fill="#505DD6"/>
</g>
</g>
<g id="Group_6">
<g id="Group_7">
<path id="Vector_5" d="M32.7444 17.7666C32.7444 17.7666 25.7633 17.4757 22.7382 17.7957C21.8655 17.8829 20.8766 17.9411 19.5094 19.4828C18.2005 20.9371 14.6518 27.1619 14.6518 27.1619C14.6518 27.1619 13.4301 28.849 15.4953 30.0416C17.5605 31.2342 23.2036 33.3867 23.2036 33.3867L32.7444 17.7666Z" fill="#FAE6CE"/>
</g>
<g id="Group_8">
<path id="Vector_6" d="M23.2906 33.7357L23.0579 33.6484C22.8252 33.5611 17.3858 31.4668 15.3205 30.2742C14.5933 29.8379 14.157 29.3143 14.0116 28.6744C13.8371 27.8018 14.3025 27.0746 14.3606 26.9582C14.5933 26.5801 17.9675 20.6753 19.2765 19.25C20.7018 17.6792 21.778 17.5629 22.6216 17.4756H22.7088C25.7049 17.1556 32.4532 17.4465 32.7441 17.4465L33.2677 17.4756L23.2906 33.7357ZM26.8684 17.941C25.3267 17.941 23.8142 17.9701 22.767 18.0864H22.6797C21.8362 18.1737 20.9636 18.261 19.7128 19.6572C18.4329 21.0534 14.9133 27.22 14.8842 27.2782L14.8551 27.3073C14.8551 27.3073 14.4479 27.9181 14.5933 28.558C14.6806 29.0234 15.0297 29.4307 15.6114 29.7506C17.3858 30.7687 21.9526 32.5721 23.0288 32.9794L32.1914 18.0283C31.2315 17.9992 29.0209 17.941 26.8684 17.941Z" fill="#505DD6"/>
</g>
</g>
<g id="Group_9">
<path id="Vector_7" d="M40.2775 23.7003C38.8231 22.0423 35.449 17.7083 33.1801 17.7083C30.8822 17.7083 27.2753 23.3804 25.9664 25.5038C23.4939 29.5179 21.9232 32.8339 23.1739 33.4156C24.0466 33.8229 25.9082 30.0706 26.9553 28.3835C27.8571 26.9291 30.9113 21.5769 32.6565 20.2389C32.9765 20.0062 33.4128 20.0062 33.7328 20.2389C35.4781 21.5769 38.9686 26.2601 40.0739 27.5399C41.412 29.0234 43.2154 31.5831 44.2916 30.7687C45.3388 29.9251 43.419 27.2199 40.2775 23.7003Z" fill="#62C6F9"/>
<path id="Vector_8" d="M23.2912 33.7357C23.2039 33.7357 23.1166 33.7066 23.0294 33.6775C22.7676 33.5612 22.593 33.3285 22.4767 33.0376C22.1276 31.9032 23.1457 29.4598 25.6764 25.3584C26.8399 23.4677 27.9452 21.8679 28.9342 20.6462C30.6794 18.4937 32.0466 17.4175 33.1519 17.4175C35.2753 17.4175 38.1259 20.7335 39.813 22.7405C40.0748 23.0314 40.2784 23.2932 40.482 23.4968C43.6526 27.0746 44.9325 29.0817 44.8161 30.2161C44.787 30.5361 44.6416 30.7978 44.4089 30.9724C43.2745 31.845 41.791 30.0707 40.482 28.529C40.2202 28.2381 39.9875 27.9472 39.7839 27.7145C39.4349 27.3364 38.9113 26.6674 38.2714 25.882C36.7588 23.9913 34.6645 21.4025 33.4719 20.4717C33.2683 20.3263 32.9774 20.3263 32.7738 20.4717C31.3485 21.577 28.876 25.6784 27.6834 27.6564C27.4798 28.0054 27.2762 28.3254 27.1598 28.529C26.9271 28.8781 26.6653 29.3435 26.4035 29.838C25.0946 32.165 24.1347 33.7357 23.2912 33.7357ZM33.181 17.9992C31.7557 17.9992 29.2251 20.7917 26.229 25.6493C23.2621 30.4488 22.8839 32.2231 23.0875 32.8631C23.1166 33.0085 23.2039 33.0667 23.2912 33.1249C23.2912 33.1249 23.5529 33.183 24.2801 32.165C24.8037 31.4378 25.3855 30.4197 25.88 29.5471C26.1708 29.0526 26.4326 28.5872 26.6653 28.209C26.8108 28.0054 26.9853 27.6855 27.1889 27.3364C28.4979 25.1839 30.9121 21.1407 32.4538 19.9772C32.861 19.6572 33.4719 19.6572 33.8791 19.9772C35.1299 20.9371 37.2533 23.555 38.7949 25.4748C39.4349 26.2602 39.9584 26.9292 40.2784 27.2782C40.5111 27.54 40.7438 27.8018 41.0056 28.1218C42.0237 29.3435 43.4199 31.0015 44.0889 30.4779C44.2053 30.3906 44.2634 30.2743 44.2634 30.1288C44.4089 28.7617 41.122 25.0676 40.0748 23.8459C39.8712 23.6132 39.6676 23.3805 39.4058 23.0605C37.8641 21.3152 35.0426 17.9992 33.181 17.9992Z" fill="#505DD6"/>
</g>
<g id="Group_10">
<path id="Vector_9" d="M39.3753 40.3387C39.3753 40.3387 40.2189 32.0196 34.4886 32.3978C28.5256 32.7759 30.2418 41.2404 30.9108 41.415C31.5507 41.5895 39.3753 40.3387 39.3753 40.3387Z" fill="#515ED5"/>
<path id="Vector_10" d="M31.1151 41.7348C30.9405 41.7348 30.8533 41.7058 30.8242 41.7058C30.5042 41.6185 30.2424 41.0658 30.0679 40.0478C29.9515 39.466 29.777 38.3025 29.9225 36.9645C30.2424 33.9684 31.8423 32.2232 34.4892 32.0777C35.9145 31.9904 37.078 32.3977 37.9507 33.2994C40.1613 35.5682 39.725 40.1641 39.6959 40.3386L39.6669 40.5713L39.4342 40.6004C39.4051 40.6004 37.4562 40.9204 35.42 41.2113C32.5694 41.6476 31.5514 41.7348 31.1151 41.7348ZM31.0278 41.124C31.6386 41.1822 35.5364 40.6295 39.1142 40.0768C39.1724 39.146 39.2596 35.5392 37.5144 33.7357C36.7581 32.9503 35.7691 32.6013 34.5183 32.6886C32.744 32.8049 31.5223 33.6775 30.9114 35.3355C30.3879 36.7027 30.446 38.2443 30.5333 39.0297C30.6497 40.2223 30.9114 40.9495 31.0278 41.124Z" fill="#505DD6"/>
</g>
<g id="Group_11">
<path id="Vector_11" d="M37.9504 34.4048C37.9504 34.4048 38.7067 37.1681 38.4158 39.5824C36.8741 39.8151 30.5039 40.5423 30.5039 40.5423L30.882 41.2695C30.882 41.2695 38.1831 40.3678 39.0557 40.106C39.143 39.8733 39.3466 36.1791 37.9504 34.4048Z" fill="#3240BD"/>
</g>
<g id="Group_12">
<path id="Vector_12" d="M31.0565 41.7348C30.8819 41.7348 30.7947 41.7058 30.7656 41.7058C30.4456 41.6185 30.1838 41.0658 30.0093 40.0478C29.893 39.466 29.7184 38.3025 29.8639 36.9645C30.1838 33.9684 31.7837 32.2232 34.4306 32.0777C35.8559 31.9904 37.0195 32.3977 37.8921 33.2994C40.1028 35.5682 39.6664 40.1641 39.6374 40.3386L39.6083 40.5713L39.3756 40.6004C39.3465 40.6004 37.3976 40.9204 35.3615 41.2113C32.5108 41.6476 31.4637 41.7348 31.0565 41.7348ZM30.9401 41.124C31.551 41.1822 35.4487 40.6295 39.0265 40.0768C39.0847 39.146 39.1719 35.5392 37.4267 33.7357C36.6704 32.9503 35.6814 32.6013 34.4306 32.6886C32.6563 32.8049 31.4346 33.6775 30.8238 35.3355C30.3002 36.7027 30.3584 38.2443 30.4456 39.0297C30.562 40.2223 30.8238 40.9495 30.9401 41.124Z" fill="#505DD6"/>
</g>
<g id="Group_13">
<g id="Group_14">
<path id="Vector_13" d="M33.5873 27.1328C32.9474 27.22 32.8311 27.8309 32.3075 28.4417C31.5221 29.3434 31.7257 30.0125 32.2784 30.1288C32.8311 30.2161 33.2092 29.6052 33.791 29.547C34.3727 29.4889 34.8672 30.0415 35.3908 29.867C35.9144 29.6634 36.0016 28.9653 35.0708 28.209C34.46 27.6854 34.2564 27.0746 33.5873 27.1328Z" fill="#3240BD"/>
<path id="Vector_14" d="M32.3953 30.216C32.3371 30.216 32.308 30.216 32.2498 30.216C31.988 30.1579 31.8135 30.0124 31.7262 29.7797C31.5808 29.4016 31.7844 28.878 32.2207 28.3835C32.3953 28.1799 32.5407 27.9763 32.6571 27.8018C32.8898 27.4236 33.1225 27.1036 33.5879 27.0455C34.0824 27.0164 34.3441 27.3073 34.635 27.6272C34.7805 27.7727 34.955 27.9763 35.1586 28.1217C35.6822 28.5289 35.944 29.0234 35.8858 29.4016C35.8567 29.6343 35.6822 29.8379 35.4495 29.9252C35.1295 30.0415 34.8386 29.9252 34.5478 29.8088C34.3151 29.7215 34.0824 29.6052 33.8497 29.6343C33.617 29.6634 33.3843 29.7797 33.1806 29.9252C32.9188 30.0706 32.6571 30.216 32.3953 30.216ZM33.617 27.22C33.2388 27.2782 33.0643 27.54 32.8316 27.889C32.7152 28.0635 32.5698 28.2962 32.3953 28.4999C31.988 28.9362 31.8135 29.4016 31.9299 29.6925C31.988 29.867 32.1335 29.9833 32.308 30.0124C32.5698 30.0706 32.8025 29.9252 33.0352 29.7506C33.2679 29.6052 33.5006 29.4598 33.7915 29.4307C34.0824 29.4016 34.3441 29.5179 34.6059 29.6052C34.8677 29.7215 35.1295 29.8088 35.3622 29.7215C35.5367 29.6634 35.6531 29.5179 35.6822 29.3434C35.7404 29.0234 35.5077 28.6162 35.0132 28.2381C34.7805 28.0635 34.635 27.889 34.4896 27.7145C34.1987 27.4236 33.9951 27.1909 33.617 27.22Z" fill="#505DD6"/>
</g>
<g id="Group_15">
<path id="Vector_15" d="M31.903 26.8419C32.2521 27.22 32.3102 27.7436 32.0484 27.9472C31.7867 28.1799 31.3212 28.0344 30.9722 27.6272C30.6231 27.2491 30.565 26.7255 30.8268 26.5219C31.0885 26.3183 31.554 26.4637 31.903 26.8419Z" fill="#3240BD"/>
<path id="Vector_16" d="M31.7567 28.1509C31.4949 28.1509 31.175 27.9764 30.9132 27.6855C30.7386 27.4819 30.6223 27.2492 30.5932 27.0165C30.5641 26.7838 30.6223 26.5801 30.7677 26.4347C30.9132 26.3183 31.1168 26.2602 31.3495 26.3474C31.5822 26.4056 31.7858 26.551 31.9603 26.7547C32.1349 26.9583 32.2512 27.191 32.2803 27.4237C32.3094 27.6564 32.2512 27.86 32.1058 28.0054C32.0185 28.1218 31.9022 28.1509 31.7567 28.1509ZM31.1168 26.522C31.0295 26.522 30.9423 26.551 30.8841 26.6092C30.7968 26.6965 30.7386 26.8419 30.7677 27.0165C30.7968 27.2201 30.8841 27.4237 31.0586 27.5982C31.3495 27.9473 31.7858 28.0927 31.9894 27.8891C32.0767 27.8018 32.1349 27.6564 32.1058 27.4819C32.0767 27.2782 31.9894 27.0746 31.8149 26.9001C31.6695 26.7256 31.4658 26.6092 31.2913 26.551C31.2331 26.551 31.175 26.522 31.1168 26.522Z" fill="#505DD6"/>
</g>
<g id="Group_16">
<path id="Vector_17" d="M35.212 26.5801C34.9211 27.0746 34.9502 27.5982 35.2411 27.8018C35.561 27.9764 36.0555 27.7437 36.3464 27.2782C36.6373 26.7838 36.6082 26.2602 36.3173 26.0566C35.9973 25.8529 35.5028 26.0857 35.212 26.5801Z" fill="#3240BD"/>
<path id="Vector_18" d="M35.5054 27.9473C35.3891 27.9473 35.3018 27.9182 35.2146 27.86C34.8655 27.6273 34.8073 27.0455 35.1564 26.522C35.4764 25.9984 36.029 25.7366 36.3781 25.9402C36.5526 26.0566 36.6689 26.2602 36.6689 26.522C36.6689 26.7838 36.6108 27.0455 36.4362 27.3073C36.2035 27.7146 35.8254 27.9473 35.5054 27.9473ZM35.3018 26.6383C35.04 27.0746 35.04 27.5691 35.3018 27.7146C35.5636 27.86 35.9999 27.6564 36.2617 27.2201C36.4072 27.0165 36.4653 26.7547 36.4653 26.551C36.4653 26.3474 36.3781 26.202 36.2617 26.1438C35.9999 25.9693 35.5636 26.202 35.3018 26.6383Z" fill="#505DD6"/>
</g>
<g id="Group_17">
<path id="Vector_19" d="M33.1507 25.4457C33.2961 25.9693 33.1216 26.4347 32.8016 26.551C32.4817 26.6383 32.1035 26.2892 31.9581 25.7947C31.8127 25.2712 31.9872 24.8058 32.3072 24.6894C32.6271 24.5731 33.0053 24.9221 33.1507 25.4457Z" fill="#3240BD"/>
<path id="Vector_20" d="M32.6841 26.6384C32.5386 26.6384 32.3641 26.5802 32.2186 26.4347C32.0441 26.2893 31.8987 26.0566 31.8405 25.7657C31.7823 25.5039 31.7823 25.2421 31.8405 25.0094C31.9278 24.7767 32.0732 24.6022 32.2477 24.544C32.4514 24.4859 32.655 24.544 32.8295 24.7186C33.004 24.864 33.1495 25.0967 33.2076 25.3876C33.2658 25.6494 33.2658 25.9112 33.2076 26.1439C33.1204 26.3766 32.9749 26.5511 32.8004 26.6093C32.7713 26.6383 32.7422 26.6384 32.6841 26.6384ZM32.3932 24.7476C32.3641 24.7476 32.335 24.7476 32.3059 24.7476C32.1896 24.7767 32.0732 24.8931 32.015 25.0676C31.9569 25.2421 31.9569 25.4748 32.015 25.7075C32.0732 25.9402 32.1896 26.1439 32.335 26.2602C32.4804 26.3766 32.6259 26.4347 32.7422 26.4056C32.8586 26.3766 32.9749 26.2602 33.0331 26.0857C33.0913 25.9112 33.0913 25.6785 33.0331 25.4458C32.9749 25.213 32.8586 25.0094 32.7131 24.8931C32.6259 24.8058 32.5095 24.7476 32.3932 24.7476Z" fill="#505DD6"/>
</g>
<g id="Group_18">
<path id="Vector_21" d="M33.7034 25.3876C33.6452 25.9693 33.907 26.4638 34.2852 26.4929C34.6633 26.522 35.0124 26.0857 35.0705 25.5039C35.1287 24.9222 34.8669 24.4277 34.4888 24.3986C34.0815 24.3695 33.7616 24.8058 33.7034 25.3876Z" fill="#3240BD"/>
<path id="Vector_22" d="M34.3127 26.6093C34.2836 26.6093 34.2836 26.6093 34.2546 26.6093C34.0509 26.5802 33.8473 26.4348 33.731 26.2021C33.6146 25.9694 33.5564 25.6785 33.5855 25.3876C33.6437 24.7477 34.0219 24.2823 34.4582 24.3114C34.8945 24.3404 35.1854 24.8931 35.1272 25.533C35.0981 26.1439 34.72 26.6093 34.3127 26.6093ZM34.4291 24.4859C34.1382 24.4859 33.8473 24.8931 33.7892 25.3876C33.7601 25.6494 33.8182 25.9112 33.9055 26.0857C33.9928 26.2602 34.1382 26.3766 34.2836 26.3766C34.6036 26.4057 34.8945 25.9984 34.9527 25.4749C35.0108 24.9513 34.7781 24.4859 34.4582 24.4568C34.4582 24.4859 34.4291 24.4859 34.4291 24.4859Z" fill="#505DD6"/>
</g>
</g>
<g id="Group_19">
<g id="Group_20">
<path id="Vector_23" d="M22.5648 25.7657L22.0703 25.4167C22.0703 25.4167 22.5648 24.7186 22.8557 23.0315C23.3211 19.3664 24.4264 17.0685 26.4626 15.6432C28.9059 13.927 30.6221 14.1888 31.6402 14.7124C32.8619 15.3523 33.5309 16.6613 33.5309 17.6212H32.891C32.891 16.8358 32.3674 15.7595 31.3202 15.236C30.4476 14.7996 28.9641 14.596 26.7825 16.1377C24.8918 17.4757 23.8738 19.6282 23.4374 23.1187V23.1478C23.1175 24.9804 22.5648 25.7366 22.5648 25.7657Z" fill="#505DD6"/>
</g>
<g id="Group_21">
<path id="Vector_24" d="M22.3065 25.533C22.3065 25.533 20.7649 25.213 19.7177 26.3184C20.1249 26.4056 20.1249 26.4638 20.1249 26.4638C20.1249 26.4638 19.2814 26.6965 19.0487 27.3074C19.2523 27.2492 19.5432 27.1619 19.5432 27.1619C19.5432 27.1619 18.7578 27.8309 18.7578 28.6454C18.9614 28.529 19.3687 27.8891 19.6886 27.8019C19.6886 28.0055 19.6886 28.0636 19.7177 28.1509C19.805 28.0927 20.2704 27.7728 20.2704 27.7728L22.3065 25.533Z" fill="#62C6F9"/>
<path id="Vector_25" d="M18.757 28.7617C18.7279 28.7617 18.7279 28.7617 18.6988 28.7326C18.6697 28.7035 18.6406 28.6744 18.6406 28.6163C18.6406 28.1218 18.9315 27.6564 19.1642 27.3655C19.1351 27.3655 19.106 27.3946 19.0769 27.3946C19.0188 27.3946 18.9897 27.3946 18.9606 27.3655C18.9315 27.3364 18.9315 27.2782 18.9315 27.2491C19.106 26.8419 19.4842 26.5801 19.775 26.4638C19.746 26.4638 19.7169 26.4638 19.6878 26.4347C19.6587 26.4347 19.6005 26.4056 19.6005 26.3474C19.6005 26.2893 19.6005 26.2602 19.6296 26.2311C20.7349 25.0967 22.2766 25.4166 22.3348 25.4166C22.3639 25.4166 22.422 25.4457 22.422 25.5039C22.422 25.5621 22.422 25.5911 22.3929 25.6202L20.3568 27.8309C20.3568 27.8309 20.3568 27.8309 20.3277 27.86C20.3277 27.86 19.8623 28.1509 19.775 28.2381C19.746 28.2672 19.7169 28.2672 19.6878 28.2672C19.6587 28.2672 19.6296 28.2381 19.6005 28.209C19.5423 28.1509 19.5423 28.0636 19.5423 28.0054C19.426 28.0927 19.2806 28.2672 19.1642 28.3836C19.0188 28.5581 18.9024 28.6744 18.7861 28.7326C18.7861 28.7617 18.757 28.7617 18.757 28.7617ZM19.5423 27.0455C19.5714 27.0455 19.6296 27.0746 19.6587 27.1037C19.6878 27.1619 19.6878 27.2201 19.6296 27.2491C19.6296 27.2491 19.0769 27.7146 18.9315 28.3254C18.9606 28.2963 18.9897 28.2672 19.0188 28.2381C19.2224 28.0054 19.4551 27.7436 19.6587 27.6855C19.6878 27.6855 19.746 27.6855 19.775 27.7146C19.8041 27.7436 19.8332 27.7727 19.8332 27.8018C19.8332 27.86 19.8332 27.9182 19.8332 27.9473C19.9787 27.86 20.1823 27.7146 20.2405 27.6855L22.1021 25.6493C21.6948 25.6202 20.7349 25.6202 19.9787 26.2602C20.2405 26.3183 20.2405 26.3765 20.2695 26.4056C20.2695 26.4347 20.2695 26.4638 20.2695 26.4929C20.2405 26.522 20.2405 26.551 20.1823 26.551C20.1823 26.551 19.6296 26.7256 19.3096 27.0746C19.426 27.0455 19.5133 27.0164 19.5423 27.0164C19.5133 27.0455 19.5423 27.0455 19.5423 27.0455Z" fill="#505DD6"/>
</g>
<g id="Group_22">
<path id="Vector_26" d="M19.8298 27.3947C19.8007 27.3947 19.8007 27.3947 19.7716 27.3656C19.7425 27.3365 19.7134 27.2783 19.7425 27.2492C20.7024 25.7949 21.9532 25.4458 22.0114 25.4458C22.0695 25.4458 22.0986 25.4749 22.1277 25.504C22.1277 25.5622 22.0986 25.5912 22.0695 25.6203C22.0695 25.6203 20.8188 25.9403 19.888 27.3365C19.888 27.3947 19.8589 27.3947 19.8298 27.3947Z" fill="#505DD6"/>
</g>
<g id="Group_23">
<path id="Vector_27" d="M22.3653 25.5913C22.3653 25.5913 22.9762 26.2312 22.9471 26.6385C22.6853 26.5803 22.6853 26.5803 22.6853 26.5803C22.6853 26.5803 23.0343 27.482 22.9762 27.8311C22.5689 27.6856 22.5398 27.6565 22.5398 27.6565C22.5398 27.6565 22.8307 29.1691 22.7144 29.3727C22.4526 29.2855 22.0744 28.7037 22.0163 28.4419C21.929 28.7619 21.929 28.8782 21.929 28.8782C21.929 28.8782 21.0855 27.5984 22.3653 25.5913Z" fill="#62C6F9"/>
<path id="Vector_28" d="M22.7137 29.489H22.6846C22.481 29.4308 22.2192 29.1109 22.0737 28.82C22.0737 28.8782 22.0447 28.9072 22.0447 28.9072C22.0447 28.9654 21.9865 28.9945 21.9574 28.9945C21.8992 28.9945 21.8701 28.9945 21.841 28.9363C21.812 28.8782 20.9684 27.5692 22.2774 25.504C22.3064 25.4749 22.3355 25.4458 22.3646 25.4458C22.3937 25.4458 22.4519 25.4458 22.4519 25.4749C22.5101 25.5331 23.0918 26.173 23.0627 26.6093C23.0627 26.6384 23.0336 26.6675 23.0046 26.6966C22.9755 26.7257 22.9464 26.7257 22.9173 26.7257H22.8882C23.0046 27.0165 23.15 27.5401 23.1209 27.831C23.1209 27.8601 23.0918 27.8892 23.0627 27.9183C23.0336 27.9473 23.0046 27.9473 22.9464 27.9183C22.83 27.8892 22.7719 27.8601 22.7137 27.831C22.8009 28.3546 22.9464 29.2272 22.83 29.4308C22.8009 29.489 22.7719 29.489 22.7137 29.489ZM22.0156 28.3255C22.0737 28.3255 22.1319 28.3546 22.1319 28.4128C22.161 28.6164 22.4228 28.9945 22.6264 29.169C22.6264 28.8782 22.5391 28.2382 22.4228 27.6565C22.4228 27.6274 22.4228 27.5692 22.4519 27.5401C22.481 27.511 22.5391 27.511 22.5682 27.511C22.5682 27.511 22.5973 27.511 22.8591 27.6274C22.83 27.3074 22.6555 26.7838 22.5682 26.6093C22.5391 26.5802 22.5682 26.522 22.5973 26.493C22.6264 26.4639 22.6846 26.4348 22.7137 26.4639L22.8009 26.493C22.7428 26.2603 22.5391 25.9694 22.3937 25.7949C21.6083 27.1038 21.7247 28.0637 21.8992 28.5291C21.8992 28.5 21.9283 28.4709 21.9283 28.4418C21.9283 28.3546 21.9574 28.3255 22.0156 28.3255Z" fill="#505DD6"/>
</g>
<g id="Group_24">
<path id="Vector_29" d="M22.3047 28.2092C22.2757 28.2092 22.2175 28.1801 22.2175 28.122C21.9848 26.8712 22.2466 25.6495 22.2466 25.5913C22.2466 25.5331 22.3047 25.5041 22.3629 25.5331C22.4211 25.5331 22.4502 25.5913 22.4211 25.6495C22.4211 25.6495 22.1593 26.9003 22.392 28.122C22.4211 28.1801 22.3629 28.2092 22.3047 28.2092Z" fill="#505DD6"/>
</g>
<g id="Group_25">
<path id="Vector_30" d="M22.3097 25.5911C22.3097 25.5911 20.6517 26.4928 20.2153 27.4236C20.6226 27.2782 20.7389 27.2491 20.7971 27.1909C20.8553 27.1327 20.0699 27.7436 20.1281 28.2962C20.3026 28.2381 20.6226 27.9472 20.7098 27.9181C20.6517 28.1217 20.2444 28.9652 20.9135 29.7797C20.9425 29.547 21.0007 28.8489 21.1752 28.6744C21.2916 28.9071 21.437 28.9943 21.4661 28.878C21.4952 28.7616 21.437 27.9763 21.4661 27.9763C21.4952 27.9763 21.6116 28.2671 21.7279 28.209C21.8443 28.1508 21.9315 27.0455 22.0188 27.0455C22.106 27.1618 22.2224 27.22 22.2224 27.22L22.3097 25.5911Z" fill="#3240BD"/>
<path id="Vector_31" d="M20.9093 29.8961C20.8802 29.8961 20.8512 29.867 20.8221 29.867C20.3276 29.2561 20.3858 28.6453 20.473 28.2381C20.3567 28.3253 20.2694 28.3835 20.1531 28.4126C20.124 28.4126 20.0949 28.4126 20.0658 28.3835C20.0367 28.3544 20.0076 28.3253 20.0076 28.2962C19.9785 28.0054 20.124 27.7145 20.3276 27.4818C20.2985 27.4818 20.2985 27.5109 20.2694 27.5109C20.2112 27.54 20.1821 27.5109 20.124 27.4818C20.0949 27.4527 20.0949 27.3945 20.0949 27.3363C20.5603 26.4055 22.1892 25.5038 22.2474 25.4456C22.2765 25.4166 22.3346 25.4166 22.3637 25.4456C22.3928 25.4747 22.4219 25.5038 22.4219 25.562L22.3346 27.1909C22.3346 27.22 22.3055 27.2782 22.2765 27.2782C22.2474 27.3073 22.1892 27.3073 22.1601 27.2782C22.1601 27.2782 22.131 27.2491 22.0728 27.22C22.0438 27.3073 22.0438 27.4236 22.0147 27.5109C21.9274 27.9763 21.8983 28.1799 21.8111 28.2381C21.7238 28.2962 21.6365 28.2672 21.5784 28.2381C21.5784 28.2962 21.5784 28.3544 21.5784 28.4126C21.5784 28.6453 21.5784 28.7907 21.5784 28.8489C21.5493 28.9653 21.462 28.9944 21.4329 29.0234C21.3457 29.0525 21.2584 28.9653 21.1711 28.878C21.1129 29.0816 21.0548 29.4016 21.0257 29.5761C21.0257 29.6343 20.9966 29.7215 20.9966 29.7506C20.9966 29.8088 20.9675 29.8379 20.9093 29.8379C20.9384 29.8961 20.9093 29.8961 20.9093 29.8961ZM20.7057 27.8018C20.7348 27.8018 20.7639 27.8018 20.793 27.8308C20.8221 27.8599 20.8512 27.9181 20.8221 27.9472C20.8221 27.9763 20.8221 27.9763 20.793 28.0054C20.7057 28.2381 20.5021 28.8489 20.8221 29.4307C20.8802 29.0525 20.9384 28.7035 21.0839 28.558C21.1129 28.5289 21.142 28.5289 21.2002 28.5289C21.2293 28.5289 21.2584 28.558 21.2875 28.5871C21.3166 28.6162 21.3166 28.6453 21.3457 28.6744C21.3457 28.5871 21.3457 28.4999 21.3457 28.4126C21.3457 27.889 21.3456 27.889 21.3747 27.8308C21.4038 27.8018 21.4329 27.8018 21.462 27.8018C21.5493 27.8018 21.5784 27.8599 21.6074 27.9181C21.6074 27.9472 21.6365 27.9763 21.6656 28.0054C21.6947 27.889 21.7529 27.6272 21.7529 27.4818C21.8401 27.0164 21.8401 26.8709 21.9856 26.8709C22.0147 26.8709 22.0438 26.8709 22.0728 26.9L22.131 25.7656C21.7529 25.9983 20.8802 26.551 20.4439 27.1327C20.473 27.1327 20.473 27.1327 20.5021 27.1036C20.5894 27.0746 20.6475 27.0455 20.6766 27.0455C20.7348 27.0164 20.793 27.0164 20.8512 27.0746C20.8512 27.1036 20.9093 27.1618 20.8221 27.2491C20.6475 27.3945 20.3276 27.7145 20.2403 28.0635C20.2985 28.0054 20.3858 27.9472 20.4439 27.9181C20.5312 27.8308 20.5894 27.8018 20.6475 27.7727C20.6766 27.8018 20.6766 27.8018 20.7057 27.8018Z" fill="#505DD6"/>
</g>
<g id="Group_26">
<path id="Vector_32" d="M21.0521 28.1509C20.9939 28.1509 20.9648 28.0927 20.9648 28.0346C21.3139 26.6383 22.0411 25.7948 22.0702 25.7657C22.0993 25.7366 22.1574 25.7366 22.1865 25.7657C22.2156 25.7948 22.2156 25.853 22.1865 25.8821C22.1865 25.8821 21.4593 26.7256 21.1103 28.0927C21.1394 28.1509 21.1103 28.1509 21.0521 28.1509Z" fill="#505DD6"/>
</g>
</g>
</g>
</g>
</svg>
