<svg width="257" height="41" viewBox="0 0 257 41" fill="none" xmlns="http://www.w3.org/2000/svg">
<path d="M12.8689 31.636L14.1234 32.8496C14.514 33.2275 14.6046 33.7733 14.0092 34.3887C13.3909 35.0278 12.8424 34.9554 12.44 34.5661L11.1973 33.364L7.53101 29.2673L8.64159 28.1193L12.8689 31.636ZM7.50259 26.1468C7.98783 26.6163 8.05935 27.4186 7.48689 28.0104C6.85718 28.6613 6.12315 28.6385 5.59057 28.1233C5.10533 27.6539 4.97578 26.8641 5.58259 26.2369C6.22375 25.5741 6.98184 25.6431 7.50259 26.1468Z" fill="#62C6F9"/>
<path d="M11.6739 17.9296L14.0612 16.2009L15.0504 23.7998L17.5228 27.2142L15.2421 28.8657L12.7794 25.4646L5.95218 22.0728L8.47292 20.2475L12.3246 22.3378L12.3779 22.2991L11.6739 17.9296Z" fill="#62C6F9"/>
<path d="M23.4583 14.6572L26.2975 20.2149L27.2679 21.7162L25.1856 22.78L24.7308 22.1432L24.6354 22.1735C24.5475 23.0874 23.9782 23.6741 23.2156 24.0637C20.972 25.2099 19.4787 23.6983 18.5423 21.8653C17.2238 19.2844 17.645 16.8873 20.3138 15.5239C20.8418 15.2543 22.0383 14.8094 23.4583 14.6572ZM23.4662 20.6812L21.6608 17.1472C21.4696 17.1709 21.1978 17.2543 20.9339 17.3891C19.9807 17.8761 20.2424 19.1847 20.8866 20.4458C21.4635 21.5749 22.1482 22.4086 22.9987 21.9741C23.5706 21.6819 23.6835 21.1065 23.4662 20.6812Z" fill="#62C6F9"/>
<path d="M31.6869 19.2424L31.7807 17.1765C32.4804 17.3711 33.6711 17.4807 34.3781 17.2588C34.8494 17.1109 35.0829 16.865 34.9449 16.4251C34.7969 15.9538 34.292 15.9397 33.6722 15.9443C32.3077 15.9411 30.9186 15.8592 30.3861 14.1624C29.8437 12.4342 30.9354 11.0733 32.6951 10.5211C33.952 10.1267 35.2311 10.243 36.2229 10.7084L35.5021 12.5914C34.6432 12.2742 33.9103 12.1935 33.4232 12.3464C32.9833 12.4844 32.7597 12.7617 32.878 13.1388C33.021 13.5944 33.525 13.6606 34.2333 13.6627C35.5142 13.6749 36.9761 13.7684 37.4987 15.4338C38.0509 17.1935 37.0692 18.5198 35.1367 19.1263C33.6756 19.5848 32.2824 19.4352 31.6869 19.2424Z" fill="#62C6F9"/>
<path d="M41.9868 15.2305C42.776 15.0623 42.9138 14.2079 42.5774 12.6297C42.2273 10.9869 41.775 10.2078 40.9536 10.3829C40.1967 10.5442 40.0404 11.4699 40.3253 12.8066C40.6205 14.1916 41.0366 15.433 41.9868 15.2305ZM37.6527 13.6961C36.9318 10.3141 38.899 8.80041 40.6545 8.42626C41.9429 8.15166 44.5054 8.00956 45.3121 11.7942C45.9574 14.822 44.5154 16.7457 42.2929 17.2194C39.9898 17.7102 38.2774 16.6272 37.6527 13.6961Z" fill="#62C6F9"/>
<path d="M49.98 15.568L47.2414 15.8179L46.6295 9.11082L46.2786 7.43971L48.5416 7.23325L48.8028 8.10232C49.2483 7.3672 49.8803 6.86309 50.9626 6.76435C51.9137 6.67758 52.7144 6.93523 53.226 7.64917C53.6566 6.93195 54.3243 6.45765 55.3738 6.3619C56.9809 6.21528 58.0471 7.02744 58.2296 9.02807L58.7533 14.7676L56.0147 15.0175L55.5344 9.75349C55.4671 9.01555 55.3193 8.48337 54.6634 8.54321C54.0239 8.60156 53.8079 9.13386 53.8722 9.839L54.3584 15.1686L51.6198 15.4184L51.1396 10.1544C51.0738 9.4329 50.9573 8.88133 50.285 8.94267C49.629 9.00252 49.4294 9.53332 49.4952 10.2549L49.98 15.568Z" fill="#62C6F9"/>
<path d="M63.9616 13.1131C64.7684 13.1264 65.0945 12.3248 65.1211 10.7112C65.1488 9.03184 64.883 8.17107 64.0434 8.15723C63.2695 8.14447 62.9094 9.01138 62.8868 10.3779C62.8635 11.7939 62.9902 13.097 63.9616 13.1131ZM60.0827 10.6446C60.1397 7.18706 62.3966 6.15379 64.1912 6.18338C65.5084 6.2051 68.0374 6.64206 67.9736 10.5112C67.9225 13.6066 66.0854 15.1573 63.8133 15.1198C61.4588 15.081 60.0333 13.6412 60.0827 10.6446Z" fill="#62C6F9"/>
<path d="M69.0868 14.3595L69.9462 12.4784C70.5223 12.9206 71.5857 13.4674 72.3244 13.5259C72.8169 13.565 73.1253 13.4242 73.1618 12.9646C73.2008 12.4721 72.7378 12.2703 72.1612 12.0428C70.8969 11.5297 69.6391 10.9344 69.7796 9.16156C69.9228 7.35588 71.4441 6.50188 73.2826 6.64761C74.5958 6.75171 75.7387 7.33786 76.4845 8.1403L75.112 9.61728C74.434 9.00191 73.7844 8.65308 73.2755 8.61274C72.8159 8.57631 72.5048 8.74987 72.4735 9.14384C72.4358 9.61988 72.8785 9.86972 73.5346 10.1365C74.7181 10.6267 76.039 11.26 75.901 13C75.7553 14.8385 74.3489 15.7016 72.3298 15.5416C70.8032 15.4206 69.567 14.761 69.0868 14.3595Z" fill="#62C6F9"/>
<path d="M83.5901 16.3948L80.8672 16.0096L81.8105 9.3411L81.8523 7.63407L84.1024 7.95232L84.1572 8.85813C84.7595 8.24483 85.4902 7.89917 86.5663 8.05137C87.512 8.18513 88.2322 8.61961 88.5663 9.43188C89.15 8.83259 89.9087 8.52414 90.9522 8.67173C92.5501 8.89774 93.4015 9.93286 93.1202 11.922L92.313 17.6286L89.5901 17.2434L90.3304 12.0097C90.4342 11.276 90.4125 10.7241 89.7603 10.6319C89.1244 10.5419 88.7921 11.0105 88.6929 11.7116L87.9434 17.0105L85.2205 16.6254L85.9608 11.3916C86.0623 10.6743 86.0755 10.1107 85.407 10.0161C84.7548 9.92387 84.4388 10.3947 84.3373 11.1121L83.5901 16.3948Z" fill="#62C6F9"/>
<path d="M102.81 11.4704L101.63 17.5988L101.471 19.3794L99.1754 18.9374L99.2085 18.1556L99.1146 18.1207C98.4832 18.7873 97.6734 18.8997 96.8325 18.7379C94.3585 18.2616 94.1108 16.1513 94.4999 14.1301C95.0478 11.2842 96.8542 9.65318 99.7971 10.2197C100.379 10.3318 101.596 10.717 102.81 11.4704ZM99.1106 16.2251L99.8608 12.3281C99.6954 12.2292 99.4298 12.1278 99.1388 12.0717C98.0877 11.8694 97.4892 13.0622 97.2215 14.4528C96.9818 15.6979 97.0089 16.7763 97.9468 16.9569C98.5774 17.0783 99.0203 16.694 99.1106 16.2251ZM98.4702 8.4886L101.113 5.55977C101.635 5.81113 102.501 6.36359 102.361 7.09123C102.308 7.36612 102.094 7.60988 101.647 7.92636C100.898 8.41941 99.7464 9.00257 99.1188 9.30098L98.4702 8.4886Z" fill="#62C6F9"/>
<path d="M102.842 18.9956L103.963 17.2576C104.47 17.778 105.444 18.472 106.166 18.6361C106.648 18.7455 106.973 18.6506 107.076 18.201C107.185 17.7193 106.756 17.4529 106.218 17.145C105.041 16.4554 103.881 15.6855 104.275 13.9513C104.677 12.1849 106.305 11.5585 108.103 11.967C109.388 12.2588 110.435 13.0032 111.057 13.9045L109.487 15.1688C108.904 14.4624 108.312 14.0238 107.814 13.9107C107.364 13.8086 107.031 13.9356 106.944 14.321C106.838 14.7867 107.24 15.0975 107.851 15.4558C108.952 16.1111 110.168 16.9277 109.781 18.6299C109.373 20.4283 107.857 21.0803 105.882 20.6316C104.388 20.2924 103.26 19.462 102.842 18.9956Z" fill="#62C6F9"/>
<path d="M120.637 15.0676C120.987 15.1599 121.202 15.2504 121.38 15.3485L122.106 12.5937L124.749 13.2899L122.292 22.6212L122.01 24.4031L119.78 23.816L119.838 23.0139L119.743 22.9887C119.153 23.5485 118.412 23.7109 117.504 23.4719C114.829 22.7674 114.916 20.5597 115.399 18.7285C116.124 15.9737 118.121 14.405 120.637 15.0676ZM119.858 21.1289L120.873 17.2753C120.714 17.1655 120.52 17.0632 120.281 17.0003C119.039 16.6732 118.411 18.0233 118.096 19.2176C117.774 20.4438 117.748 21.5099 118.624 21.7405C119.245 21.9041 119.749 21.5429 119.858 21.1289Z" fill="#62C6F9"/>
<path d="M129.465 17.4318C131.134 17.8811 132.029 18.9916 131.58 20.6612C130.96 22.9668 128.228 22.7262 126.644 22.4023C126.515 23.135 126.897 23.8688 127.867 24.1298C128.63 24.3352 129.42 24.1895 130.018 23.9925L130.247 25.9299C130.147 25.9881 128.731 26.494 126.951 26.0147C124.152 25.2616 123.508 23.2809 124.159 20.8639C124.779 18.5583 126.746 16.7001 129.465 17.4318ZM129.266 20.0725C129.373 19.675 129.203 19.3564 128.821 19.2537C128.026 19.0398 127.292 19.6777 126.949 20.762C127.82 20.9454 129.056 20.8517 129.266 20.0725Z" fill="#62C6F9"/>
<path d="M138.69 21.1313L137.834 19.0902C138.5 18.7279 140.178 18.0375 142.241 18.5436C144.144 19.0105 144.949 20.3609 144.6 21.7842C144.38 22.6798 143.768 23.3774 142.795 23.7492C143.498 24.6846 143.771 25.7857 143.531 26.7612C143.123 28.4245 141.643 29.689 139.004 29.0417C137.709 28.7239 136.464 27.9945 135.786 27.3704L137.024 25.436C137.693 26.0241 138.786 26.6144 139.41 26.7674C140.097 26.9361 140.656 26.8019 140.797 26.2261C140.915 25.7463 140.777 25.2717 140.499 24.6778C139.98 24.7201 139.385 24.7267 138.666 24.6859L138.517 22.5978C140.131 22.6546 141.516 22.6046 141.736 21.709C141.881 21.1173 141.548 20.8152 141.084 20.7014C140.493 20.5562 139.483 20.8003 138.69 21.1313Z" fill="#62C6F9"/>
<path d="M150.842 20.522C153.258 21.0343 154.373 22.9204 153.584 26.6415C152.765 30.5076 151 31.7662 148.471 31.23C145.861 30.6767 144.94 28.7477 145.729 25.0266C146.521 21.2894 148.474 20.02 150.842 20.522ZM148.954 29.1104C149.678 29.2641 150.337 28.6969 150.887 26.1033C151.406 23.6548 151.07 22.8597 150.345 22.706C149.572 22.5421 148.948 23.184 148.401 25.7614C147.909 28.0811 148.229 28.9568 148.954 29.1104Z" fill="#62C6F9"/>
<path d="M159.623 22.2182C162.057 22.6371 163.244 24.4788 162.599 28.2275C161.929 32.1223 160.214 33.4479 157.666 33.0095C155.037 32.5571 154.042 30.665 154.687 26.9162C155.335 23.1513 157.237 21.8077 159.623 22.2182ZM158.067 30.8729C158.797 30.9986 159.434 30.4064 159.883 27.7936C160.308 25.3269 159.941 24.5453 159.211 24.4197C158.432 24.2856 157.833 24.9511 157.386 27.5477C156.984 29.8845 157.337 30.7473 158.067 30.8729Z" fill="#62C6F9"/>
<path d="M168.18 23.5261C170.629 23.8487 171.888 25.6423 171.391 29.4135C170.875 33.3316 169.213 34.7238 166.65 34.3861C164.005 34.0376 162.937 32.1861 163.434 28.4149C163.933 24.6273 165.781 23.2099 168.18 23.5261ZM166.966 32.2354C167.701 32.3322 168.314 31.7153 168.66 29.0869C168.987 26.6054 168.59 25.8389 167.855 25.7421C167.072 25.6388 166.499 26.3274 166.155 28.9395C165.845 31.2904 166.232 32.1386 166.966 32.2354Z" fill="#62C6F9"/>
<path d="M180.216 35.683L177.47 35.5308L177.843 28.8062L177.74 27.1018L180.009 27.2276L180.14 28.1254C180.688 27.4632 181.387 27.0566 182.472 27.1168C183.426 27.1697 184.18 27.5414 184.582 28.3223C185.113 27.6755 185.843 27.3037 186.895 27.3621C188.506 27.4514 189.442 28.4104 189.331 30.4163L189.012 36.1708L186.266 36.0185L186.559 30.7408C186.6 30.0009 186.531 29.4529 185.874 29.4164C185.233 29.3809 184.941 29.876 184.902 30.583L184.606 35.9265L181.86 35.7742L182.153 30.4965C182.193 29.773 182.158 29.2104 181.484 29.173C180.826 29.1365 180.551 29.6325 180.511 30.356L180.216 35.683Z" fill="#62C6F9"/>
<path d="M194.078 36.1699L191.311 36.1534L191.362 27.7226L194.128 27.7391L194.078 36.1699ZM191.294 25.318C191.298 24.5605 191.862 23.9546 192.768 23.96C193.64 23.9652 194.229 24.578 194.225 25.3355C194.22 26.1259 193.624 26.6987 192.751 26.6934C191.846 26.688 191.289 26.1084 191.294 25.318Z" fill="#62C6F9"/>
<path d="M199.789 27.3922C201.517 27.3378 202.695 28.141 202.75 29.8692C202.825 32.2557 200.141 32.8178 198.531 32.9673C198.62 33.7059 199.199 34.2973 200.203 34.2657C200.993 34.2408 201.706 33.8724 202.222 33.5102L203.003 35.2979C202.923 35.3828 201.716 36.2775 199.872 36.3354C196.976 36.4265 195.785 34.7176 195.706 32.2159C195.631 29.8294 196.974 27.4807 199.789 27.3922ZM200.364 29.9771C200.351 29.5656 200.096 29.3101 199.701 29.3225C198.878 29.3484 198.36 30.1719 198.347 31.3091C199.234 31.2318 200.39 30.7836 200.364 29.9771Z" fill="#62C6F9"/>
<path d="M207.763 35.6686L205.027 35.9396L204.363 29.2375L203.999 27.5691L206.261 27.3452L206.529 28.2122C206.968 27.4737 207.596 26.9647 208.678 26.8576C209.628 26.7635 210.431 27.015 210.948 27.7249C211.373 27.0044 212.037 26.525 213.086 26.4211C214.692 26.2621 215.764 27.066 215.962 29.0651L216.53 34.8005L213.794 35.0715L213.273 29.8113C213.2 29.0739 213.048 28.5429 212.392 28.6078C211.753 28.6711 211.541 29.2051 211.611 29.9097L212.139 35.2353L209.402 35.5063L208.881 30.2462C208.81 29.5252 208.689 28.9746 208.017 29.0411C207.362 29.106 207.166 29.6383 207.238 30.3593L207.763 35.6686Z" fill="#62C6F9"/>
<path d="M219.019 33.9653L217.121 23.1138L219.846 22.6371L220.391 25.7514C220.711 25.4781 221.247 25.2004 221.88 25.0897C223.891 24.7379 225.373 25.8495 225.847 28.5583C226.4 31.7213 225.189 33.5882 222.545 34.0507C221.312 34.2663 219.798 34.2135 219.019 33.9653ZM220.794 28.0547L221.506 32.1261C221.766 32.1808 222.07 32.1946 222.346 32.1464C223.4 31.962 223.47 30.9299 223.201 29.389C222.971 28.0751 222.556 26.9442 221.485 27.1314C221.031 27.2109 220.712 27.5843 220.794 28.0547Z" fill="#62C6F9"/>
<path d="M229.662 27.0933L230.811 32.1177L228.13 32.7307L226.61 26.085L226.042 24.5596L228.225 24.0604L228.694 25.1524C228.896 24.042 229.614 23.4892 230.305 23.3314C230.706 23.2396 231.242 23.2184 231.707 23.3317L231.784 25.6621C231.406 25.5626 230.983 25.558 230.566 25.6535C229.875 25.8113 229.509 26.3512 229.662 27.0933Z" fill="#62C6F9"/>
<path d="M237.606 28.5669C238.381 28.3444 238.459 27.4826 238.015 25.9314C237.552 24.3168 237.046 23.5709 236.239 23.8024C235.495 24.0158 235.403 24.95 235.78 26.2638C236.171 27.6251 236.672 28.8347 237.606 28.5669ZM233.176 27.3363C232.222 24.0123 234.08 22.366 235.805 21.8712C237.072 21.508 239.618 21.1888 240.685 24.9086C241.538 27.8844 240.233 29.9033 238.049 30.5297C235.785 31.1789 234.002 30.2171 233.176 27.3363Z" fill="#62C6F9"/>
<path d="M242.859 28.1545L242.885 26.0866C243.59 26.2583 244.784 26.3288 245.484 26.0839C245.95 25.9207 246.175 25.6673 246.023 25.2322C245.859 24.7659 245.354 24.7683 244.735 24.7933C243.371 24.8346 241.98 24.7983 241.392 23.1198C240.794 21.4102 241.84 20.0144 243.581 19.4049C244.824 18.9695 246.107 19.044 247.113 19.4767L246.454 21.3823C245.585 21.0933 244.85 21.0367 244.368 21.2054C243.933 21.3577 243.719 21.6422 243.849 22.0152C244.007 22.4659 244.513 22.5156 245.221 22.4945C246.502 22.4648 247.966 22.5104 248.543 24.1579C249.152 25.8985 248.214 27.2563 246.303 27.9256C244.857 28.4317 243.46 28.3277 242.859 28.1545Z" fill="#62C6F9"/>
<path d="M247.855 17.8L247.209 16.1784C247.008 15.6736 247.15 15.1387 247.945 14.8219C248.771 14.4928 249.242 14.784 249.449 15.3041L250.089 16.9104L251.751 22.1509L250.267 22.7419L247.855 17.8ZM250.496 25.0081C250.246 24.3809 250.51 23.6199 251.275 23.3152C252.116 22.9801 252.776 23.3021 253.051 23.9905C253.3 24.6178 253.094 25.3911 252.284 25.714C251.427 26.0552 250.764 25.6812 250.496 25.0081Z" fill="#62C6F9"/>
</svg>
