<svg width="53" height="80" viewBox="0 0 53 80" fill="none" xmlns="http://www.w3.org/2000/svg">
<path d="M1.39813 5.51931C1.39813 5.51931 0.411217 4.9347 0.0942576 5.9122C-0.142307 6.64225 0.0702316 7.48564 0.66349 8.29503C1.25675 9.10442 2.32314 9.1488 2.74082 8.78236C3.15388 8.41969 3.34979 7.86436 3.14649 7.33075C2.94412 6.7962 2.46914 6.10203 1.39813 5.51931Z" fill="#505DD6"/>
<path d="M8.93287 2.60568C9.12138 2.29307 9.66566 1.7009 10.2922 2.1259C10.9187 2.55184 11.1682 3.30362 11.1959 4.31417C11.2237 5.32473 10.4142 6.03684 9.86434 6.01512C9.32098 5.99339 8.82937 5.68267 8.66396 5.13489C8.49763 4.58712 8.2971 3.66156 8.93287 2.60568Z" fill="#505DD6"/>
<path d="M3.85981 2.38379C3.85981 2.38379 3.23883 1.53474 2.7195 1.3619C2.2667 1.21079 1.45905 1.27407 1.35833 2.53207C1.25853 3.78062 1.83793 4.82329 2.15304 5.14818C2.48108 5.48723 3.11131 5.89618 3.81638 5.58829C4.44475 5.3144 4.77927 4.50407 4.66561 3.89585C4.55195 3.28762 4.11393 2.69263 3.85981 2.38379Z" fill="#505DD6"/>
<path d="M5.06384 1.85677C5.06384 1.85677 5.15625 0.800887 5.51017 0.374944C5.81789 0.00377749 6.42409 -0.316389 7.28902 0.571388C8.15396 1.45916 8.03106 2.8475 7.9368 3.29422C7.82222 3.83444 7.50433 4.44455 6.74567 4.56166C6.07016 4.66555 5.36971 4.15555 5.1544 3.57661C4.93909 2.99766 5.00562 2.25533 5.06384 1.85677Z" fill="#505DD6"/>
<path d="M26.0192 22.6515C23.4734 22.268 23.8495 25.0702 22.7628 25.226C21.9764 25.3384 21.4302 24.6377 21.3563 23.7149C21.3572 18.1182 21.3582 9.07229 21.3582 8.78518C21.3582 8.36868 21.3656 6.59879 19.8316 6.06613C18.183 5.4938 17.2784 7.15318 17.2784 7.15318L12.9777 16.4002C12.9324 16.4984 12.7956 16.4984 12.7504 16.4002L8.45063 7.15318C8.45063 7.15318 7.63651 5.53063 5.8974 6.06613C4.34587 6.54496 4.36989 8.36962 4.36989 8.78612C4.36989 9.1384 4.37174 23.9425 4.37267 28.1264C4.37267 28.8017 4.90863 29.3476 5.56935 29.3476H7.83427C8.49498 29.3476 9.03003 28.7998 9.03003 28.1245V20.3924C9.03003 20.2545 9.21392 20.2129 9.27029 20.3386L10.5058 23.0652C10.7017 23.4977 11.1249 23.7744 11.5916 23.7744H12.865H14.1383C14.6041 23.7744 15.0282 23.4977 15.2241 23.0652L16.4633 20.3301C16.5197 20.2054 16.7027 20.246 16.7036 20.3829L16.723 23.3872C16.9512 29.1785 20.9784 29.409 23.1305 29.3391C27.2769 29.205 28.2647 22.9896 26.0192 22.6515Z" fill="#505DD6"/>
<path d="M48.5206 42.4338C47.8747 39.2756 46.3195 37.4292 44.5628 37.1884C42.8061 36.9466 41.0347 37.2498 39.9498 39.1887C38.9592 40.9577 38.463 44.3171 38.2005 45.8622C37.7736 48.3763 37.6738 51.8943 37.61 53.3894C37.5805 54.0854 38.1248 54.6653 38.8067 54.6653H41.0836C41.7453 54.6653 42.2813 54.1175 42.2813 53.4413V50.8913C42.2813 50.6703 42.4559 50.4918 42.6721 50.4918H44.1248C44.341 50.4918 44.5157 50.6703 44.5157 50.8913V53.4413C44.5157 54.1175 45.0516 54.6653 45.7133 54.6653H47.9643C48.626 54.6653 49.162 54.1175 49.162 53.4413V53.6982C49.1638 53.6982 49.1666 45.5921 48.5206 42.4338ZM42.6028 46.307C42.4116 46.307 42.2582 46.1483 42.2609 45.9528C42.2748 44.9697 42.4023 42.2799 43.3735 42.2799C44.4113 42.2799 44.5111 44.9772 44.5138 45.9566C44.5138 46.1502 44.3614 46.307 44.1719 46.307H42.6028Z" fill="#505DD6"/>
<path d="M46.2889 18.3439C44.9952 17.4656 44.2494 17.2295 42.6351 16.2586C41.4218 15.5295 40.1511 15.0714 40.4958 13.4054C40.8414 11.6752 41.8958 10.6183 43.0851 10.7175C44.2947 10.8186 44.4333 12.0095 44.449 13.038L44.4463 13.039L44.4444 13.5357C44.4352 13.7208 44.4204 14.0665 44.4204 14.3338C44.3954 14.5831 44.486 14.8117 44.6449 14.9921C44.8603 15.3179 45.2253 15.5332 45.6393 15.5332H47.882C48.3893 15.5332 48.8218 15.2112 48.9964 14.7578C49.0103 14.7352 49.0205 14.7059 49.0269 14.67C49.063 14.551 49.0814 14.4254 49.0796 14.2941L49.0473 11.8253C49.0094 10.2972 48.7266 9.28385 47.7221 8.0353C46.4663 6.49774 44.7715 5.85647 43.013 5.92069C40.031 6.04913 36.7191 8.1203 35.8089 12.477C35.7562 12.7405 35.7128 12.9861 35.6786 13.2165C35.6786 13.2165 34.725 16.8328 38.3187 19.2043C38.3381 19.2175 38.3584 19.2307 38.3778 19.2439C38.3917 19.2524 38.4037 19.2619 38.4176 19.2713C38.4813 19.3119 38.5414 19.3497 38.6033 19.3884C38.6283 19.4036 38.6523 19.4196 38.6772 19.4347C42.1684 21.6211 42.9687 21.2802 44.1256 22.5844C44.2781 22.796 44.3613 23.1417 44.3492 23.3853C44.2291 25.7342 40.8553 25.4829 40.3424 23.2484C40.3101 23.1077 40.2888 22.8782 40.2759 22.6298C40.2408 21.9819 39.7168 21.4738 39.0801 21.4738H36.7912C36.1296 21.4738 35.5936 22.0206 35.5936 22.6959C35.5936 22.6959 35.3543 25.1514 37.4593 27.4908C39.1799 29.4033 41.9429 29.3693 43.0139 29.34C48.1583 29.1965 49.0057 25.7313 49.1267 23.2966C49.2543 20.7239 47.9162 19.4489 46.2889 18.3439Z" fill="#505DD6"/>
<path d="M40.2602 31.262H28.3895C27.7279 31.262 27.1919 31.8098 27.1919 32.486V34.799C27.1919 35.4752 27.7279 36.023 28.3895 36.023H32.169L31.4796 53.3903C31.4519 54.0854 31.9953 54.6644 32.6763 54.6644H34.9375C35.5798 54.6644 36.1074 54.1468 36.1342 53.4904L36.8282 36.022H40.2602C40.9219 36.022 41.4578 35.4742 41.4578 34.798V32.4851C41.4588 31.8107 40.9219 31.262 40.2602 31.262Z" fill="#505DD6"/>
<path d="M16.4532 60.3754H14.1901C13.5285 60.3754 12.9925 60.9232 12.9925 61.5994V62.5391C12.9556 63.4477 13.2587 75.5111 10.8403 75.1758C9.30082 74.9623 8.90809 67.5211 9.08644 55.9195C9.08736 55.9195 9.16683 36.329 11.209 36.0749C12.683 35.8917 12.4335 44.9489 12.4704 45.8574V47.1117C12.4704 47.7879 13.0064 48.3357 13.668 48.3357H15.9311C16.5927 48.3357 17.1287 47.7879 17.1287 47.1117V45.0235C17.1287 45.0235 17.5538 31.314 11.8383 31.314C7.71141 31.314 5.90021 32.775 4.9096 39.15C4.16295 43.9544 4.16295 67.3605 4.9096 72.164C5.90021 78.5399 7.71233 80.0113 11.8383 80C18.3448 79.9821 17.6508 61.6004 17.6508 61.6004C17.6508 60.9241 17.1148 60.3754 16.4532 60.3754Z" fill="#505DD6"/>
<path d="M34.5641 57.5515H32.301C31.6394 57.5515 31.1034 58.0993 31.1034 58.7755V63.952C31.1034 63.952 31.437 68.6894 30.3438 68.7101C29.1315 68.6894 29.3754 64.581 29.3532 63.8982V57.8339C29.3532 57.1577 28.8173 56.6099 28.1556 56.6099H25.8926C25.2309 56.6099 24.695 57.1577 24.695 57.8339V64.037C24.695 64.037 24.5499 73.9414 29.9992 73.9414C35.9632 73.9414 35.7599 64.3345 35.7571 63.952H35.7617V58.7755C35.7617 58.0993 35.2248 57.5515 34.5641 57.5515Z" fill="#505DD6"/>
<path d="M48.6942 66.7013C48.709 66.316 51.1403 65.5746 51.3657 62.7847C51.5589 60.399 50.4943 58.6282 48.0732 57.6054C45.362 56.4503 40.9782 56.5825 38.6864 56.7148C38.0405 56.7809 37.4925 57.3088 37.4602 58.0011C37.2661 62.1906 36.6211 76.2118 36.4918 78.6863C36.4594 79.1481 36.8207 79.5863 37.2615 79.7082C37.8539 79.8725 38.4591 80.0189 39.9136 79.9726C42.1388 79.9018 44.0886 79.7884 47.0605 79.0735C49.7745 78.4209 52.6105 76.7549 52.6123 73.0036C52.6132 69.2626 48.673 67.2425 48.6942 66.7013ZM41.9863 61.6957C41.9983 61.437 42.2229 61.2443 42.4743 61.2793C43.6691 61.4464 46.7481 62.0263 46.6917 63.5695C46.6354 65.1184 43.4806 65.3328 42.2765 65.3583C42.027 65.364 41.8265 65.1515 41.8385 64.8965L41.9863 61.6957ZM42.0094 74.4004C41.6703 74.4061 41.3977 74.1936 41.4143 73.9386L41.5492 70.7161C41.5659 70.4573 41.9374 70.2864 42.2783 70.3214C43.902 70.4885 48.0853 71.0684 48.0095 72.6116C47.9328 74.1605 43.6451 74.3749 42.0094 74.4004Z" fill="#505DD6"/>
<path d="M33.9525 11.2643C33.3066 8.10613 31.7514 6.25974 29.9947 6.01891C28.238 5.77713 26.4666 6.0803 25.3817 8.01924C24.3911 9.78818 23.8948 13.1476 23.6324 14.6927C23.2055 17.2068 23.1057 19.1193 23.0419 20.6143C23.0124 21.3104 23.5566 21.8903 24.2386 21.8903H26.5155C27.1772 21.8903 27.7131 21.3425 27.7131 20.6663V19.7218C27.7131 19.5008 27.8878 19.3223 28.104 19.3223H29.5567C29.7729 19.3223 29.9476 19.5008 29.9476 19.7218V28.1227C29.9476 28.7989 30.4835 29.3467 31.1452 29.3467H33.3962C34.0579 29.3467 34.5938 28.7989 34.5938 28.1227V22.5287C34.5948 22.5287 34.5985 14.4235 33.9525 11.2643ZM29.6158 15.4463H28.0477C27.8564 15.4463 27.703 15.2877 27.7057 15.0922C27.7196 14.109 27.8471 11.4192 28.8183 11.4192C29.8561 11.4192 29.9559 14.1166 29.9587 15.0959C29.9587 15.2905 29.8053 15.4463 29.6158 15.4463Z" fill="#505DD6"/>
<path d="M30.2424 43.8609C30.2165 43.6276 29.8718 40.7593 28.2482 39.0083L28.2445 39.0046L28.2408 39.0008C27.2132 37.9241 25.9741 37.3782 24.5574 37.3782C24.429 37.3782 24.2978 37.383 24.1666 37.3915C22.713 37.4925 21.301 38.3869 20.1884 39.9103C18.7228 41.8993 17.796 45.0367 17.8828 47.7152C18.014 51.8122 20.193 54.3102 23.711 54.398C23.7692 54.3999 23.8339 54.4009 23.8976 54.4009C25.1341 54.4009 26.3197 53.9778 27.3251 53.1769C28.4312 52.3203 29.0771 51.2285 29.4246 50.4616L29.4264 50.4578L29.4283 50.454C29.8007 49.6031 30.0594 48.6521 30.1768 47.7029C30.4734 45.7309 30.2646 44.0281 30.2424 43.8609ZM25.7883 46.1228C25.4954 48.3376 24.5048 50.0291 23.5751 49.9006C22.6455 49.7722 22.1299 47.8729 22.4228 45.6582C22.7158 43.4435 23.7064 41.752 24.636 41.8804C25.5656 42.0088 26.0812 43.9081 25.7883 46.1228Z" fill="#505DD6"/>
<path d="M30.7376 75.2391H24.0879C23.6009 75.2391 23.2137 74.8235 23.2359 74.3267L23.527 57.8934C23.5593 57.1955 23.0141 56.6118 22.3303 56.6118H20.07C19.4306 56.6118 18.9038 57.1256 18.8733 57.7782L18.3457 78.7165C18.3124 79.4154 18.8576 80 19.5424 80H22.9753H30.7367C31.3983 80 31.9343 79.4522 31.9343 78.776V76.4631C31.9352 75.7868 31.3992 75.2391 30.7376 75.2391Z" fill="#505DD6"/>
</svg>
