<svg width="101" height="83" viewBox="0 0 101 83" fill="none" xmlns="http://www.w3.org/2000/svg">
                        <g clip-path="url(#clip0_2396_1211)">
                            <path
                                d="M49.3986 6.35407C49.3986 6.35407 48.4117 5.75799 48.0947 6.75468C47.8582 7.49906 48.0707 8.35901 48.664 9.18429C49.2572 10.0096 50.3236 10.0548 50.7413 9.68119C51.1544 9.3114 51.3503 8.74517 51.147 8.20108C50.9446 7.65603 50.4696 6.94824 49.3986 6.35407Z"
                                fill="#505DD6" />
                            <path
                                d="M56.9338 3.38333C57.1224 3.06458 57.6666 2.46079 58.2932 2.89413C58.9197 3.32844 59.1692 4.09497 59.1969 5.12536C59.2246 6.15576 58.4151 6.88185 57.8653 6.8597C57.322 6.83755 56.8303 6.52073 56.6649 5.9622C56.4986 5.40367 56.2981 4.45994 56.9338 3.38333Z"
                                fill="#505DD6" />
                            <path
                                d="M51.8605 3.15683C51.8605 3.15683 51.2396 2.29111 50.7202 2.11488C50.2674 1.9608 49.4598 2.02532 49.3591 3.30802C49.2593 4.58108 49.8387 5.64422 50.1538 5.97548C50.4818 6.3212 51.112 6.73817 51.8171 6.42424C52.4455 6.14497 52.78 5.31873 52.6663 4.69857C52.5527 4.07841 52.1147 3.47173 51.8605 3.15683Z"
                                fill="#505DD6" />
                            <path
                                d="M53.0653 2.61961C53.0653 2.61961 53.1577 1.54299 53.5116 1.10869C53.8194 0.730232 54.4256 0.403781 55.2905 1.30899C56.1554 2.21419 56.0325 3.62978 55.9383 4.08527C55.8237 4.6361 55.5058 5.25818 54.7471 5.37759C54.0716 5.48352 53.3712 4.96351 53.1559 4.3732C52.9406 3.78289 53.0071 3.02599 53.0653 2.61961Z"
                                fill="#505DD6" />
                            <path
                                d="M74.0204 23.8225C71.4746 23.4315 71.8507 26.2887 70.764 26.4476C69.9776 26.5622 69.4315 25.8476 69.3575 24.9068C69.3585 19.2001 69.3594 9.97668 69.3594 9.68393C69.3594 9.25926 69.3668 7.45463 67.8328 6.9115C66.1842 6.32793 65.2796 8.0199 65.2796 8.0199L60.9789 17.4485C60.9336 17.5486 60.7969 17.5486 60.7516 17.4485L56.4518 8.0199C56.4518 8.0199 55.6377 6.36549 53.8986 6.9115C52.3471 7.39974 52.3711 9.26022 52.3711 9.6849C52.3711 10.0441 52.373 25.1389 52.3739 29.4049C52.3739 30.0934 52.9099 30.65 53.5706 30.65H55.8355C56.4962 30.65 57.0312 30.0915 57.0312 29.403V21.519C57.0312 21.3784 57.2151 21.336 57.2715 21.4641L58.507 24.2443C58.7029 24.6853 59.1261 24.9675 59.5928 24.9675H60.8662H62.1396C62.6053 24.9675 63.0294 24.6853 63.2253 24.2443L64.4645 21.4555C64.5209 21.3283 64.7039 21.3698 64.7048 21.5094L64.7242 24.5726C64.9525 30.4777 68.9796 30.7126 71.1318 30.6414C75.2781 30.5046 76.266 24.1672 74.0204 23.8225Z"
                                fill="#505DD6" />
                            <path
                                d="M96.5211 43.9932C95.8752 40.773 94.32 38.8903 92.5633 38.6448C90.8066 38.3982 89.0352 38.7074 87.9503 40.6844C86.9597 42.488 86.4635 45.9134 86.201 47.4888C85.7741 50.0523 85.6743 53.6394 85.6105 55.1638C85.581 55.8735 86.1252 56.4648 86.8072 56.4648H89.0841C89.7458 56.4648 90.2817 55.9062 90.2817 55.2168V52.6167C90.2817 52.3914 90.4564 52.2094 90.6726 52.2094H92.1253C92.3415 52.2094 92.5162 52.3914 92.5162 52.6167V55.2168C92.5162 55.9062 93.0521 56.4648 93.7138 56.4648H95.9648C96.6265 56.4648 97.1624 55.9062 97.1624 55.2168V55.4787C97.1643 55.4787 97.1671 47.2134 96.5211 43.9932ZM90.6033 47.9424C90.412 47.9424 90.2586 47.7806 90.2614 47.5813C90.2753 46.5788 90.4028 43.8362 91.374 43.8362C92.4117 43.8362 92.5115 46.5865 92.5143 47.5851C92.5143 47.7825 92.3618 47.9424 92.1724 47.9424H90.6033Z"
                                fill="#505DD6" />
                            <path
                                d="M94.2894 19.4303C92.9957 18.5348 92.2499 18.294 90.6356 17.3041C89.4222 16.5606 88.1516 16.0936 88.4963 14.3949C88.8419 12.6307 89.8963 11.5531 91.0856 11.6542C92.2952 11.7573 92.4338 12.9716 92.4495 14.0203L92.4468 14.0213L92.4449 14.5278C92.4357 14.7165 92.4209 15.069 92.4209 15.3415C92.3959 15.5957 92.4865 15.8288 92.6454 16.0127C92.8607 16.3449 93.2258 16.5645 93.6397 16.5645H95.8825C96.3898 16.5645 96.8223 16.2361 96.9969 15.7739C97.0108 15.7508 97.0209 15.7209 97.0274 15.6843C97.0635 15.563 97.0819 15.4349 97.0801 15.3011L97.0477 12.7838C97.0099 11.2257 96.7271 10.1924 95.7226 8.91936C94.4668 7.35163 92.772 6.69776 91.0135 6.76324C88.0315 6.89421 84.7196 9.00603 83.8094 13.4483C83.7567 13.717 83.7133 13.9673 83.6791 14.2023C83.6791 14.2023 82.7254 17.8896 86.3192 20.3076C86.3386 20.3211 86.3589 20.3346 86.3783 20.3481C86.3922 20.3567 86.4042 20.3664 86.4181 20.376C86.4818 20.4174 86.5419 20.4559 86.6038 20.4954C86.6288 20.5108 86.6528 20.5272 86.6777 20.5426C90.1689 22.7719 90.9692 22.4243 92.1261 23.7541C92.2786 23.9698 92.3617 24.3223 92.3497 24.5707C92.2296 26.9657 88.8558 26.7095 88.3429 24.4311C88.3106 24.2876 88.2893 24.0536 88.2764 23.8004C88.2413 23.1398 87.7173 22.6217 87.0806 22.6217H84.7917C84.13 22.6217 83.5941 23.1792 83.5941 23.8678C83.5941 23.8678 83.3547 26.3715 85.4598 28.7568C87.1804 30.7069 89.9434 30.6722 91.0144 30.6424C96.1588 30.496 97.0062 26.9628 97.1272 24.4802C97.2547 21.8571 95.9167 20.557 94.2894 19.4303Z"
                                fill="#505DD6" />
                            <path
                                d="M88.2617 32.6021H76.391C75.7293 32.6021 75.1934 33.1606 75.1934 33.8501V36.2084C75.1934 36.8979 75.7293 37.4565 76.391 37.4565H80.1704L79.4811 55.1648C79.4534 55.8735 79.9967 56.4638 80.6778 56.4638H82.939C83.5812 56.4638 84.1089 55.9361 84.1357 55.2668L84.8297 37.4555H88.2617C88.9233 37.4555 89.4593 36.897 89.4593 36.2075V33.8491C89.4602 33.1615 88.9233 32.6021 88.2617 32.6021Z"
                                fill="#505DD6" />
                            <path
                                d="M64.4532 62.287H62.1901C61.5285 62.287 60.9925 62.8456 60.9925 63.535V64.4932C60.9556 65.4196 61.2587 77.7198 58.8403 77.3779C57.3008 77.1603 56.9081 69.573 57.0864 57.7437C57.0874 57.7437 57.1668 37.7685 59.209 37.5094C60.683 37.3226 60.4335 46.5576 60.4704 47.484V48.7629C60.4704 49.4524 61.0064 50.0109 61.668 50.0109H63.9311C64.5927 50.0109 65.1287 49.4524 65.1287 48.7629V46.6337C65.1287 46.6337 65.5538 32.655 59.8383 32.655C55.7114 32.655 53.9002 34.1448 52.9096 40.6449C52.1629 45.5436 52.1629 69.4093 52.9096 74.307C53.9002 80.8081 55.7123 82.3084 59.8383 82.2969C66.3448 82.2786 65.6508 63.536 65.6508 63.536C65.6508 62.8465 65.1148 62.287 64.4532 62.287Z"
                                fill="#505DD6" />
                            <path
                                d="M82.5649 59.4078H80.3018C79.6401 59.4078 79.1042 59.9664 79.1042 60.6559V65.934C79.1042 65.934 79.4378 70.7643 78.3446 70.7855C77.1322 70.7643 77.3761 66.5753 77.354 65.8791V59.6958C77.354 59.0063 76.818 58.4478 76.1564 58.4478H73.8933C73.2317 58.4478 72.6957 59.0063 72.6957 59.6958V66.0207C72.6957 66.0207 72.5506 76.1195 77.9999 76.1195C83.9639 76.1195 83.7606 66.324 83.7578 65.934H83.7625V60.6559C83.7625 59.9664 83.2256 59.4078 82.5649 59.4078Z"
                                fill="#505DD6" />
                            <path
                                d="M96.6947 68.737C96.7095 68.3441 99.1408 67.5882 99.3662 64.7435C99.5594 62.311 98.4948 60.5054 96.0737 59.4625C93.3625 58.2848 88.9787 58.4196 86.6869 58.5544C86.041 58.6218 85.493 59.1602 85.4607 59.866C85.2666 64.1378 84.6216 78.4343 84.4922 80.9573C84.4599 81.4282 84.8212 81.875 85.262 81.9992C85.8543 82.1668 86.4596 82.3161 87.9141 82.2689C90.1393 82.1967 92.0891 82.0811 95.0609 81.3521C97.775 80.6867 100.611 78.988 100.613 75.163C100.614 71.3486 96.6735 69.2888 96.6947 68.737ZM89.9868 63.6332C89.9988 63.3694 90.2234 63.1729 90.4747 63.2085C91.6696 63.379 94.7486 63.9703 94.6922 65.5438C94.6359 67.1231 91.4811 67.3417 90.277 67.3677C90.0275 67.3734 89.827 67.1568 89.839 66.8968L89.9868 63.6332ZM90.0099 76.5873C89.6708 76.5931 89.3982 76.3764 89.4148 76.1164L89.5497 72.8307C89.5664 72.5668 89.9378 72.3925 90.2788 72.4281C91.9024 72.5986 96.0857 73.1899 96.01 74.7634C95.9333 76.3427 91.6455 76.5613 90.0099 76.5873Z"
                                fill="#505DD6" />
                            <path
                                d="M81.9528 12.2119C81.3068 8.9917 79.7516 7.10907 77.9949 6.86351C76.2383 6.61698 74.4668 6.9261 73.3819 8.90311C72.3913 10.7068 71.8951 14.1321 71.6327 15.7076C71.2057 18.271 71.1059 20.2211 71.0422 21.7455C71.0126 22.4552 71.5569 23.0465 72.2388 23.0465H74.5158C75.1774 23.0465 75.7134 22.4879 75.7134 21.7984V20.8354C75.7134 20.6101 75.888 20.4281 76.1043 20.4281H77.5569C77.7732 20.4281 77.9478 20.6101 77.9478 20.8354V29.4012C77.9478 30.0907 78.4838 30.6492 79.1454 30.6492H81.3965C82.0581 30.6492 82.5941 30.0907 82.5941 29.4012V23.6974C82.595 23.6974 82.5987 15.4331 81.9528 12.2119ZM77.6161 16.476H76.0479C75.8566 16.476 75.7032 16.3142 75.706 16.1149C75.7199 15.1124 75.8474 12.3699 76.8186 12.3699C77.8563 12.3699 77.9561 15.1201 77.9589 16.1187C77.9589 16.3171 77.8055 16.476 77.6161 16.476Z"
                                fill="#505DD6" />
                            <path
                                d="M78.2421 45.4483C78.2163 45.2104 77.8716 42.2859 76.248 40.5005L76.2443 40.4966L76.2406 40.4928C75.213 39.395 73.9738 38.8384 72.5572 38.8384C72.4287 38.8384 72.2975 38.8432 72.1663 38.8519C70.7127 38.9549 69.3007 39.8668 68.1882 41.4201C66.7226 43.4482 65.7957 46.6472 65.8826 49.3782C66.0138 53.5557 68.1928 56.1028 71.7107 56.1923C71.769 56.1942 71.8336 56.1952 71.8974 56.1952C73.1338 56.1952 74.3194 55.7638 75.3248 54.9472C76.4309 54.0738 77.0769 52.9605 77.4243 52.1786L77.4262 52.1748L77.428 52.1709C77.8004 51.3032 78.0592 50.3335 78.1765 49.3657C78.4732 47.355 78.2643 45.6188 78.2421 45.4483ZM73.7881 47.7547C73.4951 50.0128 72.5045 51.7376 71.5749 51.6066C70.6453 51.4756 70.1296 49.5391 70.4226 47.2809C70.7155 45.0227 71.7061 43.298 72.6357 43.4289C73.5654 43.5599 74.081 45.4965 73.7881 47.7547Z"
                                fill="#505DD6" />
                            <path
                                d="M78.739 77.4424H72.0894C71.6024 77.4424 71.2152 77.0187 71.2374 76.5122L71.5285 59.7562C71.5608 59.0446 71.0156 58.4495 70.3318 58.4495H68.0715C67.432 58.4495 66.9053 58.9733 66.8748 59.6388L66.3471 80.9881C66.3139 81.7007 66.8591 82.2968 67.5438 82.2968H70.9768H78.7381C79.3998 82.2968 79.9357 81.7383 79.9357 81.0488V78.6904C79.9367 78.0009 79.4007 77.4424 78.739 77.4424Z"
                                fill="#505DD6" />
                        </g>
                        <path
                            d="M44.5 12.9619H29.5M21.5 42.0214C25.3333 45.2503 35.3 49.7706 44.5 42.0214M21.5 42.0214L29.5 12.9619M21.5 42.0214C16.3537 45.8999 12.1762 46.9679 8 46.1M29.5 12.9619H18.329C15.6762 12.9619 13.2513 14.4615 12.0662 16.835L3.19767 34.5973C1.32583 38.3464 1.98778 43.3723 5.72434 45.2689C6.46327 45.6439 7.22829 45.9396 8 46.1M8 46.1V73.2576C8 77.1236 11.134 80.2576 15 80.2576H44.5"
                            stroke="#505DD6" stroke-width="4" stroke-linecap="round" stroke-linejoin="round" />
                        <path
                            d="M24.5 79.7478V55.7668C24.5 55.2146 24.9477 54.7668 25.5 54.7668H39.5C40.0523 54.7668 40.5 55.2146 40.5 55.7668V79.7478"
                            stroke="#505DD6" stroke-width="4" />
                        <defs>
                            <clipPath id="clip0_2396_1211">
                                <rect width="52.6115" height="81.5705" fill="white"
                                    transform="translate(48 0.726318)" />
                            </clipPath>
                        </defs>
                    </svg>