<svg width="128" height="195" viewBox="0 0 128 195" fill="none" xmlns="http://www.w3.org/2000/svg">
<g clip-path="url(#clip0_2060_4200)">
<path d="M3.40079 13.4026C3.40079 13.4026 0.999695 11.983 0.228557 14.3566C-0.346987 16.1294 0.170103 18.1775 1.61346 20.1429C3.05681 22.1084 5.65126 22.2161 6.66745 21.3263C7.6724 20.4456 8.14903 19.0971 7.65442 17.8013C7.16206 16.5033 6.00647 14.8176 3.40079 13.4026Z" fill="#FDE3C4"/>
<path d="M21.7321 6.32742C22.1908 5.5683 23.515 4.13033 25.0393 5.16236C26.5636 6.19669 27.1706 8.02225 27.238 10.4762C27.3055 12.9301 25.336 14.6594 23.9983 14.6066C22.6764 14.5539 21.4803 13.7993 21.0779 12.4692C20.6732 11.139 20.1854 8.89145 21.7321 6.32742Z" fill="#FDE3C4"/>
<path d="M9.38906 5.78861C9.38906 5.78861 7.87826 3.72683 6.61476 3.30714C5.51313 2.94019 3.54819 3.09385 3.30314 6.14867C3.06033 9.18056 4.46996 11.7125 5.2366 12.5014C6.03472 13.3247 7.568 14.3178 9.28339 13.5701C10.8122 12.9051 11.626 10.9373 11.3495 9.46036C11.073 7.9834 10.0073 6.53855 9.38906 5.78861Z" fill="#FDE3C4"/>
<path d="M12.3196 4.50899C12.3196 4.50899 12.5444 1.94496 13.4055 0.910631C14.1541 0.00932115 15.6289 -0.768144 17.7333 1.38766C19.8376 3.54346 19.5386 6.91478 19.3093 7.99956C19.0305 9.31139 18.2571 10.7929 16.4113 11.0773C14.7679 11.3296 13.0637 10.0911 12.5399 8.68529C12.0161 7.27943 12.1779 5.47681 12.3196 4.50899Z" fill="#FDE3C4"/>
<path d="M63.3022 55.0051C57.1083 54.074 58.0233 60.8786 55.3794 61.257C53.4662 61.5299 52.1375 59.8282 51.9576 57.5875C51.9599 43.9968 51.9621 22.0305 51.9621 21.3333C51.9621 20.3219 51.9801 16.024 48.2481 14.7306C44.2373 13.3408 42.0363 17.3703 42.0363 17.3703L31.5731 39.825C31.4629 40.0636 31.1302 40.0636 31.02 39.825L20.559 17.3703C20.559 17.3703 18.5784 13.4302 14.3472 14.7306C10.5725 15.8933 10.6309 20.3242 10.6309 21.3356C10.6309 22.191 10.6354 58.1402 10.6377 68.3C10.6377 69.9398 11.9416 71.2654 13.5491 71.2654H19.0595C20.667 71.2654 21.9687 69.9352 21.9687 68.2954V49.5193C21.9687 49.1845 22.4161 49.0835 22.5532 49.3886L25.5591 56.0096C26.0357 57.06 27.0654 57.732 28.2007 57.732H31.2988H34.3968C35.5299 57.732 36.5619 57.06 37.0385 56.0096L40.0533 49.3679C40.1905 49.0652 40.6356 49.1638 40.6379 49.4964L40.6851 56.7917C41.2404 70.8549 51.0381 71.4145 56.2742 71.2448C66.362 70.9191 68.7653 55.8262 63.3022 55.0051Z" fill="#FDE3C4"/>
<path d="M118.046 103.043C116.474 95.374 112.69 90.8904 108.416 90.3055C104.143 89.7184 99.8327 90.4546 97.1933 95.163C94.7832 99.4585 93.576 107.616 92.9375 111.368C91.8988 117.473 91.656 126.016 91.5008 129.647C91.4289 131.337 92.7531 132.745 94.4123 132.745H99.9519C101.562 132.745 102.866 131.415 102.866 129.773V123.581C102.866 123.044 103.29 122.611 103.817 122.611H107.351C107.877 122.611 108.302 123.044 108.302 123.581V129.773C108.302 131.415 109.606 132.745 111.215 132.745H116.692C118.302 132.745 119.606 131.415 119.606 129.773V130.397C119.61 130.397 119.617 110.712 118.046 103.043ZM103.648 112.448C103.183 112.448 102.809 112.063 102.816 111.588C102.85 109.201 103.16 102.669 105.523 102.669C108.048 102.669 108.291 109.219 108.297 111.598C108.297 112.068 107.926 112.448 107.465 112.448H103.648Z" fill="#FDE3C4"/>
<path d="M112.616 44.5448C109.469 42.4119 107.655 41.8386 103.727 39.481C100.775 37.7105 97.6837 36.5982 98.5223 32.5526C99.3631 28.351 101.928 25.7847 104.822 26.0255C107.765 26.2709 108.102 29.1629 108.14 31.6604L108.133 31.6627L108.129 32.8691C108.106 33.3186 108.07 34.158 108.07 34.807C108.01 35.4125 108.23 35.9675 108.617 36.4055C109.141 37.1967 110.029 37.7196 111.036 37.7196H116.492C117.727 37.7196 118.779 36.9376 119.204 35.8367C119.237 35.7817 119.262 35.7106 119.278 35.6235C119.366 35.3345 119.41 35.0295 119.406 34.7107L119.327 28.7157C119.235 25.005 118.547 22.5441 116.103 19.5122C113.048 15.7786 108.925 14.2214 104.646 14.3773C97.3914 14.6892 89.3338 19.7187 87.1193 30.2982C86.9912 30.938 86.8855 31.5343 86.8023 32.0939C86.8023 32.0939 84.4822 40.8754 93.2255 46.6341C93.2727 46.6662 93.3222 46.6983 93.3694 46.7304C93.4031 46.7511 93.4323 46.774 93.4661 46.7969C93.6212 46.8956 93.7673 46.9873 93.918 47.0813C93.9787 47.118 94.0371 47.157 94.0978 47.1937C102.592 52.5029 104.539 51.675 107.353 54.8422C107.724 55.3559 107.927 56.1953 107.897 56.787C107.605 62.4907 99.3969 61.8807 98.1491 56.4545C98.0704 56.1128 98.0187 55.5555 97.9872 54.9523C97.9018 53.379 96.6271 52.1452 95.078 52.1452H89.5092C87.8995 52.1452 86.5955 53.4731 86.5955 55.1128C86.5955 55.1128 86.0132 61.0757 91.1347 66.7565C95.3208 71.4006 102.043 71.3181 104.649 71.247C117.165 70.8984 119.226 62.4839 119.521 56.5715C119.831 50.3242 116.575 47.2281 112.616 44.5448Z" fill="#FDE3C4"/>
<path d="M97.9486 75.9141H69.068C67.4583 75.9141 66.1543 77.2442 66.1543 78.8863V84.5029C66.1543 86.145 67.4583 87.4751 69.068 87.4751H78.2632L76.586 129.649C76.5186 131.337 77.8405 132.742 79.4975 132.742H84.9988C86.5614 132.742 87.8451 131.486 87.9103 129.892L89.5987 87.4728H97.9486C99.5583 87.4728 100.862 86.1427 100.862 84.5006V78.884C100.865 77.2465 99.5583 75.9141 97.9486 75.9141Z" fill="#FDE3C4"/>
<path d="M40.0292 146.611H34.5233C32.9136 146.611 31.6096 147.941 31.6096 149.583V151.865C31.5197 154.071 32.2571 183.365 26.3735 182.551C22.628 182.033 21.6725 163.963 22.1064 135.791C22.1086 135.791 22.302 88.2185 27.2705 87.6016C30.8565 87.1567 30.2494 109.15 30.3394 111.357V114.402C30.3394 116.044 31.6433 117.375 33.2531 117.375H38.7589C40.3687 117.375 41.6726 116.044 41.6726 114.402V109.332C41.6726 109.332 42.7068 76.0405 28.8016 76.0405C18.761 76.0405 14.3545 79.5884 11.9445 95.0689C10.1279 106.736 10.1279 163.573 11.9445 175.237C14.3545 190.72 18.7633 194.293 28.8016 194.266C44.6313 194.222 42.9429 149.586 42.9429 149.586C42.9429 147.943 41.6389 146.611 40.0292 146.611Z" fill="#FDE3C4"/>
<path d="M84.0919 139.754H78.5861C76.9763 139.754 75.6724 141.084 75.6724 142.726V155.296C75.6724 155.296 76.484 166.8 73.8243 166.85C70.8747 166.8 71.4682 156.824 71.4142 155.166V140.44C71.4142 138.797 70.1103 137.467 68.5006 137.467H62.9947C61.385 137.467 60.081 138.797 60.081 140.44V155.503C60.081 155.503 59.728 179.554 72.9858 179.554C87.4957 179.554 87.0011 156.225 86.9944 155.296H87.0056V142.726C87.0056 141.084 85.6994 139.754 84.0919 139.754Z" fill="#FDE3C4"/>
<path d="M118.468 161.972C118.504 161.036 124.419 159.236 124.968 152.461C125.437 146.668 122.848 142.368 116.957 139.884C110.361 137.079 99.6954 137.4 94.1198 137.721C92.5483 137.882 91.2151 139.164 91.1364 140.845C90.6643 151.019 89.095 185.067 88.7803 191.075C88.7016 192.197 89.5807 193.261 90.6531 193.557C92.0942 193.956 93.5667 194.311 97.1054 194.199C102.519 194.027 107.263 193.752 114.493 192.016C121.096 190.431 127.996 186.385 128 177.276C128.003 168.192 118.416 163.286 118.468 161.972ZM102.148 149.817C102.177 149.188 102.724 148.721 103.335 148.805C106.242 149.211 113.733 150.62 113.596 154.367C113.459 158.128 105.784 158.649 102.854 158.711C102.247 158.724 101.759 158.208 101.788 157.589L102.148 149.817ZM102.204 180.668C101.379 180.682 100.716 180.166 100.757 179.546L101.085 171.721C101.125 171.093 102.029 170.678 102.859 170.763C106.809 171.169 116.986 172.577 116.802 176.324C116.615 180.085 106.184 180.606 102.204 180.668Z" fill="#FDE3C4"/>
<path d="M82.6022 27.3537C81.0307 19.6845 77.2469 15.2009 72.9731 14.6161C68.6992 14.029 64.3894 14.7652 61.75 19.4735C59.3399 23.7691 58.1326 31.9268 57.4941 35.6788C56.4554 41.7838 56.2126 46.428 56.0575 50.0584C55.9855 51.7487 57.3097 53.1568 58.9689 53.1568H64.5085C66.1183 53.1568 67.4222 51.8267 67.4222 50.1846V47.8912C67.4222 47.3545 67.8471 46.9211 68.3732 46.9211H71.9074C72.4335 46.9211 72.8584 47.3545 72.8584 47.8912V68.291C72.8584 69.9331 74.1624 71.2633 75.7721 71.2633H81.2488C82.8585 71.2633 84.1624 69.9331 84.1624 68.291V54.7072C84.1647 54.7072 84.1737 35.0251 82.6022 27.3537ZM72.0513 37.5089H68.2361C67.7707 37.5089 67.3975 37.1236 67.4042 36.6489C67.438 34.2614 67.7482 27.7298 70.1111 27.7298C72.6358 27.7298 72.8786 34.2798 72.8854 36.6581C72.8854 37.1305 72.5122 37.5089 72.0513 37.5089Z" fill="#FDE3C4"/>
<path d="M73.5758 106.509C73.5128 105.942 72.6742 98.977 68.7241 94.725L68.7151 94.7159L68.7061 94.7067C66.2061 92.0922 63.1912 90.7666 59.7447 90.7666C59.4322 90.7666 59.113 90.7781 58.7937 90.7987C55.2573 91.0441 51.822 93.216 49.1152 96.9152C45.5495 101.745 43.2945 109.364 43.5059 115.868C43.8251 125.817 49.1264 131.883 57.6854 132.096C57.827 132.101 57.9844 132.103 58.1395 132.103C61.1476 132.103 64.0321 131.076 66.4781 129.131C69.1693 127.051 70.7408 124.399 71.5861 122.537L71.5906 122.528L71.5951 122.519C72.5011 120.452 73.1306 118.143 73.4161 115.838C74.1378 111.05 73.6297 106.915 73.5758 106.509ZM62.7394 112.001C62.0267 117.379 59.6166 121.487 57.3549 121.175C55.0932 120.863 53.8387 116.251 54.5513 110.873C55.264 105.495 57.6741 101.387 59.9358 101.699C62.1975 102.011 63.452 106.623 62.7394 112.001Z" fill="#FDE3C4"/>
<path d="M74.781 182.705H58.6028C57.418 182.705 56.476 181.695 56.53 180.489L57.2382 140.584C57.3169 138.889 55.9904 137.472 54.3267 137.472H48.8276C47.2718 137.472 45.9903 138.719 45.9162 140.304L44.6324 191.149C44.5515 192.846 45.8779 194.266 47.5439 194.266H55.896H74.7788C76.3885 194.266 77.6925 192.935 77.6925 191.293V185.677C77.6947 184.035 76.3907 182.705 74.781 182.705Z" fill="#FDE3C4"/>
</g>
<defs>
<clipPath id="clip0_2060_4200">
<rect width="128" height="194.266" fill="white"/>
</clipPath>
</defs>
</svg>
