<svg width="53" height="80" viewBox="0 0 53 80" fill="none" xmlns="http://www.w3.org/2000/svg">
<g clip-path="url(#clip0_812_13409)">
<path d="M1.39813 5.51931C1.39813 5.51931 0.411217 4.9347 0.0942576 5.9122C-0.142307 6.64225 0.0702316 7.48564 0.66349 8.29503C1.25675 9.10442 2.32314 9.1488 2.74082 8.78236C3.15388 8.41969 3.34979 7.86436 3.14649 7.33075C2.94412 6.7962 2.46914 6.10203 1.39813 5.51931Z" fill="#FAE6CE"/>
<path d="M8.93302 2.60568C9.12153 2.29307 9.66581 1.7009 10.2923 2.1259C10.9189 2.55184 11.1684 3.30362 11.1961 4.31417C11.2238 5.32473 10.4143 6.03684 9.86449 6.01512C9.32113 5.99339 8.82952 5.68267 8.66411 5.13489C8.49778 4.58712 8.29725 3.66156 8.93302 2.60568Z" fill="#FAE6CE"/>
<path d="M3.85989 2.38379C3.85989 2.38379 3.23891 1.53474 2.71957 1.3619C2.26677 1.21079 1.45913 1.27407 1.3584 2.53207C1.2586 3.78062 1.838 4.82329 2.15311 5.14818C2.48116 5.48723 3.11138 5.89618 3.81645 5.58829C4.44483 5.3144 4.77935 4.50407 4.66568 3.89585C4.55202 3.28762 4.11401 2.69263 3.85989 2.38379Z" fill="#FAE6CE"/>
<path d="M5.06396 1.85677C5.06396 1.85677 5.15637 0.800887 5.51029 0.374944C5.81801 0.00377749 6.42421 -0.316389 7.28915 0.571388C8.15408 1.45916 8.03118 2.8475 7.93693 3.29422C7.82234 3.83444 7.50446 4.44455 6.74579 4.56166C6.07029 4.66555 5.36983 4.15555 5.15452 3.57661C4.93921 2.99766 5.00575 2.25533 5.06396 1.85677Z" fill="#FAE6CE"/>
<path d="M26.0193 22.6515C23.4735 22.268 23.8496 25.0702 22.7628 25.226C21.9764 25.3384 21.4303 24.6377 21.3564 23.7149C21.3573 18.1182 21.3582 9.07229 21.3582 8.78518C21.3582 8.36868 21.3656 6.59879 19.8317 6.06613C18.1831 5.4938 17.2784 7.15318 17.2784 7.15318L12.9778 16.4002C12.9325 16.4984 12.7957 16.4984 12.7504 16.4002L8.4507 7.15318C8.4507 7.15318 7.63659 5.53063 5.89747 6.06613C4.34594 6.54496 4.36997 8.36962 4.36997 8.78612C4.36997 9.1384 4.37182 23.9425 4.37274 28.1264C4.37274 28.8017 4.90871 29.3476 5.56943 29.3476H7.83434C8.49506 29.3476 9.0301 28.7998 9.0301 28.1245V20.3924C9.0301 20.2545 9.21399 20.2129 9.27036 20.3386L10.5059 23.0652C10.7018 23.4977 11.125 23.7744 11.5916 23.7744H12.865H14.1384C14.6041 23.7744 15.0283 23.4977 15.2242 23.0652L16.4634 20.3301C16.5198 20.2054 16.7027 20.246 16.7037 20.3829L16.7231 23.3872C16.9513 29.1785 20.9784 29.409 23.1306 29.3391C27.277 29.205 28.2648 22.9896 26.0193 22.6515Z" fill="#FAE6CE"/>
<path d="M48.5206 42.4338C47.8747 39.2756 46.3195 37.4292 44.5628 37.1884C42.8061 36.9466 41.0347 37.2498 39.9498 39.1887C38.9592 40.9577 38.4629 44.3171 38.2005 45.8622C37.7736 48.3763 37.6738 51.8943 37.61 53.3894C37.5805 54.0854 38.1247 54.6653 38.8067 54.6653H41.0836C41.7453 54.6653 42.2812 54.1175 42.2812 53.4413V50.8913C42.2812 50.6703 42.4559 50.4918 42.6721 50.4918H44.1248C44.341 50.4918 44.5157 50.6703 44.5157 50.8913V53.4413C44.5157 54.1175 45.0516 54.6653 45.7133 54.6653H47.9643C48.626 54.6653 49.1619 54.1175 49.1619 53.4413V53.6982C49.1638 53.6982 49.1666 45.5921 48.5206 42.4338ZM42.6028 46.307C42.4115 46.307 42.2581 46.1483 42.2609 45.9528C42.2748 44.9697 42.4023 42.2799 43.3735 42.2799C44.4112 42.2799 44.511 44.9772 44.5138 45.9566C44.5138 46.1502 44.3613 46.307 44.1719 46.307H42.6028Z" fill="#FAE6CE"/>
<path d="M46.289 18.3439C44.9953 17.4656 44.2495 17.2295 42.6352 16.2586C41.4218 15.5295 40.1512 15.0714 40.4959 13.4054C40.8415 11.6752 41.8959 10.6183 43.0852 10.7175C44.2948 10.8186 44.4334 12.0095 44.4491 13.038L44.4464 13.039L44.4445 13.5357C44.4353 13.7208 44.4205 14.0665 44.4205 14.3338C44.3955 14.5831 44.4861 14.8117 44.645 14.9921C44.8603 15.3179 45.2254 15.5332 45.6393 15.5332H47.8821C48.3894 15.5332 48.8219 15.2112 48.9965 14.7578C49.0104 14.7352 49.0205 14.7059 49.027 14.67C49.0631 14.551 49.0815 14.4254 49.0797 14.2941L49.0473 11.8253C49.0095 10.2972 48.7267 9.28385 47.7222 8.0353C46.4664 6.49774 44.7716 5.85647 43.0131 5.92069C40.0311 6.04913 36.7192 8.1203 35.809 12.477C35.7563 12.7405 35.7129 12.9861 35.6787 13.2165C35.6787 13.2165 34.725 16.8328 38.3188 19.2043C38.3382 19.2175 38.3585 19.2307 38.3779 19.2439C38.3918 19.2524 38.4038 19.2619 38.4177 19.2713C38.4814 19.3119 38.5415 19.3497 38.6034 19.3884C38.6284 19.4036 38.6524 19.4196 38.6773 19.4347C42.1685 21.6211 42.9688 21.2802 44.1257 22.5844C44.2782 22.796 44.3613 23.1417 44.3493 23.3853C44.2292 25.7342 40.8554 25.4829 40.3425 23.2484C40.3102 23.1077 40.2889 22.8782 40.276 22.6298C40.2409 21.9819 39.7169 21.4738 39.0802 21.4738H36.7913C36.1296 21.4738 35.5937 22.0206 35.5937 22.6959C35.5937 22.6959 35.3543 25.1514 37.4594 27.4908C39.18 29.4033 41.943 29.3693 43.014 29.34C48.1584 29.1965 49.0058 25.7313 49.1268 23.2966C49.2543 20.7239 47.9163 19.4489 46.289 18.3439Z" fill="#FAE6CE"/>
<path d="M40.2603 31.262H28.3896C27.7279 31.262 27.192 31.8098 27.192 32.486V34.799C27.192 35.4752 27.7279 36.023 28.3896 36.023H32.169L31.4797 53.3903C31.452 54.0854 31.9953 54.6644 32.6764 54.6644H34.9376C35.5798 54.6644 36.1075 54.1468 36.1343 53.4904L36.8283 36.022H40.2603C40.9219 36.022 41.4579 35.4742 41.4579 34.798V32.4851C41.4588 31.8107 40.9219 31.262 40.2603 31.262Z" fill="#FAE6CE"/>
<path d="M16.4532 60.3754H14.1902C13.5285 60.3754 12.9926 60.9232 12.9926 61.5994V62.5391C12.9556 63.4477 13.2587 75.5111 10.8404 75.1758C9.30086 74.9623 8.90812 67.5211 9.08647 55.9195C9.08739 55.9195 9.16686 36.329 11.2091 36.0749C12.683 35.8917 12.4335 44.9489 12.4704 45.8574V47.1117C12.4704 47.7879 13.0064 48.3357 13.6681 48.3357H15.9311C16.5928 48.3357 17.1287 47.7879 17.1287 47.1117V45.0235C17.1287 45.0235 17.5538 31.314 11.8384 31.314C7.71144 31.314 5.90024 32.775 4.90963 39.15C4.16298 43.9544 4.16298 67.3605 4.90963 72.164C5.90024 78.5399 7.71236 80.0113 11.8384 80C18.3448 79.9821 17.6508 61.6004 17.6508 61.6004C17.6508 60.9241 17.1149 60.3754 16.4532 60.3754Z" fill="#FAE6CE"/>
<path d="M34.5643 57.5515H32.3012C31.6396 57.5515 31.1036 58.0993 31.1036 58.7755V63.952C31.1036 63.952 31.4372 68.6894 30.344 68.7101C29.1316 68.6894 29.3756 64.581 29.3534 63.8982V57.8339C29.3534 57.1577 28.8174 56.6099 28.1558 56.6099H25.8927C25.2311 56.6099 24.6951 57.1577 24.6951 57.8339V64.037C24.6951 64.037 24.55 73.9414 29.9993 73.9414C35.9633 73.9414 35.76 64.3345 35.7573 63.952H35.7619V58.7755C35.7619 58.0993 35.225 57.5515 34.5643 57.5515Z" fill="#FAE6CE"/>
<path d="M48.6943 66.7013C48.7091 66.316 51.1404 65.5746 51.3659 62.7847C51.559 60.399 50.4945 58.6282 48.0734 57.6054C45.3621 56.4503 40.9783 56.5825 38.6866 56.7148C38.0406 56.7809 37.4927 57.3088 37.4603 58.0011C37.2663 62.1906 36.6213 76.2118 36.4919 78.6863C36.4595 79.1481 36.8209 79.5863 37.2616 79.7082C37.854 79.8725 38.4592 80.0189 39.9137 79.9726C42.1389 79.9018 44.0887 79.7884 47.0606 79.0735C49.7746 78.4209 52.6106 76.7549 52.6124 73.0036C52.6134 69.2626 48.6731 67.2425 48.6943 66.7013ZM41.9865 61.6957C41.9985 61.437 42.223 61.2443 42.4744 61.2793C43.6692 61.4464 46.7482 62.0263 46.6919 63.5695C46.6355 65.1184 43.4807 65.3328 42.2766 65.3583C42.0271 65.364 41.8266 65.1515 41.8386 64.8965L41.9865 61.6957ZM42.0096 74.4004C41.6704 74.4061 41.3978 74.1936 41.4145 73.9386L41.5494 70.7161C41.566 70.4573 41.9375 70.2864 42.2785 70.3214C43.9021 70.4885 48.0854 71.0684 48.0096 72.6116C47.9329 74.1605 43.6452 74.3749 42.0096 74.4004Z" fill="#FAE6CE"/>
<path d="M33.9525 11.2643C33.3066 8.10613 31.7514 6.25974 29.9947 6.01891C28.238 5.77713 26.4666 6.0803 25.3817 8.01924C24.3911 9.78818 23.8948 13.1476 23.6324 14.6927C23.2055 17.2068 23.1057 19.1193 23.0419 20.6143C23.0124 21.3104 23.5566 21.8903 24.2386 21.8903H26.5155C27.1772 21.8903 27.7131 21.3425 27.7131 20.6663V19.7218C27.7131 19.5008 27.8878 19.3223 28.104 19.3223H29.5567C29.7729 19.3223 29.9476 19.5008 29.9476 19.7218V28.1227C29.9476 28.7989 30.4835 29.3467 31.1452 29.3467H33.3962C34.0579 29.3467 34.5938 28.7989 34.5938 28.1227V22.5287C34.5948 22.5287 34.5985 14.4235 33.9525 11.2643ZM29.6158 15.4463H28.0477C27.8564 15.4463 27.703 15.2877 27.7057 15.0922C27.7196 14.109 27.8471 11.4192 28.8183 11.4192C29.8561 11.4192 29.9559 14.1166 29.9587 15.0959C29.9587 15.2905 29.8053 15.4463 29.6158 15.4463Z" fill="#FAE6CE"/>
<path d="M30.2423 43.8609C30.2165 43.6276 29.8718 40.7593 28.2482 39.0083L28.2445 39.0046L28.2408 39.0008C27.2132 37.9241 25.974 37.3782 24.5574 37.3782C24.429 37.3782 24.2977 37.383 24.1665 37.3915C22.7129 37.4925 21.301 38.3869 20.1884 39.9103C18.7228 41.8993 17.7959 45.0367 17.8828 47.7152C18.014 51.8122 20.193 54.3102 23.711 54.398C23.7692 54.3999 23.8339 54.4009 23.8976 54.4009C25.134 54.4009 26.3196 53.9778 27.325 53.1769C28.4312 52.3203 29.0771 51.2285 29.4245 50.4616L29.4264 50.4578L29.4282 50.454C29.8006 49.6031 30.0594 48.6521 30.1767 47.7029C30.4734 45.7309 30.2645 44.0281 30.2423 43.8609ZM25.7883 46.1228C25.4954 48.3376 24.5047 50.0291 23.5751 49.9006C22.6455 49.7722 22.1299 47.8729 22.4228 45.6582C22.7157 43.4435 23.7063 41.752 24.636 41.8804C25.5656 42.0088 26.0812 43.9081 25.7883 46.1228Z" fill="#FAE6CE"/>
<path d="M30.7376 75.2391H24.088C23.601 75.2391 23.2138 74.8235 23.236 74.3267L23.5271 57.8934C23.5594 57.1955 23.0142 56.6118 22.3304 56.6118H20.0701C19.4306 56.6118 18.9039 57.1256 18.8734 57.7782L18.3457 78.7165C18.3125 79.4154 18.8577 80 19.5424 80H22.9754H30.7367C31.3984 80 31.9343 79.4522 31.9343 78.776V76.4631C31.9353 75.7868 31.3993 75.2391 30.7376 75.2391Z" fill="#FAE6CE"/>
</g>
<defs>
<clipPath id="clip0_812_13409">
<rect width="52.6115" height="80" fill="white"/>
</clipPath>
</defs>
</svg>
