<svg width="110" height="110" viewBox="0 0 110 110" fill="none" xmlns="http://www.w3.org/2000/svg">
<circle cx="55" cy="55" r="55" fill="#FFFBF5"/>
<path d="M31.3268 19.2358C31.3268 19.2358 30.3906 18.6812 30.0899 19.6085C29.8655 20.301 30.0671 21.1011 30.6299 21.8689C31.1926 22.6367 32.2042 22.6788 32.6005 22.3312C32.9923 21.9872 33.1781 21.4604 32.9853 20.9542C32.7933 20.4471 32.3427 19.7886 31.3268 19.2358Z" fill="#505DD6"/>
<path d="M38.4744 16.472C38.6533 16.1755 39.1696 15.6137 39.7639 16.0169C40.3583 16.421 40.5949 17.1341 40.6212 18.0927C40.6475 19.0514 39.8796 19.7269 39.3581 19.7063C38.8426 19.6857 38.3763 19.3909 38.2194 18.8713C38.0616 18.3517 37.8713 17.4737 38.4744 16.472Z" fill="#505DD6"/>
<path d="M33.6621 16.2615C33.6621 16.2615 33.073 15.4561 32.5804 15.2921C32.1508 15.1488 31.3847 15.2088 31.2891 16.4022C31.1945 17.5866 31.7441 18.5757 32.043 18.8839C32.3542 19.2055 32.952 19.5934 33.6209 19.3014C34.217 19.0416 34.5343 18.2729 34.4265 17.6959C34.3187 17.1189 33.9032 16.5545 33.6621 16.2615Z" fill="#505DD6"/>
<path d="M34.8041 15.7614C34.8041 15.7614 34.8917 14.7598 35.2274 14.3557C35.5194 14.0036 36.0944 13.6999 36.9149 14.5421C37.7354 15.3843 37.6188 16.7013 37.5294 17.125C37.4207 17.6375 37.1192 18.2162 36.3995 18.3273C35.7587 18.4259 35.0942 17.9421 34.89 17.3929C34.6857 16.8437 34.7488 16.1395 34.8041 15.7614Z" fill="#505DD6"/>
<path d="M54.6825 35.4878C52.2675 35.124 52.6243 37.7822 51.5934 37.93C50.8474 38.0366 50.3293 37.3719 50.2592 36.4966C50.2601 31.1873 50.2609 22.6062 50.2609 22.3339C50.2609 21.9388 50.268 20.2598 48.8128 19.7545C47.249 19.2116 46.3908 20.7857 46.3908 20.7857L42.3111 29.5577C42.2681 29.6508 42.1384 29.6508 42.0954 29.5577L38.0166 20.7857C38.0166 20.7857 37.2443 19.2466 35.5945 19.7545C34.1227 20.2088 34.1455 21.9397 34.1455 22.3348C34.1455 22.669 34.1473 36.7125 34.1482 40.6814C34.1482 41.322 34.6566 41.8398 35.2834 41.8398H37.4319C38.0587 41.8398 38.5662 41.3202 38.5662 40.6796V33.3447C38.5662 33.2139 38.7407 33.1745 38.7941 33.2937L39.9662 35.8802C40.152 36.2905 40.5535 36.553 40.9962 36.553H42.2041H43.4121C43.8539 36.553 44.2562 36.2905 44.4421 35.8802L45.6176 33.2856C45.6711 33.1673 45.8446 33.2059 45.8455 33.3358L45.8639 36.1857C46.0804 41.6794 49.9007 41.898 51.9423 41.8317C55.8756 41.7045 56.8127 35.8085 54.6825 35.4878Z" fill="#505DD6"/>
<path d="M76.0279 54.2538C75.4151 51.2579 73.9398 49.5063 72.2734 49.2779C70.607 49.0485 68.9265 49.3361 67.8974 51.1754C66.9577 52.8535 66.487 56.0403 66.238 57.506C65.833 59.8909 65.7383 63.2282 65.6778 64.6464C65.6498 65.3067 66.1661 65.8568 66.813 65.8568H68.973C69.6006 65.8568 70.1091 65.3372 70.1091 64.6957V62.2767C70.1091 62.0671 70.2747 61.8978 70.4799 61.8978H71.8579C72.063 61.8978 72.2287 62.0671 72.2287 62.2767V64.6957C72.2287 65.3372 72.7371 65.8568 73.3648 65.8568H75.5002C76.1278 65.8568 76.6362 65.3372 76.6362 64.6957V64.9394C76.638 64.9394 76.6406 57.2498 76.0279 54.2538ZM70.4141 57.928C70.2327 57.928 70.0871 57.7774 70.0898 57.592C70.1029 56.6593 70.2239 54.1078 71.1452 54.1078C72.1296 54.1078 72.2243 56.6665 72.2269 57.5956C72.2269 57.7792 72.0823 57.928 71.9026 57.928H70.4141Z" fill="#505DD6"/>
<path d="M73.9107 31.4016C72.6834 30.5684 71.976 30.3444 70.4446 29.4234C69.2936 28.7318 68.0883 28.2972 68.4153 26.7168C68.7431 25.0755 69.7433 24.073 70.8715 24.1671C72.019 24.2629 72.1505 25.3927 72.1654 26.3683L72.1627 26.3692L72.161 26.8405C72.1522 27.0161 72.1382 27.344 72.1382 27.5975C72.1145 27.8341 72.2004 28.0509 72.3512 28.222C72.5555 28.5311 72.9017 28.7353 73.2944 28.7353H75.4219C75.9032 28.7353 76.3134 28.4298 76.4791 27.9998C76.4923 27.9783 76.5019 27.9505 76.5081 27.9165C76.5422 27.8036 76.5598 27.6844 76.558 27.5599L76.5273 25.218C76.4914 23.7684 76.2232 22.8071 75.2703 21.6227C74.079 20.1641 72.4713 19.5558 70.8031 19.6167C67.9744 19.7385 64.8326 21.7033 63.9692 25.8362C63.9192 26.0861 63.878 26.3191 63.8456 26.5377C63.8456 26.5377 62.9409 29.9681 66.35 32.2178C66.3684 32.2303 66.3877 32.2429 66.4061 32.2554C66.4193 32.2635 66.4307 32.2724 66.4438 32.2814C66.5043 32.3199 66.5613 32.3557 66.62 32.3925C66.6437 32.4068 66.6665 32.422 66.6901 32.4364C70.0019 34.5104 70.7611 34.187 71.8586 35.4243C72.0032 35.625 72.0821 35.9529 72.0707 36.184C71.9567 38.4122 68.7563 38.1738 68.2698 36.0541C68.2391 35.9206 68.2189 35.7029 68.2067 35.4673C68.1733 34.8527 67.6763 34.3707 67.0723 34.3707H64.901C64.2733 34.3707 63.7649 34.8894 63.7649 35.53C63.7649 35.53 63.5379 37.8594 65.5348 40.0786C67.167 41.8928 69.788 41.8605 70.804 41.8328C75.6841 41.6966 76.4879 38.4095 76.6027 36.0998C76.7237 33.6593 75.4544 32.4498 73.9107 31.4016Z" fill="#505DD6"/>
<path d="M68.1918 43.6558H56.931C56.3033 43.6558 55.7949 44.1754 55.7949 44.8169V47.011C55.7949 47.6524 56.3033 48.1721 56.931 48.1721H60.5163L59.8623 64.6471C59.836 65.3065 60.3515 65.8557 60.9975 65.8557H63.1426C63.7518 65.8557 64.2524 65.3647 64.2778 64.7421L64.9361 48.1712H68.1918C68.8194 48.1712 69.3279 47.6516 69.3279 47.0101V44.816C69.3288 44.1763 68.8194 43.6558 68.1918 43.6558Z" fill="#505DD6"/>
<path d="M45.6077 71.2734H43.4609C42.8332 71.2734 42.3248 71.793 42.3248 72.4345V73.3259C42.2898 74.1878 42.5773 85.6313 40.2832 85.3133C38.8228 85.1108 38.4502 78.0519 38.6194 67.0464C38.6203 67.0464 38.6957 48.4624 40.633 48.2214C42.0312 48.0476 41.7945 56.6394 41.8295 57.5013V58.6911C41.8295 59.3326 42.338 59.8522 42.9656 59.8522H45.1124C45.7401 59.8522 46.2485 59.3326 46.2485 58.6911V56.7102C46.2485 56.7102 46.6517 43.7051 41.2299 43.7051C37.315 43.7051 35.5969 45.0911 34.6572 51.1385C33.9489 55.696 33.9489 77.8996 34.6572 82.4562C35.5969 88.5046 37.3159 89.9004 41.2299 89.8896C47.4021 89.8726 46.7438 72.4354 46.7438 72.4354C46.7438 71.7939 46.2353 71.2734 45.6077 71.2734Z" fill="#505DD6"/>
<path d="M62.7887 68.5944H60.6419C60.0143 68.5944 59.5058 69.114 59.5058 69.7555V74.666C59.5058 74.666 59.8223 79.16 58.7853 79.1797C57.6352 79.16 57.8666 75.2627 57.8456 74.615V68.8623C57.8456 68.2208 57.3371 67.7012 56.7095 67.7012H54.5627C53.9351 67.7012 53.4266 68.2208 53.4266 68.8623V74.7467C53.4266 74.7467 53.289 84.1422 58.4583 84.1422C64.1159 84.1422 63.923 75.0289 63.9204 74.666H63.9248V69.7555C63.9248 69.114 63.4155 68.5944 62.7887 68.5944Z" fill="#505DD6"/>
<path d="M76.1927 77.2743C76.2067 76.9088 78.513 76.2055 78.7269 73.5589C78.9101 71.2958 77.9003 69.616 75.6036 68.6457C73.0316 67.55 68.873 67.6754 66.6991 67.8009C66.0863 67.8636 65.5665 68.3644 65.5358 69.0211C65.3517 72.9954 64.7399 86.2962 64.6171 88.6435C64.5865 89.0816 64.9292 89.4973 65.3474 89.6129C65.9093 89.7688 66.4834 89.9076 67.8632 89.8637C69.9741 89.7965 71.8237 89.689 74.6428 89.0108C77.2174 88.3917 79.9077 86.8113 79.9094 83.2528C79.9103 79.704 76.1725 77.7877 76.1927 77.2743ZM69.8294 72.5259C69.8408 72.2804 70.0538 72.0977 70.2923 72.1308C71.4257 72.2894 74.3465 72.8395 74.2931 74.3034C74.2396 75.7727 71.2469 75.9761 70.1047 76.0003C69.868 76.0057 69.6778 75.8041 69.6892 75.5622L69.8294 72.5259ZM69.8513 84.5778C69.5296 84.5832 69.271 84.3816 69.2868 84.1397L69.4148 81.0828C69.4306 80.8374 69.783 80.6752 70.1064 80.7083C71.6466 80.8669 75.615 81.417 75.5431 82.8809C75.4703 84.3503 71.4029 84.5536 69.8513 84.5778Z" fill="#505DD6"/>
<path d="M62.208 24.6857C61.5953 21.6897 60.12 19.9382 58.4536 19.7098C56.7871 19.4804 55.1067 19.768 54.0776 21.6073C53.1379 23.2854 52.6671 26.4721 52.4182 27.9379C52.0132 30.3228 51.9185 32.137 51.858 33.5553C51.83 34.2156 52.3463 34.7657 52.9932 34.7657H55.1532C55.7808 34.7657 56.2892 34.246 56.2892 33.6046V32.7086C56.2892 32.499 56.4549 32.3297 56.66 32.3297H58.0381C58.2432 32.3297 58.4089 32.499 58.4089 32.7086V40.6778C58.4089 41.3193 58.9173 41.8389 59.5449 41.8389H61.6803C62.308 41.8389 62.8164 41.3193 62.8164 40.6778V35.3713C62.8173 35.3713 62.8208 27.6825 62.208 24.6857ZM58.0942 28.6528H56.6066C56.4251 28.6528 56.2796 28.5023 56.2822 28.3168C56.2954 27.3842 56.4163 24.8326 57.3377 24.8326C58.3221 24.8326 58.4167 27.3914 58.4194 28.3204C58.4194 28.505 58.2739 28.6528 58.0942 28.6528Z" fill="#505DD6"/>
<path d="M58.6888 55.6071C58.6643 55.3858 58.3373 52.6649 56.7971 51.0039L56.7936 51.0003L56.7901 50.9967C55.8153 49.9754 54.6398 49.4575 53.296 49.4575C53.1742 49.4575 53.0497 49.462 52.9252 49.4701C51.5463 49.5659 50.2069 50.4144 49.1514 51.8595C47.7611 53.7463 46.8819 56.7225 46.9643 59.2633C47.0888 63.1498 49.1558 65.5195 52.493 65.6029C52.5483 65.6046 52.6096 65.6055 52.6701 65.6055C53.843 65.6055 54.9677 65.2042 55.9214 64.4444C56.9707 63.6318 57.5835 62.5962 57.9131 61.8687L57.9148 61.8651L57.9166 61.8615C58.2698 61.0543 58.5153 60.1521 58.6266 59.2517C58.908 57.381 58.7099 55.7657 58.6888 55.6071ZM54.4636 57.7528C54.1857 59.8538 53.246 61.4583 52.3642 61.3365C51.4823 61.2147 50.9932 59.413 51.2711 57.312C51.5489 55.2111 52.4887 53.6065 53.3705 53.7284C54.2524 53.8502 54.7415 55.6519 54.4636 57.7528Z" fill="#505DD6"/>
<path d="M59.1584 85.3733H52.8504C52.3885 85.3733 52.0212 84.9791 52.0422 84.5079L52.3183 68.9189C52.349 68.2568 51.8318 67.7031 51.1831 67.7031H49.039C48.4324 67.7031 47.9327 68.1905 47.9038 68.8096L47.4032 88.6721C47.3717 89.3351 47.8889 89.8896 48.5384 89.8896H51.795H59.1576C59.7852 89.8896 60.2936 89.37 60.2936 88.7285V86.5344C60.2945 85.8929 59.7861 85.3733 59.1584 85.3733Z" fill="#505DD6"/>
</svg>
