<svg width="107" height="116" viewBox="0 0 107 116" fill="none" xmlns="http://www.w3.org/2000/svg">
<g id="Capa_1" clip-path="url(#clip0_2922_1728)">
<g id="Group">
<path id="Vector" d="M5.49322 21.8243C5.49322 21.8243 1.60437 19.5178 0.358428 23.3748C-0.56659 26.2627 0.264039 29.5964 2.6049 32.7943C4.94576 35.9923 9.13666 36.1668 10.779 34.7131C12.4025 33.2789 13.1765 31.0887 12.3837 28.9761C11.5908 26.8635 9.72187 24.1307 5.5121 21.8243H5.49322Z" fill="#505DD5"/>
<path id="Vector_2" d="M35.1505 10.2917C35.8868 9.05125 38.0388 6.70605 40.493 8.39227C42.966 10.0785 43.9476 13.0439 44.042 17.0365C44.1364 21.0292 40.9649 23.8396 38.7939 23.762C36.623 23.6845 34.7163 22.4441 34.0745 20.2927C33.4326 18.1219 32.6398 14.4781 35.1316 10.2917H35.1505Z" fill="#505DD5"/>
<path id="Vector_3" d="M15.1772 9.41974C15.1772 9.41974 12.742 6.06669 10.6843 5.38833C8.90975 4.78749 5.71938 5.03946 5.32295 10.0206C4.92651 15.0017 7.21074 19.0719 8.45668 20.3705C9.70262 21.669 12.2323 23.3359 15.0073 22.1148C17.4803 21.0294 18.8018 17.8314 18.3487 15.4281C17.8956 13.0248 16.1777 10.6602 15.1772 9.4585V9.41974Z" fill="#505DD5"/>
<path id="Vector_4" d="M19.9164 7.34575C19.9164 7.34575 20.275 3.17867 21.672 1.49245C22.8802 0.0194361 25.2588 -1.24038 28.6757 2.26772C32.0737 5.77583 31.6018 11.2609 31.2242 13.0246C30.7712 15.1566 29.5252 17.5793 26.5425 18.0251C23.8807 18.4321 21.1246 16.4164 20.2751 14.1294C19.4255 11.8423 19.6898 8.91568 19.9164 7.32637V7.34575Z" fill="#505DD5"/>
</g>
<path id="Vector_5" d="M102.373 89.5246C92.349 88.0128 93.8404 99.0798 89.5551 99.7C86.4591 100.146 84.307 97.3742 84.0239 93.7305C84.0239 71.6158 84.0239 35.8564 84.0239 34.7129C84.0239 33.0655 84.0616 26.0686 78.0207 23.956C71.5267 21.6884 67.9776 28.2588 67.9776 28.2588L51.063 64.8128C50.8931 65.2005 50.3457 65.2005 50.1758 64.8128L33.2612 28.2588C33.2612 28.2588 30.0519 21.8434 23.2181 23.956C17.1205 25.8554 17.2149 33.0655 17.2149 34.7129C17.2149 36.1084 17.2149 94.622 17.2149 111.155C17.2149 113.829 19.3293 115.981 21.9155 115.981H30.8259C33.4311 115.981 35.5265 113.81 35.5265 111.155V80.5896C35.5265 80.0469 36.2439 79.8725 36.4704 80.3764L41.322 91.1527C42.096 92.8583 43.7573 93.963 45.5884 93.963H55.6126C57.4438 93.963 59.105 92.8777 59.879 91.1527L64.7495 80.3376C64.976 79.8531 65.6934 80.0082 65.6934 80.5508L65.7689 92.4319C66.6751 115.322 82.5136 116.233 90.9898 115.961C107.3 115.438 111.189 90.862 102.354 89.5246H102.373Z" fill="#505DD5"/>
</g>
<defs>
<clipPath id="clip0_2922_1728">
<rect width="107" height="116" fill="white"/>
</clipPath>
</defs>
</svg>
