<svg width="129" height="129" viewBox="0 0 129 129" fill="none" xmlns="http://www.w3.org/2000/svg">
<circle cx="64.5" cy="64.5" r="64.5" fill="#FDE3C4"/>
<path d="M58.9623 34.8189C58.6785 34.5276 58.5558 34.1075 58.6067 33.701C58.8473 31.8421 59.2432 26.1499 56.6011 24.8285M58.9623 34.8189L58.5388 35.2038C58.5408 35.206 58.5428 35.2081 58.5447 35.2103M58.9623 34.8189C64.0429 40.4087 66.8862 50.9891 57.1878 58.6954C45.5819 67.9173 31.251 62.2981 27.2601 52.3919M58.9623 34.8189L58.5524 35.2182C58.5498 35.2156 58.5473 35.213 58.5447 35.2103M58.5447 35.2103C58.1322 34.7817 57.9693 34.1863 58.0389 33.63L58.0392 33.6276C58.1566 32.7204 58.3103 30.883 58.1161 29.126C58.019 28.2473 57.8377 27.4172 57.5395 26.7421C57.2417 26.068 56.8475 25.592 56.3463 25.3409M58.5447 35.2103C61.0062 37.9214 62.9166 41.8352 63.0452 45.9812C63.173 50.1028 61.5433 54.5036 56.8318 58.2474C45.5306 67.2272 31.6417 61.7355 27.7911 52.1786M56.3463 25.3409C56.3465 25.341 56.3467 25.3411 56.347 25.3413L56.6011 24.8285M56.3463 25.3409C56.3459 25.3407 56.3455 25.3405 56.3451 25.3403L56.6011 24.8285M56.3463 25.3409C56.0194 25.1792 55.5747 25.1746 54.9908 25.3706C54.4106 25.5653 53.768 25.9344 53.1176 26.4006C51.8204 27.3304 50.5983 28.568 49.9356 29.2789M56.6011 24.8285C54.5303 23.8022 50.8554 27.4529 49.5155 28.8903M49.5155 28.8903L49.9372 29.2771C49.9367 29.2777 49.9361 29.2783 49.9356 29.2789M49.5155 28.8903C49.2007 29.2336 48.726 29.3897 48.2625 29.3438C44.3922 28.761 40.1896 29.643 38.6986 30.0022M49.5155 28.8903L49.9341 29.2805C49.9346 29.28 49.9351 29.2795 49.9356 29.2789M49.9356 29.2789C49.4846 29.7694 48.8257 29.9746 48.2061 29.9133L48.1917 29.9118L48.1773 29.9097C44.4237 29.3444 40.3134 30.2018 38.8334 30.5584M38.8334 30.5584C38.8337 30.5583 38.834 30.5582 38.8343 30.5581L38.6986 30.0022M38.8334 30.5584C38.8332 30.5584 38.8329 30.5585 38.8327 30.5585L38.6986 30.0022M38.8334 30.5584C38.3356 30.6796 37.7973 30.6138 37.3485 30.3213M38.6986 30.0022C38.333 30.0914 37.9551 30.0381 37.6502 29.8348M37.6502 29.8348L37.3619 30.3291C37.3575 30.3265 37.353 30.3239 37.3485 30.3213M37.6502 29.8348C36.1073 28.9349 31.3746 26.3592 29.5217 27.8412M37.6502 29.8348L37.3327 30.3109C37.338 30.3144 37.3433 30.3179 37.3485 30.3213M37.3485 30.3213C36.5813 29.8743 35.058 29.0337 33.5106 28.484C32.7311 28.207 31.9736 28.0143 31.3196 27.972C30.6593 27.9292 30.1855 28.0443 29.8813 28.2864M29.5217 27.8412L29.8836 28.2845C29.8828 28.2851 29.882 28.2857 29.8813 28.2864M29.5217 27.8412C27.0813 29.8338 28.1007 35.2881 28.5108 37.0331M29.5217 27.8412L29.8791 28.2881C29.8798 28.2875 29.8805 28.2869 29.8813 28.2864M29.8813 28.2864C28.8811 29.1051 28.5185 30.7191 28.5196 32.5297C28.5206 34.2953 28.8665 36.0448 29.0673 36.9001M28.5108 37.0331L29.0667 36.8975C29.0669 36.8984 29.0671 36.8992 29.0673 36.9001M28.5108 37.0331C28.6 37.3987 28.5442 37.7482 28.3409 38.0531M28.5108 37.0331L29.0678 36.9022C29.0677 36.9015 29.0675 36.9008 29.0673 36.9001M29.0673 36.9001C29.1899 37.4053 29.1154 37.9136 28.8273 38.3549M28.3409 38.0531L28.8351 38.3416C28.8325 38.346 28.8299 38.3505 28.8273 38.3549M28.3409 38.0531L28.817 38.3705C28.8204 38.3653 28.8239 38.3601 28.8273 38.3549M28.3409 38.0531C26.4159 41.3507 24.8415 46.3698 27.2601 52.3919M28.8273 38.3549C26.9662 41.5493 25.4603 46.3751 27.7911 52.1786M27.2601 52.3919L27.7908 52.178C27.7909 52.1782 27.791 52.1784 27.7911 52.1786M27.2601 52.3919L27.7911 52.1786" fill="white" stroke="#505DD6" stroke-width="1.14448"/>
<path d="M43.2241 52.671C43.2241 52.671 41.7496 50.2431 43.5949 49.9966C45.4403 49.7502 46.5024 49.7441 46.5024 49.7441C46.5024 49.7441 48.0924 49.8644 47.6089 51.5722C47.0969 53.2824 46.8019 54.5142 45.6803 54.4968C44.5587 54.4793 43.2241 52.671 43.2241 52.671Z" fill="#505DD6"/>
<path d="M49.8059 44.8046C50.6717 44.7294 51.2661 43.4305 51.1335 41.9035C51.0008 40.3764 50.1914 39.1995 49.3256 39.2747C48.4597 39.3499 47.8653 40.6488 47.998 42.1758C48.1306 43.7029 48.94 44.8798 49.8059 44.8046Z" fill="#505DD6"/>
<path d="M40.0012 45.6562C40.867 45.581 41.4614 44.2821 41.3288 42.755C41.1962 41.228 40.3867 40.0511 39.5209 40.1263C38.655 40.2015 38.0606 41.5004 38.1933 43.0274C38.3259 44.5544 39.1354 45.7314 40.0012 45.6562Z" fill="#505DD6"/>
<path d="M50.7188 56.96C50.7188 56.96 49.195 55.9494 46.0467 56.217C42.7804 56.4946 41.5973 57.7522 41.5973 57.7522" stroke="#505DD6" stroke-width="0.858356" stroke-miterlimit="10" stroke-linecap="round" stroke-linejoin="round"/>
<path d="M51.5013 36.2139C51.5013 36.2139 49.3629 37.692 46.6555 36.6347" stroke="#505DD6" stroke-width="0.858356" stroke-miterlimit="10" stroke-linecap="round" stroke-linejoin="round"/>
<path d="M41.2395 37.105C41.2395 37.105 39.1011 38.5831 36.3938 37.5259" stroke="#505DD6" stroke-width="0.858356" stroke-miterlimit="10" stroke-linecap="round" stroke-linejoin="round"/>
<path d="M47.1637 50.7494C47.1637 50.7494 58.1656 46.1464 62.4537 45.2569" stroke="#505DD6" stroke-width="0.858356" stroke-miterlimit="10" stroke-linecap="round" stroke-linejoin="round"/>
<path d="M47.1011 51.7024C47.1011 51.7024 58.1325 48.7626 65.2191 47.6875" stroke="#505DD6" stroke-width="0.858356" stroke-miterlimit="10" stroke-linecap="round" stroke-linejoin="round"/>
<path d="M46.7137 52.8276C46.8252 52.7892 59.9882 50.5833 64.4783 50.3656" stroke="#505DD6" stroke-width="0.858356" stroke-miterlimit="10" stroke-linecap="round" stroke-linejoin="round"/>
<path d="M43.3557 51.195C43.3557 51.195 31.7249 48.5579 27.3477 48.4211" stroke="#505DD6" stroke-width="0.858356" stroke-miterlimit="10" stroke-linecap="round" stroke-linejoin="round"/>
<path d="M43.6053 52.1209C43.6053 52.1209 32.2322 51.1271 25.0664 51.29" stroke="#505DD6" stroke-width="0.858356" stroke-miterlimit="10" stroke-linecap="round" stroke-linejoin="round"/>
<path d="M44.1552 53.1644C44.0387 53.1458 30.6925 53.2425 26.2321 53.8022" stroke="#505DD6" stroke-width="0.858356" stroke-miterlimit="10" stroke-linecap="round" stroke-linejoin="round"/>
<path d="M27.0285 42.6625C27.4498 42.1659 27.9285 41.7555 28.4341 41.4055C29.1442 40.914 29.9019 40.5445 30.5967 40.222C30.7125 40.1683 30.8258 40.1161 30.9367 40.0651C31.5078 39.8023 32.0134 39.5697 32.4467 39.3068C33.1256 38.8949 33.2382 38.4895 33.4209 37.8315C33.4732 37.6432 33.5312 37.4342 33.6099 37.1985C33.7824 36.6816 34.0504 36.1214 34.6085 35.5574C35.1578 35.0022 35.9622 34.4695 37.1691 33.9549C38.2699 33.4831 38.8911 32.9931 39.2315 32.5616C39.5629 32.1415 39.6459 31.7554 39.6316 31.4297C39.6167 31.0894 39.493 30.7806 39.3605 30.546C39.3362 30.5029 39.3121 30.4632 39.289 30.4272C39.1615 30.4421 39.0068 30.4573 38.8395 30.4674C38.6209 30.4806 38.3711 30.4858 38.1281 30.4677C37.8936 30.4502 37.623 30.4085 37.3861 30.3038L37.3789 30.3006L37.3719 30.2972C37.234 30.2317 37.0359 30.1247 36.7887 29.9911C36.1068 29.6226 35.0513 29.0521 33.8569 28.5954C33.0581 28.29 32.2494 28.0592 31.5267 27.9955C30.799 27.9313 30.2312 28.0422 29.8357 28.3331L27.0285 42.6625ZM27.0285 42.6625C27.1269 42.2755 27.2368 41.8991 27.3533 41.54C27.7902 40.1932 28.2982 39.1529 28.5834 38.7459C28.9925 38.1621 29.0951 37.6349 29.0528 37.1478C29.033 36.9201 28.9827 36.7148 28.9382 36.547C28.9274 36.5064 28.9173 36.469 28.9078 36.4339C28.8747 36.3115 28.8494 36.2177 28.8319 36.1205L28.832 36.1205L28.8309 36.1148C28.5969 34.881 28.3931 33.2297 28.4952 31.7163C28.5996 30.1691 29.0117 28.9399 29.8355 28.3332L27.0285 42.6625Z" fill="#FF773B" stroke="#505DD6" stroke-width="1.14448"/>
<path d="M91.3927 67.6819C91.3927 67.6819 92.0495 66.8578 92.5808 64.9231C93.075 63.1091 95.356 59.9786 99.602 62.6251C101.591 63.8646 102.496 65.323 104.215 66.4562C107.181 68.3606 107.585 70.0072 106.798 70.9778C105.322 72.8014 101.556 69.7815 99.967 68.5018C98.3784 67.222 96.3376 65.2131 93.2098 69.2804" fill="#FF773B"/>
<mask id="path-17-inside-1_1987_6793" fill="white">
<path d="M80.6786 67.2705C80.6786 67.2705 80.03 66.1936 79.705 64.2138C79.4041 62.3579 77.4648 59.0049 72.9642 61.1905C70.8555 62.2141 69.8027 63.5693 67.9742 64.5156C64.8241 66.0976 64.2493 67.6927 64.9301 68.7406C66.2064 70.7093 70.2692 68.102 71.9835 66.9963C73.6978 65.8906 75.9385 64.1073 78.6215 68.4808"/>
</mask>
<path d="M80.6786 67.2705C80.6786 67.2705 80.03 66.1936 79.705 64.2138C79.4041 62.3579 77.4648 59.0049 72.9642 61.1905C70.8555 62.2141 69.8027 63.5693 67.9742 64.5156C64.8241 66.0976 64.2493 67.6927 64.9301 68.7406C66.2064 70.7093 70.2692 68.102 71.9835 66.9963C73.6978 65.8906 75.9385 64.1073 78.6215 68.4808" fill="white"/>
<path d="M79.705 64.2138L78.7981 64.3608L78.7984 64.3626L79.705 64.2138ZM72.9642 61.1905L73.3654 62.017L73.3655 62.0169L72.9642 61.1905ZM67.9742 64.5156L68.3865 65.3367L68.3964 65.3316L67.9742 64.5156ZM64.9301 68.7406L65.701 68.2408L65.7005 68.2401L64.9301 68.7406ZM80.6786 67.2705C81.4656 66.7964 81.4658 66.7967 81.4659 66.7969C81.4659 66.7969 81.4661 66.7972 81.4661 66.7973C81.4663 66.7976 81.4665 66.7978 81.4666 66.7981C81.4669 66.7985 81.4671 66.799 81.4673 66.7993C81.4678 66.8 81.468 66.8004 81.4681 66.8006C81.4684 66.801 81.468 66.8004 81.467 66.7987C81.4651 66.7954 81.4609 66.788 81.4546 66.7767C81.4421 66.7539 81.4213 66.7151 81.3941 66.6607C81.3397 66.5518 81.2597 66.3803 81.1689 66.1489C80.9873 65.6862 80.7626 64.9846 80.6116 64.0649L78.7984 64.3626C78.9724 65.4228 79.2345 66.2495 79.4584 66.8202C79.5704 67.1055 79.6729 67.327 79.7503 67.4818C79.789 67.5593 79.8214 67.6201 79.8456 67.664C79.8577 67.6859 79.8677 67.7036 79.8755 67.7171C79.8793 67.7238 79.8827 67.7294 79.8853 67.734C79.8867 67.7363 79.8879 67.7383 79.8889 67.74C79.8895 67.7409 79.8899 67.7417 79.8904 67.7425C79.8906 67.7428 79.8908 67.7432 79.891 67.7435C79.8911 67.7437 79.8913 67.7439 79.8913 67.744C79.8915 67.7443 79.8916 67.7445 80.6786 67.2705ZM80.6119 64.0667C80.4343 62.9713 79.7832 61.423 78.4534 60.4461C77.0417 59.4092 75.0572 59.1527 72.5628 60.364L73.3655 62.0169C75.3718 61.0427 76.6072 61.3699 77.3656 61.927C78.2058 62.5442 78.6748 63.6003 78.7981 64.3608L80.6119 64.0667ZM72.5629 60.364C71.4172 60.9201 70.5636 61.5654 69.8015 62.1557C69.0293 62.7538 68.3776 63.2723 67.5519 63.6997L68.3964 65.3316C69.3993 64.8125 70.1883 64.1803 70.9267 63.6084C71.6754 63.0285 72.4024 62.4844 73.3654 62.017L72.5629 60.364ZM67.5618 63.6946C65.9193 64.5195 64.8161 65.4092 64.2353 66.3433C63.6206 67.3319 63.5998 68.3794 64.1597 69.2412L65.7005 68.2401C65.5796 68.0539 65.5058 67.7799 65.7958 67.3135C66.1197 66.7926 66.8789 66.0938 68.3865 65.3366L67.5618 63.6946ZM64.1592 69.2404C64.6846 70.0509 65.5012 70.3518 66.3059 70.3725C67.0727 70.3923 67.8877 70.1665 68.6275 69.8768C70.1164 69.294 71.6359 68.3138 72.4815 67.7684L71.4855 66.2242C70.6169 66.7845 69.2478 67.6607 67.9577 68.1658C67.3079 68.4201 66.7608 68.5461 66.3532 68.5356C65.9837 68.5261 65.8138 68.4147 65.701 68.2408L64.1592 69.2404ZM72.4815 67.7684C72.9436 67.4703 73.3466 67.1908 73.7878 66.9633C74.2176 66.7416 74.6039 66.6144 74.9702 66.6021C75.5998 66.5809 76.5736 66.8995 77.8383 68.9612L79.4046 68.0003C77.9864 65.6885 76.4984 64.7121 74.9084 64.7656C74.1648 64.7906 73.5018 65.0432 72.9455 65.3302C72.4005 65.6113 71.8806 65.9694 71.4855 66.2242L72.4815 67.7684Z" fill="#505DD6" mask="url(#path-17-inside-1_1987_6793)"/>
<mask id="path-19-inside-2_1987_6793" fill="white">
<path d="M91.2612 67.7974C91.2612 67.7974 92.0468 66.8575 92.5781 64.9227C93.0724 63.1088 95.3534 59.9782 99.5993 62.6247C101.589 63.8642 102.493 65.3226 104.212 66.4558C107.179 68.3602 107.583 70.0069 106.795 70.9774C105.319 72.801 101.553 69.7811 99.9643 68.5014C98.3757 67.2216 96.3349 65.2127 93.2072 69.28"/>
</mask>
<path d="M91.2612 67.7974C91.2612 67.7974 92.0468 66.8575 92.5781 64.9227C93.0724 63.1088 95.3534 59.9782 99.5993 62.6247C101.589 63.8642 102.493 65.3226 104.212 66.4558C107.179 68.3602 107.583 70.0069 106.795 70.9774C105.319 72.801 101.553 69.7811 99.9643 68.5014C98.3757 67.2216 96.3349 65.2127 93.2072 69.28" fill="#FF773B"/>
<path d="M92.5781 64.9227L93.464 65.166L93.4645 65.1643L92.5781 64.9227ZM99.5993 62.6247L99.1134 63.4044L99.1135 63.4045L99.5993 62.6247ZM104.212 66.4558L103.706 67.223L103.716 67.229L104.212 66.4558ZM106.795 70.9774L106.082 70.3987L106.081 70.3993L106.795 70.9774ZM91.2612 67.7974C91.9662 68.3866 91.9664 68.3863 91.9666 68.3861C91.9667 68.386 91.9669 68.3858 91.967 68.3856C91.9673 68.3853 91.9676 68.3849 91.9679 68.3845C91.9685 68.3838 91.9692 68.383 91.9699 68.3821C91.9713 68.3804 91.9729 68.3784 91.9747 68.3762C91.9783 68.3718 91.9827 68.3665 91.9877 68.3602C91.9978 68.3476 92.0107 68.3312 92.0262 68.3109C92.0571 68.2704 92.0983 68.2146 92.1476 68.1433C92.2463 68.0008 92.3778 67.7963 92.5251 67.5291C92.8198 66.9943 93.1777 66.2087 93.464 65.166L91.6921 64.6795C91.4472 65.5715 91.1467 66.2232 90.9158 66.6421C90.8003 66.8517 90.7021 67.0032 90.6369 67.0973C90.6043 67.1444 90.58 67.1771 90.5659 67.1956C90.5588 67.2048 90.5544 67.2105 90.5527 67.2126C90.5518 67.2136 90.5517 67.2138 90.5523 67.2131C90.5526 67.2127 90.553 67.2121 90.5537 67.2113C90.554 67.2109 90.5544 67.2105 90.5548 67.21C90.5551 67.2097 90.5553 67.2094 90.5555 67.2091C90.5556 67.209 90.5558 67.2088 90.5559 67.2087C90.5561 67.2085 90.5563 67.2082 91.2612 67.7974ZM93.4645 65.1643C93.6671 64.4209 94.2445 63.42 95.1449 62.8945C95.9577 62.4202 97.2206 62.2246 99.1134 63.4044L100.085 61.845C97.7321 60.3783 95.7316 60.4247 94.2188 61.3075C92.7936 62.1392 91.9834 63.6106 91.6917 64.6812L93.4645 65.1643ZM99.1135 63.4045C100.022 63.9705 100.688 64.588 101.371 65.2433C102.046 65.8897 102.764 66.6013 103.707 67.2229L104.718 65.6888C103.942 65.1771 103.348 64.5929 102.643 63.9169C101.947 63.2499 101.166 62.5184 100.085 61.8449L99.1135 63.4045ZM103.716 67.229C105.136 68.1404 105.817 68.9152 106.084 69.4672C106.324 69.9615 106.222 70.2262 106.082 70.3987L107.509 71.5561C108.156 70.758 108.246 69.7141 107.738 68.6664C107.259 67.6764 106.255 66.6757 104.709 65.6827L103.716 67.229ZM106.081 70.3993C105.951 70.5604 105.77 70.6533 105.402 70.624C104.995 70.5916 104.464 70.4088 103.845 70.0875C102.615 69.4497 101.346 68.4344 100.541 67.7859L99.388 69.2168C100.172 69.8481 101.58 70.9826 102.999 71.7187C103.704 72.0845 104.491 72.3947 105.256 72.4557C106.058 72.5196 106.902 72.3062 107.509 71.5554L106.081 70.3993ZM100.541 67.7859C100.175 67.491 99.6952 67.0803 99.1828 66.7435C98.6597 66.3996 98.027 66.0787 97.2902 65.9757C95.7146 65.7553 94.1322 66.57 92.4789 68.7199L93.9355 69.8401C95.4099 67.9227 96.4118 67.7082 97.0357 67.7954C97.3986 67.8462 97.7694 68.0133 98.1735 68.2789C98.5883 68.5516 98.9598 68.8719 99.388 69.2168L100.541 67.7859Z" fill="#505DD6" mask="url(#path-19-inside-2_1987_6793)"/>
<path d="M81.6503 103.905C82.7685 102.915 83.5777 101.882 84.177 100.932C84.6556 101.907 85.3358 102.981 86.2865 104.043C85.8989 104.555 85.112 105.286 83.831 105.219C82.565 105.152 81.9449 104.44 81.6503 103.905Z" fill="white" stroke="#505DD6" stroke-width="0.918746"/>
<path d="M89.023 96.3535C89.4248 96.5761 89.4249 96.576 89.425 96.5758L89.4252 96.5754L89.4258 96.5743L89.4277 96.5709L89.4342 96.559L89.457 96.5164C89.4763 96.4797 89.5036 96.4271 89.5367 96.3605C89.6029 96.2276 89.6929 96.0386 89.7896 95.8109C89.9814 95.3592 90.2067 94.7393 90.3193 94.0967C90.4298 93.4656 90.4446 92.7416 90.1357 92.1331C89.8071 91.486 89.1661 91.0691 88.1923 90.9741C86.4736 90.8064 84.9744 90.7197 83.9045 90.6749C83.3694 90.6525 82.9414 90.6405 82.6466 90.6342C82.4992 90.631 82.3851 90.6293 82.3076 90.6283L82.219 90.6273L82.1963 90.6271L82.1961 90.6271L82.1924 90.627C82.1835 90.6267 82.1717 90.6264 82.157 90.6261C82.1277 90.6257 82.0872 90.6257 82.0374 90.6272C81.938 90.6302 81.7999 90.6391 81.6385 90.6626C81.3201 90.7092 80.8875 90.8162 80.4824 91.0677C80.0685 91.3248 79.6891 91.7302 79.4996 92.3468C79.3129 92.9538 79.3237 93.7214 79.598 94.687L79.5987 94.6893C80.1644 96.6414 80.8274 98.3018 81.829 99.3255C79.7685 102.298 77.8082 103.012 76.3758 103.006C75.6182 103.002 74.9706 102.797 74.4881 102.567C73.9939 102.33 73.7037 102.081 73.6543 102.027L73.6412 102.012L73.6268 101.999C71.5838 100.086 70.5842 96.3676 72.828 91.6595C74.53 88.1292 75.2861 85.687 75.693 83.0902C75.9621 81.3727 76.0783 79.5791 76.2215 77.3688C76.2922 76.2768 76.3696 75.0831 76.4752 73.7465L76.4752 73.7461C76.6103 72.0148 77.1702 70.7368 77.94 69.7855C78.713 68.8304 79.7167 68.1816 80.77 67.7439C82.8881 66.8637 85.1466 66.8619 85.9135 66.9024C86.7554 66.9467 88.9921 67.1272 90.999 68.1931C91.9965 68.7228 92.9249 69.4649 93.6014 70.5075C94.2758 71.547 94.7168 72.9112 94.7025 74.7156L94.7025 74.7157C94.6899 76.3764 94.6456 77.8077 94.6058 79.0979C94.4509 84.1054 94.3618 86.9873 96.4465 92.9028L96.447 92.9044C98.2063 97.8374 96.8045 101.445 94.4714 103.134C94.211 103.278 93.0754 103.904 91.6029 103.766C90.1682 103.631 88.2912 102.755 86.5715 99.6463C87.3531 99.124 88.0213 98.4231 88.5051 97.8388C88.7873 97.4981 89.0131 97.1893 89.1687 96.9651C89.2466 96.8528 89.3072 96.7614 89.3488 96.6973C89.3696 96.6653 89.3856 96.6401 89.3967 96.6225L89.4096 96.6019L89.4132 96.596L89.4142 96.5943L89.4146 96.5937L89.4147 96.5935C89.4148 96.5934 89.4149 96.5933 89.023 96.3535ZM89.023 96.3535L89.4248 96.5761L89.42 96.5848L89.4149 96.5933L89.023 96.3535ZM83.3787 76.3618C83.694 76.7052 84.2246 76.7311 84.572 76.4185C84.9368 76.0902 84.9257 75.5718 84.6632 75.2208L84.6507 75.2042L84.6368 75.1887C84.5978 75.1454 84.3251 74.865 83.8812 74.5912C83.4362 74.3168 82.7914 74.032 82.0206 74.0272L82.0206 74.0271L82.0092 74.0273C81.0122 74.0459 80.0558 74.4925 79.2402 75.3488C78.8613 75.7062 78.9583 76.241 79.2232 76.5353C79.381 76.7107 79.5975 76.7818 79.7803 76.7914C79.8797 76.7966 79.9932 76.7902 80.1124 76.7514C80.2336 76.712 80.3359 76.6472 80.424 76.5679L80.4365 76.5567L80.4481 76.5446C81.0067 75.9627 81.523 75.7403 82.0041 75.7427L82.0041 75.7427L82.011 75.7427C82.3813 75.7391 82.7207 75.8844 82.983 76.0503C83.1117 76.1317 83.2145 76.2135 83.2842 76.274C83.3189 76.3041 83.3447 76.3284 83.361 76.3442C83.3691 76.3521 83.3747 76.3577 83.3778 76.3609L83.3787 76.3618ZM80.6042 79.1962C80.5678 79.8882 80.6927 80.5497 80.9441 81.0603C81.1868 81.5532 81.6075 82.0091 82.2024 82.0405C82.7973 82.0718 83.2636 81.6626 83.5567 81.198C83.8604 80.7166 84.0542 80.0719 84.0906 79.3799C84.1271 78.6879 84.0022 78.0264 83.7508 77.5158C83.5081 77.0229 83.0874 76.567 82.4925 76.5356C81.8976 76.5043 81.4313 76.9135 81.1381 77.3781C80.8345 77.8595 80.6407 78.5042 80.6042 79.1962Z" fill="white" stroke="#505DD6" stroke-width="0.918746"/>
<path d="M75.1854 85.5233C75.1928 85.4941 75.2005 85.4634 75.2085 85.4311C75.2836 85.1282 75.3854 84.6917 75.4935 84.1531C75.7094 83.0768 75.9514 81.5883 76.0537 79.9419L76.0537 79.9419L76.054 79.9375C76.0891 79.2701 76.1818 77.9459 76.2661 76.7837C76.3082 76.2037 76.348 75.6656 76.3773 75.2725L76.4045 74.9107C76.454 74.8904 76.5104 74.8675 76.5732 74.8426C76.844 74.7348 77.2322 74.5879 77.6984 74.4324C78.6343 74.1202 79.869 73.779 81.0939 73.6459C82.3321 73.5112 83.4866 73.5977 84.3174 74.0648C85.1028 74.5064 85.6811 75.3358 85.6903 76.9134C85.6906 80.3167 84.7693 81.6337 83.7696 82.2411C83.2445 82.5601 82.6509 82.7146 82.0307 82.8287C81.8751 82.8573 81.7126 82.8839 81.5478 82.9109C81.0935 82.9853 80.6215 83.0626 80.2261 83.1932C79.5969 83.3926 79.0635 83.7272 78.5932 84.0734C78.3721 84.2362 78.1595 84.4057 77.9583 84.5662C77.9455 84.5763 77.9329 84.5864 77.9202 84.5965C77.7049 84.7681 77.503 84.9281 77.302 85.0719C76.8978 85.361 76.5339 85.5571 76.1578 85.6261C75.8757 85.6779 75.5602 85.6628 75.1854 85.5233Z" fill="#FF773B" stroke="#505DD6" stroke-width="0.918746"/>
<path d="M89.0996 96.329C89.0996 96.329 91.73 91.5547 88.1959 91.2079C84.6618 90.8612 82.0614 90.8526 82.0614 90.8526C82.0614 90.8526 78.7702 90.7112 79.8397 94.4924C80.7746 97.8169 81.9601 99.9986 84.1109 100.112C86.7029 100.281 89.0996 96.329 89.0996 96.329Z" fill="#505DD6"/>
<path d="M88.8318 81.9297C89.5412 81.9671 90.1704 80.9705 90.2371 79.7037C90.3039 78.4369 89.7829 77.3797 89.0735 77.3423C88.3641 77.305 87.7349 78.3016 87.6682 79.5683C87.6014 80.8351 88.1224 81.8923 88.8318 81.9297Z" fill="#505DD6"/>
<path d="M82.2224 81.5816C82.9318 81.6189 83.561 80.6223 83.6278 79.3556C83.6945 78.0888 83.1735 77.0316 82.4642 76.9942C81.7548 76.9568 81.1256 77.9534 81.0588 79.2202C80.9921 80.487 81.513 81.5442 82.2224 81.5816Z" fill="#505DD6"/>
<path d="M91.588 75.5618C91.588 75.5618 89.5451 76.5006 87.6229 75.1498" stroke="#505DD6" stroke-width="0.80326" stroke-miterlimit="10" stroke-linecap="round"/>
<path d="M84.2481 75.1751C84.2481 75.1751 82.2053 76.1139 80.2831 74.7631" stroke="#505DD6" stroke-width="0.80326" stroke-miterlimit="10" stroke-linecap="round"/>
<path d="M87.1211 102.111C87.1211 102.111 86.2135 101.148 84.103 101.032C81.9133 100.912 81.0046 101.789 81.0046 101.789" stroke="#505DD6" stroke-width="0.918746" stroke-miterlimit="10" stroke-linecap="round" stroke-linejoin="round"/>
<path d="M84.1028 101.185L84.1914 99.5029" stroke="#505DD6" stroke-width="0.612497"/>
</svg>
