<svg width="76" height="98" viewBox="0 0 76 98" fill="none" xmlns="http://www.w3.org/2000/svg">
<ellipse cx="37.6336" cy="89.0388" rx="35.4227" ry="8.20315" fill="#62C6F9"/>
<path d="M0.948123 68.9186C1.54283 71.8261 3.30306 73.8622 5.50276 74.7448C7.58065 75.5781 9.58688 75.7013 11.3017 75.7013C12.9712 75.7013 14.3039 75.5825 14.9727 75.4369C14.4114 79.3547 14.5523 83.7674 18.0155 85.9514C18.0202 85.9536 18.0202 86.2135 18.0226 86.2157C19.9286 87.2998 21.7628 87.311 24.2754 86.7466C25.2546 86.527 26.6232 86.7018 27.9081 86.9482C28.8085 87.1207 29.5657 87.255 30.2535 87.255C30.7575 87.255 30.693 87.3581 31.0178 87.1318C31.3331 86.9123 31.6483 86.648 31.6937 86.2112C31.7534 85.7834 31.7343 85.4967 31.56 85.2346C31.5647 85.2279 31.5695 85.2212 31.5719 85.2122C31.591 85.1719 32.0878 84.1975 31.5647 83.5591C31.56 83.5546 31.8466 83.5389 31.8442 83.5344C31.8752 83.5098 31.6101 83.4896 31.6268 83.4538C31.6674 83.3754 32.1284 82.625 31.8394 82.0919C32.0902 82.0359 32.3195 81.9217 32.4962 81.8589C32.5153 81.8522 32.5989 81.8657 32.6204 81.8589C32.5774 82.074 32.5344 82.4346 32.5487 82.6833C32.5846 83.306 33.2318 83.6084 33.7119 83.8839C34.3281 84.2378 35.1688 84.1572 35.9952 84.0116C35.5127 84.4327 34.7508 85.1696 34.5932 85.7811C34.4117 86.4912 34.7652 87.0042 35.3503 87.6874C35.3551 87.6941 35.4315 87.8083 35.4363 87.815C35.9235 88.2944 36.5421 88.3325 37.3709 88.1174C38.0707 87.936 38.9305 87.4768 39.518 86.6055C39.5921 87.1811 39.8739 87.8374 40.2632 88.2698C40.6812 88.7357 41.0561 88.888 41.8013 88.9104C41.8228 88.9104 41.8467 88.9104 41.8682 88.9104C42.4581 88.9104 42.9477 88.8432 43.2534 88.3818C43.8171 87.5306 43.6929 85.7632 43.3394 84.6522C44.1419 85.0397 45.0614 85.4877 45.809 85.2928C46.3058 85.1629 46.707 84.93 46.9292 84.4573C47.2373 83.8032 47.1823 83.0954 46.7811 82.4637C46.2986 81.7066 45.391 81.1713 44.364 81.0234C44.3855 80.5777 44.4333 79.6705 44.5026 78.4542C48.5628 75.9611 50.7625 73.0043 51.8946 70.9525C52.2385 70.3276 52.721 69.1135 52.9288 68.6028C52.8189 72.0232 52.6923 75.9589 52.5944 78.2503C52.5371 79.6055 52.4965 80.5441 52.4845 80.9988C51.4527 81.1444 50.5882 81.7335 50.1009 82.4929C49.6973 83.1245 49.7068 83.5456 50.0149 84.1997C50.2371 84.6724 50.6288 84.9299 51.1255 85.0599C51.8731 85.2547 52.8165 84.9725 53.619 84.5872C53.2655 85.6983 53.1127 87.2416 53.6763 88.0928C53.982 88.5542 54.2018 88.7894 54.7917 88.7894C54.8132 88.7894 54.8347 88.7894 54.8586 88.7894C55.6037 88.767 56.1244 88.8163 56.5424 88.3504C56.9317 87.9181 57.2589 86.8742 57.3329 86.2986C57.9181 87.1699 58.5964 87.9315 59.2938 88.113C60.1226 88.328 60.9012 88.3818 61.3884 87.9024C61.3956 87.8957 61.4003 87.889 61.4051 87.8822C61.9903 87.1968 62.1933 86.4912 62.0118 85.7811C61.8541 85.1696 61.2833 84.4506 60.7985 84.0295C61.6225 84.1751 62.659 84.3924 63.2752 84.0362C63.7553 83.7607 64.018 83.3037 64.0538 82.681C64.1016 81.8455 63.8317 81.1937 63.2442 80.7412C62.2315 79.9594 60.5023 80.0042 59.3583 80.2014C60.0581 76.2657 61.0755 53.2455 61.226 49.7646C62.3103 49.1777 63.2633 48.331 63.9846 47.2805C65.1214 45.6206 66.6667 42.0053 64.2186 36.439C61.4003 30.0259 61.3311 26.9057 61.2093 21.2385C61.1782 19.787 61.1424 18.1429 61.054 16.2456C60.937 13.6965 59.8121 11.4319 58.1927 9.92441C59.363 8.37211 60.8773 7.19164 62.0189 7.01244C63.4472 6.78621 64.6891 7.65756 65.7854 8.42363C65.8642 8.47963 65.9406 8.53339 66.0195 8.58715C68.0209 9.97817 70.844 11.7634 72.9028 11.7634C73.058 11.7634 73.0962 11.7522 73.2419 11.7321C73.851 11.6425 74.3382 11.3692 74.6869 10.9167C75.0619 10.4306 75.1598 10.415 75.0236 9.81465C74.749 8.60059 73.4187 7.31708 71.176 6.10078C70.2015 5.57214 69.4348 4.94719 68.6252 4.28416C67.7033 3.52928 66.7479 2.74977 65.4128 2.05538C63.2967 0.955554 61.4075 0.749477 59.7953 1.44387C57.9611 2.23458 57.3377 4.2192 57.0511 5.49598C56.7 7.06172 55.7972 7.88155 55.5321 8.32283C53.7408 7.57468 51.5459 7.17596 49.1695 7.16924C49.1623 7.16924 49.1575 7.16924 49.1503 7.16924C48.527 7.16924 45.7326 7.23644 43.0266 8.35643C42.771 7.93755 42.2097 6.88925 41.8491 5.28094C41.5625 4.0064 40.5761 2.23458 38.7442 1.44387C37.132 0.749477 35.2428 0.953314 33.1267 2.05538C31.7916 2.74977 30.8363 3.52928 29.9144 4.28416C29.1023 4.94719 28.338 5.57214 27.3636 6.10078C25.1209 7.31708 23.7906 8.60283 23.5159 9.81465C23.3798 10.415 23.6998 10.8674 24.0748 11.3535C24.4235 11.806 24.9298 11.6604 25.5389 11.7478C25.6845 11.7702 25.835 11.7791 25.9926 11.7791C28.0514 11.7791 30.3371 10.2066 32.3386 8.81562C32.415 8.76186 32.4938 8.70811 32.5726 8.65211C33.6689 7.88379 35.293 6.77501 36.7188 7.00125C37.8605 7.18044 39.2625 8.45947 40.4328 10.0118C38.9329 11.3535 37.5022 13.4322 37.4234 16.2479C37.3804 17.7845 37.3613 19.1665 37.3446 20.3851C37.261 26.5921 37.218 29.7079 34.2612 36.4367C33.0766 39.1292 32.8282 41.3647 33.0145 43.1432C32.6443 43.7839 30.189 47.9121 24.8128 54.1661C20.8003 58.8343 18.0823 62.9692 16.0665 70.2895C16.0665 70.294 16.0642 70.2962 16.0642 70.3007C16.0116 70.5202 15.9567 70.7554 15.897 71.0018C15.8731 71.1048 15.8468 71.2123 15.8205 71.3199C14.9273 71.4296 8.1658 72.1621 6.40556 69.3532C4.39694 66.1478 5.78459 62.0777 9.54867 58.944C12.5556 56.442 17.2822 52.0337 16.869 48.9761C16.7544 48.1294 16.4081 47.6859 15.5316 47.2648C14.9416 46.9825 14.538 46.7249 13.9887 46.9019C12.5915 47.3544 11.5812 49.2046 10.3082 51.7671C9.07816 54.2445 8.17296 55.201 3.65177 59.4525C1.25384 61.7171 0.214891 65.3436 0.948123 68.9186Z" fill="white"/>
<path d="M15.7893 71.5418C15.7893 71.5418 8.44745 72.5901 6.40778 69.3556C4.36811 66.121 5.15388 62.5931 9.1783 59.26C13.2027 55.9269 19.5247 49.1644 15.3761 47.1843C13.2385 46.1651 11.9082 48.6806 10.3653 51.7673C9.07321 54.3545 8.09397 55.349 3.58711 59.5646C-1.12994 63.9774 0.346078 72.6887 5.25897 74.6486C10.1719 76.6086 15.1325 75.2265 15.1325 75.2265" fill="#FF773B"/>
<path d="M55.9121 8.27099C55.9121 8.27099 56.6573 7.28092 57.1612 5.05663C57.6317 2.97345 60.1945 -0.726984 65.4967 2.01698C67.9877 3.30721 69.1652 4.91775 71.3052 6.07358C75.0024 8.06939 75.6067 9.89049 74.7182 11.0351C73.0463 13.1922 68.2911 10.007 66.3039 8.63387C64.3168 7.26076 61.6896 5.13727 58.1954 9.92409" fill="#FF773B"/>
<path d="M55.9121 8.27099C55.9121 8.27099 56.6573 7.28092 57.1612 5.05663C57.6317 2.97345 60.1945 -0.726984 65.4967 2.01698C67.9877 3.30721 69.1652 4.91775 71.3052 6.07358C75.0024 8.06939 75.6067 9.89049 74.7182 11.0351C73.0463 13.1922 68.2911 10.007 66.3039 8.63387C64.3168 7.26076 61.6896 5.13727 58.1954 9.92409" stroke="white" stroke-width="0.961486" stroke-miterlimit="10"/>
<path d="M37.0176 29.6987C40.0078 30.971 40.9512 27.9448 43.631 26.9906C46.0003 26.1461 49.75 27.2706 49.2747 19.368C48.809 11.602 37.7126 17.0294 37.7126 17.0294" fill="#FF773B"/>
<path d="M37.7109 17.0294C37.7109 17.0294 48.8073 11.602 49.2731 19.368C49.7484 27.2706 45.9986 26.1461 43.6293 26.9906C40.9496 27.9448 39.8676 30.9128 36.875 29.6427" stroke="#505DD6" stroke-width="0.961486" stroke-miterlimit="10" stroke-linecap="round" stroke-linejoin="round"/>
<path d="M45.7172 24.5871C46.5825 24.5871 47.2839 23.4187 47.2839 21.9775C47.2839 20.5363 46.5825 19.3679 45.7172 19.3679C44.8519 19.3679 44.1504 20.5363 44.1504 21.9775C44.1504 23.4187 44.8519 24.5871 45.7172 24.5871Z" fill="#505DD6"/>
<path d="M47.4941 17.9232C47.4941 17.9232 44.9863 15.6451 42.4785 18.3644" stroke="#505DD6" stroke-width="0.961486" stroke-miterlimit="10" stroke-linecap="round"/>
<path d="M16.7324 67.9355C16.7324 67.9355 18.3302 67.7585 19.2975 65.2273C20.2648 62.6984 24.5066 65.3841 27.4109 61.2334C30.3151 57.0828 25.3162 53.5481 25.3162 53.5481C25.3162 53.5481 21.4972 58.028 20.3007 60.1336C19.1041 62.2392 16.7324 67.9355 16.7324 67.9355Z" fill="#FF773B"/>
<path d="M54.9414 40.9329C54.9414 40.9329 57.7502 35.5816 53.5801 35.4158C49.41 35.25 46.3457 35.3822 46.3457 35.3822C46.3457 35.3822 42.4789 35.4068 43.9716 39.4612C45.2781 43.0093 46.7899 45.3434 49.3383 45.3434C52.3548 45.3434 54.9414 40.9329 54.9414 40.9329Z" fill="#505DD6"/>
<path d="M48.9327 42.4761C49.6205 48.4299 52.7923 50.4146 57.9655 50.269C63.1387 50.1211 67.7626 44.5346 64.1586 36.3744C60.5521 28.2142 61.3737 25.2843 60.9438 16.0108C60.5473 7.44736 51.3258 7.19201 49.2694 7.18753C47.3253 7.18305 37.9724 7.7408 37.7383 16.0108C37.4756 25.2888 38.13 28.2142 34.5236 36.3744C30.9171 44.5346 35.5434 50.1211 40.7166 50.269C45.8899 50.4168 49.0616 48.4322 49.7495 42.4761" stroke="#505DD6" stroke-width="0.961486" stroke-miterlimit="10" stroke-linecap="round" stroke-linejoin="round"/>
<path d="M52.874 49.4604C52.874 49.4604 51.9043 51.8035 49.16 51.8057C46.3179 51.8057 45.6133 49.4627 45.6133 49.4627" stroke="#505DD6" stroke-width="0.961486" stroke-miterlimit="10" stroke-linecap="round" stroke-linejoin="round"/>
<path d="M42.9502 8.4596C42.9502 8.4596 42.0808 7.28361 41.5793 5.05932C41.1088 2.97614 38.546 -0.724298 33.2438 2.01967C30.7528 3.3099 29.5753 4.92044 27.4353 6.07626C23.7381 8.07208 23.1338 9.89318 24.0223 11.0378C25.6942 13.1949 30.4494 10.0097 32.4366 8.63655C34.4237 7.26345 37.0509 5.13995 40.5451 9.92678" stroke="#505DD6" stroke-width="0.961486" stroke-miterlimit="10" stroke-linecap="round" stroke-linejoin="round"/>
<path d="M55.9141 8.27148C55.9141 8.27148 56.6592 7.28141 57.1632 5.05712C57.6337 2.97394 60.1964 -0.726495 65.4986 2.01747C67.9897 3.3077 69.1672 4.91824 71.3072 6.07407C75.0044 8.06988 75.6086 9.89098 74.7201 11.0356C73.0483 13.1927 68.293 10.0075 66.3059 8.63436C64.3188 7.26125 61.6915 5.13776 58.1974 9.92458" stroke="#505DD6" stroke-width="0.961486" stroke-miterlimit="10" stroke-linecap="round" stroke-linejoin="round"/>
<path d="M53.7347 24.5875C54.6001 24.5875 55.3015 23.4192 55.3015 21.978C55.3015 20.5368 54.6001 19.3684 53.7347 19.3684C52.8694 19.3684 52.168 20.5368 52.168 21.978C52.168 23.4192 52.8694 24.5875 53.7347 24.5875Z" fill="#505DD6"/>
<path d="M51.7598 17.9234C51.7598 17.9234 54.2676 15.6454 56.7754 18.3647" stroke="#505DD6" stroke-width="0.961486" stroke-miterlimit="10" stroke-linecap="round"/>
<path d="M61.1211 49.4604C61.1211 49.4604 59.8337 79.1827 59.1268 80.5625C60.715 80.1772 64.1185 80.0182 63.9656 82.6457C63.8104 85.2732 59.1268 83.3087 59.1268 83.3087C59.1268 83.3087 63.5453 85.15 61.3623 87.6946C60.3472 88.6869 57.7009 87.9835 57.0178 85.2127C57.2376 86.7851 56.9963 88.7294 54.9232 88.7922C52.8501 88.8549 53.2681 85.5442 54.018 84.2204C52.8262 85.0066 50.7531 85.7727 50.07 84.3234C49.387 82.8764 50.8415 81.3868 52.6949 81.2614C52.6734 80.3519 53.643 62.4568 53.2251 56.6015" stroke="#505DD6" stroke-width="0.961486" stroke-miterlimit="10" stroke-linecap="round" stroke-linejoin="round"/>
<path d="M38.372 54.2378C38.372 54.2378 36.9557 79.1821 37.6602 80.562C36.072 80.1767 32.6685 80.0177 32.8214 82.6451C32.9766 85.2726 37.6602 83.3082 37.6602 83.3082C37.6602 83.3082 33.2417 85.1494 35.4247 87.694C36.4398 88.6864 39.0861 87.983 39.7692 85.2122C39.5494 86.7846 39.7907 88.7289 41.8638 88.7916C43.9369 88.8544 43.5189 85.5437 42.769 84.2198C43.9608 85.0061 46.0339 85.7722 46.717 84.3229C47.4 82.8759 45.9455 81.3863 44.0921 81.2608C44.1136 80.3514 45.1574 62.4563 45.5753 56.601" stroke="#505DD6" stroke-width="0.961486" stroke-miterlimit="10" stroke-linecap="round" stroke-linejoin="round"/>
<path d="M15.7893 71.5423C15.7893 71.5423 8.44745 72.5906 6.40778 69.3561C4.36811 66.1215 5.15388 62.5936 9.1783 59.2605C13.2027 55.9274 19.5247 49.1649 15.3761 47.1848C13.2385 46.1656 11.9082 48.6811 10.3653 51.7678C9.07321 54.3549 8.09397 55.3495 3.58711 59.5651C-1.12994 63.9779 0.346078 72.6891 5.25897 74.6491C10.1719 76.6091 15.1325 75.227 15.1325 75.227" stroke="#505DD6" stroke-width="0.961486" stroke-miterlimit="10" stroke-linecap="round" stroke-linejoin="round"/>
<path d="M33.3024 43.04C33.3024 43.04 30.9211 47.3206 24.9454 54.2377C21.1192 58.6661 18.2628 62.8011 16.1849 70.3028C15.2701 74.1891 12.8602 82.7167 18.012 85.9512C19.7006 86.9077 21.4178 87.237 24.0498 86.6501C26.6818 86.061 31.4442 88.5989 31.695 86.2088C31.8622 85.0328 31.031 84.7976 29.5407 85.0015" stroke="#505DD6" stroke-width="0.961486" stroke-miterlimit="10" stroke-linecap="round" stroke-linejoin="round"/>
<path d="M31.5582 85.0604C31.5582 85.0604 32.5924 82.9414 29.7383 83.4073" stroke="#505DD6" stroke-width="0.961486" stroke-miterlimit="10" stroke-linecap="round" stroke-linejoin="round"/>
<path d="M31.5846 83.2948C31.5846 83.2948 32.4802 81.5432 30.0059 81.9105" stroke="#505DD6" stroke-width="0.961486" stroke-miterlimit="10" stroke-linecap="round" stroke-linejoin="round"/>
<path d="M31.5491 81.6486C31.5491 81.6486 32.1486 78.9785 26.7676 80.3763C27.1091 79.4333 32.2489 71.1454 27.5987 65.2632" stroke="#505DD6" stroke-width="0.961486" stroke-miterlimit="10" stroke-linecap="round" stroke-linejoin="round"/>
<path d="M32.9937 81.5054C32.2246 81.7386 32.2867 81.7722 31.7422 81.8844" stroke="#505DD6" stroke-width="0.961486" stroke-miterlimit="10" stroke-linecap="round" stroke-linejoin="round"/>
<path d="M53.2279 66.8604C53.2279 66.8604 52.232 73.4414 44.25 78.2506" stroke="#505DD6" stroke-width="0.961486" stroke-miterlimit="10" stroke-linecap="round" stroke-linejoin="round"/>
<path d="M25.4569 53.6443C25.4569 53.6443 30.4557 57.1812 27.5515 61.3296C24.6472 65.4781 20.4055 62.7923 19.4382 65.3235C18.4709 67.8547 16.873 68.0316 16.873 68.0316" stroke="#505DD6" stroke-width="0.961486" stroke-miterlimit="10" stroke-linecap="round" stroke-linejoin="round"/>
</svg>
