<svg width="21" height="21" viewBox="0 0 21 21" fill="none" xmlns="http://www.w3.org/2000/svg">
<g id="Group 139">
<g id="Group 269">
<g id="Vector">
<mask id="path-1-inside-1_2111_2158" fill="white">
<path d="M15.4871 14.5228C14.749 13.1957 13.6114 12.2441 12.2838 11.793C12.9405 11.3865 13.4507 10.767 13.7361 10.0298C14.0214 9.29255 14.0662 8.47828 13.8635 7.71202C13.6607 6.94577 13.2217 6.26991 12.6139 5.78822C12.006 5.30653 11.263 5.04565 10.4987 5.04565C9.73451 5.04565 8.99142 5.30653 8.38357 5.78822C7.77572 6.26991 7.33673 6.94577 7.13401 7.71202C6.93128 8.47828 6.97604 9.29255 7.26141 10.0298C7.54677 10.767 8.05696 11.3865 8.71363 11.793C7.38607 12.2436 6.24851 13.1952 5.51034 14.5228C5.48327 14.5687 5.46531 14.6198 5.45753 14.673C5.44975 14.7263 5.4523 14.7806 5.46503 14.8328C5.47776 14.885 5.50042 14.934 5.53166 14.9769C5.5629 15.0199 5.6021 15.0559 5.64693 15.0828C5.69177 15.1097 5.74134 15.1271 5.79272 15.1337C5.8441 15.1404 5.89624 15.1364 5.94608 15.1217C5.99592 15.1071 6.04243 15.0823 6.08289 15.0487C6.12335 15.0151 6.15692 14.9734 6.18163 14.9261C7.09478 13.2849 8.70878 12.3051 10.4987 12.3051C12.2887 12.3051 13.9027 13.2849 14.8158 14.9261C14.8405 14.9734 14.8741 15.0151 14.9146 15.0487C14.955 15.0823 15.0015 15.1071 15.0514 15.1217C15.1012 15.1364 15.1534 15.1404 15.2047 15.1337C15.2561 15.1271 15.3057 15.1097 15.3505 15.0828C15.3954 15.0559 15.4346 15.0199 15.4658 14.9769C15.497 14.934 15.5197 14.885 15.5324 14.8328C15.5452 14.7806 15.5477 14.7263 15.5399 14.673C15.5322 14.6198 15.5142 14.5687 15.4871 14.5228ZM7.78449 8.67606C7.78449 8.1178 7.94367 7.57209 8.24192 7.10792C8.54016 6.64375 8.96407 6.28197 9.46004 6.06833C9.956 5.8547 10.5017 5.7988 11.0283 5.90771C11.5548 6.01662 12.0384 6.28545 12.418 6.68019C12.7976 7.07494 13.0561 7.57787 13.1608 8.1254C13.2656 8.67293 13.2118 9.24045 13.0064 9.75621C12.8009 10.272 12.453 10.7128 12.0067 11.0229C11.5603 11.3331 11.0356 11.4986 10.4987 11.4986C9.77911 11.4978 9.08917 11.2002 8.58032 10.671C8.07147 10.1419 7.78526 9.42441 7.78449 8.67606Z"/>
</mask>
<path d="M15.4871 14.5228C14.749 13.1957 13.6114 12.2441 12.2838 11.793C12.9405 11.3865 13.4507 10.767 13.7361 10.0298C14.0214 9.29255 14.0662 8.47828 13.8635 7.71202C13.6607 6.94577 13.2217 6.26991 12.6139 5.78822C12.006 5.30653 11.263 5.04565 10.4987 5.04565C9.73451 5.04565 8.99142 5.30653 8.38357 5.78822C7.77572 6.26991 7.33673 6.94577 7.13401 7.71202C6.93128 8.47828 6.97604 9.29255 7.26141 10.0298C7.54677 10.767 8.05696 11.3865 8.71363 11.793C7.38607 12.2436 6.24851 13.1952 5.51034 14.5228C5.48327 14.5687 5.46531 14.6198 5.45753 14.673C5.44975 14.7263 5.4523 14.7806 5.46503 14.8328C5.47776 14.885 5.50042 14.934 5.53166 14.9769C5.5629 15.0199 5.6021 15.0559 5.64693 15.0828C5.69177 15.1097 5.74134 15.1271 5.79272 15.1337C5.8441 15.1404 5.89624 15.1364 5.94608 15.1217C5.99592 15.1071 6.04243 15.0823 6.08289 15.0487C6.12335 15.0151 6.15692 14.9734 6.18163 14.9261C7.09478 13.2849 8.70878 12.3051 10.4987 12.3051C12.2887 12.3051 13.9027 13.2849 14.8158 14.9261C14.8405 14.9734 14.8741 15.0151 14.9146 15.0487C14.955 15.0823 15.0015 15.1071 15.0514 15.1217C15.1012 15.1364 15.1534 15.1404 15.2047 15.1337C15.2561 15.1271 15.3057 15.1097 15.3505 15.0828C15.3954 15.0559 15.4346 15.0199 15.4658 14.9769C15.497 14.934 15.5197 14.885 15.5324 14.8328C15.5452 14.7806 15.5477 14.7263 15.5399 14.673C15.5322 14.6198 15.5142 14.5687 15.4871 14.5228ZM7.78449 8.67606C7.78449 8.1178 7.94367 7.57209 8.24192 7.10792C8.54016 6.64375 8.96407 6.28197 9.46004 6.06833C9.956 5.8547 10.5017 5.7988 11.0283 5.90771C11.5548 6.01662 12.0384 6.28545 12.418 6.68019C12.7976 7.07494 13.0561 7.57787 13.1608 8.1254C13.2656 8.67293 13.2118 9.24045 13.0064 9.75621C12.8009 10.272 12.453 10.7128 12.0067 11.0229C11.5603 11.3331 11.0356 11.4986 10.4987 11.4986C9.77911 11.4978 9.08917 11.2002 8.58032 10.671C8.07147 10.1419 7.78526 9.42441 7.78449 8.67606Z" fill="black"/>
<path d="M15.4871 14.5228L14.4384 15.1061L14.4458 15.1194L14.4535 15.1324L15.4871 14.5228ZM12.2838 11.793L11.6522 10.7727L9.49021 12.1111L11.8977 12.9292L12.2838 11.793ZM10.4987 5.04565V3.84565V5.04565ZM8.71363 11.793L9.09933 12.9293L11.5082 12.1117L9.34527 10.7727L8.71363 11.793ZM5.51034 14.5228L6.54397 15.1324L6.55171 15.1193L6.55912 15.106L5.51034 14.5228ZM6.18163 14.9261L5.13302 14.3426L5.12528 14.3565L5.11791 14.3706L6.18163 14.9261ZM14.8158 14.9261L15.8795 14.3706L15.8722 14.3565L15.8644 14.3426L14.8158 14.9261ZM7.78449 8.67606H6.58449L6.58449 8.67729L7.78449 8.67606ZM10.4987 11.4986L10.4974 12.6986H10.4987V11.4986ZM16.5358 13.9395C15.6597 12.3645 14.2921 11.208 12.6699 10.6568L11.8977 12.9292C12.9306 13.2802 13.8382 14.027 14.4384 15.1061L16.5358 13.9395ZM12.9155 12.8133C13.7998 12.2659 14.4779 11.4375 14.8551 10.463L12.617 9.59662C12.4235 10.0965 12.0812 10.5071 11.6522 10.7727L12.9155 12.8133ZM14.8551 10.463C15.2322 9.48886 15.2909 8.41551 15.0235 7.40511L12.7034 8.01894C12.8415 8.54105 12.8107 9.09623 12.617 9.59662L14.8551 10.463ZM15.0235 7.40511C14.7561 6.39435 14.1748 5.49406 13.3592 4.84772L11.8686 6.72871C12.2687 7.04575 12.5653 7.49719 12.7034 8.01894L15.0235 7.40511ZM13.3592 4.84772C12.5427 4.20069 11.5379 3.84565 10.4987 3.84565V6.24565C10.988 6.24565 11.4694 6.41237 11.8686 6.72871L13.3592 4.84772ZM10.4987 3.84565C9.4596 3.84565 8.45477 4.20069 7.63828 4.84772L9.12887 6.72871C9.52806 6.41237 10.0094 6.24565 10.4987 6.24565V3.84565ZM7.63828 4.84772C6.82265 5.49406 6.24133 6.39435 5.97392 7.40511L8.29409 8.01894C8.43213 7.49719 8.7288 7.04575 9.12887 6.72871L7.63828 4.84772ZM5.97392 7.40511C5.70661 8.41551 5.76527 9.48886 6.14231 10.463L8.3805 9.59662C8.18681 9.09623 8.15596 8.54105 8.29409 8.01894L5.97392 7.40511ZM6.14231 10.463C6.51955 11.4375 7.1977 12.2659 8.08199 12.8133L9.34527 10.7727C8.91622 10.5071 8.57399 10.0965 8.3805 9.59662L6.14231 10.463ZM8.32793 10.6567C6.70534 11.2074 5.33763 12.3641 4.46155 13.9397L6.55912 15.106C7.15939 14.0264 8.06681 13.2798 9.09933 12.9293L8.32793 10.6567ZM4.4767 13.9132C4.36983 14.0945 4.30021 14.2938 4.27015 14.4995L6.64491 14.8466C6.63041 14.9458 6.5967 15.043 6.54397 15.1324L4.4767 13.9132ZM4.27015 14.4995C4.24009 14.7051 4.24988 14.9149 4.29921 15.1172L6.63084 14.5484C6.65472 14.6463 6.6594 14.7474 6.64491 14.8466L4.27015 14.4995ZM4.29921 15.1172C4.34856 15.3195 4.43697 15.512 4.56131 15.6829L6.50201 14.2709C6.56387 14.356 6.60696 14.4505 6.63084 14.5484L4.29921 15.1172ZM4.56131 15.6829C4.68573 15.8539 4.84412 16.0004 5.02903 16.1115L6.26484 14.0541C6.36007 14.1113 6.44007 14.1858 6.50201 14.2709L4.56131 15.6829ZM5.02903 16.1115C5.21408 16.2226 5.42107 16.2955 5.63783 16.3237L5.9476 13.9438C6.06161 13.9586 6.16946 13.9968 6.26484 14.0541L5.02903 16.1115ZM5.63783 16.3237C5.85465 16.3519 6.07448 16.3346 6.28365 16.2733L5.60851 13.9702C5.718 13.9381 5.83355 13.9289 5.9476 13.9438L5.63783 16.3237ZM6.28365 16.2733C6.4927 16.212 6.68491 16.1086 6.8497 15.9717L5.31608 14.1256C5.39996 14.056 5.49913 14.0023 5.60851 13.9702L6.28365 16.2733ZM6.8497 15.9717C7.01438 15.8349 7.14814 15.6676 7.24534 15.4815L5.11791 14.3706C5.1657 14.2791 5.23231 14.1952 5.31608 14.1256L6.8497 15.9717ZM7.23023 15.5095C7.94451 14.2258 9.17017 13.5051 10.4987 13.5051V11.1051C8.2474 11.1051 6.24504 12.3441 5.13302 14.3426L7.23023 15.5095ZM10.4987 13.5051C11.8273 13.5051 13.053 14.2258 13.7672 15.5095L15.8644 14.3426C14.7524 12.3441 12.7501 11.1051 10.4987 11.1051V13.5051ZM13.7521 15.4815C13.8493 15.6676 13.9831 15.8349 14.1478 15.9717L15.6814 14.1256C15.7652 14.1952 15.8318 14.2791 15.8795 14.3706L13.7521 15.4815ZM14.1478 15.9717C14.3126 16.1086 14.5048 16.212 14.7138 16.2733L15.389 13.9702C15.4983 14.0023 15.5975 14.056 15.6814 14.1256L14.1478 15.9717ZM14.7138 16.2733C14.923 16.3346 15.1428 16.3519 15.3596 16.3237L15.0499 13.9438C15.1639 13.9289 15.2795 13.9381 15.389 13.9702L14.7138 16.2733ZM15.3596 16.3237C15.5764 16.2955 15.7834 16.2226 15.9684 16.1115L14.7326 14.0541C14.828 13.9968 14.9359 13.9586 15.0499 13.9438L15.3596 16.3237ZM15.9684 16.1115C16.1533 16.0004 16.3117 15.8539 16.4362 15.6829L14.4955 14.2709C14.5574 14.1858 14.6374 14.1113 14.7326 14.0541L15.9684 16.1115ZM16.4362 15.6829C16.5605 15.512 16.6489 15.3195 16.6982 15.1172L14.3666 14.5484C14.3905 14.4505 14.4336 14.356 14.4955 14.2709L16.4362 15.6829ZM16.6982 15.1172C16.7476 14.9149 16.7574 14.7051 16.7273 14.4995L14.3526 14.8466C14.3381 14.7475 14.3427 14.6463 14.3666 14.5484L16.6982 15.1172ZM16.7273 14.4995C16.6973 14.2938 16.6276 14.0945 16.5208 13.9132L14.4535 15.1324C14.4008 15.043 14.3671 14.9458 14.3526 14.8466L16.7273 14.4995ZM8.98449 8.67606C8.98449 8.34493 9.07912 8.02484 9.25148 7.75659L7.23236 6.45924C6.80823 7.11933 6.58449 7.89068 6.58449 8.67606H8.98449ZM9.25148 7.75659C9.42355 7.4888 9.66325 7.28739 9.93476 7.17044L8.98531 4.96623C8.26489 5.27655 7.65678 5.79869 7.23236 6.45924L9.25148 7.75659ZM9.93476 7.17044C10.2057 7.05374 10.5009 7.02403 10.7852 7.08284L11.2713 4.73259C10.5026 4.57357 9.70632 4.65566 8.98531 4.96623L9.93476 7.17044ZM10.7852 7.08284C11.0698 7.14172 11.338 7.28835 11.553 7.51196L13.283 5.84843C12.7388 5.28255 12.0397 4.89153 11.2713 4.73259L10.7852 7.08284ZM11.553 7.51196C11.7685 7.73607 11.9203 8.0272 11.9822 8.35085L14.3395 7.89995C14.1919 7.12855 13.8266 6.4138 13.283 5.84843L11.553 7.51196ZM11.9822 8.35085C12.0441 8.67467 12.012 9.00985 11.8916 9.31216L14.1212 10.2003C14.4116 9.47106 14.487 8.67118 14.3395 7.89995L11.9822 8.35085ZM11.8916 9.31216C11.7713 9.61414 11.5706 9.86473 11.3219 10.0375L12.6914 12.0084C13.3355 11.5609 13.8306 10.9298 14.1212 10.2003L11.8916 9.31216ZM11.3219 10.0375C11.0739 10.2098 10.7875 10.2986 10.4987 10.2986V12.6986C11.2836 12.6986 12.0467 12.4564 12.6914 12.0084L11.3219 10.0375ZM10.5001 10.2986C10.1137 10.2982 9.73335 10.1388 9.44529 9.83927L7.71536 11.5028C8.44499 12.2616 9.4445 12.6975 10.4974 12.6986L10.5001 10.2986ZM9.44529 9.83927C9.15569 9.53812 8.98494 9.12015 8.98449 8.67482L6.58449 8.67729C6.58557 9.72866 6.98724 10.7456 7.71536 11.5028L9.44529 9.83927Z" fill="white" mask="url(#path-1-inside-1_2111_2158)"/>
</g>
<circle id="Ellipse 33" cx="10.5" cy="10.5" r="10" stroke="white"/>
</g>
</g>
</svg>
