<svg width="65" height="78" viewBox="0 0 65 78" fill="none" xmlns="http://www.w3.org/2000/svg">
<path d="M14.5475 32.364C16.9361 32.0703 18.6986 29.9599 18.484 27.6504C18.2694 25.3409 16.1591 23.7067 13.7704 24.0004C11.3817 24.2941 9.61927 26.4045 9.83385 28.714C10.0484 31.0236 12.1588 32.6577 14.5475 32.364Z" fill="#FF773B"/>
<path d="M14.5919 32.8438C11.9685 33.1664 9.57946 31.38 9.33742 28.775C9.10175 26.2385 11.0314 23.8517 13.7257 23.5204C16.42 23.1891 18.7382 24.9842 18.9802 27.5893C19.145 30.1345 17.2154 32.5212 14.5919 32.8438ZM13.8085 24.4116C11.6814 24.6732 10.0681 26.605 10.2592 28.6616C10.4502 30.7183 12.3821 32.2142 14.5091 31.9526C16.6362 31.6911 18.2496 29.7592 18.0585 27.7026C17.8674 25.646 15.9356 24.1501 13.8085 24.4116Z" fill="#505DD6"/>
<path d="M56.9322 71.5403C59.3209 71.2466 61.0834 69.1362 60.8688 66.8267C60.6542 64.5171 58.5438 62.883 56.1552 63.1767C53.7665 63.4704 52.004 65.5808 52.2186 67.8903C52.4332 70.1999 54.5436 71.834 56.9322 71.5403Z" fill="#FF773B"/>
<path d="M56.9767 72.0201C54.3533 72.3426 51.9642 70.5563 51.7222 67.9512C51.4865 65.4147 53.4162 63.028 56.1105 62.6967C58.8048 62.3654 61.1229 64.1605 61.365 66.7656C61.5298 69.3108 59.6001 71.6975 56.9767 72.0201ZM56.1933 63.5879C54.0662 63.8495 52.4528 65.7813 52.6439 67.8379C52.835 69.8945 54.7668 71.3904 56.8939 71.1289C59.021 70.8673 60.6343 68.9355 60.4432 66.8789C60.2522 64.8223 58.3204 63.3264 56.1933 63.5879Z" fill="#505DD6"/>
<path d="M18.3204 23.1714C19.6518 23.0077 20.6341 21.8314 20.5145 20.5441C20.3949 19.2569 19.2187 18.346 17.8873 18.5097C16.5559 18.6734 15.5735 19.8497 15.6931 21.137C15.8127 22.4243 16.989 23.3351 18.3204 23.1714Z" fill="#FF773B"/>
<path d="M18.3593 23.5828C16.7995 23.7746 15.4086 22.6976 15.2684 21.1894C15.1283 19.6812 16.2899 18.2903 17.8498 18.0985C19.4096 17.9067 20.8005 18.9838 20.9406 20.492C21.1517 21.9914 19.9901 23.3823 18.3593 23.5828ZM17.9262 18.9212C16.8627 19.052 16.0174 19.9879 16.1193 21.0848C16.2148 22.1131 17.1485 22.8997 18.2829 22.7602C19.4173 22.6207 20.1917 21.6934 20.0898 20.5966C19.9943 19.5683 19.0606 18.7817 17.9262 18.9212Z" fill="#505DD6"/>
<path d="M60.7598 62.2007C62.0912 62.037 63.0736 60.8607 62.954 59.5735C62.8344 58.2862 61.6581 57.3753 60.3267 57.539C58.9953 57.7027 58.013 58.879 58.1326 60.1663C58.2522 61.4536 59.4284 62.3644 60.7598 62.2007Z" fill="#FF773B"/>
<path d="M60.7988 62.6122C59.2389 62.804 57.848 61.7269 57.7079 60.2187C57.5678 58.7105 58.7294 57.3196 60.2892 57.1278C61.8491 56.936 63.24 58.0131 63.3801 59.5213C63.5203 61.0295 62.3587 62.4204 60.7988 62.6122ZM60.3657 57.9505C59.3021 58.0813 58.4568 59.0172 58.5587 60.1141C58.6543 61.1424 59.5879 61.929 60.7224 61.7895C61.7859 61.6587 62.6312 60.7228 62.5293 59.6259C62.4338 58.5976 61.4292 57.8197 60.3657 57.9505Z" fill="#505DD6"/>
<path d="M13.1253 22.684C13.9868 22.578 14.6224 21.8169 14.545 20.984C14.4676 20.151 13.7065 19.5616 12.845 19.6676C11.9835 19.7735 11.3479 20.5346 11.4253 21.3676C11.5027 22.2005 12.2638 22.7899 13.1253 22.684Z" fill="#FF773B"/>
<path d="M13.1513 22.9583C12.1586 23.0803 11.2313 22.3623 11.1422 21.4025C11.053 20.4428 11.8274 19.5155 12.82 19.3934C13.8127 19.2714 14.74 19.9894 14.8291 20.9492C14.9183 21.9089 14.1439 22.8362 13.1513 22.9583ZM12.871 19.9419C12.162 20.0291 11.6457 20.6472 11.7094 21.3328C11.7731 22.0183 12.3913 22.497 13.1003 22.4098C13.8093 22.3226 14.3256 21.7045 14.2619 21.0189C14.1982 20.3334 13.58 19.8547 12.871 19.9419Z" fill="#505DD6"/>
<path d="M55.3577 61.1C56.2192 60.994 56.8548 60.2329 56.7774 59.4C56.7 58.567 55.9389 57.9777 55.0774 58.0836C54.216 58.1895 53.5803 58.9506 53.6577 59.7836C53.7351 60.6165 54.4962 61.2059 55.3577 61.1Z" fill="#FF773B"/>
<path d="M55.3837 61.3743C54.391 61.4963 53.4638 60.7783 53.3746 59.8185C53.2854 58.8588 54.0598 57.9315 55.0525 57.8095C56.0451 57.6874 56.9724 58.4054 57.0615 59.3652C57.0798 60.3337 56.3763 61.2522 55.3837 61.3743ZM55.1034 58.3579C54.3944 58.4451 53.8781 59.0632 53.9418 59.7488C54.0055 60.4343 54.6237 60.913 55.3327 60.8258C56.0417 60.7387 56.558 60.1205 56.4943 59.4349C56.3597 58.7581 55.7415 58.2794 55.1034 58.3579Z" fill="#505DD6"/>
<path d="M44.505 67.9496L35.3192 69.1122C31.6741 69.5735 28.4294 67.1183 28.1176 63.6627L24.4073 22.5416C24.0955 19.086 26.8289 15.8741 30.474 15.4128L39.6598 14.2502C43.305 13.7889 46.5497 16.2442 46.8614 19.6997L50.5717 60.8209C50.8898 64.3456 48.1502 67.4883 44.505 67.9496Z" fill="#FAE6CE"/>
<path d="M44.5371 68.3578L35.3579 69.5206C31.424 70.019 28.0174 67.3756 27.6873 63.7136L23.9811 22.6025C23.6448 18.8715 26.5824 15.4943 30.4434 15.0052L39.6226 13.8424C43.5565 13.3441 46.9632 15.9874 47.2933 19.6494L50.9994 60.7605C51.3357 64.4916 48.471 67.8595 44.5371 68.3578ZM30.5244 15.9035C27.1004 16.3372 24.5688 19.3135 24.8616 22.5609L28.5677 63.672C28.8604 66.9194 31.8654 69.1943 35.2894 68.7606L44.4686 67.5978C47.8925 67.164 50.4242 64.1878 50.1314 60.9404L46.4253 19.8293C46.1326 16.5818 43.1275 14.3069 39.7036 14.7407L30.5244 15.9035Z" fill="#505DD6"/>
<path d="M25.1573 28.4594C25.1573 28.4594 36.8265 32.3847 47.0706 25.6272C47.6783 32.1647 49.3287 49.9192 49.3287 49.9192C49.3287 49.9192 41.2057 57.8081 27.4346 52.9579C26.8269 46.4204 25.1573 28.4594 25.1573 28.4594Z" fill="#FF773B"/>
<path d="M38.9739 54.7388C35.7701 55.1325 31.8616 54.9168 27.2493 53.3258L27.0229 53.2144L24.6559 27.7509L25.3222 27.9474C25.3222 27.9474 28.2204 28.9138 32.336 29.0345C36.0893 29.1301 41.6553 28.5853 46.8102 25.1675L47.419 24.7447L49.7603 49.9329L49.6307 50.088C49.5659 50.1656 47.5188 52.1573 43.6863 53.5332C42.372 54.1124 40.8249 54.5113 38.9739 54.7388ZM27.8324 52.6277C34.6766 54.9885 40.0618 54.0482 43.3376 52.88C46.4062 51.8068 48.278 50.2543 48.8804 49.7626L46.7054 26.3637C41.4601 29.5837 35.9653 30.1198 32.2832 30.0154C29.1771 29.9099 26.8221 29.3641 25.7158 29.0824L27.9036 52.6189L27.8324 52.6277Z" fill="#505DD6"/>
<path d="M31.0413 43.2464C29.71 41.2181 26.7219 37.5474 24.8335 35.7286C23.5745 34.516 21.5159 34.0254 19.8684 34.9254C15.8858 37.0892 9.96725 41.7716 6.66836 45.1534C5.41273 46.4154 4.90481 47.9934 6.05267 50.3891C7.11131 52.59 10.2839 56.7181 12.463 58.5682C13.7931 59.7716 15.9218 59.4282 17.5693 58.5282C21.5458 56.2964 27.3993 51.6912 30.627 48.3185C32.0249 47.0382 32.9549 46.162 31.0413 43.2464Z" fill="#FF773B"/>
<path d="M15.4468 59.7704C14.3083 59.9173 13.1396 59.7243 12.2786 58.9416C10.0935 57.0235 6.84969 52.9045 5.78502 50.6355C4.72035 48.3666 4.91956 46.5534 6.5069 44.9736C9.9361 41.4374 15.8607 36.823 19.7722 34.6683C21.4909 33.759 23.6799 34.0954 25.2475 35.5431C27.2132 37.4208 30.2013 41.0916 31.5326 43.1199C33.6066 46.2211 32.4872 47.3967 31.2316 48.6588L31.1665 48.7359C27.8084 52.2629 21.8838 56.8774 17.9723 59.032C17.2077 59.3369 16.3007 59.6602 15.4468 59.7704ZM21.2375 34.9605C20.8817 35.0064 20.4608 35.1295 20.1171 35.3113C16.2768 37.4568 10.4173 41.9941 7.05318 45.4531C6.12924 46.3973 5.31259 47.7402 6.53764 50.1947C7.59629 52.3956 10.7629 56.4559 12.8648 58.2472C14.1178 59.3918 16.1633 58.9217 17.4671 58.2035C21.3074 56.058 27.0957 51.5299 30.4598 48.0708L30.5249 47.9937C31.7154 46.8088 32.3668 46.0373 30.7028 43.5019C29.4487 41.5324 26.4605 37.8617 24.5721 36.0428C23.7171 35.3281 22.5183 34.7952 21.2375 34.9605Z" fill="#505DD6"/>
<path d="M27.8969 43.9596C26.9082 42.5218 24.8938 40.0606 23.4827 38.7476C22.5458 37.9173 20.9955 37.5105 19.7574 38.2225C16.7217 39.858 12.326 43.3143 9.79916 45.8375C8.86943 46.7813 8.4622 47.9282 9.33135 49.6552C10.1176 51.2567 12.5002 53.805 14.1312 55.1569C15.1394 55.9776 16.7091 55.7674 17.9531 55.1229C20.9888 53.4873 25.1819 50.1948 27.6432 47.7486C28.5672 46.7373 29.3001 46.0247 27.8969 43.9596Z" fill="#FAE6CE"/>
<path d="M16.2972 56.0263C15.441 56.141 14.4903 55.9952 13.7905 55.4062C12.0823 53.9963 9.69386 51.3803 8.90756 49.7787C8.04415 48.1191 8.28563 46.7212 9.48352 45.5366C11.808 43.177 16.335 39.5664 19.5077 37.8441C20.8173 37.1225 22.5702 37.3656 23.7442 38.4374C25.1554 39.7505 27.1698 42.2117 28.2358 43.7076C29.7219 45.8983 29.0775 46.8039 27.9452 47.9115L27.8797 47.9885C25.2215 50.666 21.0224 53.8913 18.0522 55.4498C17.6414 55.7097 16.9394 55.9403 16.2972 56.0263ZM20.7726 38.2892C20.4872 38.3274 20.2076 38.4332 19.9279 38.5389C16.8208 40.1841 12.4364 43.7755 10.1062 46.0677C9.37322 46.7804 8.87157 47.6669 9.74075 49.394C10.5213 50.9281 12.7555 53.4282 14.3865 54.7801C15.3177 55.543 16.7333 55.2168 17.6976 54.678C20.5251 53.1385 24.7242 49.9133 27.2512 47.3899L27.3168 47.3129C28.181 46.4461 28.6458 45.9741 27.4797 44.1503C26.4851 42.6448 24.4765 40.2511 23.1424 38.9959C22.5968 38.5228 21.7002 38.1649 20.7726 38.2892Z" fill="#505DD6"/>
<path d="M18.5622 47.0411C18.9163 46.9953 19.1791 46.684 19.1491 46.3456C19.1192 46.0072 18.8078 45.77 18.4537 45.8157C18.0996 45.8614 17.8368 46.1727 17.8668 46.5111C17.8967 46.8495 18.2081 47.0868 18.5622 47.0411Z" fill="#505DD6"/>
<path d="M21.1345 47.3306C21.4886 47.2849 21.7514 46.9735 21.7214 46.6351C21.6915 46.2968 21.3801 46.0595 21.026 46.1052C20.6718 46.1509 20.4091 46.4623 20.439 46.8007C20.469 47.139 20.7803 47.3763 21.1345 47.3306Z" fill="#505DD6"/>
<path d="M18.9724 49.5391C19.3265 49.4934 19.5893 49.182 19.5593 48.8436C19.5293 48.5053 19.218 48.268 18.8639 48.3137C18.5097 48.3594 18.2469 48.6708 18.2769 49.0092C18.3069 49.3476 18.6182 49.5848 18.9724 49.5391Z" fill="#505DD6"/>
<path d="M18.8063 51.9576C19.1605 51.9118 19.4233 51.6005 19.3933 51.2621C19.3633 50.9237 19.052 50.6865 18.6978 50.7322C18.3437 50.7779 18.0809 51.0892 18.1109 51.4276C18.1409 51.766 18.4522 52.0033 18.8063 51.9576Z" fill="#505DD6"/>
<path d="M21.6755 49.7442C22.0296 49.6985 22.2924 49.3871 22.2624 49.0487C22.2325 48.7103 21.9211 48.4731 21.567 48.5188C21.2129 48.5645 20.9501 48.8759 20.98 49.2142C21.01 49.5526 21.3214 49.7899 21.6755 49.7442Z" fill="#505DD6"/>
<path d="M35.7904 63.5745L26.1948 53.2655L21.0605 57.3856L29.715 68.5076C30.9394 70.0782 33.3547 70.3888 35.1239 69.1232C36.9526 67.7117 37.307 65.1766 35.7904 63.5745ZM32.9816 67.8093C32.1231 67.9202 31.3472 67.3288 31.2746 66.5084C31.2019 65.688 31.8568 64.912 32.7153 64.8012C33.5738 64.6904 34.3497 65.2817 34.4223 66.1021C34.495 66.9225 33.8401 67.6985 32.9816 67.8093Z" fill="#FF773B"/>
<path d="M33.1991 70.2632C31.6974 70.4571 30.2067 69.9583 29.3051 68.7613L20.4091 57.3291L26.2203 52.7081L36.1284 63.3183C36.9282 64.1828 37.3171 65.3077 37.134 66.5065C37.0223 67.696 36.3204 68.7543 35.3737 69.4986C34.6827 69.8643 33.9858 70.1617 33.1991 70.2632ZM21.649 57.4456L30.0494 68.1814C31.1121 69.5649 33.3059 69.8347 34.8005 68.7431C35.6163 68.154 36.1218 67.3284 36.2577 66.4122C36.3936 65.4961 36.0943 64.567 35.4557 63.889L26.1086 53.8976L21.649 57.4456ZM33.0176 68.2129C31.8734 68.3606 30.9367 67.583 30.8459 66.5578C30.7491 65.4643 31.6061 64.5242 32.6788 64.3857C33.7515 64.2473 34.7598 65.0157 34.8505 66.0409C34.9474 67.1343 34.1618 68.0652 33.0176 68.2129ZM32.7575 65.2742C32.1139 65.3573 31.6556 65.9003 31.7101 66.5154C31.7645 67.1305 32.3075 67.5442 32.9511 67.4612C33.5947 67.3781 34.0529 66.8351 33.9985 66.22C33.944 65.6049 33.4011 65.1911 32.7575 65.2742Z" fill="#505DD6"/>
<path d="M14.1657 45.5337C14.5198 45.488 14.7826 45.1766 14.7527 44.8383C14.7227 44.4999 14.4113 44.2626 14.0572 44.3083C13.7031 44.3541 13.4403 44.6654 13.4703 45.0038C13.5002 45.3422 13.8116 45.5794 14.1657 45.5337Z" fill="#505DD6"/>
<path d="M12.0153 47.8819C12.3695 47.8362 12.6322 47.5248 12.6023 47.1864C12.5723 46.848 12.2609 46.6108 11.9068 46.6565C11.5527 46.7022 11.2899 47.0136 11.3199 47.3519C11.3498 47.6903 11.6612 47.9276 12.0153 47.8819Z" fill="#505DD6"/>
<path d="M16.6696 43.854C17.0238 43.8083 17.2865 43.497 17.2566 43.1586C17.2266 42.8202 16.9152 42.583 16.5611 42.6287C16.207 42.6744 15.9442 42.9857 15.9742 43.3241C16.0041 43.6625 16.3155 43.8997 16.6696 43.854Z" fill="#505DD6"/>
<path d="M19.1501 41.9649C19.5042 41.9192 19.767 41.6078 19.737 41.2694C19.7071 40.9311 19.3957 40.6938 19.0416 40.7395C18.6875 40.7852 18.4247 41.0966 18.4546 41.435C18.4846 41.7733 18.796 42.0106 19.1501 41.9649Z" fill="#505DD6"/>
<path d="M21.1579 40.2676C21.512 40.2219 21.7748 39.9105 21.7449 39.5722C21.7149 39.2338 21.4035 38.9965 21.0494 39.0422C20.6953 39.0879 20.4325 39.3993 20.4625 39.7377C20.4924 40.0761 20.8038 40.3133 21.1579 40.2676Z" fill="#505DD6"/>
<path d="M21.4724 42.564C21.8265 42.5183 22.0893 42.2069 22.0593 41.8686C22.0293 41.5302 21.718 41.2929 21.3639 41.3386C21.0097 41.3843 20.7469 41.6957 20.7769 42.0341C20.8069 42.3725 21.1182 42.6097 21.4724 42.564Z" fill="#505DD6"/>
<path d="M19.0622 44.4453C19.4163 44.3996 19.6791 44.0883 19.6491 43.7499C19.6192 43.4115 19.3078 43.1743 18.9537 43.22C18.5996 43.2657 18.3368 43.5771 18.3668 43.9154C18.3967 44.2538 18.7081 44.4911 19.0622 44.4453Z" fill="#505DD6"/>
<path d="M16.7204 46.3199C17.0745 46.2741 17.3373 45.9628 17.3074 45.6244C17.2774 45.286 16.966 45.0488 16.6119 45.0945C16.2578 45.1402 15.995 45.4516 16.025 45.7899C16.0549 46.1283 16.3663 46.3656 16.7204 46.3199Z" fill="#505DD6"/>
<path d="M14.7048 47.9473C15.0589 47.9016 15.3217 47.5902 15.2917 47.2518C15.2618 46.9135 14.9504 46.6762 14.5963 46.7219C14.2422 46.7676 13.9794 47.079 14.0093 47.4174C14.0393 47.7557 14.3507 47.993 14.7048 47.9473Z" fill="#505DD6"/>
<path d="M13.8493 50.5103C14.2034 50.4646 14.4662 50.1532 14.4363 49.8148C14.4063 49.4765 14.0949 49.2392 13.7408 49.2849C13.3867 49.3306 13.1239 49.642 13.1539 49.9804C13.1838 50.3187 13.4952 50.556 13.8493 50.5103Z" fill="#505DD6"/>
<path d="M16.904 48.7007C17.2581 48.655 17.5209 48.3436 17.4909 48.0053C17.461 47.6669 17.1496 47.4296 16.7955 47.4753C16.4414 47.5211 16.1786 47.8324 16.2086 48.1708C16.2385 48.5092 16.5499 48.7464 16.904 48.7007Z" fill="#505DD6"/>
<path d="M21.3161 45.0518C21.6702 45.0061 21.933 44.6947 21.9031 44.3563C21.8731 44.018 21.5617 43.7807 21.2076 43.8264C20.8535 43.8721 20.5907 44.1835 20.6207 44.5219C20.6506 44.8603 20.962 45.0975 21.3161 45.0518Z" fill="#505DD6"/>
<path d="M24.0681 43.063C24.4222 43.0173 24.685 42.7059 24.655 42.3676C24.625 42.0292 24.3137 41.7919 23.9596 41.8376C23.6054 41.8834 23.3426 42.1947 23.3726 42.5331C23.4026 42.8715 23.7139 43.1087 24.0681 43.063Z" fill="#505DD6"/>
<path d="M23.82 45.3492C24.1741 45.3034 24.4369 44.9921 24.407 44.6537C24.377 44.3153 24.0656 44.0781 23.7115 44.1238C23.3574 44.1695 23.0946 44.4809 23.1246 44.8192C23.1545 45.1576 23.4659 45.3949 23.82 45.3492Z" fill="#505DD6"/>
<path d="M16.5583 51.4209C16.9124 51.3752 17.1752 51.0639 17.1452 50.7255C17.1153 50.3871 16.8039 50.1498 16.4498 50.1956C16.0957 50.2413 15.8329 50.5526 15.8628 50.891C15.8928 51.2294 16.2042 51.4666 16.5583 51.4209Z" fill="#505DD6"/>
<path d="M16.486 54.0411C16.8402 53.9953 17.1029 53.684 17.073 53.3456C17.043 53.0072 16.7316 52.77 16.3775 52.8157C16.0234 52.8614 15.7606 53.1728 15.7906 53.5111C15.8205 53.8495 16.1319 54.0868 16.486 54.0411Z" fill="#505DD6"/>
<path d="M24.0661 47.6529C24.4202 47.6072 24.683 47.2958 24.6531 46.9574C24.6231 46.619 24.3117 46.3818 23.9576 46.4275C23.6035 46.4732 23.3407 46.7846 23.3707 47.1229C23.4006 47.4613 23.712 47.6986 24.0661 47.6529Z" fill="#505DD6"/>
<path d="M26.6325 45.896C26.9866 45.8503 27.2494 45.539 27.2195 45.2006C27.1895 44.8622 26.8781 44.6249 26.524 44.6707C26.1699 44.7164 25.9071 45.0277 25.9371 45.3661C25.967 45.7045 26.2784 45.9417 26.6325 45.896Z" fill="#505DD6"/>
<path d="M28.3633 7.36377L29.0875 15.1473C29.1574 15.8983 40.0438 14.5617 39.9739 13.8107L39.256 6.0954L28.3633 7.36377Z" fill="#3240BD"/>
<path d="M34.6277 15.5044C33.2135 15.6781 31.8636 15.7748 30.7966 15.8367C29.4404 15.8651 28.6499 15.824 28.599 15.2775L27.8301 7.01221L39.5744 5.63905L40.3307 13.7677C40.3815 14.3142 39.6935 14.606 38.2856 14.8479C37.3854 15.1657 36.0419 15.3307 34.6277 15.5044ZM29.4992 14.9597C30.0069 15.0355 31.723 15.0321 34.5514 14.6847C37.3799 14.3374 39.0579 13.924 39.5401 13.7266L38.8792 6.62257L28.8319 7.78733L29.4992 14.9597Z" fill="#505DD6"/>
<path d="M33.9342 8.74585C37.1577 8.35437 39.663 6.88939 39.5298 5.47373C39.3966 4.05807 36.6755 3.2278 33.4519 3.61928C30.2284 4.01077 27.7232 5.47575 27.8564 6.89141C27.9895 8.30707 30.7107 9.13733 33.9342 8.74585Z" fill="#505DD6"/>
<path d="M36 8.09645C36 8.09645 35.9265 10.3976 36.8106 10.6362C37.7658 10.866 39.5357 9.81489 39.5357 9.81489L39.2486 6.7246C39.2486 6.7246 38.3827 7.45618 36 8.09645Z" fill="#FF773B"/>
<path d="M37.3548 11.1227C37.0705 11.1577 36.8509 11.1152 36.6312 11.0727C35.4493 10.7314 35.4645 8.57464 35.4909 8.0848L35.5301 7.73243L35.8791 7.62001C38.1217 6.99671 38.9947 6.33327 38.9947 6.33327L39.6608 5.76479L39.7374 6.58952L40.0503 9.95716L39.8498 10.1208C39.5719 10.2245 38.421 10.9916 37.3548 11.1227ZM36.3822 8.3923C36.3878 9.22577 36.6129 10.1017 36.91 10.2042C37.3557 10.358 38.3252 9.96073 39.0041 9.5297L38.8061 7.39914C38.4052 7.72649 37.5778 8.10627 36.3822 8.3923Z" fill="#505DD6"/>
</svg>
