<svg width="57" height="57" viewBox="0 0 57 57" fill="none" xmlns="http://www.w3.org/2000/svg">
<path d="M28.5 57C44.2401 57 57 44.2401 57 28.5C57 12.7599 44.2401 0 28.5 0C12.7599 0 0 12.7599 0 28.5C0 44.2401 12.7599 57 28.5 57Z" fill="#FF773B"/>
<path d="M3.36609 15.0468C3.36609 15.0468 13.1021 17.5251 21.245 12.0375C29.3878 6.54992 31.335 0.177246 31.335 0.177246C31.335 0.177246 32.7512 0.354266 33.4593 0.531285C34.3443 0.708303 35.7605 1.06234 35.7605 1.06234C35.7605 1.06234 32.2201 9.91327 24.2543 15.2238C17.1735 20.0033 9.03068 20.1804 2.12695 18.4102C2.83503 16.1089 3.36609 15.0468 3.36609 15.0468Z" fill="#505DD6"/>
<path d="M53.4608 41.9534C53.4608 41.9534 43.7248 39.4752 35.5819 44.9628C27.6161 50.4503 25.4919 56.823 25.4919 56.823C25.4919 56.823 24.0757 56.646 23.3676 56.469C22.4826 56.2919 21.0664 55.9379 21.0664 55.9379C21.0664 55.9379 24.6068 47.087 32.5726 41.7764C39.6534 36.9969 47.7962 36.8199 54.7 38.5901C54.1689 40.8913 53.4608 41.9534 53.4608 41.9534Z" fill="#505DD6"/>
<path d="M28.6767 27.9688C26.7295 28.8539 27.0835 30.9781 26.0214 33.4563C24.4282 36.9967 25.8444 38.9439 27.6146 38.7669C29.3847 38.5899 30.0928 36.1116 31.863 35.4035C33.6332 34.6955 35.7574 35.9346 37.1736 34.6955C38.5897 33.6334 38.2357 31.1551 34.5183 29.739C31.863 28.8539 30.6239 27.0837 28.6767 27.9688Z" fill="#505DD6"/>
<path d="M23.0128 28.8541C24.429 29.7392 25.1371 31.1554 24.606 32.2175C24.075 33.1026 22.3048 33.2796 20.8886 32.3945C19.4725 31.5094 18.7644 30.0933 19.2955 29.0312C19.8265 27.969 21.5967 27.969 23.0128 28.8541Z" fill="#505DD6"/>
<path d="M33.1018 24.6055C32.7478 26.3757 33.2788 28.1458 34.518 28.3229C35.7571 28.6769 36.9962 27.2608 37.3503 25.4906C37.7043 23.7204 37.1732 21.9502 35.9341 21.7732C34.872 21.4191 33.6329 22.6583 33.1018 24.6055Z" fill="#505DD6"/>
<path d="M25.4901 23.0122C26.3752 24.4283 26.3752 26.1985 25.4901 26.7296C24.605 27.2606 23.0118 26.7296 22.1267 25.1364C21.2416 23.7202 21.2416 21.9501 22.1267 21.419C23.0118 20.8879 24.605 21.596 25.4901 23.0122Z" fill="#505DD6"/>
<path d="M27.0843 22.3043C27.4383 24.2515 28.8545 25.4906 30.0936 25.1366C31.3327 24.7826 31.8638 23.1894 31.5097 21.2422C31.1557 19.295 29.7396 18.0559 28.5004 18.4099C27.4383 18.7639 26.7302 20.5341 27.0843 22.3043Z" fill="#505DD6"/>
</svg>
