<svg width="108" height="117" viewBox="0 0 108 117" fill="none" xmlns="http://www.w3.org/2000/svg">
<path d="M8.65097 49.7442C8.65097 49.7442 11.0012 66.9788 18.2536 73.6192C20.8359 75.5072 32.6616 78.2318 51.6851 74.9332C72.7661 71.2931 85.3186 62.9971 88.8813 56.4036C92.444 49.8101 88.7121 35.2694 86.2111 28.5166C87.077 38.0754 86.8629 45.2713 69.8547 54.8747C64.5965 57.8624 43.1024 68.2183 22.2536 61.8141C18.7753 60.4169 9.81252 57.8467 8.65097 49.7442Z" fill="#505DD6"/>
<path d="M64.2979 99.9041C71.5124 96.6978 75.078 88.5664 72.262 81.7422C69.4459 74.918 61.3146 71.9852 54.1001 75.1915C46.8856 78.3978 43.32 86.5292 46.136 93.3534C48.9521 100.178 57.0834 103.11 64.2979 99.9041Z" fill="#FAE6CE"/>
<path d="M64.4644 100.306C56.9515 103.645 48.5239 100.605 45.5914 93.4986C42.6589 86.3921 46.3877 78.0453 53.9006 74.7064C61.4135 71.3674 69.841 74.4071 72.7736 81.5136C75.7061 88.6201 71.8919 97.0048 64.4644 100.306ZM54.3005 75.6755C47.3852 78.7488 44.0353 86.5449 46.7013 93.0053C49.3672 99.4657 57.1492 102.41 64.0645 99.3367C70.9798 96.2634 74.3297 88.4673 71.6637 82.0069C68.9978 75.5464 61.2158 72.6021 54.3005 75.6755Z" fill="#505DD6"/>
<path d="M57.5061 80.0143C58.9186 79.3878 59.6144 77.7934 59.0602 76.4531C58.5059 75.1128 56.9115 74.5341 55.499 75.1606C54.0865 75.7871 53.3907 77.3815 53.945 78.7218C54.4992 80.0621 56.0936 80.6407 57.5061 80.0143Z" fill="#505DD6"/>
<path d="M56.7275 60.8809C56.7275 60.8809 52.9794 53.7844 46.4689 58.4025C39.9584 63.0207 39.9027 73.9204 47.969 76.9856C50.2373 77.8087 57.5601 79.5674 57.1387 76.097C56.6036 74.3132 53.3856 74.8734 51.8128 72.2984C50.2064 69.642 49.8957 64.9678 52.1714 62.1305C52.4959 62.1791 56.7275 60.8809 56.7275 60.8809Z" fill="#FF773B"/>
<path d="M56.3535 78.3695C53.8676 79.4714 49.0226 78.0588 47.7953 77.5443C44.0614 76.1203 41.6902 72.8413 41.3243 68.7696C41.0104 64.5787 42.9188 60.3649 46.1826 57.9559C48.1574 56.5994 50.0585 56.0454 51.9194 56.3752C55.3505 57.0674 57.1737 60.4931 57.2074 60.5744C57.2747 60.7371 57.2562 60.9377 57.2041 61.057C57.1521 61.1763 57.0143 61.3336 56.8428 61.4096C55.1989 61.8496 53.2122 62.4416 52.4591 62.583C50.4931 65.1865 50.7549 69.4967 52.2601 71.9087C53.0556 73.0957 54.1635 73.5668 55.2377 73.9567C56.312 74.3465 57.3006 74.7743 57.6186 75.788L57.6522 75.8693C57.7988 76.9591 57.2476 77.5883 56.8863 77.9409C56.7821 78.1795 56.525 78.2935 56.3535 78.3695ZM48.4049 57.9331C47.8906 58.161 47.4099 58.4703 46.8435 58.8176C43.8553 60.912 42.1031 64.7679 42.4539 68.5576C42.771 72.266 44.8882 75.1765 48.264 76.4706C50.3268 77.2882 54.97 78.213 56.259 77.1605C56.3968 77.0032 56.6203 76.8079 56.5899 76.244C56.3544 75.6748 55.7576 75.4582 54.8027 75.1117C53.6091 74.6786 52.2624 74.1208 51.2467 72.6466C49.4875 69.8661 49.1953 64.992 51.6604 61.8785C51.7982 61.7212 51.9697 61.6452 52.089 61.6885C52.3798 61.6559 54.0237 61.2159 55.7534 60.7378C55.0588 59.7948 53.6177 58.028 51.518 57.6116C50.5631 57.2651 49.5193 57.4391 48.4049 57.9331Z" fill="#505DD6"/>
<path d="M15.3576 58.3218C15.3576 58.3218 6.72726 53.6359 9.11924 44.7446C11.5112 35.8533 24.7121 24.6445 42.3253 20.4557C56.0998 17.1121 70.2329 15.5925 79.6945 21.7994C84.5006 24.964 87.055 30.6331 85.9601 36.4029C85.7345 37.5409 85.3914 38.6364 84.8467 39.7265C84.0363 37.5355 81.3216 27.8779 48.6991 33.8787C16.0766 39.8794 13.5414 55.6307 15.3576 58.3218Z" fill="#3240BD"/>
<path d="M84.71 41.0379L84.2639 39.7235C81.5847 32.3106 69.6536 30.4948 48.7897 34.3242C39.1906 36.2017 31.4531 38.9575 25.7791 42.5968C20.2406 46.0817 17.7292 49.6468 16.6212 52.0254C15.2061 55.1063 15.4114 57.2828 15.8272 58.0438L17.1439 60.0128L15.0653 58.8526C14.9478 58.81 12.8361 57.5699 10.8989 55.3081C8.39528 52.163 7.59336 48.5497 8.59262 44.7077C9.78149 40.1208 13.8167 34.9381 19.6472 30.4741C25.9173 25.6269 33.9468 21.892 42.2176 19.9399C53.3858 17.2749 69.4998 14.504 80.0374 21.375C85.0803 24.6268 87.6507 30.5764 86.5374 36.5469C86.2937 37.8825 85.8662 39.0159 85.2881 40.0269L84.71 41.0379ZM31.1699 38.5158C35.6394 36.542 41.3861 34.7599 48.5937 33.3717C62.2168 30.8506 72.3434 30.7239 78.5186 33.0978C82.546 34.6255 84.164 36.8393 84.7938 38.356C85.0497 37.7706 85.1881 37.1427 85.3777 36.3977C86.4038 30.9381 83.9991 25.3877 79.3087 22.2636C69.2742 15.6428 53.4463 18.3818 42.4467 20.9723C24.7425 25.2011 11.9404 36.428 9.66796 44.8941C8.73792 48.4221 9.45843 51.599 11.7783 54.5419C12.646 55.6702 13.6672 56.4472 14.4204 57.0592C14.2605 55.7129 14.5914 53.8664 15.5971 51.722C17.2169 48.1728 21.3032 42.8731 31.1699 38.5158Z" fill="#505DD6"/>
<path d="M52.0323 62.653C51.8628 62.7281 51.66 62.7228 51.542 62.68C51.2727 62.514 51.2243 62.155 51.3273 61.9192C52.1811 60.5901 52.844 60.0111 52.9288 59.9736C53.1497 59.7806 53.5553 59.7912 53.7399 59.9947C53.9244 60.1983 53.888 60.5948 53.667 60.7877C53.667 60.7877 53.0556 61.2488 52.338 62.4225C52.2865 62.5404 52.2018 62.5779 52.0323 62.653Z" fill="#505DD6"/>
</svg>
