<svg width="79" height="76" viewBox="0 0 79 76" fill="none" xmlns="http://www.w3.org/2000/svg">
<g id="Group 533">
<g id="Group 463">
<path id="Vector" d="M43.3733 12.3895L43.3919 12.3908L43.4105 12.3912C44.4069 12.4097 45.4241 11.9974 46.072 11.1678C47.1061 9.86308 49.03 7.57286 51.131 5.79609C52.1837 4.9058 53.2486 4.17234 54.2417 3.74788C55.2391 3.32155 56.0692 3.24548 56.7323 3.50983C57.6908 3.89709 58.4641 4.70542 59.08 5.84329C59.6964 6.98219 60.1248 8.3975 60.4129 9.89384C60.9889 12.8858 60.9778 16.0572 60.9015 17.6275L60.9013 17.6307C60.8617 18.5232 61.1975 19.4415 61.8993 20.061C66.4976 24.3738 70.32 30.8291 71.1135 37.9396C71.9035 45.0192 69.7002 52.8112 62.1345 59.8815C43.9975 76.8308 19.4043 69.3395 11.4692 53.4488C6.66213 43.7956 8.58892 35.288 11.3447 29.548C11.7438 28.8181 11.7986 28.0103 11.5397 27.225C11.0784 25.7889 10.2436 22.8362 9.9982 19.8021C9.74814 16.7106 10.1333 13.8075 11.812 12.1936C12.3601 11.6798 13.2232 11.4124 14.3826 11.3944C15.5339 11.3766 16.8746 11.6071 18.2505 11.975C20.9865 12.7065 23.7153 13.9398 25.085 14.5973C25.8251 15.0012 26.6822 15.0397 27.4581 14.7833C29.9341 13.9723 36.8542 11.9367 43.3733 12.3895Z" fill="white" stroke="#505DD6" stroke-width="1.4663"/>
<path id="Vector_2" d="M38.033 52.0682C38.033 52.0682 35.1902 48.1355 38.2988 47.4635C41.4073 46.7916 43.215 46.636 43.215 46.636C43.215 46.636 45.9389 46.6235 45.3492 49.5975C44.7112 52.5796 44.3772 54.7176 42.465 54.8412C40.5528 54.9648 38.033 52.0682 38.033 52.0682Z" fill="#505DD6"/>
<path id="Vector_3" d="M48.1663 37.7732C49.6304 37.5267 50.4649 35.2338 50.0302 32.6517C49.5956 30.0696 48.0564 28.1762 46.5923 28.4227C45.1283 28.6691 44.2938 30.9621 44.7284 33.5441C45.163 36.1262 46.7023 38.0196 48.1663 37.7732Z" fill="#505DD6"/>
<path id="Vector_4" d="M31.5882 40.5642C33.0522 40.3177 33.8868 38.0248 33.4521 35.4427C33.0175 32.8606 31.4783 30.9672 30.0142 31.2137C28.5501 31.4601 27.7156 33.7531 28.1503 36.3352C28.5849 38.9172 30.1241 40.8106 31.5882 40.5642Z" fill="#505DD6"/>
<path id="Vector_5" d="M51.3828 58.3462C51.3828 58.3462 48.65 56.8338 43.3258 57.7199C37.802 58.6393 35.9593 60.9425 35.9593 60.9425" stroke="#505DD6" stroke-width="1.4663" stroke-miterlimit="10" stroke-linecap="round" stroke-linejoin="round"/>
<path id="Vector_6" d="M49.8768 22.9132C49.8768 22.9132 46.4377 25.7225 41.6831 24.2925" stroke="#505DD6" stroke-width="1.4663" stroke-miterlimit="10" stroke-linecap="round" stroke-linejoin="round"/>
<path id="Vector_7" d="M32.5252 25.8341C32.5252 25.8341 29.0861 28.6434 24.3315 27.2134" stroke="#505DD6" stroke-width="1.4663" stroke-miterlimit="10" stroke-linecap="round" stroke-linejoin="round"/>
<path id="Vector_8" d="M44.4811 48.2571C44.4811 48.2571 62.5855 38.9149 69.7657 36.8141" stroke="#505DD6" stroke-width="1.4663" stroke-miterlimit="10" stroke-linecap="round" stroke-linejoin="round"/>
<path id="Vector_9" d="M44.5099 49.8881C44.5099 49.8881 62.8921 43.3739 74.8119 40.5744" stroke="#505DD6" stroke-width="1.4663" stroke-miterlimit="10" stroke-linecap="round" stroke-linejoin="round"/>
<path id="Vector_10" d="M43.9993 51.8577C44.184 51.7771 66.2961 46.221 73.912 45.2364" stroke="#505DD6" stroke-width="1.4663" stroke-miterlimit="10" stroke-linecap="round" stroke-linejoin="round"/>
<path id="Vector_11" d="M38.0554 49.537C38.0554 49.537 17.8902 46.6368 10.418 47.0024" stroke="#505DD6" stroke-width="1.4663" stroke-miterlimit="10" stroke-linecap="round" stroke-linejoin="round"/>
<path id="Vector_12" d="M38.611 51.079C38.611 51.079 19.1091 50.9418 6.92969 52.199" stroke="#505DD6" stroke-width="1.4663" stroke-miterlimit="10" stroke-linecap="round" stroke-linejoin="round"/>
<path id="Vector_13" d="M39.6911 52.7807C39.4902 52.765 16.7777 54.7544 9.25924 56.3173" stroke="#505DD6" stroke-width="1.4663" stroke-miterlimit="10" stroke-linecap="round" stroke-linejoin="round"/>
</g>
<path id="Vector_14" d="M11.4599 35.097C10.3911 35.9713 9.41795 37.0186 8.67182 38.3356C8.81141 37.2592 9.01231 36.2081 9.24549 35.228C9.80773 32.8646 10.5373 30.9971 10.985 30.2349C11.5728 29.2343 11.6645 28.3807 11.5354 27.6138C11.4743 27.2505 11.3665 26.924 11.2688 26.6473C11.2461 26.5833 11.2246 26.5231 11.204 26.4658C11.13 26.2595 11.0695 26.0908 11.0236 25.9164L11.0237 25.9164L11.0217 25.9093C10.4519 23.8305 9.87342 21.0242 9.84002 18.4039C9.80606 15.7402 10.3379 13.4926 11.7442 12.2721C12.4411 11.6679 13.4618 11.3962 14.7396 11.4062C16.0108 11.4162 17.4438 11.7052 18.8562 12.1191C20.9703 12.7387 22.8826 13.5819 24.0925 14.1154C24.5215 14.3046 24.8622 14.4549 25.0922 14.5424L25.1016 14.5459L25.1111 14.5492C25.4902 14.6817 25.9243 14.7155 26.3149 14.7132C26.7165 14.7109 27.1294 14.6694 27.4935 14.6179C27.8394 14.569 28.1525 14.5095 28.3862 14.4604C28.4593 14.5498 28.5425 14.6589 28.6281 14.7856C28.8989 15.1865 29.1723 15.7319 29.2506 16.3599C29.3265 16.9693 29.225 17.6971 28.6849 18.5078C28.1344 19.3339 27.1065 20.2773 25.2737 21.2431C23.3071 22.2749 22.039 23.2741 21.2061 24.2629C20.3629 25.264 19.997 26.2176 19.7804 27.0951C19.6852 27.4808 19.6181 27.8303 19.5563 28.1523C19.3315 29.3233 19.1768 30.1294 17.9938 30.9837C17.2797 31.4994 16.436 31.9728 15.4996 32.4982C15.3185 32.5999 15.1339 32.7034 14.9461 32.8096C13.8086 33.4529 12.5845 34.177 11.4599 35.097Z" fill="#FF773B" stroke="#505DD6" stroke-width="1.4663"/>
</g>
</svg>
