<svg width="78" height="79" viewBox="0 0 78 79" fill="none" xmlns="http://www.w3.org/2000/svg">
<g id="Group 465">
<g id="Group">
<g id="Group_2">
<path id="Vector" d="M49.697 13.4964C49.697 13.4964 50.8399 12.0601 51.7625 8.68936C52.6209 5.52897 56.5895 0.0728221 63.9891 4.67644C67.4561 6.83264 69.0336 9.37157 72.0295 11.3431C77.1991 14.6559 77.905 17.5235 76.5353 19.2152C73.9668 22.3937 67.4022 17.139 64.6333 14.9122C61.8644 12.6853 58.3067 9.18905 52.8645 16.2781" fill="#FF773B"/>
</g>
</g>
<g id="Vector_2">
<mask id="path-2-inside-1_2060_8149" fill="white">
<path d="M31.0279 12.7955C31.0279 12.7955 29.8966 10.9207 29.3276 7.47265C28.8009 4.24042 25.418 -1.59706 17.5819 2.21627C13.9104 4.00219 12.0786 6.36427 8.8949 8.01525C3.41021 10.7754 2.4114 13.5546 3.59874 15.3789C5.82465 18.8061 12.8977 14.2588 15.8821 12.3304C18.8666 10.402 22.7669 7.29259 27.4464 14.9066"/>
</mask>
<path d="M31.0279 12.7955C31.0279 12.7955 29.8966 10.9207 29.3276 7.47265C28.8009 4.24042 25.418 -1.59706 17.5819 2.21627C13.9104 4.00219 12.0786 6.36427 8.8949 8.01525C3.41021 10.7754 2.4114 13.5546 3.59874 15.3789C5.82465 18.8061 12.8977 14.2588 15.8821 12.3304C18.8666 10.402 22.7669 7.29259 27.4464 14.9066" fill="white"/>
<path d="M29.3276 7.47265L27.7482 7.73005L27.7487 7.73319L29.3276 7.47265ZM17.5819 2.21627L18.2819 3.65535L18.2821 3.65524L17.5819 2.21627ZM8.8949 8.01525L9.61429 9.44474L9.62298 9.44037L9.6316 9.4359L8.8949 8.01525ZM3.59874 15.3789L4.94082 14.5072L4.93998 14.506L3.59874 15.3789ZM31.0279 12.7955C32.3981 11.9687 32.3983 11.9691 32.3985 11.9695C32.3986 11.9696 32.3988 11.97 32.399 11.9702C32.3993 11.9707 32.3995 11.9712 32.3998 11.9716C32.4003 11.9724 32.4007 11.9731 32.4011 11.9737C32.4018 11.9749 32.4023 11.9757 32.4025 11.976C32.4028 11.9767 32.4022 11.9756 32.4005 11.9727C32.3972 11.9669 32.3898 11.9541 32.3789 11.9343C32.357 11.8947 32.3207 11.8272 32.2733 11.7324C32.1783 11.5427 32.0388 11.2441 31.8803 10.8413C31.5634 10.0355 31.1709 8.81379 30.9066 7.21212L27.7487 7.73319C28.0534 9.57961 28.511 11.0193 28.9019 12.013C29.0974 12.5098 29.2763 12.8954 29.4112 13.1651C29.4787 13.2999 29.5353 13.4058 29.5775 13.4822C29.5986 13.5204 29.6161 13.5512 29.6296 13.5746C29.6364 13.5863 29.6421 13.5961 29.6468 13.6041C29.6492 13.608 29.6513 13.6116 29.6531 13.6146C29.654 13.6161 29.6548 13.6175 29.6556 13.6188C29.656 13.6195 29.6564 13.6201 29.6567 13.6207C29.6569 13.621 29.6572 13.6214 29.6572 13.6215C29.6575 13.6219 29.6577 13.6223 31.0279 12.7955ZM30.9071 7.21526C30.5962 5.30752 29.4599 2.61146 27.1421 0.911863C24.6818 -0.892313 21.2246 -1.33613 16.8816 0.777304L18.2821 3.65524C21.7753 1.95534 23.9276 2.5236 25.2495 3.49289C26.7139 4.56676 27.5323 6.40556 27.7482 7.73005L30.9071 7.21526ZM16.8819 0.777192C14.887 1.74755 13.401 2.87284 12.0745 3.90199C10.7303 4.94491 9.59578 5.84912 8.1582 6.5946L9.6316 9.4359C11.3777 8.53041 12.751 7.42808 14.0365 6.43075C15.3397 5.41963 16.6053 4.47092 18.2819 3.65535L16.8819 0.777192ZM8.17551 6.58576C5.31571 8.02495 3.39544 9.57622 2.38509 11.2042C1.31578 12.9271 1.28111 14.7517 2.25749 16.2519L4.93998 14.506C4.72903 14.1818 4.6001 13.7047 5.10453 12.8919C5.66792 11.9841 6.9894 10.7657 9.61429 9.44474L8.17551 6.58576ZM2.25666 16.2506C3.173 17.6615 4.59569 18.1845 5.99748 18.2194C7.33313 18.2527 8.75239 17.8582 10.0406 17.3527C12.6331 16.3353 15.2784 14.6258 16.7506 13.6745L15.0136 10.9863C13.5013 11.9634 11.1179 13.4917 8.87138 14.3733C7.74001 14.8173 6.78712 15.0375 6.07728 15.0198C5.43358 15.0038 5.13743 14.81 4.94082 14.5072L2.25666 16.2506ZM16.7506 13.6745C17.5551 13.1547 18.2567 12.6674 19.0248 12.2703C19.7731 11.8835 20.4458 11.6615 21.0838 11.6395C22.1805 11.6017 23.8771 12.1553 26.083 15.7446L28.8098 14.0687C26.3362 10.0439 23.7429 8.34527 20.9735 8.44076C19.6783 8.48541 18.5239 8.92638 17.5552 9.42705C16.6065 9.91744 15.7014 10.5419 15.0136 10.9863L16.7506 13.6745Z" fill="#505DD6" mask="url(#path-2-inside-1_2060_8149)"/>
</g>
<g id="Vector_3">
<mask id="path-4-inside-2_2060_8149" fill="white">
<path d="M49.4633 13.6983C49.4633 13.6983 50.8303 12.0599 51.753 8.68919C52.6113 5.5288 56.58 0.0726453 63.9795 4.67627C67.4465 6.83246 69.0241 9.37139 72.0199 11.3429C77.1896 14.6557 77.8955 17.5233 76.5258 19.215C73.9572 22.3935 67.3926 17.1388 64.6237 14.912C61.8548 12.6852 58.2971 9.18888 52.855 16.2779"/>
</mask>
<path d="M49.4633 13.6983C49.4633 13.6983 50.8303 12.0599 51.753 8.68919C52.6113 5.5288 56.58 0.0726453 63.9795 4.67627C67.4465 6.83246 69.0241 9.37139 72.0199 11.3429C77.1896 14.6557 77.8955 17.5233 76.5258 19.215C73.9572 22.3935 67.3926 17.1388 64.6237 14.912C61.8548 12.6852 58.2971 9.18888 52.855 16.2779" fill="#FF773B"/>
<path d="M51.753 8.68919L53.2965 9.11169L53.2973 9.10862L51.753 8.68919ZM63.9795 4.67627L63.1342 6.03506L63.1344 6.0352L63.9795 4.67627ZM72.0199 11.3429L71.1402 12.6797L71.1483 12.685L71.1565 12.6903L72.0199 11.3429ZM76.5258 19.215L75.282 18.208L75.2811 18.2092L76.5258 19.215ZM49.4633 13.6983C50.6921 14.7235 50.6925 14.7231 50.6928 14.7227C50.6929 14.7225 50.6933 14.7221 50.6935 14.7218C50.694 14.7212 50.6946 14.7206 50.6951 14.7199C50.6962 14.7186 50.6973 14.7172 50.6986 14.7157C50.701 14.7127 50.7038 14.7093 50.707 14.7055C50.7132 14.6978 50.7208 14.6885 50.7295 14.6775C50.7471 14.6555 50.7695 14.6269 50.7964 14.5916C50.8503 14.5211 50.9219 14.4238 51.0078 14.2995C51.1795 14.0511 51.4081 13.6948 51.6643 13.229C52.1769 12.2971 52.7992 10.9283 53.2965 9.11169L50.2094 8.26668C49.7841 9.82077 49.2615 10.9565 48.86 11.6865C48.6591 12.0517 48.4883 12.3156 48.3749 12.4797C48.3182 12.5617 48.2759 12.6188 48.2513 12.6509C48.2391 12.667 48.2312 12.6769 48.2283 12.6806C48.2268 12.6824 48.2266 12.6827 48.2276 12.6815C48.2281 12.6808 48.229 12.6798 48.2301 12.6784C48.2307 12.6777 48.2313 12.6769 48.2321 12.676C48.2325 12.6756 48.2329 12.6751 48.2333 12.6746C48.2335 12.6744 48.2338 12.674 48.2339 12.6738C48.2342 12.6735 48.2346 12.6731 49.4633 13.6983ZM53.2973 9.10862C53.6491 7.81356 54.6534 6.06931 56.221 5.15272C57.636 4.32539 59.8356 3.98287 63.1342 6.03506L64.8249 3.31747C60.7239 0.766038 57.2394 0.849786 54.6055 2.38973C52.1244 3.8404 50.7152 6.40442 50.2086 8.26975L53.2973 9.10862ZM63.1344 6.0352C64.7176 7.01986 65.8783 8.09441 67.0699 9.23494C68.2452 10.3599 69.4971 11.5984 71.1402 12.6797L72.8996 10.0061C71.5469 9.11588 70.512 8.09915 69.2829 6.92274C68.0701 5.76188 66.7084 4.48888 64.8247 3.31734L63.1344 6.0352ZM71.1565 12.6903C73.6306 14.2758 74.8189 15.6244 75.2854 16.5856C75.703 17.4462 75.5254 17.9074 75.282 18.208L77.7695 20.222C78.8959 18.8309 79.0502 17.0125 78.1648 15.1882C77.3283 13.4645 75.5789 11.7229 72.8833 9.99551L71.1565 12.6903ZM75.2811 18.2092C75.0542 18.4899 74.7396 18.652 74.0977 18.6014C73.3898 18.5456 72.4648 18.2279 71.3855 17.6693C69.2422 16.56 67.0297 14.7933 65.6266 13.6649L63.6208 16.159C64.9867 17.2575 67.4409 19.2316 69.9143 20.5117C71.1433 21.1478 72.5141 21.687 73.846 21.7921C75.2439 21.9023 76.7131 21.5293 77.7705 20.2208L75.2811 18.2092ZM65.6266 13.6649C64.9885 13.1518 64.1529 12.437 63.26 11.8511C62.3483 11.2529 61.2457 10.6948 59.9621 10.5164C57.2174 10.1349 54.4623 11.5562 51.5856 15.3034L54.1243 17.2524C56.6898 13.9106 58.4346 13.5355 59.5215 13.6866C60.1537 13.7744 60.7998 14.0649 61.5041 14.527C62.227 15.0014 62.8744 15.5588 63.6208 16.159L65.6266 13.6649Z" fill="#505DD6" mask="url(#path-4-inside-2_2060_8149)"/>
</g>
<path id="Vector_4" d="M45.6024 63.4413C46.3026 63.8284 46.3028 63.8282 46.3029 63.8279L46.3033 63.8272L46.3043 63.8253L46.3076 63.8193L46.3189 63.7986C46.3283 63.7811 46.3417 63.7562 46.3585 63.7243C46.3921 63.6605 46.4396 63.5687 46.4972 63.4528C46.6123 63.2211 46.7688 62.8917 46.9369 62.495C47.2703 61.708 47.6618 60.6279 47.857 59.5085C48.0487 58.409 48.0734 57.1478 47.5344 56.0884C46.9612 54.9617 45.844 54.2365 44.1477 54.0724C41.1537 53.7828 38.5423 53.6339 36.6786 53.5574C35.7466 53.5191 35.001 53.4989 34.4876 53.4883C34.2308 53.483 34.032 53.48 33.8969 53.4785C33.8741 53.4782 33.853 53.478 33.8338 53.4778C33.7963 53.4774 33.7659 53.4771 33.7428 53.4769L33.7033 53.4767L33.7028 53.4767L33.6964 53.4764C33.6809 53.4759 33.6602 53.4753 33.6347 53.475C33.5837 53.4743 33.5132 53.4743 33.4264 53.477C33.2533 53.4823 33.0128 53.498 32.7316 53.5393C32.1772 53.6208 31.4238 53.8078 30.7185 54.2465C29.9979 54.6948 29.3377 55.4016 29.0083 56.4758C28.6841 57.5335 28.704 58.8704 29.1832 60.552L29.1843 60.5561C30.1726 63.9554 31.3298 66.8466 33.0758 68.6282C29.4911 73.8086 26.0775 75.056 23.5826 75.0462C22.2629 75.0411 21.1347 74.6857 20.2939 74.2842C19.4328 73.873 18.927 73.4404 18.8408 73.3448L18.8179 73.3194L18.7929 73.296C15.2315 69.9668 13.485 63.4922 17.3867 55.2881C20.3462 49.1366 21.6597 44.8816 22.3647 40.3578C22.831 37.3659 23.0308 34.2416 23.277 30.3914C23.3987 28.4892 23.5316 26.4098 23.7137 24.0816L23.7138 24.0808C23.9465 21.0651 24.92 18.8381 26.2595 17.1801C27.6045 15.5153 29.3519 14.3838 31.186 13.6199C34.8742 12.0837 38.8081 12.0774 40.1439 12.1467C41.6104 12.2227 45.5066 12.5339 49.0039 14.3876C50.742 15.3088 52.3602 16.6001 53.54 18.4152C54.7163 20.2249 55.4865 22.6005 55.464 25.7433L55.464 25.7437C55.4445 28.6363 55.3695 31.1294 55.3018 33.3768C55.0393 42.0992 54.8882 47.1191 58.5279 57.4201L58.5289 57.4229C61.6003 66.0127 59.1637 72.2986 55.1024 75.244C54.6491 75.4947 52.672 76.5869 50.1068 76.3484C47.6075 76.116 44.3369 74.593 41.3369 69.1803C42.6977 68.2693 43.8605 67.0475 44.7024 66.0291C45.1934 65.4352 45.5862 64.8971 45.857 64.5063C45.9926 64.3106 46.098 64.1513 46.1703 64.0397C46.2064 63.9838 46.2343 63.9399 46.2536 63.9092L46.276 63.8733L46.2823 63.8631L46.2842 63.8601L46.2848 63.859L46.2851 63.8586C46.2852 63.8585 46.2852 63.8583 45.6024 63.4413ZM45.6024 63.4413L46.3026 63.8284L46.2943 63.8436L46.2852 63.8583L45.6024 63.4413ZM35.7422 28.6271C36.2919 29.2247 37.2162 29.2691 37.8208 28.7241C38.4558 28.1517 38.4357 27.2488 37.978 26.6379L37.9563 26.6088L37.932 26.5819C37.864 26.5065 37.3886 26.0186 36.6149 25.5423C35.8395 25.065 34.716 24.5697 33.3733 24.5626L33.3634 24.5625L33.3535 24.5627C31.6169 24.5965 29.9516 25.3759 28.5322 26.8685C27.8727 27.4916 28.0425 28.423 28.5043 28.9352L29.0986 28.3995L28.5043 28.9352C28.7795 29.2406 29.1566 29.364 29.475 29.3805C29.6483 29.3895 29.8459 29.3781 30.0534 29.3104C30.2645 29.2415 30.4426 29.1286 30.596 28.9903L30.6177 28.9707L30.6379 28.9496C31.6101 27.9353 32.5091 27.5471 33.3471 27.5507L33.3471 27.5508L33.359 27.5506C34.004 27.5438 34.5954 27.7965 35.0526 28.0851C35.2769 28.2267 35.4561 28.3689 35.5775 28.4742C35.6379 28.5266 35.683 28.569 35.7113 28.5964C35.7254 28.6101 35.7353 28.62 35.7406 28.6255L35.7422 28.6271ZM30.9137 33.5681C30.8511 34.7735 31.0697 35.9256 31.5083 36.8146C31.9318 37.6727 32.6653 38.4663 33.7015 38.5201C34.7377 38.5738 35.5493 37.8604 36.0593 37.0506C36.5876 36.2118 36.9242 35.0885 36.9867 33.8831C37.0492 32.6778 36.8307 31.5256 36.392 30.6366C35.9686 29.7785 35.2351 28.9849 34.1989 28.9311C33.1626 28.8774 32.351 29.5908 31.841 30.4006C31.3127 31.2394 30.9762 32.3627 30.9137 33.5681Z" fill="white" stroke="#505DD6" stroke-width="1.6003"/>
<path id="Vector_5" d="M21.4846 44.5973C21.4974 44.5464 21.5107 44.4929 21.5246 44.4367C21.655 43.909 21.8317 43.1485 22.0192 42.2101C22.3938 40.3352 22.8131 37.742 22.989 34.8741L22.9891 34.8741L22.9895 34.8666C23.0498 33.704 23.2093 31.3972 23.3544 29.3728C23.4268 28.3624 23.4955 27.4251 23.546 26.7404C23.5641 26.4952 23.5799 26.2824 23.5927 26.1102C23.679 26.0747 23.7772 26.0348 23.8865 25.9913C24.3581 25.8032 25.034 25.5467 25.8458 25.2752C27.4757 24.7301 29.6257 24.134 31.7591 23.9003C33.9157 23.664 35.9268 23.813 37.3746 24.6254C38.7433 25.3935 39.7518 26.8373 39.7699 29.5853C39.7754 35.5132 38.1725 37.8086 36.432 38.868C35.5179 39.4244 34.4841 39.6943 33.4041 39.8939C33.133 39.944 32.8501 39.9906 32.5631 40.0378C31.7718 40.1681 30.9499 40.3034 30.2613 40.5314C29.1656 40.8796 28.2369 41.4632 27.4183 42.0669C27.0333 42.3508 26.6633 42.6464 26.313 42.9262C26.2909 42.9439 26.2688 42.9615 26.2468 42.979C25.8721 43.2783 25.5206 43.5572 25.1707 43.808C24.4671 44.3122 23.8334 44.6543 23.1785 44.775C22.6872 44.8656 22.1376 44.8398 21.4846 44.5973Z" fill="#FF773B" stroke="#505DD6" stroke-width="1.6003"/>
<path id="Vector_6" d="M45.7389 63.3986C45.7389 63.3986 50.3138 55.0789 44.1574 54.4799C38.0011 53.881 33.4716 53.8697 33.4716 53.8697C33.4716 53.8697 27.7387 53.6283 29.6069 60.2129C31.2402 66.0023 33.3082 69.8008 37.0548 69.9951C41.5698 70.2852 45.7389 63.3986 45.7389 63.3986Z" fill="#505DD6"/>
<path id="Vector_7" d="M45.2487 38.3178C46.4844 38.3819 47.5789 36.645 47.6934 34.4384C47.8078 32.2318 46.8989 30.3911 45.6632 30.327C44.4275 30.2629 43.333 31.9997 43.2185 34.2063C43.1041 36.4129 44.013 38.2537 45.2487 38.3178Z" fill="#505DD6"/>
<path id="Vector_8" d="M33.7409 37.7209C34.9766 37.7849 36.0711 36.0481 36.1856 33.8415C36.3 31.6349 35.3911 29.7942 34.1554 29.7301C32.9197 29.666 31.8252 31.4028 31.7107 33.6094C31.5963 35.816 32.5052 37.6568 33.7409 37.7209Z" fill="#505DD6"/>
<path id="Vector_9" d="M50.0409 27.2221C50.0409 27.2221 46.4839 28.8603 43.1338 26.5102" stroke="#505DD6" stroke-width="1.39915" stroke-miterlimit="10" stroke-linecap="round"/>
<path id="Vector_10" d="M37.2557 26.559C37.2557 26.559 33.6987 28.1972 30.3487 25.8471" stroke="#505DD6" stroke-width="1.39915" stroke-miterlimit="10" stroke-linecap="round"/>
<path id="Vector_11" d="M42.0859 76.3677C42.0859 76.3677 40.5037 74.6914 36.8273 74.4925C33.0132 74.2862 31.4316 75.815 31.4316 75.815" stroke="#505DD6" stroke-width="1.6003" stroke-miterlimit="10" stroke-linecap="round" stroke-linejoin="round"/>
<path id="Vector 61" d="M36.9427 74.2167L37.1953 68.9343" stroke="#505DD6" stroke-width="1.06687"/>
</g>
</svg>
