<svg width="2261" height="136" viewBox="0 0 2261 136" fill="none" xmlns="http://www.w3.org/2000/svg">
<path d="M2259.78 6.7831C2165.59 -17.8294 2167.68 84.8009 2133.28 108.62C2098.88 132.438 2035.29 117.695 2002.93 78.5833C1970.56 39.4719 1959.93 21.0968 1913.35 23.3061C1867.76 25.469 1848.46 75.8251 1868.44 93.3403C1888.42 110.855 1915.44 101.033 1922.06 79.2117C1930.24 39.0221 1884.05 16.0169 1830.34 15.4878C1776.64 14.9586 1731.23 74.1186 1746.93 110.531C1762.62 146.944 1814.44 135.633 1813.14 102.336C1812.15 77.0554 1793.51 9.17754 1728.1 8.7476C1662.68 8.31766 1650.74 86.6398 1621.86 110.855C1583.13 143.326 1526.67 98.7178 1505.68 71.5521C1484.69 44.3864 1464.33 25.4095 1426.45 23.5508C1388.59 21.6922 1363.34 53.607 1364.8 78.4047C1366.26 103.202 1409.91 113.845 1423.95 82.9224C1437.99 51.9931 1390.56 11.744 1337.7 15.2959C1284.85 18.8479 1258.15 57.0267 1249.11 89.9735C1240.07 122.914 1274.38 142.473 1303.86 125.91C1333.35 109.347 1310.21 20.7794 1244.55 8.64839C1178.89 -3.48258 1168.46 47.1447 1143.11 91.0649C1121.58 128.377 1071.86 86.9374 1046.95 61.4915C1022.05 36.0456 1000.69 13.8804 965.105 21.0968C914.863 30.8731 900.384 89.312 935.273 97.5801C962.488 104.029 979.236 85.6542 977.972 62.5498C976.384 33.4924 911.209 6.19441 870.528 18.4841C829.846 30.7738 778.51 81.1961 800.783 110.862C820.666 137.353 860.44 131.367 866.719 112.33C872.999 93.2939 857.297 17.3001 793.297 10.0374C729.297 2.77472 712.112 50.2535 703.443 78.6892C694.012 109.612 676.227 114.282 656.871 115.988C601.921 118.125 581.511 58.7399 530.41 33.5321C479.309 8.32427 442.306 27.1226 436.205 65.5263C430.104 103.93 479.463 107.019 490.442 92.8442C509.79 68.4169 489.932 39.5182 459.143 25.7138C410.043 4.64662 361.454 22.2213 334.619 58.5018C307.784 94.7822 320.699 137.77 366.161 128.41C409.857 119.415 386.79 19.0199 305.597 9.30984C224.404 -0.400228 225.652 101.046 197.294 123.476C169.627 145.359 101.007 71.7866 97.6802 68.1891C97.5732 68.0735 97.5036 67.9945 97.3989 67.8768C94.2137 64.2935 42.8217 7.41975 1 20.3296" stroke="#FFDEB6" stroke-width="5.72" stroke-miterlimit="10"/>
</svg>
