<svg width="29" height="29" viewBox="0 0 29 29" fill="none" xmlns="http://www.w3.org/2000/svg">
<g id="mynaui:store">
<path id="Vector" d="M24.1622 12.8337V22.9583C24.1622 23.5993 23.9076 24.214 23.4544 24.6672C23.0012 25.1204 22.3865 25.375 21.7456 25.375H7.25523C6.6145 25.3747 6.00013 25.1199 5.54717 24.6667C5.09422 24.2136 4.83978 23.5991 4.83978 22.9583V12.8337M9.06532 10.5729L9.66948 3.625M9.06532 10.5729C9.06532 14.0795 14.5004 14.0795 14.5004 10.5729M9.06532 10.5729C9.06532 14.4106 2.83636 13.6179 3.70878 10.2733L4.97148 5.43146C5.10643 4.91433 5.409 4.45652 5.83184 4.12966C6.25468 3.80279 6.77395 3.62532 7.3084 3.625H21.6924C22.2268 3.62532 22.7461 3.80279 23.169 4.12966C23.5918 4.45652 23.8944 4.91433 24.0293 5.43146L25.292 10.2733C26.1644 13.6191 19.9355 14.4106 19.9355 10.5729M14.5004 10.5729V3.625M14.5004 10.5729C14.5004 14.0795 19.9355 14.0795 19.9355 10.5729M19.9355 10.5729L19.3313 3.625" stroke="white" stroke-width="1.59822" stroke-linecap="round" stroke-linejoin="round"/>
<path id="Vector 16" d="M8.45898 25.375V18.5745C8.45898 18.3262 8.66023 18.125 8.90848 18.125H12.8428C13.0911 18.125 13.2923 18.3262 13.2923 18.5745V25.375" stroke="white" stroke-width="1.49833"/>
<g id="Rectangle 101">
<mask id="path-3-inside-1_1979_3786" fill="white">
<rect x="15.709" y="15.7084" width="6.04167" height="3.625" rx="0.4495"/>
</mask>
<rect x="15.709" y="15.7084" width="6.04167" height="3.625" rx="0.4495" stroke="white" stroke-width="2.39733" mask="url(#path-3-inside-1_1979_3786)"/>
</g>
</g>
</svg>
